<?xml version="1.0" encoding="utf-8"?>
<!-- Generator: Adobe Illustrator 21.0.0, SVG Export Plug-In . SVG Version: 6.00 Build 0)  -->
<svg version="1.1" id="Layer_1" xmlns="http://www.w3.org/2000/svg" xmlns:xlink="http://www.w3.org/1999/xlink" x="0px" y="0px"
	 viewBox="0 0 1706 423" style="enable-background:new 0 0 1706 423;" xml:space="preserve">
<style type="text/css">
	.st0{fill:#FFFFFF;}
	.st1{fill:#FFFFFF;enable-background:new    ;}
</style>
<g>
	<path class="st0" d="M186.8,414.7c-14.8,0-28.8,0.4-42.7-0.2c-6.7-0.3-11.2-5.1-14.5-10.9c-21.8-37.9-43.7-75.8-65.6-113.7
		c-12.9-22.3-25.7-44.7-38.7-67c-4.5-7.7-4.4-14.9,0.1-22.6C59.8,140.6,94.3,81,128.5,21.2c5.2-9.1,12.2-13.5,22.7-13.1
		c11.6,0.4,23.2,0.1,35.8,0.1c-3,5.3-5.5,9.7-8,14.1C145,81.1,111.2,140,77.1,198.7c-5.2,8.9-5.2,16.8-0.1,25.7
		c35.7,61.4,71.1,123,106.6,184.6C184.5,410.5,185.4,412.2,186.8,414.7z"/>
	<path class="st0" d="M229,49c8.2,14.3,16.1,27.8,23.5,41.5c0.8,1.5,0.1,4.5-0.9,6.2c-16.8,29.3-33.7,58.6-50.6,87.9
		c-3.2,5.5-6.3,11-9.5,16.4c-4.2,7.1-4,14.2,0.1,21.3c19.7,34.2,39.4,68.4,59.3,102.4c2.4,4.2,2.4,7.2-0.1,11.3
		c-7.6,12.3-14.8,24.8-22.5,37.9c-3.4-5.8-6.4-10.9-9.4-16.1c-25.7-44.5-51.3-89.2-77.2-133.6c-5.1-8.7-5.1-16.5,0-25.3
		c28.3-48.4,56.3-97,84.4-145.6C226.9,52.2,227.8,51,229,49z"/>
	<path class="st0" d="M802.9,292.5c-10,0-19.7,0-29.9,0c0-22.2,0-44.1,0-66.4c-19.9,0-39.3,0-59.4,0c0,22,0,44,0,66.3
		c-10.4,0-20.2,0-30.6,0c-0.1-1.7-0.2-3.4-0.2-5.2c0-48,0-96-0.1-143.9c0-4.3,1.1-5.9,5.5-5.7c6.6,0.3,13.3,0.3,20,0
		c4.3-0.2,5.3,1.5,5.2,5.5c-0.2,16.7,0,33.3-0.2,50c-0.1,4.4,0.9,6.2,5.7,6.1c16.2-0.3,32.3-0.1,48.5-0.1c1.6,0,3.2-0.2,5.4-0.4
		c0-2.2,0-4,0-5.8c0-16.7,0.1-33.3-0.1-50c-0.1-4.3,1.4-5.4,5.4-5.3c7,0.3,14,0.1,21,0.1c2.8,0,4.2,0.7,4.2,3.9
		c-0.1,49.8-0.1,99.6-0.1,149.4C803.3,291.4,803.1,291.7,802.9,292.5z"/>
	<path class="st0" d="M1563.4,296.3c-5.5-6.2-10.3-11.6-15.2-17.1c0.5-0.4,1-0.9,1.7-1.3c23-13,35.9-33.3,40.6-58.8
		c2.1-11.6,2.8-23.4,4.1-35.2c0.1-1.1-0.2-2.3-0.3-3.9c-1.9-0.1-3.7-0.3-5.4-0.3c-11.3,0-22.7-0.1-34,0.1c-3.5,0.1-4.6-1.1-4.7-4.5
		c-0.5-15.3-0.5-15.3,14.4-15.3c17.8,0,35.7,0,53.5,0c1.8,0,3.6,0,6.7,0c-3.7-8.1-6.9-15.3-10.5-23.2c6.6-2.5,13.1-4.9,20.2-7.6
		c4.1,8.1,8.2,16.1,12.5,24.5c-3.8,1.8-7.1,3.4-10.4,4.9c0.1,0.4,0.2,0.7,0.3,1.1c22.9,0,45.7,0,69.1,0c0,6.7,0,12.9,0,19.9
		c-1.9,0-3.8,0-5.7,0c-25.7,0-51.3,0.1-77-0.1c-4.3,0-6.3,0.7-6.2,5.6c0.2,5.1-0.7,10.2-1.3,16.3c25.3,0,50.1,0,75.4,0
		c-0.7,9.7-1.1,18.5-2.1,27.2c-1.4,12.9-2.6,25.8-5.2,38.5c-3,14.8-7.2,24.7-28.1,26.1c-8.1,0.5-16.3,0.1-24.5-0.1
		c-1.4,0-3.4-1.4-3.9-2.7c-2.2-5.5-3.9-11.2-5.6-16.2c6.5,0,13.6,0,20.7,0c0.5,0,1,0.1,1.5,0.2c13.2,0.9,17-1.5,19.4-14.4
		c2.4-12.5,3.8-25.2,5.8-38.4c-2.9-0.2-4.9-0.5-6.8-0.5c-14.7,0-29.3,0.2-44-0.2c-4.7-0.1-6.3,1.7-7.2,5.9
		c-4.9,22-14.4,41.5-31.5,56.6C1574.7,288.3,1568.9,292.1,1563.4,296.3z"/>
	<path class="st0" d="M934.9,267.3c22.7,0,44.3,0,66.2,0c0,8.5,0,16.5,0,25c-31.9,0-63.8,0-96.2,0c-0.1-1.7-0.3-3.4-0.3-5.2
		c0-47.8,0.1-95.6-0.1-143.4c0-4.9,1.5-6.2,6.2-6.1c27.5,0.2,55,0.2,82.5,0c5.2,0,6.6,1.6,6.3,6.5c-0.4,5.9-0.1,12-0.1,18.5
		c-2.2,0.1-4.1,0.3-6.1,0.3c-17.7,0-35.3,0.1-53-0.1c-4.1,0-5.6,1.1-5.5,5.3c0.3,9,0.2,18,0,27c-0.1,3.5,1.3,4.6,4.7,4.6
		c14.8-0.1,29.7,0.1,44.5-0.1c4.4-0.1,5.9,1.3,5.6,5.7c-0.3,6.3-0.1,12.6-0.1,19.3c-2.5,0.1-4.4,0.3-6.3,0.3
		c-14.3,0-28.7,0.1-43-0.1c-3.7,0-5.4,0.8-5.4,4.9C935.1,242.1,934.9,254.4,934.9,267.3z"/>
	<path class="st0" d="M1465.1,224.6c-0.3,1-0.5,1.3-0.5,1.6c-0.9,12-0.9,12,10.9,12c12.3,0,24.7,0,37,0c1.8,0,3.6,0,5.7,0
		c0,5.9,0,11.3,0,17.3c-1.8,0.1-3.5,0.2-5.3,0.2c-14.5,0-29,0.1-43.5-0.1c-4-0.1-5.4,1.2-5.1,5.1s0.1,7.9,0.1,12.6
		c23.5,0,46.4,0,69.5,0c-1.9,6-3.7,11.8-5.8,17.5c-0.3,0.9-2.3,1.8-3.4,1.8c-23.6-0.2-47.3,0.1-70.9-1.2c-17.7-1-33.3-7.9-44.7-23.4
		c-6.7,10.9-14,20.5-24.4,27.5c-5-4.6-10-9.2-12.9-11.9c4.6-5.7,9.5-11.6,14.1-17.6c7.6-9.8,12.1-21,14.6-33
		c0.7-3.6,2.3-4.3,5.4-3.8c5.1,0.8,10.1,1.6,15.9,2.5c-1,4.3-2.3,8.3-2.8,12.3c-0.3,2.3-0.2,5.1,0.9,7c5.1,9.3,12.7,15.5,23.6,18.4
		c0-15.1,0-29.7,0-44.7c-2.4-0.1-4.7-0.4-7-0.4c-18.3,0-36.7-0.2-55,0.1c-4.8,0.1-6.3-1.4-6.3-6.3c0.2-11.9,0-11.9,11.8-11.9
		c45.7,0,91.3,0.1,137-0.1c5,0,6.2,1.5,6.1,6.2c-0.5,13.9,1.7,11.8-11.9,11.9c-15.5,0.1-31,0-46.5,0
		C1469.4,224.3,1467.3,224.5,1465.1,224.6z"/>
	<path class="st0" d="M657.4,154.6c-5.3,6.3-10.4,12.6-15.9,19.1c-1.3-1-2.3-1.8-3.2-2.6c-21.7-18-49.7-11.6-61.1,14.2
		c-8.3,18.9-8.2,38.4-1.2,57.4c10.2,27.6,39.6,35.2,62.6,16.7c1.9-1.5,3.7-3.2,5.9-5.1c5.3,6.2,10.4,12.3,15.9,18.7
		c-8.6,10.4-19.2,17.4-32.2,20.7c-41.1,10.2-79.4-15.2-86.4-57c-3.7-22.4-2.4-44.2,8.2-64.7c20.7-40,73.4-49.7,105.5-19.5
		C656.2,153.1,656.7,153.7,657.4,154.6z"/>
	<path class="st0" d="M1060.6,162.9c0,14.1,0,27.3,0,41.1c18.2,0,36.1,0,54.4,0c0,8.7,0,16.9,0,25.6c-18.1,0-36,0-54.5,0
		c0,21.1,0,41.8,0,62.9c-10.4,0-20.1,0-30.5,0c-0.1-1.7-0.3-3.4-0.3-5.2c0-48,0-95.9-0.1-143.9c0-4.3,1-5.8,5.5-5.8
		c28,0.2,56,0.2,83.9,0c4.6,0,6.2,1.5,5.9,6.1c-0.3,4.8-0.2,9.7,0,14.5c0.2,3.7-1.2,4.9-4.9,4.9c-17.7-0.2-35.3-0.1-53-0.1
		C1065.1,162.9,1063.2,162.9,1060.6,162.9z"/>
	<path class="st0" d="M1513.3,197.9c-2.3,0-4.1,0-5.9,0c-36.6,0-73.3-0.1-109.9,0.1c-4.6,0-6.4-1-6.3-6c0.3-16.1,0.2-32.3,0-48.5
		c-0.1-4.6,1.5-6,6-6c36.8,0.1,73.6,0.1,110.4,0c4.6,0,5.9,1.3,5.8,5.9C1513.2,161.3,1513.3,179.1,1513.3,197.9z M1411.6,183.3
		c0.4,0.4,0.5,0.6,0.7,0.6c25.8,0.1,51.6,0.3,77.3,0.2c1,0,2.7-1.8,2.9-2.9c1-5.8,0.1-6.8-5.7-6.8c-23.3,0-46.6,0-69.9,0
		c-1.8,0-3.5,0.3-5.3,0.4C1411.6,178,1411.6,180.8,1411.6,183.3z M1411.5,160.9c1.9,0.1,3.4,0.3,4.9,0.3c23.6,0,47.3,0,70.9,0.1
		c3.5,0,5.5-0.5,5.5-4.8s-1.8-4.8-5.4-4.8c-23.8,0.1-47.6,0.1-71.4,0.1c-1.4,0-2.9,0.2-4.5,0.3
		C1411.5,155.1,1411.5,157.7,1411.5,160.9z"/>
	<path class="st0" d="M236.4,8.3c11.3,0,21.6-0.3,31.9,0.1c6.5,0.3,11.7,4,14.9,9.7c13.5,23.3,28,46.2,39.8,70.4
		c6.6,13.5,4.7,29.4,0.5,43.9c-2.2,7.4-9.2,10.7-17,10.9c-5.7,0.1-11.3-0.1-17,0.1c-3.7,0.1-4.9-1.2-4.9-4.9
		c0.2-12.2-0.1-24.3,0.1-36.5c0.1-6.2-1.4-11.7-4.5-17.1c-13.7-23.6-27.2-47.3-40.8-71C238.5,12.3,237.7,10.7,236.4,8.3z"/>
	<path class="st0" d="M236.2,414.8c12.4-21.6,24.2-42,35.8-62.6c15-26.3,12.3-16.8,12.6-46.4c0.1-7.3,0.1-14.7,0-22
		c-0.1-3,1-4.3,4-4.2c6.5,0.2,13-0.1,19.5,0.4c9.6,0.8,16.9,7.7,17.4,17.4c0.6,10,0.4,20,0,30c-0.1,3-1.5,6.2-3,8.8
		c-12.8,22.6-25.7,45.1-38.7,67.6c-4.3,7.4-10.6,11.1-19.3,10.9C255.5,414.6,246.4,414.8,236.2,414.8z"/>
	<path class="st0" d="M330.1,8.3c11,0,21.1-0.3,31.3,0.1c6.7,0.3,12.1,3.8,15.4,9.6c13.5,23.3,28,46.1,39.8,70.3
		c6.6,13.4,4.6,29.4,0.6,43.9c-2.1,7.6-9.3,10.9-17.3,11.1c-5.5,0.1-11-0.1-16.5,0.1c-3.9,0.2-5.3-1.2-5.3-5.2
		c0.2-11.8-0.1-23.6,0.1-35.4c0.1-6.9-1.5-13-5-18.9C359.4,60.4,346,36.6,332.4,13C331.8,11.6,331.2,10.3,330.1,8.3z"/>
	<path class="st0" d="M330,414.8c2.5-4.4,4.6-8,6.6-11.6c12.5-21.8,25.2-43.5,37.3-65.5c2.5-4.6,3.9-10.3,4.2-15.6
		c0.6-12.3,0.3-24.7,0.1-37c-0.1-4,1.2-5.8,5.4-5.5c6.1,0.3,12.3,0,18.5,0.5c9.8,0.9,17.1,8.7,17.3,18.7c0.2,9.2,0.3,18.3-0.1,27.5
		c-0.1,3.3-1.3,6.9-3,9.9c-12.8,22.6-25.8,45.1-38.7,67.6c-4.3,7.5-10.4,11.3-19.2,11.1C349.4,414.7,340.2,414.8,330,414.8z"/>
	<path class="st0" d="M209,407.5c-4.3-7.4-8.5-14.7-12.8-22c-31-53.8-61.9-107.6-93-161.4c-5.1-8.7-5-16.5,0.1-25.2
		C138,139,172.5,78.9,207,19c0.6-1,1.2-2,1.8-3c6.5,5.8,7,8.9,3,15.8c-32,55.5-63.9,111.1-96.1,166.5c-5.4,9.3-5.3,17.3,0.1,26.6
		c32,55,63.6,110.1,95.3,165.2C216.2,398.7,216.1,399.2,209,407.5z"/>
	<path class="st0" d="M868.9,292.5c-10,0-19.7,0-29.8,0c-0.1-1.8-0.3-3.5-0.3-5.1c0-48,0.1-96-0.1-144c0-4.7,1.4-6.1,5.9-5.9
		c7,0.3,14,0.1,21,0.1c2.7,0,3.8,1,3.8,3.8c-0.1,49.8-0.1,99.7-0.1,149.5C869.3,291.3,869.1,291.6,868.9,292.5z"/>
	<path class="st0" d="M1246.3,137.5c4,0,7.8,0,11.9,0c0,51.7,0,103.2,0,155c-4,0-7.8,0-11.9,0C1246.3,241,1246.3,189.5,1246.3,137.5
		z"/>
	<path class="st0" d="M299.4,8.7c7.1,0.9,11.6,4.4,14.7,9.6C327.5,41.5,340.9,64.7,354,88c1.5,2.6,2.3,6,2.4,9
		c0.3,10.1,0.2,20.3,0.1,30.5c0,6.2-2.9,11.1-8.5,15.5c-0.2-2.4-0.3-3.9-0.3-5.4c0-12,0.4-24-0.2-35.9c-0.3-5.4-1.6-11.3-4.2-16
		c-13.8-24.8-28.2-49.4-42.3-74C300.5,10.8,300.1,10.1,299.4,8.7z"/>
	<path class="st0" d="M347.7,280.2c6.1,4.5,8.8,9.5,8.8,15.7c0.1,10.2,0.3,20.3-0.1,30.5c-0.1,3.3-1.3,6.9-3,9.8
		c-12.8,22.6-25.8,45.1-38.7,67.6c-3.2,5.6-7.7,9.4-15.3,10.9c1.1-2.2,1.9-3.7,2.7-5.1c13.8-24,27.7-47.8,41.1-72
		c2.6-4.7,4-10.6,4.3-16c0.6-11.8,0.2-23.7,0.2-35.5C347.7,284.5,347.7,282.8,347.7,280.2z"/>
</g>
<path class="st1" d="M0,0"/>
</svg>
