<svg width="81" height="35" viewBox="0 0 81 35" fill="none" xmlns="http://www.w3.org/2000/svg">
<path d="M75.2418 19.3613C75.6555 19.1958 75.821 19.0303 75.821 18.8648C75.821 18.6994 75.5727 18.5339 75.159 18.5339L72.6768 18.2856L72.8422 30.4488L75.3245 30.5315L75.2418 19.3613Z" fill="white"/>
<path d="M72.0976 24.8228L70.2773 22.837L68.9534 24.3263V18.9481H71.7667C72.0976 18.9481 72.5941 19.0308 71.7667 18.1207L70.1118 16.4658L68.9534 17.707H62.9132L63.1615 18.9481H65.7265V24.4918H62.5823L62.8305 25.6502H65.7265V34.1727L68.9534 33.5935L69.0362 25.6502H72.1804C72.4286 25.5675 73.0078 25.733 72.0976 24.8228Z" fill="white"/>
<path d="M79.2962 34.2556C79.7927 33.8418 80.0409 33.3454 80.0409 32.6007V17.4589C80.5373 17.2106 80.7856 16.9624 80.7856 16.7142C80.7856 16.5487 80.5373 16.3832 80.1236 16.3832L76.8139 16.0522V31.6078C76.8139 31.6078 76.9794 33.9246 76.2347 34.8348L79.2962 34.2556Z" fill="white"/>
<path d="M55.88 31.6899V28.2147C56.2937 28.0492 56.4592 27.8838 56.4592 27.7183C56.4592 27.6355 56.3765 27.4701 56.1283 27.3046L53.977 25.8979L52.7358 26.9736H51.081L48.4332 26.2289V33.3448L51.2465 32.931V31.3589H52.8186V32.1864L55.88 31.6899ZM51.3292 30.366V27.8838H52.9013V30.366H51.3292Z" fill="white"/>
<path d="M61.0101 17.5416L58.2796 15.8867L57.0385 17.3761H47.3576L44.2962 16.8796V25.5676C44.2134 27.0569 43.7997 31.856 41.5657 34.5865C41.5657 34.5865 47.0267 33.7591 47.4404 25.5676V25.3193C47.4404 25.2366 47.4404 25.1539 47.4404 25.0711V24.3264L47.6059 24.9884H56.7075C56.873 25.0711 57.4522 24.9056 56.873 24.3264L56.7075 24.161C56.6248 24.0782 56.6248 24.0782 56.542 23.9955L55.2182 22.5888L54.2252 23.83H53.4806V21.9269H56.2938C56.542 21.9269 57.204 22.0096 56.2938 21.0995L54.9699 19.7756L53.977 20.934H53.3978V20.1066C53.8115 19.9411 53.977 19.7756 53.977 19.6101C53.977 19.4446 53.7288 19.2792 53.3151 19.2792L50.4191 19.0309V20.934H47.8541L48.1023 22.0096H50.4191V23.9127H47.2749V18.4517H57.1212V31.7732C57.1212 31.7732 57.2867 34.09 56.542 35.0002L59.6035 34.421C60.1 34.0073 60.3482 33.5108 60.3482 32.7662V18.7L60.5137 18.6172C61.0101 18.369 61.2583 18.1208 61.2583 17.9553C61.2583 17.7898 61.1756 17.707 61.0101 17.5416Z" fill="white"/>
<path d="M23.1969 5.13002C23.5279 4.63357 23.9416 4.13712 24.2726 3.55792C24.2726 3.55792 25.2655 3.64066 25.4309 2.81324C25.4309 2.81324 25.5137 2.23404 24.6035 1.98582L18.6461 0C18.6461 0 12.7714 13.156 0.0290527 20.6856C0.0290527 20.6856 12.0267 18.2861 21.4593 7.28132C21.9558 7.86052 23.3624 9.59811 25.5137 11.6667C30.7265 17.7896 38.4215 20.1891 38.4215 20.1891C39.0007 18.948 44.3789 13.5697 44.3789 13.5697C32.0503 12.4941 24.438 6.20567 23.1969 5.13002Z" fill="white"/>
<path d="M28.9062 17.1276L25.5138 14.0662C25.5138 14.0662 24.9346 13.487 24.4381 14.2316L22.7005 16.8794L12.1095 16.7967L12.4405 18.286H28.327C28.4097 18.2033 29.8164 18.3688 28.9062 17.1276Z" fill="white"/>
<path d="M33.7879 22.6714L29.5681 20.6855L27.4995 22.0922H7.64136L7.97233 23.5815L26.7548 23.4988L20.7974 32.1867C19.5563 33.7588 19.7217 33.4279 19.0598 34.0071L24.769 34.9172C26.1756 35 27.2513 33.4279 27.2513 33.4279L33.2087 24.8227C33.9534 24.5744 34.2844 24.1607 34.2844 24.1607C35.0291 23.416 33.7879 22.6714 33.7879 22.6714Z" fill="white"/>
</svg>
