<?xml version="1.0" encoding="utf-8"?>
<!-- Generator: Adobe Illustrator 21.0.0, SVG Export Plug-In . SVG Version: 6.00 Build 0)  -->
<svg version="1.1" id="圖層_1" xmlns="http://www.w3.org/2000/svg" xmlns:xlink="http://www.w3.org/1999/xlink" x="0px" y="0px"
	 viewBox="0 0 333 155.5" style="enable-background:new 0 0 333 155.5;" xml:space="preserve">
<style type="text/css">
	.st0{fill:#FFFFFF;}
</style>
<g>
	<path class="st0" d="M228.7,20.7c11.3,0,22.4-0.5,33.4,0.2c5.9,0.4,8.8,5.6,9.8,11.2c1.1,6-1.5,11.7-6.4,14.7
		c-1.4,0.8-2.9,1.5-5.1,2.6c5.1,7.7,10.1,15.3,15.6,23.7c-4.4,0-8,0.2-11.5-0.1c-1.2-0.1-2.5-1.4-3.3-2.6c-3.2-4.6-6.7-9.2-9.3-14.2
		c-2.9-5.4-6.8-6.7-12.8-4.9c0,6.9,0,14,0,21.4c-3.7,0-6.9,0-10.4,0C228.7,55.3,228.7,37.9,228.7,20.7z M239.3,28.3
		c0,5,0,9.4,0,14.1c5.2,0,10,0.1,14.8,0c4.2-0.2,7-2.2,7.3-6.7c0.3-4.1-2.3-7-7.1-7.3C249.4,28,244.6,28.3,239.3,28.3z"/>
	<path class="st0" d="M62,73.1c-0.1-2-0.3-3.6-0.3-5.2c0-14.3,0.1-28.6-0.1-42.9c0-3.7,0.7-5.4,4.9-5.3c11.3,0.3,22.6,0.1,34.2,0.1
		c0,2.9,0,5.3,0,8.4c-7.2,0-14.5,0-21.8,0c-6.9,0-7,0-6.9,7.1c0,1.6,0.2,3.2,0.3,5.4c8.2,0,16.1,0,24.5,0c0,3,0,5.4,0,8.5
		c-6.5,0-13.1,0.2-19.7-0.1c-3.9-0.2-5.5,1-5.1,5c0.3,3.1,0.1,6.3,0.1,10.1c10,0,19.7,0,29.7,0c0,3.2,0,5.7,0,8.6
		c-1.1,0.1-2.1,0.3-3.1,0.3C86.6,73.1,74.5,73.1,62,73.1z"/>
	<path class="st0" d="M6.6,56.4C9.2,56,11.9,55,14,55.7c1.8,0.6,3.3,2.9,4.5,4.8c3.7,5.6,13.7,6.9,18.6,2.3
		c3.6-3.4,3.1-8.2-1.4-10.1c-3.6-1.6-7.6-2.2-11.4-3.5c-3.3-1.1-6.7-2.2-9.6-4C6,39.5,6.3,26.8,15.3,21.9c8.4-4.6,17.4-4.4,25.8,0.1
		c4.5,2.4,6.8,6.6,6.9,12.5c-4.5-0.1-9,3-12-3.7C33.8,26,22.9,26,19.5,30.1c-2.2,2.7-1.3,5.9,2.7,7.4c5.9,2.2,12.1,3.5,18,5.8
		c8.3,3.3,11.6,11.4,8.7,19.7c-0.6,1.7-1.5,3.4-2.7,4.7c-7.4,7.8-16.7,7.5-26,5.4C11.9,71.2,8,65.1,6.6,56.4z"/>
	<path class="st0" d="M171.4,20.2c3.8,0,7,0,10.6,0c0,11.8,0,23.3,0,34.8c0,5.9,3.4,10.4,8.4,11.5c6.9,1.5,13-3.2,13.1-10.5
		c0.2-9.3,0-18.7,0-28c0-8.9,1.2-9.7,10.3-7.3c0,13.1,0.8,26.3-0.3,39.3c-0.8,10.3-11.4,16.9-22.9,16.3c-10.1-0.6-18.9-9-19.3-19.5
		C171,44.7,171.4,32.7,171.4,20.2z"/>
	<path class="st0" d="M285.6,19.8c12.4,0,24.4-0.4,36.3,0.2c5.2,0.2,1.9,4.8,2.8,8.2c-8.2,0-16-0.1-23.7,0.1c-1.8,0-5.1,0.6-5.2,1.3
		c-0.5,3.4-0.2,6.9,0.2,10.3c0.1,0.5,2.6,0.8,4,0.9c6.8,0.1,13.6,0,20.6,0c0,3.1,0,5.3,0,8.4c-6.8,0-13.5,0.2-20.3-0.1
		c-4-0.2-5.5,1.1-5.1,5.1c0.3,3.3,0.1,6.6,0.1,10.2c10.4,0,20,0,30,0c0,2.9,0,5.5,0,8.4c-13.2,0-26.2,0-39.7,0
		C285.6,55.4,285.6,38,285.6,19.8z"/>
	<path class="st0" d="M153.1,62.2c1.6,1.5,3.1,3,4.5,4.3c-7.1,11.1-26.8,12.4-37.2,4.4c-12.6-9.7-15.3-27.3-5.7-39.9
		c9.3-12.1,26.7-14.9,37.8-6c-1.7,2.9-3.1,5.4-7.6,3.8c-10.4-3.8-20.7-0.1-25.9,8.8c-4.9,8.5-2.9,19.7,4.7,26.3
		c7.6,6.6,18.6,6.5,27.4-0.4C151.6,63.2,152.2,62.9,153.1,62.2z"/>
	<path class="st0" d="M269.3,119.4c4.2,7.1,8.1,13.8,12.2,20.9c-4.7,1.3-8,1-10.1-3.6c-1.4-3-3.3-5.7-5-8.6
		c-5.5-9.3-5.5-9.3-17.1-7.7c0,6.5,0,13.1,0,20.1c-2.1,0.1-3.6,0.2-5.6,0.4c0-15.6,0-30.8,0-46.2c9.5,0,18.8-0.4,28,0.1
		c4.8,0.3,8,4.7,8.9,10.1c0.8,4.9-1.5,9.8-5.9,12.2C273.2,117.9,271.6,118.4,269.3,119.4z M249.3,114.4c6.5,0,12.6,0.3,18.6-0.1
		c4-0.3,6.5-3.2,6.6-7.4c0.1-4.3-2.2-7.3-6.3-7.6c-6.2-0.5-12.5-0.1-19-0.1C249.3,104.2,249.3,109.1,249.3,114.4z"/>
	<path class="st0" d="M58.1,140.8c0-7.6,0-14.6,0-21.5c0-7,0.1-14,0-21c-0.1-2.9,0.7-4.3,3.9-4.2c9.2,0.1,18.3,0.1,27.5,0
		c3.4,0,4,1.5,3,4.9c-9.2,0-18.6,0-28.3,0c0,5.2,0,9.7,0,15.2c6.2,0,12.3,0,18.4,0c1.5,0,3.1-0.3,4.5,0.1c1.2,0.4,2.1,1.7,3.2,2.6
		c-1,0.7-2.1,2-3.1,2.1c-7.5,0.2-14.9,0.1-22.8,0.1c0,5.5,0,10.5,0,16.2c9.2,0,18.6,0,28,0c0.4,0.4,0.7,0.9,1.1,1.3
		c-0.9,1.4-1.9,3.9-2.8,3.9C79.9,140.9,69.3,140.8,58.1,140.8z"/>
	<path class="st0" d="M323.9,107c-1.8,0-3.3,0-4.7,0c-3.8-8.1-10.2-11.2-18-7.8c-2.3,1-4.8,4-5,6.3c-0.2,1.8,2.5,4.9,4.6,5.9
		c4.4,1.9,9.2,2.6,13.8,4c8.1,2.5,11.4,7,10.7,14c-0.7,6.3-6.1,11.4-13.5,11.8c-4.1,0.2-8.4,0.1-12.3-0.9
		c-7.1-1.8-10.4-6.6-10.8-14.5c1.4-0.1,2.9-0.2,4.3-0.3c4.5,9.7,11.8,13.2,20.6,10.2c3.7-1.2,6.3-3.4,6.4-7.4c0.1-3.9-2.5-6-5.9-7.1
		c-4.8-1.5-9.7-2.6-14.4-4.1c-6.7-2.2-9.6-6.1-9.3-11.9c0.3-5.6,3.8-10.1,10.2-11.2c4.3-0.7,9-0.6,13.3,0.3
		C320.3,95.9,322.8,99.4,323.9,107z"/>
	<path class="st0" d="M235.3,119.6c0.1,13.8-10.5,24.6-24.1,24.5c-13.3,0-24-10.7-24-24.1c-0.1-13.8,10.5-24.5,24.1-24.5
		C224.7,95.5,235.2,106.1,235.3,119.6z M211.3,139.8c11,0,20-9,20-19.9c0-11.2-9.1-20.1-20.4-20c-11,0.1-19.9,9.2-19.8,20.1
		C191.2,130.9,200.3,139.8,211.3,139.8z"/>
	<path class="st0" d="M30.3,129.9c4.9-11.4,9.4-21.5,13.6-31.8c1.4-3.5,3.2-4.8,7.3-3.1c-4.2,10.8-8.4,21.6-12.6,32.3
		c-1.4,3.6-2.6,7.2-4.4,10.6c-0.7,1.4-2.8,2.7-4.3,2.8c-1.2,0.1-3.2-1.5-3.8-2.8C20.4,123.7,15,109.4,9.4,95c4-1.8,6.1-0.7,7.6,3.2
		c3.5,9,7.3,17.8,11,26.7C28.6,126.3,29.2,127.5,30.3,129.9z"/>
	<path class="st0" d="M141.9,99.6c-1.5,3-3.1,2.9-5.7,1.4c-9-5.2-19.5-3.2-25.5,4.6c-5.9,7.7-5.2,18.7,1.6,25.5
		c7,7.1,18,7.7,26.3,1.1c2.5-2,3.9-2,5.3,0.8c-4.5,8.6-21.7,12-32.4,3.8c-10.8-8.3-12.8-24.2-4.2-34.6
		C116.1,91.5,131.9,90.2,141.9,99.6z"/>
	<path class="st0" d="M163.6,99.2c-5,0-9.3,0-13.3,0c-2-3.9-0.6-5.1,3-5c9,0.1,18,0.1,26.9,0c3.4,0,4.5,1.3,3.2,4.9
		c-4.3,0-8.7,0-13.9,0c0,5.1,0,9.7,0,14.3c0,8,0.1,16-0.1,23.9c0,1.2-1.9,2.4-2.8,3.5c-1-1.2-2.8-2.4-2.8-3.6
		c-0.2-10.5-0.1-20.9-0.1-31.4C163.6,103.9,163.6,101.9,163.6,99.2z"/>
	<path class="st0" d="M218.1,119.7c-5.5,8.7-7.7,8.7-13.8,0.2C209.8,111.2,212.2,111.2,218.1,119.7z"/>
</g>
</svg>
