<?xml version="1.0" encoding="utf-8"?>
<!-- Generator: $$$/GeneralStr/196=Adobe Illustrator 27.6.0, SVG Export Plug-In . SVG Version: 6.00 Build 0)  -->
<svg version="1.1" id="圖層_1" xmlns="http://www.w3.org/2000/svg" xmlns:xlink="http://www.w3.org/1999/xlink" x="0px" y="0px"
	 viewBox="0 0 125 60" style="enable-background:new 0 0 125 60;" xml:space="preserve">
<style type="text/css">
	.st0{fill-rule:evenodd;clip-rule:evenodd;fill:#EC6C00;}
	.st1{fill:#EC6C00;}
</style>
<g>
	<g>
		<path class="st0" d="M75.7,25.3c0.3-0.1,0.4-0.1,0.6-0.2v0c-1-0.6-2-1.1-3.1-1.7c-0.1,0.7-0.5,1.5-0.7,2.2
			c-0.7,1.7-1.4,3.3-2.2,4.8c-0.4,0.8-1,2-1.7,2.5c0.6,1,1.2,2.6,1.5,3.7h0c0.4-0.3,1.2-1.5,1.4-2c0,0,0.1,0,0.1,0
			c0,3.9,0,7.8,0,11.7c1-0.1,1.9-0.3,2.9-0.4V30.1c0.4,0,0.4-0.2,0.6-0.4c-0.3-0.1-0.5-0.2-0.8-0.3C74.5,28,75.4,26.8,75.7,25.3z
			 M66.9,39c0.1-0.4,0.2-0.9,0.4-1.3c0.2-1,0.4-1.9,0.6-2.9c0.1-1.1,0.2-2.1,0.4-3.2c0.1-0.1,0.5,0,0.7,0v-2.6
			c-1.1-0.1-2.1-0.2-3.2-0.3c-0.1,0,0-0.5,0-0.6c0.1-0.7,0.2-1.4,0.3-2.1c0.1,0,0.3,0,0.4-0.2c0,0,0-0.1,0-0.1
			c-0.8-0.3-1.6-0.7-2.5-1c0,2-0.4,4.4-0.9,6.2c-0.2,0.8-0.3,1.7-0.7,2.4v0c0-0.1,0-0.2,0-0.3c-1.1,0-2.1-0.1-3.2-0.1v-0.5
			c1,0,1.9,0.1,2.9,0.1v-2.3c0.4,0,0.7,0,1.1,0.1c0-0.7,0-1.5,0-2.2c-0.4,0-0.7-0.1-1.1-0.1v-2.3c-1-0.1-1.9-0.3-2.9-0.4
			c0-1,0.2-0.5,0.5-1v-0.1c-0.9-0.2-1.9-0.4-2.8-0.6h0v1.4c-1.1-0.2-2.1-0.3-3.2-0.5v2.6c-0.5,0-0.9-0.1-1.4-0.1c0,0.8,0,1.7,0,2.5
			v0c0.5,0,0.9,0.1,1.4,0.1c0,0.9,0,1.7,0,2.6c1.1,0,2.1,0.1,3.2,0.1c0,0,0,0,0,0v0.5c-1.2,0-2.4-0.1-3.6-0.1v4.9
			c0.9,0,1.8-0.1,2.8-0.1c-0.1,0.2-0.2,0.5-0.3,0.7c-1.2,0.1-2.4,0.1-3.5,0.2c0.2,1,0.5,1.9,0.7,2.9c0.3,0,0.4-0.2,0.4-0.4
			c0.4,0,0.8-0.1,1.1-0.1c-0.3,0.6-0.6,1.1-0.9,1.7c0.8,0.1,1.6,0.3,2.4,0.4c0,0,0-0.1,0.1-0.1c0.2,0,0.3,0.1,0.5,0.1
			c-0.5,0.4-2.7,1-3.6,1.1c0,0,0,0,0,0c0.5,0.6,1,1.6,1.1,2.6c1.3-0.2,4.4-1.8,5.1-2.5c0.8,0.2,1.2,0.9,2,1.1
			c0.4-0.6,0.8-1.2,1.3-1.8c0,0,0.1,0,0.1,0c0.3,0.5,0.7,1.1,0.8,1.7c0,0,0,0,0.1,0c0.8-1,2.1-1.8,2.6-3.2h0
			c0.2,0.4,0.5,0.7,0.7,1.1c0.4,0.5,0.8,0.9,1.2,1.3c0,0,0.1,0,0.1,0c0.4-0.9,0.8-1.7,1.3-2.5C68.2,41.2,67.2,39.9,66.9,39z
			 M59.1,27.2c0.2,0,0.5,0,0.7,0.1c0,0.2,0,0.3,0,0.5c-0.2,0-0.5,0-0.7,0V27.2z M59.1,29.7c0.2,0,0.5,0,0.7,0c0,0.2,0,0.3,0,0.5
			c-0.2,0-0.5,0-0.7,0V29.7z M56.8,35.3c-0.4,0-0.7,0-1.1,0v-0.7h1.1C56.7,34.9,56.8,35.1,56.8,35.3L56.8,35.3z M56.7,30
			c-0.2,0-0.5,0-0.7,0v-0.5c0,0,0,0,0,0c0.2,0,0.5,0,0.7,0c0,0,0,0,0,0C56.8,29.7,56.7,29.8,56.7,30z M56.8,27.4
			c-0.2,0-0.5,0-0.7-0.1c0-0.2,0-0.4,0-0.6c0.2,0,0.5,0,0.7,0.1c0,0,0,0,0,0V27.4z M59.1,34.7h1v0.6c-0.3,0-0.7,0-1,0V34.7z
			 M59.1,40.1c-0.2,0.3-0.3,0.6-0.5,0.9c-0.5-0.2-1-0.4-1.5-0.5c0,0,0-0.1,0-0.1c0.2-0.2,1.4-0.1,1.8-0.3L59.1,40.1L59.1,40.1z
			 M64.3,39.8c-0.6,1.1-1.3,2.1-2.4,2.8c-0.4-0.2-0.8-0.4-1.2-0.6c0.1-0.3,0.3-0.6,0.4-0.9c0.2-0.4,0.3-0.9,0.5-1.3
			c0.5-0.1,0.9-0.1,1.4-0.2c0.2-0.1,0.1-1.6,0.1-1.9c-1.6,0.1-3.2,0.2-4.8,0.3l0.2-0.4c1-0.3,2.6-0.3,3.9-0.3v-1.8
			c0.3,0.3,0.8,1,0.9,1.4c0,0,0,0,0.1,0c0.2-0.3,0.3-0.6,0.5-1c0,0,0,0,0.1,0c0.2,0.9,0.4,1.7,0.5,2.6c0.1,0.3,0.2,0.6,0.3,0.9
			C64.5,39.4,64.4,39.6,64.3,39.8z M65.8,35.3L65.8,35.3c-0.3-1.2-0.5-2.6-0.6-3.9c0.4,0,0.7,0,1.1,0C66.2,32.8,65.8,34,65.8,35.3z
			 M108.6,29.9c-0.1-0.4,1-2.4,1.2-3c0.1-0.3,0.2-0.6,0.3-1c0,0,0.3,0,0.5-0.1c0,0,0,0,0-0.1c-1-0.6-2-1.2-3.1-1.7
			c-0.2,0.5-0.3,1-0.5,1.5c-0.4,1.1-0.9,2.2-1.4,3.3c-0.6,1.2-1.3,2.4-2,3.4c-0.3,0.4-0.7,0.8-1,1.2c-0.1,0.2,0.3,0.7,0.4,0.9
			c0.3,0.7,1,2,1.1,2.7h0c0.7-0.5,1.1-1.6,1.7-2.3c0,0,0,0,0,0c0,3.8,0,7.5,0,11.3c0.9-0.1,1.9-0.3,2.8-0.4c0-5,0-10,0-15
			c0.3,0,0.5-0.2,0.5-0.5C109.2,30.1,108.9,30,108.6,29.9z M86.4,24.1c0.1,6.5,0.2,13,0.3,19.5c0.9-0.1,1.8-0.2,2.6-0.3v-2.1
			c1.2-0.1,2.4-0.2,3.5-0.3c0-5.3,0-10.6,0-15.9C90.8,24.7,88.6,24.4,86.4,24.1z M89.3,27.7c0.4,0,0.8,0.1,1.1,0.1
			c0,1.2,0,2.4,0,3.7c-0.4,0-0.8,0-1.1,0C89.3,30.2,89.3,28.9,89.3,27.7z M89.4,38.2c0-1.3,0-2.5-0.1-3.8h1.1c0,1.2,0,2.5,0,3.7
			C90.1,38.2,89.7,38.2,89.4,38.2z M99,29.5c0.9,0.1,1.8,0.1,2.7,0.2c0-0.8,0-1.7,0.1-2.5c-0.9-0.1-1.8-0.2-2.7-0.3c0-0.5,0-1,0-1.5
			c0.3,0,0.3-0.1,0.4-0.3c0-0.1-2.3-0.7-2.7-0.7v2.2c-1-0.1-2.1-0.2-3.1-0.4V29c1,0.1,2,0.2,3,0.3c0.1,0.1,0,1.2,0,1.5
			c-1.2-0.1-2.4-0.1-3.6-0.2c0,1,0,1.9,0,2.9c1.8,0,3.6,0,5.4,0.1c0,0.5,0,0.9,0,1.4c-1.8,0-3.6,0-5.4,0c0,0.9,0,1.9,0,2.8
			c1.8-0.1,3.6-0.2,5.4-0.3c0,1,0,2,0,2.9c-0.1,0.3,0.1,0.8-0.1,1.1c-0.1,0.2-1.5,0.3-1.9,0.3c0.2,0.9,0.6,1.7,0.7,2.7
			c1.3-0.1,2.4-0.5,2.9-1.3c0.6-0.9,0.4-4.2,0.4-5.7c0.4,0,0.8,0,1.3-0.1c0-0.8,0.1-1.6,0.1-2.4h-1.3c0-0.3,0-0.6,0-0.9
			c0.2-0.1,0.4-0.2,0.4-0.4c-0.3,0-0.7,0-1,0h1.9c0-0.8,0-1.7,0.1-2.5c-1-0.1-2-0.1-3-0.2V29.5z M75.6,30.7c3.3,0.2,6.6,0.4,9.8,0.5
			v-2.7c-1.2-0.1-2.4-0.2-3.5-0.4v-2.9c0.2-0.2,0.3-0.1,0.5-0.3V25l-2.8-0.6c0,1.2,0,2.4,0,3.6c-1.3-0.1-2.6-0.3-3.9-0.4V30.7z
			 M118.3,38.8c-0.2-0.3-0.4-0.5-0.6-0.8v0c0,0.5-0.1,0.9-0.1,1.4c-0.1,0.7-0.2,1.4-0.4,2c0,0-0.1,0-0.1,0c-0.6-0.1-0.8-1.2-0.9-1.7
			c-0.5-1.7-0.8-3.8-0.9-5.7c1.3-0.1,2.5-0.3,3.8-0.4c-0.1-0.9-0.1-1.8-0.2-2.7l0,0c-1.3,0.1-2.6,0.2-3.8,0.2c0-1.7-0.1-3.4-0.1-5.1
			c0.1,0,0.3,0,0.4-0.1c0-0.1,0.1-0.1,0.1-0.2v-0.1c-1-0.2-2-0.4-3-0.6c0,2.1,0.2,4.2,0.2,6.3c-1.1,0.1-2.2,0.1-3.4,0.2
			c0.1,1.1,0.2,2.1,0.3,3.2c1.1-0.1,2.2-0.3,3.3-0.4h0c0,1.1,0.2,2.2,0.4,3.2c0.4,1.8,0.6,3.5,1.2,5c0.4,0.9,0.8,2,2,2.1
			c0.3,0,0.6-0.1,0.8-0.1c1.4-0.5,1.5-1.9,1.8-3.3c0-0.4,0.1-0.9,0.1-1.3C119,39.3,118.6,39.1,118.3,38.8z M117.6,30.4
			c0.5-0.4,0.9-0.7,1.4-1.1l0.3-0.2c-0.1-0.2-0.2-0.5-0.3-0.7c-0.3-0.7-0.7-1.4-1.1-2.1c-0.1-0.3-0.3-0.7-0.5-0.8
			c-0.5,0.4-1,0.7-1.5,1.1l-0.1,0.1c0.3,0.3,0.4,0.6,0.6,1C116.7,28.5,117.3,29.4,117.6,30.4z M80.1,39.9c0-1.3-0.1-2.5-0.4-3.7
			c-0.1-0.9-0.2-1.7-0.4-2.6c-0.1-0.7-0.3-1.3-0.4-2h-0.1c-0.7,0.1-1.5,0.3-2.2,0.4c0.3,1.1,0.3,2.3,0.5,3.5
			c0.3,1.6,0.5,3.4,0.4,5.2C78.4,40.4,79.3,40.1,80.1,39.9z M81.6,37.9c-0.1,0.6-0.3,1.3-0.4,1.9c0.7,0.2,1.3,0.4,2,0.6
			c0.2-1,0.5-2,0.7-3c0.1-0.9,0.3-1.8,0.4-2.7c0.1-0.6,0.2-1.2,0.2-1.8c0.2-0.1,0.4-0.1,0.5-0.3c-0.9-0.3-1.7-0.6-2.6-0.9
			c-0.1,1-0.2,1.9-0.3,2.9C81.9,35.7,81.7,36.8,81.6,37.9z M95.6,37.7c-0.6,0.5-1.3,1-1.9,1.5c0.6,1,1.5,2.1,1.8,3.3
			c0.7-0.6,1.3-1.1,2-1.7C97.3,40.1,96.2,38.1,95.6,37.7z M75.3,44.6c3.5-0.5,6.9-1,10.4-1.4v-2.7c-3.5,0.3-6.9,0.7-10.4,1V44.6z"/>
	</g>
	<g>
		<path class="st0" d="M14.2,27.2h-0.8v3.1c0.2,0,0.5,0,0.8,0c1,0,2-0.4,2-1.6C16.2,27.7,15.2,27.2,14.2,27.2z M16,25.3L16,25.3
			c0-0.9-0.7-1.3-1.7-1.3c-0.4,0-0.7,0-0.8,0.1v2.6h0.9C15.3,26.6,16,26,16,25.3z M37.6,26c-1,0-1.4,0.9-1.5,1.7h2.9
			C39,27,38.6,26,37.6,26z M45.3,26.8c0,0.5,0.3,0.7,1,1c0.7,0.3,1.1,0.6,1.3,1.1l-0.7-2.8c-0.2-0.1-0.4-0.1-0.6-0.1
			C45.6,26,45.3,26.4,45.3,26.8z M47.7,29.2c0,0.1,0,0.2,0,0.3c0,1-0.7,1.6-1.9,1.6c-0.5,0-1.1-0.1-1.4-0.4l0.2-0.6
			c0.3,0.2,0.8,0.4,1.2,0.4c0.7,0,1.1-0.4,1.1-0.9c0-0.5-0.3-0.8-1-1.1c-0.9-0.4-1.4-0.9-1.4-1.5c0-0.8,0.7-1.5,1.8-1.5
			c0.1,0,0.3,0,0.4,0L41.2,5L5.7,14.5l6.9,25.9V32H16l2.4,4.6c0.6,1.1,1.4,2.8,1.9,4.1h0C20.1,39.1,20,37.1,20,35v-3h2.8v12.7h-3.1
			l-2.4-4.6c-0.6-1.2-1.4-2.9-1.9-4.2h-0.1c0.1,1.5,0.2,3.4,0.2,5.7v3.1h-1.7l2,7.4l28.2-7.6c-1.4-0.7-1.5-2.3-1.5-3.2v-3.9h-1.2v-2
			l-2.8,4.4l2.9,4.8h-3.5L37,43c-0.2-0.4-0.4-0.9-0.6-1.4h-0.1c-0.2,0.5-0.4,1-0.6,1.4L35,44.7h-3.3l2.9-4.7l-2.8-4.6h3.5l0.8,1.5
			l0.6,1.4h0.1c0.2-0.5,0.4-1,0.6-1.5l0.7-1.5h4.5v-1.7l3.1-0.8v2.5h2.1v2.1h-2.1V41c0,1.1,0.4,1.5,1.1,1.5c0.4,0,0.6,0,0.8-0.1
			l0,1.1l3.7-1L47.7,29.2z M16.5,30.3C16,30.8,15.2,31,14,31c-0.6,0-1.1,0-1.4-0.1v-7.5c0.4-0.1,1-0.2,1.6-0.2c0.9,0,1.6,0.2,2,0.6
			c0.4,0.3,0.6,0.7,0.6,1.3c0,0.7-0.5,1.4-1.3,1.7v0c0.7,0.2,1.6,0.8,1.6,1.9C17.1,29.5,16.8,30,16.5,30.3z M21.7,31l0-0.9h0
			c-0.2,0.4-0.8,1-1.7,1c-0.8,0-1.8-0.5-1.8-2.3v-3.2h0.8v3.1c0,1.1,0.3,1.8,1.2,1.8c0.6,0,1.4-0.5,1.4-1.5v-3.4h0.8v4
			c0,0.6,0,1,0,1.4H21.7z M28.1,23.4c0.3,0,0.5,0.2,0.5,0.6c0,0.3-0.2,0.6-0.5,0.6c-0.3,0-0.5-0.2-0.5-0.6
			C27.6,23.7,27.8,23.4,28.1,23.4z M28.5,25.5V31h-0.8v-5.4H28.5z M24.9,28.5c-0.9-0.4-1.4-0.9-1.4-1.5c0-0.8,0.7-1.5,1.8-1.5
			c0.5,0,1,0.1,1.2,0.3l-0.2,0.6c-0.2-0.1-0.6-0.3-1.1-0.3c-0.6,0-0.9,0.4-0.9,0.8c0,0.5,0.3,0.7,1,1c0.9,0.4,1.4,0.8,1.4,1.6
			c0,1-0.7,1.6-1.9,1.6c-0.5,0-1.1-0.1-1.4-0.4l0.2-0.6c0.3,0.2,0.8,0.4,1.2,0.4c0.7,0,1.1-0.4,1.1-0.9C25.9,29,25.6,28.8,24.9,28.5
			z M31.9,39.9c0,0.4,0,0.9-0.1,1.2h-5.7c0.1,1.1,1.1,1.6,2.5,1.6c0.9,0,1.7-0.1,2.4-0.4l0.4,2c-0.9,0.3-2.1,0.5-3.3,0.5
			c-3.2,0-5-1.7-5-4.6c0-2.7,1.7-5,4.7-5C30.2,35.2,31.9,36.7,31.9,39.9z M34.3,31h-0.8v-3.2c0-0.9-0.3-1.7-1.3-1.7
			c-0.7,0-1.4,0.6-1.4,1.5V31h-0.8v-4c0-0.6,0-1,0-1.4h0.7l0,0.9h0c0.3-0.5,0.9-1,1.7-1c0.7,0,1.8,0.4,1.8,2.3V31z M39.7,28.3H36
			c0,1.5,0.9,2.1,1.8,2.1c0.7,0,1.1-0.1,1.4-0.3l0.2,0.6c-0.3,0.1-0.9,0.3-1.7,0.3c-1.6,0-2.5-1.1-2.5-2.7c0-1.7,1-2.9,2.4-2.9
			c1.7,0,2.1,1.5,2.1,2.5C39.8,28.1,39.8,28.2,39.7,28.3z M41.8,31.1c-0.5,0-1.1-0.1-1.4-0.4l0.2-0.6c0.3,0.2,0.8,0.4,1.2,0.4
			c0.7,0,1.1-0.4,1.1-0.9c0-0.5-0.3-0.8-1-1.1c-0.9-0.4-1.4-0.9-1.4-1.5c0-0.8,0.7-1.5,1.8-1.5c0.5,0,1,0.1,1.2,0.3l-0.2,0.6
			c-0.2-0.1-0.6-0.3-1.1-0.3c-0.6,0-0.9,0.4-0.9,0.8c0,0.5,0.3,0.7,1,1c0.9,0.4,1.4,0.8,1.4,1.6C43.7,30.4,43,31.1,41.8,31.1z
			 M27.7,37.2c-1.1,0-1.5,1.1-1.5,1.9h2.9C29.1,38.3,28.8,37.2,27.7,37.2z"/>
		<g>
			<path class="st1" d="M16.7,53.7l0.4,0.6c0.1,0.1,0.2,0.3,0.2,0.4l0,0c0-0.1,0-0.3,0-0.5l0-0.8l0.2-0.1l0.4,0.6
				c0.1,0.1,0.2,0.3,0.2,0.4l0,0c0-0.1,0-0.3,0-0.5l0-0.7l0.2-0.1l-0.1,1.5l-0.2,0.1l-0.4-0.6c-0.1-0.1-0.2-0.3-0.2-0.4l0,0
				c0,0.2,0,0.3,0,0.5l0,0.7L17.2,55l-0.8-1.3L16.7,53.7z"/>
			<path class="st1" d="M18.7,53.1l0.4,0.6c0.1,0.1,0.2,0.3,0.2,0.4l0,0c0-0.1,0-0.3,0-0.5l0-0.8l0.2-0.1l0.4,0.6
				c0.1,0.1,0.2,0.3,0.2,0.4l0,0c0-0.1,0-0.3,0-0.5l0-0.7l0.2-0.1l-0.1,1.5l-0.2,0.1l-0.4-0.6c-0.1-0.1-0.2-0.3-0.2-0.4l0,0
				c0,0.2,0,0.3,0,0.5l0,0.7l-0.2,0.1l-0.8-1.3L18.7,53.1z"/>
			<path class="st1" d="M20.8,52.6l0.4,0.6c0.1,0.1,0.2,0.3,0.2,0.4l0,0c0-0.1,0-0.3,0-0.5l0-0.8l0.2-0.1L22,53
				c0.1,0.1,0.2,0.3,0.2,0.4l0,0c0-0.1,0-0.3,0-0.5l0-0.7l0.2-0.1l-0.1,1.5l-0.2,0.1l-0.4-0.6c-0.1-0.1-0.2-0.3-0.2-0.4l0,0
				c0,0.2,0,0.3,0,0.5l0,0.7l-0.2,0.1l-0.8-1.3L20.8,52.6z"/>
			<path class="st1" d="M23,53.5c-0.1,0-0.2,0-0.2-0.1c0-0.1,0-0.2,0.1-0.2c0.1,0,0.2,0,0.2,0.1C23.2,53.3,23.1,53.4,23,53.5
				L23,53.5z"/>
			<path class="st1" d="M22.9,51.3l0.2-0.1l0.2,0.9l0,0c0-0.2,0.2-0.3,0.4-0.4c0.3-0.1,0.7,0.1,0.8,0.5c0.1,0.5-0.1,0.8-0.4,0.9
				c-0.2,0.1-0.4,0-0.5-0.1l0,0l0,0.2l-0.2,0.1c0-0.1-0.1-0.2-0.1-0.4L22.9,51.3z M23.5,52.7C23.5,52.8,23.5,52.8,23.5,52.7
				C23.7,53,23.8,53,24,53c0.3-0.1,0.4-0.3,0.3-0.6c-0.1-0.3-0.3-0.5-0.5-0.4c-0.2,0-0.3,0.2-0.3,0.4c0,0,0,0.1,0,0.1L23.5,52.7z"/>
			<path class="st1" d="M24.7,51.9c0-0.1-0.1-0.3-0.1-0.4l0.2-0.1l0.1,0.2l0,0c0-0.1,0.2-0.3,0.4-0.4c0.2-0.1,0.5,0,0.6,0.5l0.2,0.8
				l-0.2,0.1l-0.2-0.8c-0.1-0.2-0.2-0.4-0.4-0.3c-0.2,0-0.3,0.2-0.3,0.3c0,0,0,0.1,0,0.1l0.2,0.8L25,52.9L24.7,51.9z"/>
			<path class="st1" d="M26.4,51.8c0.1,0.3,0.3,0.4,0.6,0.3c0.2,0,0.3-0.1,0.4-0.2l0.1,0.2c-0.1,0.1-0.2,0.2-0.4,0.2
				c-0.4,0.1-0.7-0.1-0.9-0.5c-0.1-0.4,0-0.8,0.4-0.9c0.4-0.1,0.7,0.2,0.7,0.5c0,0.1,0,0.1,0,0.1L26.4,51.8z M27.1,51.5
				c0-0.2-0.2-0.4-0.5-0.3c-0.3,0.1-0.3,0.3-0.3,0.5L27.1,51.5z"/>
			<path class="st1" d="M27.5,50.8l0.3,0.2c0.1,0.1,0.1,0.1,0.2,0.2l0,0c0-0.1,0-0.2,0.1-0.3l0.1-0.3l0.3-0.1l-0.3,0.8l0.7,0.6
				L28.6,52l-0.3-0.3c-0.1-0.1-0.1-0.1-0.2-0.2l0,0c0,0.1-0.1,0.2-0.1,0.3l-0.1,0.4l-0.3,0.1l0.3-0.8l-0.6-0.5L27.5,50.8z"/>
			<path class="st1" d="M28.9,50.1l0.1,0.3l0.4-0.1l0.1,0.2L29,50.6l0.2,0.7c0,0.2,0.1,0.3,0.3,0.2c0.1,0,0.1,0,0.1-0.1l0.1,0.2
				c0,0-0.1,0.1-0.2,0.1c-0.1,0-0.2,0-0.3,0c-0.1-0.1-0.1-0.2-0.2-0.3l-0.2-0.7l-0.2,0.1l-0.1-0.2l0.2-0.1l-0.1-0.3L28.9,50.1z"/>
			<path class="st1" d="M30,51.6c-0.1,0-0.2,0-0.2-0.1c0-0.1,0-0.2,0.1-0.2c0.1,0,0.2,0,0.2,0.1C30.2,51.5,30.1,51.6,30,51.6
				L30,51.6z"/>
			<path class="st1" d="M31.4,51.1c-0.1,0.1-0.2,0.1-0.4,0.2c-0.4,0.1-0.8-0.1-0.9-0.5c-0.1-0.4,0.1-0.8,0.5-0.9c0.1,0,0.3,0,0.4,0
				l0,0.2c-0.1,0-0.2,0-0.3,0c-0.3,0.1-0.4,0.4-0.3,0.6c0.1,0.3,0.3,0.5,0.6,0.4c0.1,0,0.2-0.1,0.3-0.1L31.4,51.1z"/>
			<path class="st1" d="M32.7,50.1c0.1,0.5-0.2,0.8-0.5,0.9c-0.4,0.1-0.7-0.1-0.8-0.5c-0.1-0.5,0.1-0.8,0.5-0.9
				C32.2,49.5,32.5,49.7,32.7,50.1z M31.6,50.4c0.1,0.3,0.3,0.5,0.6,0.4c0.2-0.1,0.4-0.3,0.3-0.6c-0.1-0.2-0.3-0.5-0.5-0.4
				C31.6,49.9,31.5,50.2,31.6,50.4z"/>
			<path class="st1" d="M32.8,49.8c0-0.1-0.1-0.3-0.1-0.4l0.2-0.1l0.1,0.2l0,0c0-0.2,0.1-0.3,0.4-0.4c0.2,0,0.4,0,0.5,0.2l0,0
				c0-0.1,0.1-0.2,0.1-0.2c0.1-0.1,0.1-0.1,0.3-0.2c0.2,0,0.5,0,0.6,0.5l0.2,0.8l-0.2,0.1l-0.2-0.8c-0.1-0.3-0.2-0.4-0.4-0.3
				c-0.1,0-0.2,0.2-0.2,0.3c0,0,0,0.1,0,0.1l0.2,0.8l-0.2,0.1l-0.2-0.8c-0.1-0.2-0.2-0.3-0.4-0.3c-0.2,0-0.2,0.2-0.2,0.3
				c0,0,0,0.1,0,0.1l0.2,0.8l-0.2,0.1L32.8,49.8z"/>
			<path class="st1" d="M35.5,50.1c-0.1,0-0.2,0-0.2-0.1c0-0.1,0-0.2,0.1-0.2c0.1,0,0.2,0,0.2,0.1C35.6,50,35.6,50.1,35.5,50.1
				L35.5,50.1z"/>
			<path class="st1" d="M35.7,48.2l0.1,0.3l0.4-0.1l0.1,0.2l-0.4,0.1l0.2,0.7c0,0.2,0.1,0.3,0.3,0.2c0.1,0,0.1,0,0.1-0.1l0.1,0.2
				c0,0-0.1,0.1-0.2,0.1c-0.1,0-0.2,0-0.3,0c-0.1-0.1-0.1-0.2-0.2-0.3l-0.2-0.7l-0.2,0.1l-0.1-0.2l0.2-0.1l-0.1-0.3L35.7,48.2z"/>
			<path class="st1" d="M36.5,48.4l0.4,0.6c0.1,0.1,0.2,0.3,0.2,0.4l0,0c0-0.1,0-0.3,0-0.5l0-0.8l0.2-0.1l0.4,0.6
				c0.1,0.1,0.2,0.3,0.2,0.4l0,0c0-0.1,0-0.3,0-0.5l0-0.7l0.2-0.1l-0.1,1.5l-0.2,0.1l-0.4-0.6c-0.1-0.1-0.2-0.3-0.2-0.4l0,0
				c0,0.2,0,0.3,0,0.5l0,0.7L37,49.7l-0.8-1.3L36.5,48.4z"/>
		</g>
	</g>
</g>
</svg>
