<svg width="104" height="45" viewBox="0 0 104 45" fill="none" xmlns="http://www.w3.org/2000/svg">
<path fill-rule="evenodd" clip-rule="evenodd" d="M63.7858 18.2705C64.0558 18.1805 64.1458 18.1805 64.3258 18.0905C63.4258 17.5505 62.5258 17.1005 61.5358 16.5605C61.4458 17.1905 61.0858 17.9105 60.9058 18.5405C60.2758 20.0705 59.6458 21.5105 58.9258 22.8605C58.5658 23.5805 58.0258 24.6605 57.3958 25.1105C57.9358 26.0105 58.4758 27.4505 58.7458 28.4405C59.1058 28.1705 59.8258 27.0905 60.0058 26.6405H60.0958C60.0958 30.1505 60.0958 33.6605 60.0958 37.1705C60.9958 37.0805 61.8058 36.9005 62.7058 36.8105V22.5905C63.0658 22.5905 63.0658 22.4105 63.2458 22.2305C62.9758 22.1405 62.7958 22.0505 62.5258 21.9605C62.7058 20.7005 63.5158 19.6205 63.7858 18.2705ZM55.8658 30.6005C55.9558 30.2405 56.0458 29.7905 56.2258 29.4305C56.4058 28.5305 56.5858 27.7205 56.7658 26.8205C56.8558 25.8305 56.9458 24.9305 57.1258 23.9405C57.2158 23.8505 57.5758 23.9405 57.7558 23.9405V21.6005C56.7658 21.5105 55.8658 21.4205 54.8758 21.3305C54.7858 21.3305 54.8758 20.8805 54.8758 20.7905C54.9658 20.1605 55.0558 19.5305 55.1458 18.9005C55.2358 18.9005 55.4158 18.9005 55.5058 18.7205V18.6305C54.7858 18.3605 54.0658 18.0005 53.2558 17.7305C53.2558 19.5305 52.8958 21.6905 52.4458 23.3105C52.2658 24.0305 52.1758 24.8405 51.8158 25.4705C51.8158 25.3805 51.8158 25.2905 51.8158 25.2005C50.8258 25.2005 49.9258 25.1105 48.9358 25.1105V24.6605C49.8358 24.6605 50.6458 24.7505 51.5458 24.7505V22.6805C51.9058 22.6805 52.1758 22.6805 52.5358 22.7705C52.5358 22.1405 52.5358 21.4205 52.5358 20.7905C52.1758 20.7905 51.9058 20.7005 51.5458 20.7005V18.6305C50.6458 18.5405 49.8358 18.3605 48.9358 18.2705C48.9358 17.3705 49.1158 17.8205 49.3858 17.3705V17.2805C48.5758 17.1005 47.6758 16.9205 46.8658 16.7405V18.0005C45.8758 17.8205 44.9758 17.7305 43.9858 17.5505V19.8905C43.5358 19.8905 43.1758 19.8005 42.7258 19.8005C42.7258 20.5205 42.7258 21.3305 42.7258 22.0505C43.1758 22.0505 43.5358 22.1405 43.9858 22.1405C43.9858 22.9505 43.9858 23.6705 43.9858 24.4805C44.9758 24.4805 45.8758 24.5705 46.8658 24.5705V25.0205C45.7858 25.0205 44.7058 24.9305 43.6258 24.9305V29.3405C44.4358 29.3405 45.2458 29.2505 46.1458 29.2505C46.0558 29.4305 45.9658 29.7005 45.8758 29.8805C44.7958 29.9705 43.7158 29.9705 42.7258 30.0605C42.9058 30.9605 43.1758 31.7705 43.3558 32.6705C43.6258 32.6705 43.7158 32.4905 43.7158 32.3105C44.0758 32.3105 44.4358 32.2205 44.7058 32.2205C44.4358 32.7605 44.1658 33.2105 43.8958 33.7505C44.6158 33.8405 45.3358 34.0205 46.0558 34.1105C46.0558 34.1105 46.0558 34.0205 46.1458 34.0205C46.3258 34.0205 46.4158 34.1105 46.5958 34.1105C46.1458 34.4705 44.1658 35.0105 43.3558 35.1005C43.8058 35.6405 44.2558 36.5405 44.3458 37.4405C45.5158 37.2605 48.3058 35.8205 48.9358 35.1905C49.6558 35.3705 50.0158 36.0005 50.7358 36.1805C51.0958 35.6405 51.4558 35.1005 51.9058 34.5605H51.9958C52.2658 35.0105 52.6258 35.5505 52.7158 36.0905C52.7158 36.0905 52.7158 36.0905 52.8058 36.0905C53.5258 35.1905 54.6958 34.4705 55.1458 33.2105C55.3258 33.5705 55.5958 33.8405 55.7758 34.2005C56.1358 34.6505 56.4958 35.0105 56.8558 35.3705H56.9458C57.3058 34.5605 57.6658 33.8405 58.1158 33.1205C57.0358 32.5805 56.1358 31.4105 55.8658 30.6005ZM48.8458 19.9805C49.0258 19.9805 49.2958 19.9805 49.4758 20.0705C49.4758 20.2505 49.4758 20.3405 49.4758 20.5205C49.2958 20.5205 49.0258 20.5205 48.8458 20.5205V19.9805ZM48.8458 22.2305C49.0258 22.2305 49.2958 22.2305 49.4758 22.2305C49.4758 22.4105 49.4758 22.5005 49.4758 22.6805C49.2958 22.6805 49.0258 22.6805 48.8458 22.6805V22.2305ZM46.7758 27.2705C46.4158 27.2705 46.1458 27.2705 45.7858 27.2705V26.6405H46.7758C46.6858 26.9105 46.7758 27.0905 46.7758 27.2705ZM46.6858 22.5005C46.5058 22.5005 46.2358 22.5005 46.0558 22.5005V22.0505C46.2358 22.0505 46.5058 22.0505 46.6858 22.0505C46.7758 22.2305 46.6858 22.3205 46.6858 22.5005ZM46.7758 20.1605C46.5958 20.1605 46.3258 20.1605 46.1458 20.0705C46.1458 19.8905 46.1458 19.7105 46.1458 19.5305C46.3258 19.5305 46.5958 19.5305 46.7758 19.6205V20.1605ZM48.8458 26.7305H49.7458V27.2705C49.4758 27.2705 49.1158 27.2705 48.8458 27.2705V26.7305ZM48.8458 31.5905C48.6658 31.8605 48.5758 32.1305 48.3958 32.4005C47.9458 32.2205 47.4958 32.0405 47.0458 31.9505V31.8605C47.2258 31.6805 48.3058 31.7705 48.6658 31.5905H48.8458ZM53.5258 31.3205C52.9858 32.3105 52.3558 33.2105 51.3658 33.8405C51.0058 33.6605 50.6458 33.4805 50.2858 33.3005C50.3758 33.0305 50.5558 32.7605 50.6458 32.4905C50.8258 32.1305 50.9158 31.6805 51.0958 31.3205C51.5458 31.2305 51.9058 31.2305 52.3558 31.1405C52.5358 31.0505 52.4458 29.7005 52.4458 29.4305C51.0058 29.5205 49.5658 29.6105 48.1258 29.7005L48.3058 29.3405C49.2058 29.0705 50.6458 29.0705 51.8158 29.0705V27.4505C52.0858 27.7205 52.5358 28.3505 52.6258 28.7105C52.6258 28.7105 52.6258 28.7105 52.7158 28.7105C52.8958 28.4405 52.9858 28.1705 53.1658 27.8105C53.1658 27.8105 53.1658 27.8105 53.2558 27.8105C53.4358 28.6205 53.6158 29.3405 53.7058 30.1505C53.7958 30.4205 53.8858 30.6905 53.9758 30.9605C53.7058 30.9605 53.6158 31.1405 53.5258 31.3205ZM54.8758 27.2705C54.6058 26.1905 54.4258 24.9305 54.3358 23.7605C54.6958 23.7605 54.9658 23.7605 55.3258 23.7605C55.2358 25.0205 54.8758 26.1005 54.8758 27.2705ZM93.3958 22.4105C93.3058 22.0505 94.2958 20.2505 94.4758 19.7105C94.5658 19.4405 94.6558 19.1705 94.7458 18.8105C94.7458 18.8105 95.0158 18.8105 95.1958 18.7205C95.1958 18.7205 95.1958 18.7205 95.1958 18.6305C94.2958 18.0905 93.3958 17.5505 92.4058 17.1005C92.2258 17.5505 92.1358 18.0005 91.9558 18.4505C91.5958 19.4405 91.1458 20.4305 90.6958 21.4205C90.1558 22.5005 89.5258 23.5805 88.8958 24.4805C88.6258 24.8405 88.2658 25.2005 87.9958 25.5605C87.9058 25.7405 88.2658 26.1905 88.3558 26.3705C88.6258 27.0005 89.2558 28.1705 89.3458 28.8005C89.9758 28.3505 90.3358 27.3605 90.8758 26.7305C90.8758 30.1505 90.8758 33.4805 90.8758 36.9005C91.6858 36.8105 92.5858 36.6305 93.3958 36.5405C93.3958 32.0405 93.3958 27.5405 93.3958 23.0405C93.6658 23.0405 93.8458 22.8605 93.8458 22.5905C93.9358 22.5905 93.6658 22.5005 93.3958 22.4105ZM73.4158 17.1905C73.5058 23.0405 73.5958 28.8905 73.6858 34.7405C74.4958 34.6505 75.3058 34.5605 76.0258 34.4705V32.5805C77.1058 32.4905 78.1858 32.4005 79.1758 32.3105C79.1758 27.5405 79.1758 22.7705 79.1758 18.0005C77.3758 17.7305 75.3958 17.4605 73.4158 17.1905ZM76.0258 20.4305C76.3858 20.4305 76.7458 20.5205 77.0158 20.5205C77.0158 21.6005 77.0158 22.6805 77.0158 23.8505C76.6558 23.8505 76.2958 23.8505 76.0258 23.8505C76.0258 22.6805 76.0258 21.5105 76.0258 20.4305ZM76.1158 29.8805C76.1158 28.7105 76.1158 27.6305 76.0258 26.4605H77.0158C77.0158 27.5405 77.0158 28.7105 77.0158 29.7905C76.7458 29.8805 76.3858 29.8805 76.1158 29.8805ZM84.7558 22.0505C85.5658 22.1405 86.3758 22.1405 87.1858 22.2305C87.1858 21.5105 87.1858 20.7005 87.2758 19.9805C86.4658 19.8905 85.6558 19.8005 84.8458 19.7105C84.8458 19.2605 84.8458 18.8105 84.8458 18.3605C85.1158 18.3605 85.1158 18.2705 85.2058 18.0905C85.2058 18.0005 83.1358 17.4605 82.7758 17.4605V19.4405C81.8758 19.3505 80.8858 19.2605 79.9858 19.0805V21.6005C80.8858 21.6905 81.7858 21.7805 82.6858 21.8705C82.7758 21.9605 82.6858 22.9505 82.6858 23.2205C81.6058 23.1305 80.5258 23.1305 79.4458 23.0405C79.4458 23.9405 79.4458 24.7505 79.4458 25.6505C81.0658 25.6505 82.6858 25.6505 84.3058 25.7405C84.3058 26.1905 84.3058 26.5505 84.3058 27.0005C82.6858 27.0005 81.0658 27.0005 79.4458 27.0005C79.4458 27.8105 79.4458 28.7105 79.4458 29.5205C81.0658 29.4305 82.6858 29.3405 84.3058 29.2505C84.3058 30.1505 84.3058 31.0505 84.3058 31.8605C84.2158 32.1305 84.3958 32.5805 84.2158 32.8505C84.1258 33.0305 82.8658 33.1205 82.5058 33.1205C82.6858 33.9305 83.0458 34.6505 83.1358 35.5505C84.3058 35.4605 85.2958 35.1005 85.7458 34.3805C86.2858 33.5705 86.1058 30.6005 86.1058 29.2505C86.4658 29.2505 86.8258 29.2505 87.2758 29.1605C87.2758 28.4405 87.3658 27.7205 87.3658 27.0005H86.1958C86.1958 26.7305 86.1958 26.4605 86.1958 26.1905C86.3758 26.1005 86.5558 26.0105 86.5558 25.8305C86.2858 25.8305 85.9258 25.8305 85.6558 25.8305H87.3658C87.3658 25.1105 87.3658 24.3005 87.4558 23.5805C86.5558 23.4905 85.6558 23.4905 84.7558 23.4005V22.0505ZM63.6958 23.1305C66.6658 23.3105 69.6358 23.4905 72.5158 23.5805V21.1505C71.4358 21.0605 70.3558 20.9705 69.3658 20.7905V18.1805C69.5458 18.0005 69.6358 18.0905 69.8158 17.9105V18.0005L67.2958 17.4605C67.2958 18.5405 67.2958 19.6205 67.2958 20.7005C66.1258 20.6105 64.9558 20.4305 63.7858 20.3405V23.1305H63.6958ZM102.126 30.4205C101.946 30.1505 101.766 29.9705 101.586 29.7005C101.586 30.1505 101.496 30.5105 101.496 30.9605C101.406 31.5905 101.316 32.2205 101.136 32.7605H101.046C100.506 32.6705 100.326 31.6805 100.236 31.2305C99.7858 29.7005 99.5158 27.8105 99.4258 26.1005C100.596 26.0105 101.676 25.8305 102.846 25.7405C102.756 24.9305 102.756 24.1205 102.666 23.3105C101.496 23.4005 100.326 23.4905 99.2458 23.4905C99.2458 21.9605 99.1558 20.4305 99.1558 18.9005C99.2458 18.9005 99.4258 18.9005 99.5158 18.8105C99.5158 18.7205 99.6058 18.7205 99.6058 18.6305V18.5405C98.7058 18.3605 97.8058 18.1805 96.9058 18.0005C96.9058 19.8905 97.0858 21.7805 97.0858 23.6705C96.0958 23.7605 95.1058 23.7605 94.0258 23.8505C94.1158 24.8405 94.2058 25.7405 94.2958 26.7305C95.2858 26.6405 96.2758 26.4605 97.2658 26.3705C97.2658 27.3605 97.4458 28.3505 97.6258 29.2505C97.9858 30.8705 98.1658 32.4005 98.7058 33.7505C99.0658 34.5605 99.4258 35.5505 100.506 35.6405C100.776 35.6405 101.046 35.5505 101.226 35.5505C102.486 35.1005 102.576 33.8405 102.846 32.5805C102.846 32.2205 102.936 31.7705 102.936 31.4105C102.756 30.8705 102.396 30.6905 102.126 30.4205ZM101.496 22.8605C101.946 22.5005 102.306 22.2305 102.756 21.8705L103.026 21.6905C102.936 21.5105 102.846 21.2405 102.756 21.0605C102.486 20.4305 102.126 19.8005 101.766 19.1705C101.676 18.9005 101.496 18.5405 101.316 18.4505C100.866 18.8105 100.416 19.0805 99.9658 19.4405L99.8758 19.5305C100.146 19.8005 100.236 20.0705 100.416 20.4305C100.686 21.1505 101.226 21.9605 101.496 22.8605ZM67.7458 31.4105C67.7458 30.2405 67.6558 29.1605 67.3858 28.0805C67.2958 27.2705 67.2058 26.5505 67.0258 25.7405C66.9358 25.1105 66.7558 24.5705 66.6658 23.9405H66.5758C65.9458 24.0305 65.2258 24.2105 64.5958 24.3005C64.8658 25.2905 64.8658 26.3705 65.0458 27.4505C65.3158 28.8905 65.4958 30.5105 65.4058 32.1305C66.2158 31.8605 67.0258 31.5905 67.7458 31.4105ZM69.0958 29.6105C69.0058 30.1505 68.8258 30.7805 68.7358 31.3205C69.3658 31.5005 69.9058 31.6805 70.5358 31.8605C70.7158 30.9605 70.9858 30.0605 71.1658 29.1605C71.2558 28.3505 71.4358 27.5405 71.5258 26.7305C71.6158 26.1905 71.7058 25.6505 71.7058 25.1105C71.8858 25.0205 72.0658 25.0205 72.1558 24.8405C71.3458 24.5705 70.6258 24.3005 69.8158 24.0305C69.7258 24.9305 69.6358 25.7405 69.5458 26.6405C69.3658 27.6305 69.1858 28.6205 69.0958 29.6105ZM81.6958 29.4305C81.1558 29.8805 80.5258 30.3305 79.9858 30.7805C80.5258 31.6805 81.3358 32.6705 81.6058 33.7505C82.2358 33.2105 82.7758 32.7605 83.4058 32.2205C83.2258 31.5905 82.2358 29.7905 81.6958 29.4305ZM63.4258 35.6405C66.5758 35.1905 69.6358 34.7405 72.7858 34.3805V31.9505C69.6358 32.2205 66.5758 32.5805 63.4258 32.8505V35.6405Z" fill="white"/>
<path fill-rule="evenodd" clip-rule="evenodd" d="M8.43564 19.98H7.71564V22.77C7.89564 22.77 8.16564 22.77 8.43564 22.77C9.33564 22.77 10.2356 22.41 10.2356 21.33C10.2356 20.43 9.33564 19.98 8.43564 19.98ZM10.0556 18.27C10.0556 17.46 9.42564 17.1 8.52564 17.1C8.16564 17.1 7.89564 17.1 7.80564 17.19V19.53H8.61564C9.42564 19.44 10.0556 18.9 10.0556 18.27ZM29.4956 18.9C28.5956 18.9 28.2356 19.71 28.1456 20.43H30.7556C30.7556 19.8 30.3956 18.9 29.4956 18.9ZM36.4256 19.62C36.4256 20.07 36.6956 20.25 37.3256 20.52C37.9556 20.79 38.3156 21.06 38.4956 21.51L37.8656 18.99C37.6856 18.9 37.5056 18.9 37.3256 18.9C36.6956 18.9 36.4256 19.26 36.4256 19.62ZM38.5856 21.78C38.5856 21.87 38.5856 21.96 38.5856 22.05C38.5856 22.95 37.9556 23.49 36.8756 23.49C36.4256 23.49 35.8856 23.4 35.6156 23.13L35.7956 22.59C36.0656 22.77 36.5156 22.95 36.8756 22.95C37.5056 22.95 37.8656 22.59 37.8656 22.14C37.8656 21.69 37.5956 21.42 36.9656 21.15C36.1556 20.79 35.7056 20.34 35.7056 19.8C35.7056 19.08 36.3356 18.45 37.3256 18.45C37.4156 18.45 37.5956 18.45 37.6856 18.45L32.7356 0L0.785645 8.55L6.99564 31.86V24.3H10.0556L12.2156 28.44C12.7556 29.43 13.4756 30.96 13.9256 32.13C13.7456 30.69 13.6556 28.89 13.6556 27V24.3H16.1756V35.73H13.3856L11.2256 31.59C10.6856 30.51 9.96564 28.98 9.51564 27.81H9.42564C9.51564 29.16 9.60564 30.87 9.60564 32.94V35.73H8.07564L9.87564 42.39L35.2556 35.55C33.9956 34.92 33.9056 33.48 33.9056 32.67V29.16H32.8256V27.36L30.3056 31.32L32.9156 35.64H29.7656L28.9556 34.2C28.7756 33.84 28.5956 33.39 28.4156 32.94H28.3256C28.1456 33.39 27.9656 33.84 27.7856 34.2L27.1556 35.73H24.1856L26.7956 31.5L24.2756 27.36H27.4256L28.1456 28.71L28.6856 29.97H28.7756C28.9556 29.52 29.1356 29.07 29.3156 28.62L29.9456 27.27H33.9956V25.74L36.7856 25.02V27.27H38.6756V29.16H36.7856V32.4C36.7856 33.39 37.1456 33.75 37.7756 33.75C38.1356 33.75 38.3156 33.75 38.4956 33.66V34.65L41.8256 33.75L38.5856 21.78ZM10.5056 22.77C10.0556 23.22 9.33564 23.4 8.25564 23.4C7.71564 23.4 7.26564 23.4 6.99564 23.31V16.56C7.35564 16.47 7.89564 16.38 8.43564 16.38C9.24564 16.38 9.87565 16.56 10.2356 16.92C10.5956 17.19 10.7756 17.55 10.7756 18.09C10.7756 18.72 10.3256 19.35 9.60564 19.62C10.2356 19.8 11.0456 20.34 11.0456 21.33C11.0456 22.05 10.7756 22.5 10.5056 22.77ZM15.1856 23.4V22.59C15.0056 22.95 14.4656 23.49 13.6556 23.49C12.9356 23.49 12.0356 23.04 12.0356 21.42V18.54H12.7556V21.33C12.7556 22.32 13.0256 22.95 13.8356 22.95C14.3756 22.95 15.0956 22.5 15.0956 21.6V18.54H15.8156V22.14C15.8156 22.68 15.8156 23.04 15.8156 23.4H15.1856ZM20.9456 16.56C21.2156 16.56 21.3956 16.74 21.3956 17.1C21.3956 17.37 21.2156 17.64 20.9456 17.64C20.6756 17.64 20.4956 17.46 20.4956 17.1C20.4956 16.83 20.6756 16.56 20.9456 16.56ZM21.3056 18.45V23.4H20.5856V18.54H21.3056V18.45ZM18.0656 21.15C17.2556 20.79 16.8056 20.34 16.8056 19.8C16.8056 19.08 17.4356 18.45 18.4256 18.45C18.8756 18.45 19.3256 18.54 19.5056 18.72L19.3256 19.26C19.1456 19.17 18.7856 18.99 18.3356 18.99C17.7956 18.99 17.5256 19.35 17.5256 19.71C17.5256 20.16 17.7956 20.34 18.4256 20.61C19.2356 20.97 19.6856 21.33 19.6856 22.05C19.6856 22.95 19.0556 23.49 17.9756 23.49C17.5256 23.49 16.9856 23.4 16.7156 23.13L16.8956 22.59C17.1656 22.77 17.6156 22.95 17.9756 22.95C18.6056 22.95 18.9656 22.59 18.9656 22.14C18.9656 21.6 18.6956 21.42 18.0656 21.15ZM24.3656 31.41C24.3656 31.77 24.3656 32.22 24.2756 32.49H19.1456C19.2356 33.48 20.1356 33.93 21.3956 33.93C22.2056 33.93 22.9256 33.84 23.5556 33.57L23.9156 35.37C23.1056 35.64 22.0256 35.82 20.9456 35.82C18.0656 35.82 16.4456 34.29 16.4456 31.68C16.4456 29.25 17.9756 27.18 20.6756 27.18C22.8356 27.18 24.3656 28.53 24.3656 31.41ZM26.5256 23.4H25.8056V20.52C25.8056 19.71 25.5356 18.99 24.6356 18.99C24.0056 18.99 23.3756 19.53 23.3756 20.34V23.4H22.6556V19.8C22.6556 19.26 22.6556 18.9 22.6556 18.54H23.2856V19.35C23.5556 18.9 24.0956 18.45 24.8156 18.45C25.4456 18.45 26.4356 18.81 26.4356 20.52V23.4H26.5256ZM31.3856 20.97H28.0556C28.0556 22.32 28.8656 22.86 29.6756 22.86C30.3056 22.86 30.6656 22.77 30.9356 22.59L31.1156 23.13C30.8456 23.22 30.3056 23.4 29.5856 23.4C28.1456 23.4 27.3356 22.41 27.3356 20.97C27.3356 19.44 28.2356 18.36 29.4956 18.36C31.0256 18.36 31.3856 19.71 31.3856 20.61C31.4756 20.79 31.4756 20.88 31.3856 20.97ZM33.2756 23.49C32.8256 23.49 32.2856 23.4 32.0156 23.13L32.1956 22.59C32.4656 22.77 32.9156 22.95 33.2756 22.95C33.9056 22.95 34.2656 22.59 34.2656 22.14C34.2656 21.69 33.9956 21.42 33.3656 21.15C32.5556 20.79 32.1056 20.34 32.1056 19.8C32.1056 19.08 32.7356 18.45 33.7256 18.45C34.1756 18.45 34.6256 18.54 34.8056 18.72L34.6256 19.26C34.4456 19.17 34.0856 18.99 33.6356 18.99C33.0956 18.99 32.8256 19.35 32.8256 19.71C32.8256 20.16 33.0956 20.34 33.7256 20.61C34.5356 20.97 34.9856 21.33 34.9856 22.05C34.9856 22.86 34.3556 23.49 33.2756 23.49ZM20.5856 28.98C19.5956 28.98 19.2356 29.97 19.2356 30.69H21.8456C21.8456 29.97 21.5756 28.98 20.5856 28.98Z" fill="white"/>
<path d="M10.6858 43.8302L11.0458 44.3702C11.1358 44.4602 11.2258 44.6402 11.2258 44.7302C11.2258 44.6402 11.2258 44.4602 11.2258 44.2802V43.5602L11.4058 43.4702L11.7658 44.0102C11.8558 44.1002 11.9458 44.2802 11.9458 44.3702C11.9458 44.2802 11.9458 44.1002 11.9458 43.9202V43.2902L12.1258 43.2002L12.0358 44.5502L11.8558 44.6402L11.4958 44.1002C11.4058 44.0102 11.3158 43.8302 11.3158 43.7402C11.3158 43.9202 11.3158 44.0102 11.3158 44.1902V44.8202L11.1358 45.0002L10.4158 43.8302H10.6858Z" fill="white"/>
<path d="M12.4858 43.2902L12.8458 43.8302C12.9358 43.9202 13.0258 44.1002 13.0258 44.1902C13.0258 44.1002 13.0258 43.9202 13.0258 43.7402V43.0202L13.2058 42.9302L13.5658 43.4702C13.6558 43.5602 13.7458 43.7402 13.7458 43.8302C13.7458 43.7402 13.7458 43.5602 13.7458 43.3802V42.7502L13.9258 42.6602L13.8358 44.0102L13.6558 44.1002L13.2958 43.5602C13.2058 43.4702 13.1158 43.2902 13.1158 43.2002C13.1158 43.3802 13.1158 43.4702 13.1158 43.6502V44.2802L12.9358 44.3702L12.2158 43.2002L12.4858 43.2902Z" fill="white"/>
<path d="M14.376 42.8406L14.736 43.3806C14.826 43.4706 14.916 43.6506 14.916 43.7406C14.916 43.6506 14.916 43.4706 14.916 43.2906V42.5706L15.096 42.4806L15.456 43.2006C15.546 43.2906 15.636 43.4706 15.636 43.5606C15.636 43.4706 15.636 43.2906 15.636 43.1106V42.4806L15.816 42.3906L15.726 43.7406L15.546 43.8306L15.186 43.2906C15.096 43.2006 15.006 43.0206 15.006 42.9306C15.006 43.1106 15.006 43.2006 15.006 43.3806V44.0106L14.826 44.1006L14.106 42.9306L14.376 42.8406Z" fill="white"/>
<path d="M16.3558 43.6504C16.2658 43.6504 16.1758 43.6504 16.1758 43.5604C16.1758 43.4704 16.1758 43.3804 16.2658 43.3804C16.3558 43.3804 16.4458 43.3804 16.4458 43.4704C16.5358 43.4704 16.4458 43.5604 16.3558 43.6504Z" fill="white"/>
<path d="M16.2659 41.6701L16.4459 41.5801L16.6259 42.3901C16.6259 42.2101 16.8059 42.1201 16.9859 42.0301C17.2559 41.9401 17.6159 42.1201 17.7059 42.4801C17.7959 42.9301 17.6159 43.2001 17.3459 43.2901C17.1659 43.3801 16.9859 43.2901 16.8959 43.2001V43.3801L16.7159 43.4701C16.7159 43.3801 16.6259 43.2901 16.6259 43.1101L16.2659 41.6701ZM16.8059 42.9301C16.8059 43.0201 16.8059 43.0201 16.8059 42.9301C16.9859 43.2001 17.0759 43.2001 17.2559 43.2001C17.5259 43.1101 17.6159 42.9301 17.5259 42.6601C17.4359 42.3901 17.2559 42.2101 17.0759 42.3001C16.8959 42.3001 16.8059 42.4801 16.8059 42.6601V42.7501V42.9301Z" fill="white"/>
<path d="M17.8859 42.2097C17.8859 42.1197 17.7959 41.9397 17.7959 41.8497L17.9759 41.7597L18.0659 41.9397C18.0659 41.8497 18.2459 41.6697 18.4259 41.5797C18.6059 41.4897 18.8759 41.5797 18.9659 42.0297L19.1459 42.7497L18.9659 42.8397L18.7859 42.1197C18.6959 41.9397 18.6059 41.7597 18.4259 41.8497C18.2459 41.8497 18.1559 42.0297 18.1559 42.1197V42.2097L18.3359 42.9297L18.1559 43.1097L17.8859 42.2097Z" fill="white"/>
<path d="M19.4161 42.1206C19.5061 42.3906 19.6861 42.4806 19.9561 42.3906C20.1361 42.3906 20.2261 42.3006 20.3161 42.2106L20.4061 42.3906C20.3161 42.4806 20.2261 42.5706 20.0461 42.5706C19.6861 42.6606 19.4161 42.4806 19.2361 42.1206C19.1461 41.7606 19.2361 41.4006 19.5961 41.3106C19.9561 41.2206 20.2261 41.4906 20.2261 41.7606C20.2261 41.8506 20.2261 41.8506 20.2261 41.8506L19.4161 42.1206ZM20.0461 41.8506C20.0461 41.6706 19.8661 41.4906 19.5961 41.5806C19.3261 41.6706 19.3261 41.8506 19.3261 42.0306L20.0461 41.8506Z" fill="white"/>
<path d="M20.4058 41.2202L20.6758 41.4002C20.7658 41.4902 20.7658 41.4902 20.8558 41.5802C20.8558 41.4902 20.8558 41.4002 20.9458 41.3102L21.0358 41.0402L21.3058 40.9502L21.0358 41.6702L21.6658 42.2102L21.3958 42.3002L21.1258 42.0302C21.0358 41.9402 21.0358 41.9402 20.9458 41.8502C20.9458 41.9402 20.8558 42.0302 20.8558 42.1202L20.7658 42.4802L20.4958 42.5702L20.7658 41.8502L20.2258 41.4002L20.4058 41.2202Z" fill="white"/>
<path d="M21.6659 40.5903L21.7559 40.8603L22.1159 40.7703L22.2059 40.9503L21.7559 41.0403L21.9359 41.6703C21.9359 41.8503 22.0259 41.9403 22.2059 41.8503C22.2959 41.8503 22.2959 41.8503 22.2959 41.7603L22.3859 41.9403C22.3859 41.9403 22.2959 42.0303 22.2059 42.0303C22.1159 42.0303 22.0259 42.0303 21.9359 42.0303C21.8459 41.9403 21.8459 41.8503 21.7559 41.7603L21.5759 41.1303L21.3959 41.2203L21.3059 41.0403L21.4859 40.9503L21.3959 40.6803L21.6659 40.5903Z" fill="white"/>
<path d="M22.6558 41.9399C22.5658 41.9399 22.4758 41.9399 22.4758 41.8499C22.4758 41.7599 22.4758 41.6699 22.5658 41.6699C22.6558 41.6699 22.7458 41.6699 22.7458 41.7599C22.8358 41.8499 22.7458 41.9399 22.6558 41.9399Z" fill="white"/>
<path d="M23.9156 41.4902C23.8256 41.5802 23.7356 41.5802 23.5556 41.6702C23.1956 41.7602 22.8356 41.5802 22.7456 41.2202C22.6556 40.8602 22.8356 40.5002 23.1956 40.4102C23.2856 40.4102 23.4656 40.4102 23.5556 40.4102V40.5902C23.4656 40.5902 23.3756 40.5902 23.2856 40.5902C23.0156 40.6802 22.9256 40.9502 23.0156 41.1302C23.1056 41.4002 23.2856 41.5802 23.5556 41.4902C23.6456 41.4902 23.7356 41.4002 23.8256 41.4002L23.9156 41.4902Z" fill="white"/>
<path d="M25.086 40.5906C25.176 41.0406 24.906 41.3106 24.636 41.4006C24.276 41.4906 24.006 41.3106 23.916 40.9506C23.826 40.5006 24.006 40.2306 24.366 40.1406C24.636 40.0506 24.906 40.2306 25.086 40.5906ZM24.096 40.8606C24.186 41.1306 24.366 41.3106 24.636 41.2206C24.816 41.1306 24.996 40.9506 24.906 40.6806C24.816 40.5006 24.636 40.2306 24.456 40.3206C24.096 40.4106 24.006 40.6806 24.096 40.8606Z" fill="white"/>
<path d="M25.1757 40.3203C25.1757 40.2303 25.0857 40.0503 25.0857 39.9603L25.2657 39.8703L25.3557 40.0503C25.3557 39.8703 25.4457 39.7803 25.7157 39.6903C25.8957 39.6903 26.0757 39.6903 26.1657 39.8703C26.1657 39.7803 26.2557 39.6903 26.2557 39.6903C26.3457 39.6003 26.3457 39.6003 26.5257 39.5103C26.7057 39.5103 26.9757 39.5103 27.0657 39.9603L27.2457 40.6803L27.0657 40.7703L26.8857 40.0503C26.7957 39.7803 26.7057 39.6903 26.5257 39.7803C26.4357 39.7803 26.3457 39.9603 26.3457 40.0503V40.1403L26.5257 40.8603L26.3457 40.9503L26.1657 40.2303C26.0757 40.0503 25.9857 39.9603 25.8057 39.9603C25.6257 39.9603 25.6257 40.1403 25.6257 40.2303V40.3203L25.8057 41.0403L25.6257 41.1303L25.1757 40.3203Z" fill="white"/>
<path d="M27.6058 40.5898C27.5158 40.5898 27.4258 40.5898 27.4258 40.4998C27.4258 40.4098 27.4258 40.3198 27.5158 40.3198C27.6058 40.3198 27.6958 40.3198 27.6958 40.4098C27.6958 40.4998 27.6958 40.5898 27.6058 40.5898Z" fill="white"/>
<path d="M27.7859 38.8804L27.8759 39.1504L28.2359 39.0604L28.3259 39.2404L27.9659 39.3304L28.1459 39.9604C28.1459 40.1404 28.2359 40.2304 28.4159 40.1404C28.5059 40.1404 28.5059 40.1404 28.5059 40.0504L28.5959 40.2304C28.5959 40.2304 28.5059 40.3204 28.4159 40.3204C28.3259 40.3204 28.2359 40.3204 28.1459 40.3204C28.0559 40.2304 28.0559 40.1404 27.9659 40.0504L27.7859 39.4204L27.6059 39.5104L27.5159 39.3304L27.6959 39.2404L27.6059 38.9704L27.7859 38.8804Z" fill="white"/>
<path d="M28.5056 39.0602L28.8656 39.6002C28.9556 39.6902 29.0456 39.8702 29.0456 39.9602C29.0456 39.8702 29.0456 39.6902 29.0456 39.5102V38.7902L29.2256 38.7002L29.5856 39.2402C29.6756 39.3302 29.7656 39.5102 29.7656 39.6002C29.7656 39.5102 29.7656 39.3302 29.7656 39.1502V38.5202L29.9456 38.4302L29.8556 39.7802L29.6756 39.8702L29.3156 39.3302C29.2256 39.2402 29.1356 39.0602 29.1356 38.9702C29.1356 39.1502 29.1356 39.2402 29.1356 39.4202V40.0502L28.9556 40.2302L28.2356 39.0602H28.5056Z" fill="white"/>
</svg>
