<svg width="159" height="31" viewBox="0 0 159 31" fill="none" xmlns="http://www.w3.org/2000/svg">
<path d="M60.7695 15.8196C60.7695 12.8409 61.8333 10.2878 64.0673 8.16017C66.3013 6.03256 68.8545 4.96875 71.9395 4.96875C74.9182 4.96875 77.5777 6.03256 79.7053 8.26655C81.8329 10.3942 83.0031 13.0537 83.0031 16.0323C83.0031 19.1174 81.9393 21.6705 79.7053 23.7981C77.4713 25.9257 74.9182 26.9895 71.7267 26.9895C68.9608 26.9895 66.5141 26.0321 64.3865 24.1173C62.0461 21.9897 60.7695 19.2238 60.7695 15.8196ZM63.2163 15.926C63.2163 18.4791 64.0673 20.6067 65.7694 22.3088C67.4715 24.0109 69.4927 24.7556 71.7267 24.7556C74.1735 24.7556 76.1947 23.9045 77.8968 22.2024C79.5989 20.5003 80.45 18.3727 80.45 15.926C80.45 13.4792 79.5989 11.3516 78.0032 9.6495C76.3011 7.94741 74.2799 7.09636 71.8331 7.09636C69.3864 7.09636 67.3651 7.94741 65.663 9.6495C64.0673 11.3516 63.2163 13.3728 63.2163 15.926Z" fill="white"/>
<path d="M85.2366 13.9036H87.2578V15.4993C88.6407 14.3291 90.1301 13.6909 91.7258 13.5845V15.3929C90.7684 15.3929 89.9173 15.8185 89.0663 16.5631C87.8961 17.5206 87.2578 18.7971 87.2578 20.1801V26.8821H85.2366V13.9036Z" fill="white"/>
<path d="M108.214 26.5637H106.193V24.6488C104.385 26.1381 102.47 26.8828 100.129 26.8828C97.8955 26.8828 95.9806 26.1381 94.2785 24.7552C92.6828 23.3722 91.8318 21.6702 91.8318 19.6489C91.8318 17.6277 92.6828 15.9256 94.2785 14.5427C95.8743 13.1597 97.7891 12.415 100.129 12.415C102.363 12.415 104.385 13.1597 106.193 14.649V13.4788H108.214V26.5637ZM106.193 20.8191V18.5851C105.98 17.5213 105.449 16.6703 104.491 15.8192C103.321 14.7554 101.832 14.2235 100.129 14.2235C98.4274 14.2235 96.9381 14.7554 95.7679 15.8192C94.5977 16.883 93.9594 18.1596 93.9594 19.6489C93.9594 21.1383 94.5977 22.4148 95.7679 23.4786C96.9381 24.5424 98.4274 25.0743 100.129 25.0743C101.832 25.0743 103.321 24.5424 104.491 23.4786C105.449 22.734 105.98 21.7765 106.193 20.8191Z" fill="white"/>
<path d="M112.47 17.0958V26.9892H110.449V13.9043H112.47V14.3299C113.321 13.5852 114.598 13.1597 116.193 13.1597C117.895 13.1597 119.385 13.6916 120.449 14.649C121.512 15.6064 122.151 16.883 122.151 18.3723V26.9892H120.236V18.4787C120.236 17.5213 119.81 16.6702 119.066 16.0319C118.215 15.3937 117.363 14.9681 116.193 14.9681C115.129 14.9681 114.172 15.2873 113.321 16.0319C112.895 16.3511 112.576 16.6702 112.47 17.0958Z" fill="white"/>
<path d="M138.214 24.7552H138.108C136.512 26.1381 134.598 26.8828 132.257 26.8828C130.023 26.8828 128.108 26.1381 126.406 24.7552C124.811 23.3722 123.959 21.6702 123.959 19.6489C123.959 17.6277 124.811 15.9256 126.406 14.5427C128.002 13.1597 129.917 12.415 132.257 12.415C134.491 12.415 136.512 13.1597 138.321 14.649V13.4788H140.342V23.3722C140.342 25.2871 139.597 26.9892 138.002 28.3721C136.406 29.7551 134.491 30.4998 132.257 30.4998C130.023 30.4998 128.002 29.7551 126.406 28.3721C126.087 28.053 125.662 27.6275 125.236 27.0956L127.257 26.4573C127.47 26.67 127.683 26.8828 127.896 26.9892C129.066 28.053 130.555 28.5849 132.257 28.5849C133.959 28.5849 135.449 28.053 136.619 26.9892C137.576 26.2445 138.214 25.3935 138.214 24.7552ZM138.321 18.5851C138.108 17.6277 137.576 16.6703 136.619 15.9256C135.449 14.8618 133.959 14.3299 132.257 14.3299C130.555 14.3299 129.066 14.8618 127.896 15.9256C126.725 16.9894 126.087 18.266 126.087 19.7553C126.087 21.2446 126.725 22.5212 127.896 23.585C129.066 24.6488 130.555 25.1807 132.257 25.1807C133.959 25.1807 135.449 24.6488 136.619 23.585C137.47 22.8403 138.002 21.8829 138.321 20.9255V18.5851Z" fill="white"/>
<path d="M158.107 19.2234H158.214C158.107 17.4149 157.363 15.8192 155.873 14.5427C154.278 13.1597 152.469 12.415 150.235 12.415C148.001 12.415 146.193 13.1597 144.597 14.5427C143.001 15.9256 142.257 17.7341 142.257 19.7553C142.257 21.7765 143.001 23.4786 144.597 24.968C146.193 26.3509 148.001 27.0956 150.235 27.0956C152.469 27.0956 154.278 26.3509 155.873 24.968C156.618 24.3297 157.15 23.585 157.575 22.8403L155.235 23.2659C155.022 23.4786 154.81 23.6914 154.703 23.9041C153.533 24.968 152.044 25.4999 150.342 25.4999C148.639 25.4999 147.256 24.968 146.086 23.9041C145.448 23.3722 145.022 22.734 144.703 21.9893L158.107 19.2234ZM144.278 19.7553C144.278 18.266 144.916 16.883 146.086 15.8192C147.256 14.7554 148.746 14.2235 150.342 14.2235C152.044 14.2235 153.427 14.7554 154.703 15.8192C155.341 16.4575 155.767 17.0958 156.086 17.8405L144.278 20.0744C144.278 19.9681 144.278 19.8617 144.278 19.7553Z" fill="white"/>
<path d="M7.68504 6.24532V26.9895H6.30209V6.24532H0.0256348V4.96875H14.0679V6.24532H7.68504Z" fill="white"/>
<path d="M14.5999 24.0106C15.8765 25.0744 17.4722 25.6063 19.2806 25.6063C21.1955 25.6063 22.8976 24.9681 24.2805 23.7979C24.4933 23.6915 24.5997 23.4787 24.8124 23.266L26.3018 23.6915C25.9826 24.0106 25.7699 24.3298 25.3443 24.6489C23.6423 26.1382 21.621 26.8829 19.2806 26.8829C16.9403 26.8829 14.919 26.1382 13.217 24.6489C11.5149 23.1596 10.6638 21.3511 10.6638 19.3299C10.6638 17.2023 11.5149 15.5002 13.217 14.0108C14.919 12.5215 16.9403 11.7769 19.2806 11.7769C21.3019 11.7769 23.1104 12.3088 24.5997 13.3726C24.8124 13.5853 25.1316 13.7981 25.3443 14.0108C25.4507 14.1172 25.5571 14.2236 25.5571 14.2236L24.4933 15.181L14.5999 24.0106ZM23.6423 14.4364C22.4721 13.5853 20.9827 13.1598 19.387 13.1598C17.4722 13.1598 15.7701 13.7981 14.3871 14.9683C13.0042 16.1385 12.3659 17.6278 12.3659 19.3299C12.3659 20.7128 12.7914 21.9894 13.7489 23.0532L23.6423 14.4364Z" fill="white"/>
<path d="M41.6205 23.3719L43.1099 23.7974C42.7907 24.1166 42.578 24.4357 42.1525 24.7549C40.4504 26.2442 38.4291 26.9889 36.0888 26.9889C33.7484 26.9889 31.7272 26.2442 30.0251 24.7549C28.323 23.2655 27.4719 21.4571 27.4719 19.4358C27.4719 17.3082 28.323 15.6061 30.0251 14.1168C31.7272 12.6275 33.7484 11.8828 36.0888 11.8828C38.4291 11.8828 40.4504 12.6275 42.1525 14.1168C42.4716 14.4359 42.7907 14.7551 43.1099 15.0742L41.6205 15.6061C41.5142 15.3934 41.3014 15.287 41.0886 15.0742C39.7057 13.904 38.0036 13.2658 36.0888 13.2658C34.1739 13.2658 32.4718 13.904 31.0889 15.0742C29.7059 16.2444 29.0676 17.7337 29.0676 19.4358C29.0676 21.1379 29.7059 22.6273 31.0889 23.7974C32.4718 24.9676 34.1739 25.6059 36.0888 25.6059C38.0036 25.6059 39.7057 24.9676 41.0886 23.7974C41.3014 23.6911 41.5142 23.4783 41.6205 23.3719Z" fill="white"/>
<path d="M45.4502 4.96875H46.8331V14.1175C48.0033 13.1601 49.4927 12.6282 51.0884 12.6282C52.8968 12.6282 54.3862 13.1601 55.45 14.1175C56.6202 15.0749 57.1521 16.3515 57.1521 17.8408V26.8832H55.7691V17.9472C55.7691 16.777 55.3436 15.8196 54.3862 14.9685C53.4287 14.1175 52.3649 13.7983 51.0884 13.7983C49.8118 13.7983 48.6416 14.2239 47.7906 14.9685C47.365 15.2877 47.0459 15.7132 46.8331 16.1387V26.8832H45.4502V4.96875Z" fill="white"/>
<path d="M119.172 5.0745V9.11696H118.427V5.28726C118.214 5.92554 117.895 6.45745 117.576 6.88297L116.832 6.56383C117.47 5.71278 118.002 4.86174 118.321 3.79793H116.938V3.05326H118.427V1.7767L117.151 1.88308L117.044 1.13841C118.427 1.03203 119.491 0.925652 120.342 0.712891L120.448 1.45755L119.172 1.67032V3.05326H120.448V3.79793H119.172V3.90431C119.704 4.54259 120.236 5.18088 120.661 5.81916L120.023 6.24468L119.172 5.0745ZM123.64 6.88297L120.236 7.52125L120.023 6.77659L123.64 6.1383V0.712891H124.385V5.92554L125.129 5.81916L125.236 6.56383L124.385 6.77659V9.11696H123.64V6.88297ZM122.257 5.50002C121.831 4.96812 121.3 4.43621 120.768 3.90431L121.3 3.37241C122.044 4.11707 122.576 4.64898 122.895 4.96812L122.257 5.50002ZM122.682 3.37241C122.257 2.8405 121.725 2.20222 121.087 1.67032L121.619 1.13841C122.363 1.88308 123.002 2.52136 123.321 2.94688L122.682 3.37241Z" fill="white"/>
<path d="M129.065 5.28726V3.15965H128.001V2.41498H129.065V0.712891H129.81V2.41498H130.661V3.15965H129.81V4.86174L130.448 4.43621L130.873 5.0745C130.661 5.28726 130.129 5.50002 129.81 5.71278V8.26592C129.81 8.47868 129.703 9.11696 129.065 9.11696C128.852 9.11696 128.427 9.01058 128.001 8.9042V8.05316L128.427 8.26592C128.533 8.26592 128.639 8.26592 128.746 8.26592C128.852 8.26592 128.959 8.26592 128.959 7.94678V6.03192L128.214 6.35107L127.788 5.71278L129.065 5.28726ZM135.767 9.11696C134.916 8.69144 134.065 8.26592 133.32 7.62763C132.469 8.26592 131.405 8.79782 130.448 9.11696L129.916 8.3723C131.086 8.05316 132.044 7.62763 132.788 7.09573C132.256 6.56383 131.618 5.81916 131.086 4.96812L131.724 4.54259C132.256 5.39364 132.788 6.1383 133.32 6.56383C134.384 5.39364 134.809 4.43621 134.809 4.32983C134.809 4.22345 134.703 4.22345 134.703 4.22345H130.98V3.47879H132.788V2.20222H130.661V1.56394H132.788V0.712891H133.533V1.56394H135.98V2.3086H133.533V3.58517H135.554L135.873 3.79793C135.448 5.39364 134.916 5.92554 133.852 7.20211C134.49 7.62763 135.235 8.05316 136.299 8.47868L135.767 9.11696Z" fill="white"/>
<path d="M141.192 3.05314H142.788V3.69142H138.958V2.94675H140.554V2.09571H139.171V1.35104H140.554V0.5H141.299V1.35104H142.788V2.09571H141.299V3.05314H141.192ZM140.448 7.73388H138.958V6.98922H140.448V6.13817H139.065V5.39351H141.299C141.512 4.75523 141.724 4.3297 141.724 3.90418L142.363 4.11694C142.256 4.54246 142.15 4.96799 141.937 5.39351H142.682V6.13817H141.086V6.98922H142.682V7.73388H141.086V9.22321H140.341V7.73388H140.448ZM139.703 5.28713C139.49 4.75523 139.384 4.43608 139.171 4.11694L139.81 3.7978C140.022 4.11694 140.129 4.54247 140.341 4.96799L139.703 5.28713ZM143.852 8.69131C144.278 8.47855 144.703 8.05303 145.129 7.6275C144.49 6.67008 144.171 5.71265 144.065 4.64885H143.746V9.22321H143.001V1.13828C143.001 1.0319 143.001 0.925522 143.214 0.925522H146.618C146.937 0.925522 147.043 1.0319 147.043 1.45743C147.043 1.88295 146.831 3.15952 146.618 3.2659C146.405 3.37228 146.192 3.47866 145.873 3.47866C145.554 3.47866 145.235 3.37228 144.809 3.2659L144.916 2.52123L145.66 2.62761C145.873 2.62761 146.086 2.62761 146.192 2.52123C146.299 2.41485 146.405 1.88295 146.405 1.77657C146.405 1.67019 146.405 1.67019 146.299 1.67019H143.958C143.852 1.67019 143.852 1.67019 143.852 1.77657V3.7978H146.831L147.256 4.01056C147.15 5.39351 146.831 6.5637 146.192 7.52112C146.618 7.94665 146.724 8.15941 147.469 8.69131L146.831 9.11683C146.405 8.69131 145.98 8.37217 145.767 8.05303C145.448 8.37217 145.129 8.69131 144.703 9.11683L143.852 8.69131ZM144.809 4.54246C144.809 5.18075 145.022 5.81903 145.341 6.45732L145.66 6.88284C146.086 6.24456 146.405 5.49989 146.512 4.75523C146.512 4.54246 146.405 4.54246 146.299 4.54246H144.809Z" fill="white"/>
<path d="M151.724 4.54259V9.11696H150.98V5.0745C150.873 5.50002 150.661 5.92554 150.554 6.24468L149.81 6.1383C150.341 5.18088 150.661 4.22345 150.767 3.15965H149.916V2.41498H150.873V0.712891H151.618V2.41498H152.469V3.15965H151.618V3.26603C151.937 3.79793 152.256 4.22345 152.575 4.86174L151.937 5.28726L151.724 4.54259ZM156.937 8.3723H157.043C157.15 8.3723 157.363 8.26592 157.363 7.94678V6.67021H155.98C155.767 6.67021 155.661 6.56383 155.661 6.35107V5.6064H155.022C154.916 6.1383 154.703 6.67021 153.746 6.88297L153.427 6.24468C153.746 6.1383 154.065 6.03192 154.171 5.92554C154.278 5.81916 154.278 5.71278 154.384 5.6064H153.427C153.427 5.6064 153.32 5.6064 153.32 5.71278V9.11696H152.575V5.0745C152.575 4.96812 152.682 4.86174 152.788 4.86174H157.895C158.001 4.86174 158.107 4.96812 158.107 5.0745V8.26592C158.107 8.3723 158.107 9.11696 157.15 9.11696C156.937 9.11696 156.618 9.11696 156.192 9.01058V8.47868H153.958C153.852 8.47868 153.852 8.47868 153.852 8.3723V6.98935C153.852 6.88297 153.852 6.88297 153.958 6.88297H156.831C156.937 6.88297 156.937 6.88297 156.937 6.98935V8.3723ZM152.682 3.79793C153.32 3.69155 153.852 3.58517 154.384 3.26603H152.788V2.62774H154.916C154.809 2.52136 154.49 2.41498 153.958 2.3086L154.278 1.67032L155.129 1.98946H155.235C155.767 1.88308 156.405 1.67032 156.724 1.45755H153.107V0.81927H157.469L157.788 1.35117C157.363 1.7767 156.724 2.09584 155.98 2.41498L156.192 2.52136L156.086 2.73412H157.895L158.214 3.15965C158.001 3.58517 157.788 4.01069 157.363 4.54259L156.724 4.11707L157.256 3.47879H156.086V4.11707C156.086 4.43621 155.98 4.75536 155.661 4.86174C155.554 4.96812 155.448 4.96812 155.235 4.96812C155.022 4.96812 154.703 4.96812 154.384 4.86174V4.11707C153.746 4.32983 153.214 4.54259 152.788 4.64897L152.682 3.79793ZM156.299 7.52125H154.597V7.84039H156.299V7.52125ZM155.554 3.47879L154.597 4.01069C154.809 4.11707 155.129 4.11707 155.235 4.11707C155.341 4.11707 155.448 4.01069 155.448 3.79793V3.47879H155.554ZM156.405 5.92554C156.405 6.03192 156.512 6.1383 156.618 6.1383H157.469V5.71278C157.469 5.71278 157.469 5.6064 157.363 5.6064H156.405V5.92554Z" fill="white"/>
</svg>
