<?xml version="1.0" encoding="utf-8"?>
<!-- Generator: Adobe Illustrator 21.0.0, SVG Export Plug-In . SVG Version: 6.00 Build 0)  -->
<svg version="1.1" id="Layer_1" xmlns="http://www.w3.org/2000/svg" xmlns:xlink="http://www.w3.org/1999/xlink" x="0px" y="0px"
	 viewBox="0 0 2560 611" style="enable-background:new 0 0 2560 611;" xml:space="preserve">
<style type="text/css">
	.st0{fill:#FFFFFF;}
	.st1{enable-background:new    ;}
</style>
<g>
	<path class="st0" d="M0,569.3c7.9-19.4,16-38.7,23.8-58.2C86.3,356.3,148.7,201.4,211.1,46.5c1.6-4,3.5-5.3,7.9-5.3
		c47.3,0.2,94.6,0.2,142,0c3.9,0,5.8,1,7.4,4.7C444.9,218.5,521.6,391,598.3,563.6c0.9,1.9,1.7,3.9,2.8,6.4
		c-2.1,0.1-3.6,0.2-5.2,0.2c-43.8,0-87.6-0.1-131.5,0.1c-4.1,0-5.7-1.4-7.2-4.9c-13.1-31.9-26.3-63.6-39.4-95.5
		c-1.4-3.4-3.1-4.6-6.9-4.6c-75.7,0.1-151.3,0.1-227,0c-3.9,0-5.4,1.4-6.7,4.8c-11.9,31.8-24,63.5-35.8,95.3c-1.4,3.7-3,5-7.1,5
		c-43.2-0.2-86.3-0.1-129.5-0.1c-1.7,0-3.3,0.1-5,0.1C0,570,0,569.7,0,569.3z M377,373c-28.4-68.4-56.6-136.4-85.3-205.4
		c-26.1,69.2-51.8,137.2-77.5,205.4C268.8,373,322.5,373,377,373z"/>
	<path class="st0" d="M2560,605.3c-1.3-1.2-2.7-2.4-4-3.7c-52.8-52.8-105.6-105.6-158.5-158.3c-2.7-2.7-3.8-5.3-3.8-9.1
		c0.1-86.8,0.1-173.7,0.1-260.5c0-2.1,0-4.3,0-7.2c-2.5,0-4.6,0-6.7,0c-87,0-174,0-261,0.1c-3.8,0-6.5-1-9.1-3.7
		C2064.1,109.9,2011.2,57,1958.3,4c-1.2-1.2-2.2-2.5-3.3-3.7c201.7,0,403.3,0,605,0C2560,202,2560,403.7,2560,605.3z"/>
	<path class="st0" d="M794.2,239.9c0,110.9,0,220.3,0,330c-44,0-87.6,0-131.5,0c0-176,0-351.9,0-528.3c1.5-0.1,3.1-0.3,4.7-0.3
		c35.2,0,70.3,0,105.5-0.1c3.4,0,5.4,1.2,7.6,3.6c53.8,62.3,107.7,124.5,161.6,186.7c1.5,1.8,3.1,3.5,5.1,5.8c2.3-2.6,4.4-5,6.6-7.4
		c53.4-61.7,106.9-123.5,160.4-185.1c1.4-1.7,4-3.3,6-3.4c36.5-0.2,73-0.1,109.5-0.1c0.5,0,1,0.1,1.9,0.3c0,176,0,352,0,528.3
		c-43.6,0-87.2,0-131.4,0c0-109.5,0-219.1,0-328.6c-0.5-0.3-1-0.6-1.5-0.9c-0.8,1.2-1.4,2.5-2.4,3.6
		c-45.4,52.8-90.8,105.6-136.3,158.3c-1.6,1.8-4.6,2.8-7.1,3.3c-11.1,2-18.6-2.4-26.1-11.3c-42.4-50.3-85.6-100-128.5-149.9
		C797.3,243.2,796.3,242.2,794.2,239.9z"/>
	<path class="st0" d="M1332.8,570.2c0-176.5,0-352.5,0-528.9c1.9,0,3.6,0,5.2,0c78.1,0,156.3-0.3,234.4,0.1
		c52.6,0.3,103.4,9.7,150.6,34c71.4,36.9,114.5,95.5,129.8,174.1c10.8,55.2,7.4,109.9-13,162.7c-24.8,64.2-71.5,106.7-134.7,132
		c-32.1,12.8-65.5,20.4-99.8,23.1c-23.6,1.9-47.2,2.7-70.9,2.8c-65.1,0.4-130.3,0.1-195.5,0.1C1337,570.2,1335.1,570.2,1332.8,570.2
		z M1464.6,473c1.6,0.1,2.9,0.3,4.1,0.3c27.7,0,55.3,0.6,83-0.2c16.1-0.5,32.4-1.7,48.1-4.9c58.2-11.9,97.2-46.1,114.4-103.4
		c12.3-41.1,11.8-82.6-1.2-123.5c-12.4-39.1-37.2-68-74.6-85.5c-25-11.7-51.6-16.7-79-17.2c-30.3-0.6-60.7-0.2-91-0.2
		c-1.3,0-2.5,0.3-3.9,0.4C1464.6,250.2,1464.6,361.5,1464.6,473z"/>
	<path class="st0" d="M2120.9,200.2c0,80.5,0,159.6,0,239.3c79.6,0,158.8,0,239.1,0c-1.8,2-2.9,3.2-4,4.3
		c-54.6,54.6-109.1,109.1-163.8,163.6c-1.8,1.8-4.8,3.1-7.2,3.1c-76.8,0.2-153.7,0.1-230.5,0.1c-1.5,0-3-0.1-5.1-0.2
		c0-2,0-3.8,0-5.6c0-76.3,0-152.7,0.1-229c0-2.5,1.1-5.7,2.8-7.4c54.7-54.9,109.5-109.7,164.3-164.5
		C2117.7,203,2118.8,202.1,2120.9,200.2z"/>
</g>
<path class="st1" d="M0,0"/>
</svg>
