<?xml version="1.0" encoding="UTF-8"?><svg id="_圖層_2" xmlns="http://www.w3.org/2000/svg" viewBox="0 0 133.17 35.23"><defs><style>.cls-1{fill:#fff;}</style></defs><g id="_圖層_1-2"><path class="cls-1" d="m90.52,12.18c-1.03,0-1.77-.81-1.77-1.93s.74-1.9,1.77-1.9c.77,0,1.42.46,1.66,1.15h2.87c-.33-2.27-2.12-3.78-4.52-3.78-2.76,0-4.72,1.88-4.72,4.52s1.97,4.55,4.71,4.55c2.4,0,4.23-1.56,4.56-3.87h-2.89c-.24.76-.88,1.25-1.67,1.25Z"/><polygon class="cls-1" points="65.62 10.22 69.25 10.22 69.25 7.73 65.62 7.73 65.62 6.1 69.66 6.1 69.66 3.46 62.59 3.46 62.59 14.52 69.8 14.52 69.8 11.88 65.62 11.88 65.62 10.22"/><rect class="cls-1" x="71.41" y="2.91" width="2.94" height="11.61"/><path class="cls-1" d="m80.33,5.72c-2.69,0-4.63,1.93-4.63,4.53s1.96,4.55,4.63,4.55c2.13,0,3.87-1.22,4.47-3.16h-2.94c-.27.51-.85.81-1.53.81-.93,0-1.55-.51-1.74-1.48h6.33c.03-.27.05-.52.05-.79,0-2.5-1.9-4.45-4.64-4.45Zm-1.69,3.62c.24-.85.84-1.31,1.69-1.31s1.5.46,1.75,1.31h-3.44Z"/><path class="cls-1" d="m115.42,10.75c0,.88-.47,1.42-1.26,1.42s-1.26-.52-1.26-1.42v-4.75h-2.94v4.88c0,2.39,1.69,3.93,4.2,3.93s4.2-1.55,4.2-3.93v-4.88h-2.94v4.75Z"/><path class="cls-1" d="m99.9,10.98v-2.72h2.07v-2.27h-2.13v-2.48h-.62l-3.82,4.06v.69h1.56v3.21c0,1.9,1.15,3.05,3.03,3.05h2.02v-2.56h-1.12c-.62,0-1-.38-1-.98Z"/><path class="cls-1" d="m130.13,5.75c-1.06,0-2.01.47-2.62,1.25-.54-.79-1.41-1.25-2.45-1.25-.98,0-1.88.44-2.5,1.17l-.41-.93h-2.07v8.53h2.94v-4.68c0-1.06.44-1.63,1.23-1.63.62,0,.95.46.95,1.33v4.98h2.86v-4.68c0-1.07.41-1.63,1.22-1.63.63,0,.95.43.95,1.33v4.98h2.94v-5.34c0-2.01-1.2-3.43-3.03-3.43Z"/><path class="cls-1" d="m105.83,6.94l-.46-.95h-1.97v8.53h2.94v-4.33c0-1.09.44-1.55,1.47-1.55h1.15v-2.69h-.79c-1.01,0-1.74.28-2.34.98Z"/><path class="cls-1" d="m67.78,32.27c-1.56,0-2.72-1.25-2.72-2.95s1.15-2.97,2.72-2.97c1.17,0,2.12.74,2.5,1.86h3.1c-.46-2.8-2.7-4.71-5.59-4.71-3.36,0-5.88,2.5-5.88,5.81s2.51,5.8,5.88,5.8c2.94,0,5.2-1.97,5.62-4.88h-3.11c-.32,1.23-1.28,2.04-2.51,2.04Z"/><rect class="cls-1" x="74.72" y="23.22" width="2.94" height="11.61"/><path class="cls-1" d="m83.78,26.03c-2.78,0-4.77,1.9-4.77,4.53s1.99,4.55,4.77,4.55,4.79-1.91,4.79-4.55-2.01-4.53-4.79-4.53Zm0,6.44c-1.06,0-1.83-.77-1.83-1.9s.77-1.91,1.83-1.91,1.85.79,1.85,1.91-.77,1.9-1.85,1.9Z"/><path class="cls-1" d="m95.28,31.05c0,.88-.47,1.42-1.26,1.42s-1.26-.52-1.26-1.42v-4.75h-2.94v4.88c0,2.39,1.69,3.93,4.2,3.93s4.2-1.55,4.2-3.93v-4.88h-2.94v4.75Z"/><path class="cls-1" d="m106.05,23.22v3.4c-.6-.38-1.33-.58-2.12-.58-2.61,0-4.47,1.9-4.47,4.53s1.86,4.56,4.47,4.56c1,0,1.88-.35,2.57-.93l.28.63h2.16v-11.61h-2.91Zm-1.72,9.3c-1.09,0-1.91-.84-1.91-1.94s.82-1.96,1.91-1.96,1.91.84,1.91,1.96-.81,1.94-1.91,1.94Z"/><path class="cls-1" d="m54.8,24.25c0-5.05-3.29-9.3-7.76-10.58-.64-.18-1.31-.31-1.99-.36-.27-.02-.54-.04-.81-.04-5.35,0-9.77,4.13-10.47,9.49-.51-.26-1.05-.46-1.61-.58-1.44-.3-2.93-.07-4.22.65-1.29.72-2.31,1.88-2.87,3.29-.56,1.41-.64,2.97-.21,4.43.25.84.67,1.61,1.2,2.28h-5.74c-1.53.02-3.04-.42-4.32-1.28-1.46-.98-2.54-2.43-3.05-4.11-.51-1.68-.42-3.48.25-5.1.67-1.62,1.89-2.96,3.44-3.79,1.55-.83,3.34-1.09,5.07-.75.68.13,1.33.36,1.93.66.84-6.17,6.14-10.92,12.56-10.92,2.92,0,5.61,1,7.76,2.66C41.15,4.18,35.06,0,27.98,0c-7.67,0-14.2,4.9-16.62,11.75-6.31.2-11.37,5.38-11.37,11.74s5.26,11.74,11.74,11.74h33.27c5.41,0,9.79-4.38,9.79-9.79,0-.2-.02-.39-.03-.59.01-.2.03-.4.03-.6Z"/></g></svg>