<?xml version="1.0" encoding="utf-8"?>
<!-- Generator: $$$/GeneralStr/196=Adobe Illustrator 27.6.0, SVG Export Plug-In . SVG Version: 6.00 Build 0)  -->
<svg version="1.1" id="圖層_1" xmlns="http://www.w3.org/2000/svg" xmlns:xlink="http://www.w3.org/1999/xlink" x="0px" y="0px"
	 viewBox="0 0 110 50" style="enable-background:new 0 0 110 50;" xml:space="preserve">
<style type="text/css">
	.st0{fill:url(#SVGID_1_);}
	.st1{fill:url(#SVGID_00000166646607389630190800000002714427416319302275_);}
	.st2{fill:#FFFFFF;}
</style>
<g>
	<g>
		
			<linearGradient id="SVGID_1_" gradientUnits="userSpaceOnUse" x1="29.0772" y1="-14.4876" x2="65.2589" y2="11.3165" gradientTransform="matrix(1 0 0 -1 0 52)">
			<stop  offset="0" style="stop-color:#9D9498"/>
			<stop  offset="0.2528" style="stop-color:#C8C9CA"/>
			<stop  offset="1" style="stop-color:#878083"/>
		</linearGradient>
		<rect y="46" class="st0" width="110" height="4"/>
		
			<radialGradient id="SVGID_00000169550401012124466300000001403030799761531798_" cx="457.3327" cy="285.5343" r="125.4958" gradientTransform="matrix(0.73 0 0 -1.2774 -302.8123 371.2963)" gradientUnits="userSpaceOnUse">
			<stop  offset="0" style="stop-color:#E7373C"/>
			<stop  offset="0.264" style="stop-color:#E50012"/>
			<stop  offset="0.4888" style="stop-color:#E50012"/>
			<stop  offset="0.7697" style="stop-color:#C7161D"/>
		</radialGradient>
		<rect style="fill:url(#SVGID_00000169550401012124466300000001403030799761531798_);" width="110" height="46"/>
		<g>
			<g>
				<g>
					<path class="st2" d="M95.9,25.3c0.5-0.2,0.7-0.4,0.7-0.6s-0.3-0.4-0.8-0.4l-3-0.3L93,38.7l3,0.1L95.9,25.3L95.9,25.3z"/>
					<path class="st2" d="M92.1,31.9L92.1,31.9l-2.2-2.4l-1.6,1.8v-6.5h3.4l0,0c0.4,0,1,0.1,0-1l0,0l-2-2l-1.4,1.5H81l0.3,1.5h3.1
						v6.7h-3.8l0.3,1.4h3.5v10.3l3.9-0.7l0.1-9.6h3.8C92.5,32.8,93.2,33,92.1,31.9z"/>
				</g>
				<path class="st2" d="M100.8,43.3c0.6-0.5,0.9-1.1,0.9-2V23c0.6-0.3,0.9-0.6,0.9-0.9c0-0.2-0.3-0.4-0.8-0.4l-4-0.4v18.8
					c0,0,0.2,2.8-0.7,3.9L100.8,43.3z"/>
			</g>
			<g>
				<path class="st2" d="M72.5,40.2V36c0.5-0.2,0.7-0.4,0.7-0.6c0-0.1-0.1-0.3-0.4-0.5l-2.6-1.7l-1.5,1.3h-2l-3.2-0.9v8.6l3.4-0.5
					v-1.9h1.9v1L72.5,40.2z M67,38.6v-3h1.9v3H67z"/>
				<path class="st2" d="M78.7,23.1l-3.3-2l-1.5,1.8H62.2l-3.7-0.6v10.5c-0.1,1.8-0.6,7.6-3.3,10.9c0,0,6.6-1,7.1-10.9l0,0v-0.3
					c0-0.1,0-0.2,0-0.3v-0.9l0.2,0.8h11c0.2,0.1,0.9-0.1,0.2-0.8l0,0l-0.2-0.2c-0.1-0.1-0.1-0.1-0.2-0.2l-1.6-1.7l-1.2,1.5h-0.9
					v-2.3H73l0,0c0.3,0,1.1,0.1,0-1l0,0l-1.6-1.6l-1.2,1.4h-0.7v-1c0.5-0.2,0.7-0.4,0.7-0.6s-0.3-0.4-0.8-0.4l-3.5-0.3v2.3h-3.1
					l0.3,1.3h2.8v2.3h-3.8v-6.6H74l0,0v16.1c0,0,0.2,2.8-0.7,3.9l3.7-0.7c0.6-0.5,0.9-1.1,0.9-2v-17l0.2-0.1
					c0.6-0.3,0.9-0.6,0.9-0.8C79,23.4,78.9,23.3,78.7,23.1z"/>
			</g>
		</g>
		<g>
			<path class="st2" d="M33,8.1c0.4-0.6,0.9-1.2,1.3-1.9c0,0,1.2,0.1,1.4-0.9c0,0,0.1-0.7-1-1l-7.2-2.4c0,0-7.1,15.9-22.5,25
				c0,0,14.5-2.9,25.9-16.2c0.6,0.7,2.3,2.8,4.9,5.3c6.3,7.4,15.6,10.3,15.6,10.3c0.7-1.5,7.2-8,7.2-8C43.7,17,34.5,9.4,33,8.1z"/>
			<path class="st2" d="M39.9,22.6l-4.1-3.7c0,0-0.7-0.7-1.3,0.2l-2.1,3.2l-12.8-0.1L20,24h19.2C39.3,23.9,41,24.1,39.9,22.6z"/>
			<path class="st2" d="M45.8,29.3l-5.1-2.4l-2.5,1.7h-24l0.4,1.8l22.7-0.1l-7.2,10.5c-1.5,1.9-1.3,1.5-2.1,2.2l6.9,1.1
				c1.7,0.1,3-1.8,3-1.8l7.2-10.4c0.9-0.3,1.3-0.8,1.3-0.8C47.3,30.2,45.8,29.3,45.8,29.3z"/>
		</g>
	</g>
</g>
</svg>
