<svg width="142" height="23" viewBox="0 0 142 23" fill="none" xmlns="http://www.w3.org/2000/svg">
<path d="M44.03 17.8678C44.03 17.8678 42.8398 17.956 42.443 18.0001C41.6937 18.0001 40.9443 18.0882 40.239 17.956C39.0929 17.7797 38.5198 17.1185 38.5198 15.9283C38.5198 16.0605 38.4758 16.0605 38.5198 9.40432C38.5198 8.03782 39.0929 7.50885 40.3712 7.37661C41.341 7.28845 42.3549 7.33253 43.3247 7.37661C44.6471 7.46477 47.5123 7.94966 47.5123 7.94966L48.1295 3.58566C48.1295 3.58566 44.8234 2.96853 43.4128 2.88036C41.4733 2.70404 39.5778 2.65996 37.6823 3.14485C34.8171 3.80606 33.3183 5.65746 33.3183 8.65495V16.8981C33.3624 19.2784 34.5967 20.9976 36.8007 21.791C38.079 22.2759 39.4015 22.4082 40.768 22.4522C43.2806 22.4963 48.7025 21.7029 48.7025 21.7029V12.4018H44.03V17.8678ZM4.35722 10.8149H8.50082V6.62723H0.213623V8.03782L4.00457 8.56679L4.35722 10.8149ZM4.35722 16.5454H8.50082V12.3577H0.213623V13.7683L4.00457 14.2973L4.35722 16.5454ZM123.728 7.24436V3.10077H110.416V22.0555H123.728V17.8678L115.749 17.8238V14.5177H122.979L123.023 10.2859L115.749 10.2419V7.20028L123.728 7.24436ZM141.184 14.3855C141.096 13.5038 140.17 11.9169 138.848 11.432C138.098 11.1676 137.305 10.9472 136.511 10.7708C135.498 10.5063 134.131 10.4623 133.117 10.1978C132.059 9.88921 131.839 9.53657 131.839 8.43455C131.839 7.64109 132.676 7.11212 133.426 7.06804C134.616 7.02396 135.586 7.02396 136.776 7.11212C137.878 7.20028 140.082 7.55293 140.082 7.55293L140.611 3.4975C140.611 3.4975 138.539 3.05669 137.702 2.96853C135.365 2.65996 133.029 2.5718 130.693 3.10077C128.577 3.58566 127.255 4.864 126.99 7.02396C126.858 8.0819 126.946 9.44841 127.034 10.5504C127.166 12.2255 128.092 13.4157 129.679 13.9446C130.693 14.2973 131.751 14.4736 132.765 14.7381C133.602 14.9585 134.616 15.0907 135.409 15.3552C135.806 15.4875 135.938 15.796 135.938 16.325C135.938 16.854 135.718 17.8678 134.572 18.0882C134.352 18.1323 133.558 18.3527 132.147 18.2646C130.693 18.2205 127.387 17.427 127.387 17.427L126.681 21.2621C126.681 21.2621 129.811 22.2318 131.31 22.4082C133.382 22.6286 135.63 22.4522 137.658 21.8792C139.553 21.3502 140.743 20.16 141.052 18.1323C141.316 16.9421 141.316 15.6638 141.184 14.3855ZM101.071 3.14485L96.3098 14.3855L91.3727 3.14485H86.3916L85.5541 22.0996L90.3589 22.1437L90.9319 12.7985L93.8853 19.7192H98.5579L101.644 12.7104L101.996 22.1437H107.11L106.008 3.14485H101.071ZM76.3412 22.1437H81.4986V3.14485H76.3412V22.1437ZM52.3612 22.1437H57.5187V3.14485H52.3612V22.1437ZM24.2817 22.1437H29.4392V3.14485H24.2817V22.1437ZM15.4656 0.764485H0.213623V2.17507L4.00457 2.70404L4.31314 4.95216H13.5701C14.6721 4.95216 15.5537 5.83378 15.5537 6.9358V16.0605C15.5537 17.1625 14.6721 18.0442 13.5701 18.0442H0.213623V19.4548L4.00457 19.9837L4.31314 22.2318H15.4656C18.3749 22.2318 20.7112 19.8515 20.7112 16.9421V6.05418C20.7112 3.14485 18.3749 0.764485 15.4656 0.764485ZM59.4142 4.90808H64.4394V22.2759H69.5968V4.90808H74.7543V0.5H59.4582L59.4142 4.90808Z" fill="white"/>
</svg>
