<?xml version="1.0" encoding="utf-8"?>
<!-- Generator: Adobe Illustrator 24.2.1, SVG Export Plug-In . SVG Version: 6.00 Build 0)  -->
<svg version="1.1" id="圖層_1" xmlns="http://www.w3.org/2000/svg" xmlns:xlink="http://www.w3.org/1999/xlink" x="0px" y="0px"
	 viewBox="0 0 50 50" style="enable-background:new 0 0 50 50;" xml:space="preserve">
<style type="text/css">
	.st0{fill:#FFFFFF;}
	.st1{filter:url(#Adobe_OpacityMaskFilter);}
	.st2{fill-rule:evenodd;clip-rule:evenodd;fill:#FFFFFF;}
	.st3{mask:url(#mask-2_2_);}
	.st4{fill-rule:evenodd;clip-rule:evenodd;fill:url(#Rectangle_1_);}
</style>
<g id="color_x2F_red" transform="translate(0.008661, 0.000000)">
	<g id="Mask">
		<path id="path-1_1_" class="st0" d="M26.3,7.5c3.6,0,4.3,0,6,0.1c1.9,0.1,3.1,0.4,4.2,0.8c1.1,0.4,2.1,1,3.1,2c1,1,1.6,1.9,2,3.1
			c0.4,1.1,0.7,2.4,0.8,4.2c0.1,1.7,0.1,2.3,0.1,6l0,2.1c0,4,0,4.6-0.1,6.4c-0.1,1.9-0.4,3.1-0.8,4.2c-0.4,1.1-1,2.1-2,3.1
			c-1,1-1.9,1.6-3.1,2c-1.1,0.4-2.4,0.7-4.2,0.8c-1.9,0.1-2.5,0.1-7.2,0.1s-5.4,0-7.2-0.1c-1.9-0.1-3.1-0.4-4.2-0.8
			c-1.1-0.4-2.1-1-3.1-2c-1-1-1.6-1.9-2-3.1c-0.4-1.1-0.7-2.4-0.8-4.2C7.5,30.7,7.5,30,7.5,27l0-3.3c0-3.6,0-4.3,0.1-6
			c0.1-1.9,0.4-3.1,0.8-4.2c0.4-1.1,1-2.1,2-3.1s1.9-1.6,3.1-2c1.1-0.4,2.4-0.7,4.2-0.8C19.3,7.5,20,7.5,23,7.5L26.3,7.5z
			 M26.6,10.6l-2.9,0c-3.5,0-4.1,0-5.8,0.1c-1.7,0.1-2.6,0.4-3.2,0.6c-0.8,0.3-1.4,0.7-2,1.3c-0.6,0.6-1,1.2-1.3,2
			c-0.2,0.6-0.5,1.5-0.6,3.2c-0.1,1.8-0.1,2.4-0.1,7.1s0,5.2,0.1,7.1c0.1,1.7,0.4,2.6,0.6,3.2c0.3,0.8,0.7,1.4,1.3,2
			c0.6,0.6,1.2,1,2,1.3c0.6,0.2,1.5,0.5,3.2,0.6c1.6,0.1,2.2,0.1,5.4,0.1l2.9,0c3.5,0,4.1,0,5.8-0.1c1.7-0.1,2.6-0.4,3.2-0.6
			c0.8-0.3,1.4-0.7,2-1.3c0.6-0.6,1-1.2,1.3-2c0.2-0.6,0.5-1.5,0.6-3.2c0.1-1.8,0.1-2.4,0.1-7.1l0-0.5c0-4.3,0-4.8-0.1-6.6
			c-0.1-1.7-0.4-2.6-0.6-3.2c-0.3-0.8-0.7-1.4-1.3-2c-0.6-0.6-1.2-1-2-1.3c-0.6-0.2-1.5-0.5-3.2-0.6C30.5,10.7,29.8,10.6,26.6,10.6z
			 M25,15.9c5,0,9.1,4.1,9.1,9.1S30,34.1,25,34.1S15.9,30,15.9,25S20,15.9,25,15.9z M25,19.1c-3.3,0-5.9,2.7-5.9,5.9
			c0,3.3,2.7,5.9,5.9,5.9s5.9-2.7,5.9-5.9C30.9,21.7,28.3,19.1,25,19.1z M34.8,13.1c1.2,0,2.1,0.9,2.1,2.1s-0.9,2.1-2.1,2.1
			s-2.1-0.9-2.1-2.1S33.6,13.1,34.8,13.1z"/>
	</g>
	<defs>
		<filter id="Adobe_OpacityMaskFilter" filterUnits="userSpaceOnUse" x="7.5" y="7.5" width="35" height="35">
			<feColorMatrix  type="matrix" values="1 0 0 0 0  0 1 0 0 0  0 0 1 0 0  0 0 0 1 0"/>
		</filter>
	</defs>
	<mask maskUnits="userSpaceOnUse" x="7.5" y="7.5" width="35" height="35" id="mask-2_2_">
		<g class="st1">
			<path id="path-1_3_" class="st2" d="M26.3,7.5c3.6,0,4.3,0,6,0.1c1.9,0.1,3.1,0.4,4.2,0.8c1.1,0.4,2.1,1,3.1,2c1,1,1.6,1.9,2,3.1
				c0.4,1.1,0.7,2.4,0.8,4.2c0.1,1.7,0.1,2.3,0.1,6l0,2.1c0,4,0,4.6-0.1,6.4c-0.1,1.9-0.4,3.1-0.8,4.2c-0.4,1.1-1,2.1-2,3.1
				c-1,1-1.9,1.6-3.1,2c-1.1,0.4-2.4,0.7-4.2,0.8c-1.9,0.1-2.5,0.1-7.2,0.1s-5.4,0-7.2-0.1c-1.9-0.1-3.1-0.4-4.2-0.8
				c-1.1-0.4-2.1-1-3.1-2c-1-1-1.6-1.9-2-3.1c-0.4-1.1-0.7-2.4-0.8-4.2C7.5,30.7,7.5,30,7.5,27l0-3.3c0-3.6,0-4.3,0.1-6
				c0.1-1.9,0.4-3.1,0.8-4.2c0.4-1.1,1-2.1,2-3.1s1.9-1.6,3.1-2c1.1-0.4,2.4-0.7,4.2-0.8C19.3,7.5,20,7.5,23,7.5L26.3,7.5z
				 M26.6,10.6l-2.9,0c-3.5,0-4.1,0-5.8,0.1c-1.7,0.1-2.6,0.4-3.2,0.6c-0.8,0.3-1.4,0.7-2,1.3c-0.6,0.6-1,1.2-1.3,2
				c-0.2,0.6-0.5,1.5-0.6,3.2c-0.1,1.8-0.1,2.4-0.1,7.1s0,5.2,0.1,7.1c0.1,1.7,0.4,2.6,0.6,3.2c0.3,0.8,0.7,1.4,1.3,2
				c0.6,0.6,1.2,1,2,1.3c0.6,0.2,1.5,0.5,3.2,0.6c1.6,0.1,2.2,0.1,5.4,0.1l2.9,0c3.5,0,4.1,0,5.8-0.1c1.7-0.1,2.6-0.4,3.2-0.6
				c0.8-0.3,1.4-0.7,2-1.3c0.6-0.6,1-1.2,1.3-2c0.2-0.6,0.5-1.5,0.6-3.2c0.1-1.8,0.1-2.4,0.1-7.1l0-0.5c0-4.3,0-4.8-0.1-6.6
				c-0.1-1.7-0.4-2.6-0.6-3.2c-0.3-0.8-0.7-1.4-1.3-2c-0.6-0.6-1.2-1-2-1.3c-0.6-0.2-1.5-0.5-3.2-0.6C30.5,10.7,29.8,10.6,26.6,10.6
				z M25,15.9c5,0,9.1,4.1,9.1,9.1S30,34.1,25,34.1S15.9,30,15.9,25S20,15.9,25,15.9z M25,19.1c-3.3,0-5.9,2.7-5.9,5.9
				c0,3.3,2.7,5.9,5.9,5.9s5.9-2.7,5.9-5.9C30.9,21.7,28.3,19.1,25,19.1z M34.8,13.1c1.2,0,2.1,0.9,2.1,2.1s-0.9,2.1-2.1,2.1
				s-2.1-0.9-2.1-2.1S33.6,13.1,34.8,13.1z"/>
		</g>
	</mask>
	<g id="Group" class="st3">
		<g transform="translate(-12.000000, -12.000000)">
			
				<linearGradient id="Rectangle_1_" gradientUnits="userSpaceOnUse" x1="-254.4188" y1="449.8196" x2="-253.7191" y2="449.1199" gradientTransform="matrix(50 0 0 -50 12740.4248 22510.4883)">
				<stop  offset="0" style="stop-color:#FACF00"/>
				<stop  offset="0.3564" style="stop-color:#FA6400"/>
				<stop  offset="1" style="stop-color:#B000B7"/>
			</linearGradient>
			<rect id="Rectangle_2_" x="19.5" y="19.5" class="st4" width="35" height="35"/>
		</g>
	</g>
</g>
</svg>
