<?xml version="1.0" encoding="utf-8"?>
<!-- Generator: Adobe Illustrator 24.2.1, SVG Export Plug-In . SVG Version: 6.00 Build 0)  -->
<svg version="1.1" id="圖層_1" xmlns="http://www.w3.org/2000/svg" xmlns:xlink="http://www.w3.org/1999/xlink" x="0px" y="0px"
	 viewBox="0 0 50 50" style="enable-background:new 0 0 50 50;" xml:space="preserve">
<style type="text/css">
	.st0{fill-rule:evenodd;clip-rule:evenodd;fill:#32C300;}
</style>
<g>
	<path id="path-1_2_" class="st0" d="M42.5,22.4c0-8.3-7.8-14.9-17.5-14.9S7.5,14.2,7.5,22.4c0,7.5,6.4,13.7,14.8,14.8
		c0.2,0,0.4,0.1,0.6,0.2c0.5,0.3,0.9,0.7,0.9,1.1c0,0.8-0.4,1.8-0.5,2.6c-0.1,0.8,0,1.4,1,1.4c2-0.1,13.2-8.7,14.9-11.4l0,0
		C41.3,28.7,42.5,25.6,42.5,22.4L42.5,22.4z M18.2,27.1h-3.4c-0.4,0-0.8-0.4-0.8-0.8v-7.2c0-0.4,0.3-0.8,0.8-0.8
		c0.4,0,0.8,0.3,0.8,0.8v6.4h2.6c0.5,0,0.8,0.4,0.8,0.8C19,26.7,18.6,27.1,18.2,27.1L18.2,27.1z M21.6,26.2c0,0.3-0.1,0.6-0.4,0.7
		c-0.2,0.2-0.6,0.2-0.8,0s-0.4-0.4-0.4-0.7v-7.2c0-0.4,0.3-0.8,0.8-0.8c0.4,0,0.8,0.3,0.8,0.8V26.2z M29.9,26.2
		c0,0.2-0.1,0.4-0.2,0.6c-0.1,0.2-0.3,0.2-0.6,0.2c-0.3,0-0.5-0.2-0.9-0.8l-3.5-4.7v4.7c0,0.3-0.1,0.6-0.4,0.7
		c-0.2,0.2-0.6,0.2-0.8,0c-0.2-0.2-0.4-0.4-0.4-0.7v-7.2c0-0.4,0.3-0.8,0.8-0.8c0.4,0,0.6,0.2,1,0.8l3.4,4.8v-4.7
		c0-0.3,0.1-0.6,0.4-0.7c0.2-0.1,0.6-0.1,0.8,0c0.2,0.1,0.4,0.4,0.4,0.7L29.9,26.2z M35.6,21.8c0.5,0,0.8,0.4,0.8,0.9
		c0,0.5-0.4,0.9-0.8,0.9H33v1.9h2.7c0.4,0,0.8,0.4,0.8,0.8s-0.3,0.8-0.8,0.8h-3.6c-0.4,0-0.8-0.4-0.8-0.8v-7.2
		c0-0.4,0.3-0.8,0.7-0.8h3.6c0.5,0,0.8,0.4,0.8,0.9S36.1,20,35.7,20h-2.6v1.9L35.6,21.8L35.6,21.8z"/>
</g>
</svg>
