<?xml version="1.0" encoding="UTF-8"?><svg id="_圖層_2" xmlns="http://www.w3.org/2000/svg" viewBox="0 0 316.12 60.72"><defs><style>.cls-1{fill:#fff;}</style></defs><g id="_圖層_1-2"><path class="cls-1" d="m68.63,27.04c0-2.94,0-5.88,0-8.83-2.36-1.4-4.71-2.8-7.07-4.2v13.22c2.25-.16,4.6-.23,7.07-.19Z"/><path class="cls-1" d="m57.64,11.51c-2.04-1.38-4.08-2.77-6.12-4.15,0,7.11,0,14.22,0,21.32,2.22-.5,4.57-.9,7.07-1.18v-14.24c0-.34,0-.69-.15-.99-.17-.33-.49-.56-.8-.77Z"/><path class="cls-1" d="m102.14,39.43c-.26-2.15-.78-4.27-1.68-6.24-1.33-2.9-3.49-5.33-6.27-6.91-1.82-1.04-3.86-1.72-5.93-2.01-.43-.06-.87-.11-1.3-.11C85.18-1.92,60.07-.49,53.37.35v4.46c32.86-4.11,28.98,23.53,28.98,23.53,4.01-.24,8.3.42,11.44,3.11,1.92,1.65,3.21,3.92,3.84,6.36,1.1,4.25-.27,9.4-3,12.8-2.68,3.34-6.63,5.18-10.81,5.46-5.06.33-10.13.21-15.2.09,0-9.38,0-18.77,0-28.15-2.17.18-4.55.47-7.07.92v27.27h-2.97c0-8.89,0-17.78,0-26.68-2.3.51-4.67,1.16-7.07,1.97v29.06c9.16.05,18.32.11,27.48.15,2.96.02,5.95.03,8.86-.52,6.55-1.24,10.75-5.84,12.95-11.98,1.01-2.83,1.69-5.78,1.33-8.79Z"/><path class="cls-1" d="m49.1,29.28V.91l-6.81,5.31v25.37c2.11-.87,4.37-1.65,6.81-2.31Z"/><path class="cls-1" d="m39.29,32.94V8.54l-6.94,4.75v23.77c2.05-1.46,4.36-2.86,6.94-4.12Z"/><path class="cls-1" d="m42.29,35.61v20.38h-3v-18.54c-2.43,1.62-4.77,3.49-6.94,5.68v12.99h-13.2c-2.14,0-4.23.24-6.28-.48-1.34-.47-2.62-1.11-3.77-1.94-3.33-2.4-5.29-6.59-4.59-10.68.42-2.42,1.46-4.82,3.34-6.45,2.61-2.26,6.24-2.43,9.49-1.83,0,0,.31-14.63,12.13-16.88v-4.38s-12.75.81-15.94,16.57c0,.01-.99.06-1.05.06-.89.1-1.78.28-2.64.54-2.67.8-5.06,2.38-6.75,4.62-2.79,3.71-3.74,8.62-2.65,13.1.77,3.17,2.41,6.12,4.88,8.28,1.06.92,2.24,1.68,3.51,2.28.72.34,1.46.63,2.22.87,1.59.51,3.07.66,4.74.68,1.8.01,3.6-.05,5.39-.05h27.92v-28.04c-2.29.89-4.58,1.96-6.81,3.22Z"/><path class="cls-1" d="m137.09,21.68v5.04c-3.52-1.72-6.75-2.59-9.71-2.59-3.79,0-6.98,1.22-9.58,3.67-2.6,2.45-3.89,5.45-3.89,9.02s1.33,6.66,3.98,9.1c2.65,2.43,5.98,3.65,9.97,3.65,2.9,0,5.97-.91,9.22-2.74v5.1c-2.95,1.57-6.16,2.36-9.6,2.36-5.05,0-9.37-1.71-12.96-5.13-3.59-3.42-5.38-7.55-5.38-12.37s1.76-8.8,5.29-12.18c3.53-3.38,7.77-5.07,12.74-5.07,3.19,0,6.5.72,9.91,2.15Z"/><path class="cls-1" d="m142.57,19.94h4.45v33.24h-4.45V19.94Z"/><path class="cls-1" d="m152.27,42.53c0-2.88,1.14-5.45,3.42-7.7,2.28-2.24,4.9-3.37,7.85-3.37s5.69,1.11,7.96,3.32c2.27,2.21,3.41,4.79,3.41,7.75s-1.11,5.59-3.34,7.85c-2.23,2.26-4.8,3.39-7.72,3.39-3.12,0-5.83-1.12-8.13-3.36-2.3-2.24-3.44-4.87-3.44-7.89Zm18.34.01c0-1.8-.68-3.36-2.05-4.68-1.37-1.33-2.99-1.99-4.87-1.99s-3.59.67-4.98,2.01c-1.39,1.34-2.09,2.95-2.09,4.81s.7,3.34,2.11,4.67c1.41,1.33,3.06,2,4.96,2s3.46-.68,4.84-2.05c1.38-1.37,2.07-2.96,2.07-4.77Z"/><path class="cls-1" d="m178.9,32.05h4.46v11.91c0,3.67,1.61,5.51,4.84,5.51,1.43,0,2.57-.49,3.41-1.47.84-.98,1.25-2.33,1.25-4.03v-11.91h4.41v12.62c0,2.65-.86,4.82-2.59,6.53-1.72,1.71-3.93,2.56-6.61,2.56s-4.94-.85-6.63-2.56c-1.69-1.71-2.54-3.93-2.54-6.68v-12.47Z"/><path class="cls-1" d="m220.36,19.94h4.41v33.24h-4.35v-4.41c-2.1,3.33-4.86,4.99-8.26,4.99-2.75,0-5.11-1.1-7.08-3.3-1.97-2.2-2.95-4.85-2.95-7.94s1-5.62,3-7.8c2-2.18,4.39-3.27,7.15-3.27,1.66,0,3.21.46,4.64,1.38,1.44.92,2.58,2.12,3.44,3.61v-16.52Zm.51,22.64c0-1.89-.69-3.54-2.08-4.93-1.39-1.39-3.04-2.09-4.95-2.09s-3.66.68-5.04,2.04c-1.38,1.36-2.06,3.02-2.06,4.98s.7,3.52,2.1,4.93c1.4,1.41,3.04,2.11,4.9,2.11,1.98,0,3.67-.68,5.05-2.05,1.39-1.37,2.08-3.03,2.08-4.99Z"/><path class="cls-1" d="m258.94,19.2l8.92,33.98h-4.37l-5.4-20.76-9.3,22.02-9.33-22.2-5.47,20.95h-4.34l8.93-33.98,10.21,24.31,10.15-24.31Z"/><path class="cls-1" d="m271.2,25.11c0-.92.34-1.72,1.02-2.39s1.49-1.01,2.43-1.01,1.72.34,2.39,1.01,1.01,1.47,1.01,2.39-.34,1.74-1.01,2.41c-.67.67-1.47,1-2.39,1s-1.75-.33-2.43-1c-.68-.67-1.02-1.47-1.02-2.41Zm1.26,6.94h4.4v21.13h-4.4v-21.13Z"/><path class="cls-1" d="m284.13,19.94h4.45v33.24h-4.45V19.94Z"/><path class="cls-1" d="m316.11,43.48h-18.03c.39,2.17,1.28,3.75,2.68,4.75,1.39,1,2.91,1.5,4.55,1.5,2.53,0,4.64-1.05,6.35-3.15l3.25,2.46c-2.44,3.16-5.71,4.74-9.81,4.74-3.14,0-5.77-1.08-7.89-3.23-2.12-2.15-3.18-4.82-3.18-8.02,0-2.99,1.07-5.58,3.21-7.77,2.14-2.19,4.76-3.29,7.85-3.29s5.64,1.11,7.81,3.34c2.17,2.23,3.24,5.12,3.2,8.67Zm-17.57-3.56h12.91c-1.43-2.9-3.55-4.35-6.35-4.35-3.06,0-5.24,1.45-6.56,4.35Z"/></g></svg>