<svg width="807" height="1375" viewBox="0 0 807 1375" fill="none" xmlns="http://www.w3.org/2000/svg">
<mask id="mask0_13_783" style="mask-type:luminance" maskUnits="userSpaceOnUse" x="-2" y="0" width="810" height="1375">
<path d="M807 -0.000103228L-1.00012 0L-0.999947 1375L807 1375L807 -0.000103228Z" fill="white"/>
</mask>
<g mask="url(#mask0_13_783)">
<path style="mix-blend-mode:screen" d="M115.51 977.9C-132.781 977.9 -334.06 1179.18 -334.06 1427.47C-334.06 1675.76 -132.781 1877.04 115.51 1877.04C363.801 1877.04 565.08 1675.76 565.08 1427.47C565.08 1179.18 363.801 977.9 115.51 977.9Z" fill="url(#paint0_radial_13_783)"/>
<path style="mix-blend-mode:screen" d="M-173.86 43.1199C-422.151 43.1199 -623.43 244.399 -623.43 492.69C-623.43 740.981 -422.151 942.26 -173.86 942.26C74.4305 942.26 275.71 740.98 275.71 492.69C275.71 244.399 74.4304 43.1198 -173.86 43.1199Z" fill="url(#paint1_radial_13_783)"/>
<path style="mix-blend-mode:screen" d="M271.2 939.69C22.9093 939.69 -178.37 1140.97 -178.37 1389.26C-178.37 1637.55 22.9094 1838.83 271.2 1838.83C519.491 1838.83 720.77 1637.55 720.77 1389.26C720.77 1140.97 519.491 939.69 271.2 939.69Z" fill="url(#paint2_radial_13_783)"/>
<path style="mix-blend-mode:screen" d="M-514.891 1093.12C-660.889 1239.11 -660.889 1475.82 -514.891 1621.82C-368.893 1767.82 -132.185 1767.82 13.8128 1621.82C159.81 1475.82 159.81 1239.11 13.8128 1093.12C-132.185 947.118 -368.894 947.118 -514.891 1093.12Z" fill="url(#paint3_radial_13_783)"/>
<path style="mix-blend-mode:screen" d="M-456.082 789.939C-631.65 965.507 -631.65 1250.16 -456.082 1425.73C-280.514 1601.3 4.13812 1601.3 179.706 1425.73C355.274 1250.16 355.274 965.507 179.706 789.939C4.13808 614.371 -280.514 614.371 -456.082 789.939Z" fill="url(#paint4_radial_13_783)"/>
<path style="mix-blend-mode:overlay" d="M807 1376.21L-2.99011 1376.21L-2.99018 566.25L807 1376.21Z" fill="url(#paint5_linear_13_783)"/>
<path style="mix-blend-mode:color-dodge" d="M266.99 1106.24L266.99 1376.22L-3 1376.22C-3.00002 1227.12 117.88 1106.24 266.99 1106.24Z" fill="url(#paint6_linear_13_783)"/>
<path style="mix-blend-mode:overlay" d="M266.99 1106.24L266.99 1376.22L536.98 1376.22C536.98 1227.12 416.09 1106.24 266.99 1106.24Z" fill="url(#paint7_linear_13_783)"/>
<path style="mix-blend-mode:color-dodge" d="M266.99 1106.24L-3.00995 1106.24L-3.00998 836.49L266.99 1106.24Z" fill="url(#paint8_linear_13_783)"/>
<mask id="mask1_13_783" style="mask-type:luminance" maskUnits="userSpaceOnUse" x="-4" y="836" width="271" height="271">
<path d="M266.99 1106.24L-3.00992 1106.24L-3.00995 836.49L266.99 1106.24Z" fill="white"/>
</mask>
<g mask="url(#mask1_13_783)">
<g style="mix-blend-mode:overlay">
<path d="M-3.00995 1086.99L266.99 1086.99" stroke="#F5F8FC" stroke-width="2.16" stroke-miterlimit="10"/>
<path d="M-3.00995 1067.74L266.99 1067.74" stroke="#F5F8FC" stroke-width="2.16" stroke-miterlimit="10"/>
<path d="M-3.00995 1048.49L266.99 1048.49" stroke="#F5F8FC" stroke-width="2.16" stroke-miterlimit="10"/>
<path d="M-3.00995 1029.24L266.99 1029.24" stroke="#F5F8FC" stroke-width="2.16" stroke-miterlimit="10"/>
<path d="M-3.00995 1010L266.99 1010" stroke="#F5F8FC" stroke-width="2.16" stroke-miterlimit="10"/>
<path d="M-3.00995 990.75L266.99 990.75" stroke="#F5F8FC" stroke-width="2.16" stroke-miterlimit="10"/>
<path d="M-3.00995 971.5L266.99 971.5" stroke="#F5F8FC" stroke-width="2.16" stroke-miterlimit="10"/>
<path d="M-3.00995 952.25L266.99 952.25" stroke="#F5F8FC" stroke-width="2.16" stroke-miterlimit="10"/>
<path d="M-3.00995 933L266.99 933" stroke="#F5F8FC" stroke-width="2.16" stroke-miterlimit="10"/>
<path d="M-3.00995 913.76L266.99 913.76" stroke="#F5F8FC" stroke-width="2.16" stroke-miterlimit="10"/>
<path d="M-3.00995 894.51L266.99 894.51" stroke="#F5F8FC" stroke-width="2.16" stroke-miterlimit="10"/>
<path d="M-3.00995 875.26L266.99 875.26" stroke="#F5F8FC" stroke-width="2.16" stroke-miterlimit="10"/>
<path d="M-3.00995 856.01L266.99 856.01" stroke="#F5F8FC" stroke-width="2.16" stroke-miterlimit="10"/>
<path d="M-3.01001 836.76L266.99 836.76" stroke="#F5F8FC" stroke-width="2.16" stroke-miterlimit="10"/>
</g>
</g>
<path style="mix-blend-mode:multiply" d="M267 1376.23L-2.94003 1376.23L-3.00003 1376.21L-812.98 566.231L-812.98 296.251L267 1376.23Z" fill="url(#paint9_linear_13_783)"/>
</g>
<defs>
<radialGradient id="paint0_radial_13_783" cx="0" cy="0" r="1" gradientUnits="userSpaceOnUse" gradientTransform="translate(115.51 1427.47) scale(449.57 449.57)">
<stop stop-color="#9A00FF"/>
<stop offset="1"/>
</radialGradient>
<radialGradient id="paint1_radial_13_783" cx="0" cy="0" r="1" gradientUnits="userSpaceOnUse" gradientTransform="translate(-173.86 492.69) scale(449.57 449.57)">
<stop stop-color="#007BFF"/>
<stop offset="1"/>
</radialGradient>
<radialGradient id="paint2_radial_13_783" cx="0" cy="0" r="1" gradientUnits="userSpaceOnUse" gradientTransform="translate(271.2 1389.26) scale(449.57 449.57)">
<stop stop-color="#007BFF"/>
<stop offset="1"/>
</radialGradient>
<radialGradient id="paint3_radial_13_783" cx="0" cy="0" r="1" gradientUnits="userSpaceOnUse" gradientTransform="translate(-250.538 1357.47) scale(373.85 373.85)">
<stop stop-color="#0048AA"/>
<stop offset="1"/>
</radialGradient>
<radialGradient id="paint4_radial_13_783" cx="0" cy="0" r="1" gradientUnits="userSpaceOnUse" gradientTransform="translate(-138.182 1107.83) scale(449.57 449.57)">
<stop stop-color="#0002FF"/>
<stop offset="1"/>
</radialGradient>
<linearGradient id="paint5_linear_13_783" x1="-125.65" y1="848.56" x2="210.38" y2="1184.6" gradientUnits="userSpaceOnUse">
<stop stop-color="white"/>
<stop offset="0.03" stop-color="white" stop-opacity="0.94"/>
<stop offset="0.14" stop-color="white" stop-opacity="0.72"/>
<stop offset="0.26" stop-color="white" stop-opacity="0.53"/>
<stop offset="0.37" stop-color="white" stop-opacity="0.37"/>
<stop offset="0.49" stop-color="white" stop-opacity="0.23"/>
<stop offset="0.61" stop-color="white" stop-opacity="0.13"/>
<stop offset="0.73" stop-color="white" stop-opacity="0.06"/>
<stop offset="0.86" stop-color="white" stop-opacity="0.01"/>
<stop offset="1" stop-color="white" stop-opacity="0"/>
</linearGradient>
<linearGradient id="paint6_linear_13_783" x1="50.41" y1="1141.14" x2="128.88" y2="1237.4" gradientUnits="userSpaceOnUse">
<stop stop-color="white"/>
<stop offset="1"/>
</linearGradient>
<linearGradient id="paint7_linear_13_783" x1="202.42" y1="1120.74" x2="395.39" y2="1313.71" gradientUnits="userSpaceOnUse">
<stop stop-color="white"/>
<stop offset="0.38" stop-color="white" stop-opacity="0.58"/>
<stop offset="0.68" stop-color="white" stop-opacity="0.27"/>
<stop offset="0.89" stop-color="white" stop-opacity="0.07"/>
<stop offset="1" stop-color="white" stop-opacity="0"/>
</linearGradient>
<linearGradient id="paint8_linear_13_783" x1="165.85" y1="938.86" x2="58.3501" y2="1042.06" gradientUnits="userSpaceOnUse">
<stop stop-color="white"/>
<stop offset="1"/>
</linearGradient>
<linearGradient id="paint9_linear_13_783" x1="-343" y1="906.251" x2="-457.45" y2="1020.71" gradientUnits="userSpaceOnUse">
<stop stop-color="white"/>
<stop offset="0.36" stop-color="#9F9AB1"/>
<stop offset="0.67" stop-color="#544B74"/>
<stop offset="0.89" stop-color="#251A4E"/>
<stop offset="1" stop-color="#140840"/>
</linearGradient>
</defs>
</svg>
