<svg width="521" height="700" viewBox="0 0 521 700" fill="none" xmlns="http://www.w3.org/2000/svg">
<mask id="mask0_93_58" style="mask-type:luminance" maskUnits="userSpaceOnUse" x="0" y="0" width="521" height="700">
<path d="M521 700L0 700L0 6.10352e-05L521 6.10352e-05L521 700Z" fill="white"/>
</mask>
<g mask="url(#mask0_93_58)">
<path style="mix-blend-mode:screen" d="M76.2268 257.38C-83.4762 257.38 -212.941 126.921 -212.941 -34.0083C-212.941 -194.937 -83.4762 -325.396 76.2268 -325.396C235.93 -325.396 365.395 -194.937 365.395 -34.0083C365.395 126.921 235.93 257.38 76.2268 257.38Z" fill="url(#paint0_radial_93_58)"/>
<path style="mix-blend-mode:screen" d="M-109.899 863.256C-269.602 863.256 -399.067 732.797 -399.067 571.868C-399.067 410.939 -269.602 280.48 -109.899 280.48C49.8042 280.48 179.269 410.939 179.269 571.868C179.269 732.797 49.8042 863.256 -109.899 863.256Z" fill="url(#paint1_radial_93_58)"/>
<path style="mix-blend-mode:screen" d="M98.2117 1060.6C-53.2001 1060.6 -175.944 936.918 -175.944 784.344C-175.944 631.769 -53.2001 508.083 98.2117 508.083C249.624 508.083 372.367 631.769 372.367 784.344C372.367 936.918 249.624 1060.6 98.2117 1060.6Z" fill="url(#paint2_radial_93_58)"/>
<path style="mix-blend-mode:screen" d="M176.368 282.145C16.6652 282.145 -112.8 151.687 -112.8 -9.24258C-112.8 -170.172 16.6652 -300.63 176.368 -300.63C336.071 -300.63 465.536 -170.172 465.536 -9.24258C465.536 151.687 336.071 282.145 176.368 282.145Z" fill="url(#paint3_radial_93_58)"/>
<path style="mix-blend-mode:screen" d="M-329.253 182.702C-423.16 88.0744 -423.16 -65.3479 -329.253 -159.976C-235.346 -254.604 -83.093 -254.604 10.814 -159.976C104.721 -65.3479 104.721 88.0744 10.814 182.702C-83.093 277.33 -235.346 277.33 -329.253 182.702Z" fill="url(#paint4_radial_93_58)"/>
<path style="mix-blend-mode:screen" d="M-291.427 379.206C-404.354 265.412 -404.354 80.9157 -291.427 -32.8783C-178.5 -146.672 4.59119 -146.672 117.518 -32.8783C230.445 80.9157 230.445 265.412 117.518 379.206C4.59119 493.001 -178.5 493.001 -291.427 379.206Z" fill="url(#paint5_radial_93_58)"/>
<path style="mix-blend-mode:color-dodge" d="M-173.667 699.19V349.196C18.1578 349.196 173.667 505.892 173.667 699.19H-173.667Z" fill="url(#paint6_linear_93_58)"/>
<path style="mix-blend-mode:overlay" d="M0.00640869 524.19V174.203H-173.667V699.196L0.00640869 524.19Z" fill="url(#paint7_linear_93_58)"/>
<path style="mix-blend-mode:overlay" d="M521 -0.784302H0.00640869V524.19L521 -0.784302Z" fill="url(#paint8_linear_93_58)"/>
<path style="mix-blend-mode:color-dodge" d="M173.66 174.196V-0.790649H-1.52588e-05C-1.52588e-05 95.8483 77.7512 174.196 173.66 174.196Z" fill="url(#paint9_linear_93_58)"/>
<path style="mix-blend-mode:overlay" d="M173.66 174.196V-0.790649H347.32C347.32 95.8483 269.563 174.196 173.66 174.196Z" fill="url(#paint10_linear_93_58)"/>
<path style="mix-blend-mode:color-dodge" d="M173.66 174.196H-0.00645447V349.034L173.66 174.196Z" fill="url(#paint11_linear_93_58)"/>
<mask id="mask1_93_58" style="mask-type:luminance" maskUnits="userSpaceOnUse" x="-1" y="174" width="175" height="176">
<path d="M173.66 174.196H-0.00645447V349.034L173.66 174.196Z" fill="white"/>
</mask>
<g mask="url(#mask1_93_58)">
<g style="mix-blend-mode:overlay">
<path d="M-0.00644886 186.673H173.66" stroke="#F5F8FC" stroke-width="2.16" stroke-miterlimit="10"/>
<path d="M-0.00644886 199.15H173.66" stroke="#F5F8FC" stroke-width="2.16" stroke-miterlimit="10"/>
<path d="M-0.00644886 211.626H173.66" stroke="#F5F8FC" stroke-width="2.16" stroke-miterlimit="10"/>
<path d="M-0.00644886 224.103H173.66" stroke="#F5F8FC" stroke-width="2.16" stroke-miterlimit="10"/>
<path d="M-0.00644886 236.574H173.66" stroke="#F5F8FC" stroke-width="2.16" stroke-miterlimit="10"/>
<path d="M-0.00644886 249.051H173.66" stroke="#F5F8FC" stroke-width="2.16" stroke-miterlimit="10"/>
<path d="M-0.00644886 261.527H173.66" stroke="#F5F8FC" stroke-width="2.16" stroke-miterlimit="10"/>
<path d="M-0.00644886 274.004H173.66" stroke="#F5F8FC" stroke-width="2.16" stroke-miterlimit="10"/>
<path d="M-0.00644886 286.481H173.66" stroke="#F5F8FC" stroke-width="2.16" stroke-miterlimit="10"/>
<path d="M-0.00644886 298.952H173.66" stroke="#F5F8FC" stroke-width="2.16" stroke-miterlimit="10"/>
<path d="M-0.00644886 311.428H173.66" stroke="#F5F8FC" stroke-width="2.16" stroke-miterlimit="10"/>
<path d="M-0.00644886 323.905H173.66" stroke="#F5F8FC" stroke-width="2.16" stroke-miterlimit="10"/>
<path d="M-0.00644886 336.382H173.66" stroke="#F5F8FC" stroke-width="2.16" stroke-miterlimit="10"/>
<path d="M-0.00644886 348.859H173.66" stroke="#F5F8FC" stroke-width="2.16" stroke-miterlimit="10"/>
</g>
</g>
<path style="mix-blend-mode:multiply" d="M173.667 -0.797119H0.0385742L-3.05176e-05 -0.784156L-520.987 524.203V699.19L173.667 -0.797119Z" fill="url(#paint12_linear_93_58)"/>
</g>
<defs>
<radialGradient id="paint0_radial_93_58" cx="0" cy="0" r="1" gradientUnits="userSpaceOnUse" gradientTransform="translate(76.2268 -34.0083) scale(289.168 291.388)">
<stop stop-color="#9A00FF"/>
<stop offset="1"/>
</radialGradient>
<radialGradient id="paint1_radial_93_58" cx="0" cy="0" r="1" gradientUnits="userSpaceOnUse" gradientTransform="translate(-109.899 571.868) scale(289.168 291.388)">
<stop stop-color="#007BFF"/>
<stop offset="1"/>
</radialGradient>
<radialGradient id="paint2_radial_93_58" cx="0" cy="0" r="1" gradientUnits="userSpaceOnUse" gradientTransform="translate(98.2117 784.344) scale(274.155 276.26)">
<stop stop-color="#FF792A"/>
<stop offset="1"/>
</radialGradient>
<radialGradient id="paint3_radial_93_58" cx="0" cy="0" r="1" gradientUnits="userSpaceOnUse" gradientTransform="translate(176.368 -9.24255) scale(289.168 291.388)">
<stop stop-color="#007BFF"/>
<stop offset="1"/>
</radialGradient>
<radialGradient id="paint4_radial_93_58" cx="0" cy="0" r="1" gradientUnits="userSpaceOnUse" gradientTransform="translate(-159.219 11.3641) scale(240.464 242.31)">
<stop stop-color="#0048AA"/>
<stop offset="1"/>
</radialGradient>
<radialGradient id="paint5_radial_93_58" cx="0" cy="0" r="1" gradientUnits="userSpaceOnUse" gradientTransform="translate(-86.9506 173.167) scale(289.168 291.388)">
<stop stop-color="#0002FF"/>
<stop offset="1"/>
</radialGradient>
<linearGradient id="paint6_linear_93_58" x1="-209.262" y1="542.532" x2="-145.519" y2="537.029" gradientUnits="userSpaceOnUse">
<stop stop-color="white"/>
<stop offset="1"/>
</linearGradient>
<linearGradient id="paint7_linear_93_58" x1="-86.8334" y1="727.559" x2="-86.8334" y2="454.864" gradientUnits="userSpaceOnUse">
<stop stop-color="white"/>
<stop offset="0.02" stop-color="white" stop-opacity="0.95"/>
<stop offset="0.14" stop-color="white" stop-opacity="0.73"/>
<stop offset="0.25" stop-color="white" stop-opacity="0.54"/>
<stop offset="0.37" stop-color="white" stop-opacity="0.37"/>
<stop offset="0.49" stop-color="white" stop-opacity="0.24"/>
<stop offset="0.61" stop-color="white" stop-opacity="0.13"/>
<stop offset="0.74" stop-color="white" stop-opacity="0.06"/>
<stop offset="0.86" stop-color="white" stop-opacity="0.01"/>
<stop offset="1" stop-color="white" stop-opacity="0"/>
</linearGradient>
<linearGradient id="paint8_linear_93_58" x1="-78.8897" y1="341.211" x2="138.901" y2="125.073" gradientUnits="userSpaceOnUse">
<stop stop-color="white"/>
<stop offset="0.03" stop-color="white" stop-opacity="0.94"/>
<stop offset="0.14" stop-color="white" stop-opacity="0.72"/>
<stop offset="0.26" stop-color="white" stop-opacity="0.53"/>
<stop offset="0.37" stop-color="white" stop-opacity="0.37"/>
<stop offset="0.49" stop-color="white" stop-opacity="0.23"/>
<stop offset="0.61" stop-color="white" stop-opacity="0.13"/>
<stop offset="0.73" stop-color="white" stop-opacity="0.06"/>
<stop offset="0.86" stop-color="white" stop-opacity="0.01"/>
<stop offset="1" stop-color="white" stop-opacity="0"/>
</linearGradient>
<linearGradient id="paint9_linear_93_58" x1="34.3538" y1="151.576" x2="85.291" y2="89.5669" gradientUnits="userSpaceOnUse">
<stop stop-color="white"/>
<stop offset="1"/>
</linearGradient>
<linearGradient id="paint10_linear_93_58" x1="132.128" y1="164.798" x2="257.198" y2="40.6817" gradientUnits="userSpaceOnUse">
<stop stop-color="white"/>
<stop offset="0.38" stop-color="white" stop-opacity="0.58"/>
<stop offset="0.68" stop-color="white" stop-opacity="0.27"/>
<stop offset="0.89" stop-color="white" stop-opacity="0.07"/>
<stop offset="1" stop-color="white" stop-opacity="0"/>
</linearGradient>
<linearGradient id="paint11_linear_93_58" x1="108.606" y1="282.683" x2="38.9538" y2="216.326" gradientUnits="userSpaceOnUse">
<stop stop-color="white"/>
<stop offset="1"/>
</linearGradient>
<linearGradient id="paint12_linear_93_58" x1="-218.691" y1="303.82" x2="-292.87" y2="230.2" gradientUnits="userSpaceOnUse">
<stop stop-color="white"/>
<stop offset="0.36" stop-color="#9F9AB1"/>
<stop offset="0.67" stop-color="#544B74"/>
<stop offset="0.89" stop-color="#251A4E"/>
<stop offset="1" stop-color="#140840"/>
</linearGradient>
</defs>
</svg>
