<svg width="540" height="540" viewBox="0 0 540 540" fill="none" xmlns="http://www.w3.org/2000/svg">
<ellipse cx="134.667" cy="134.822" rx="134.667" ry="134.822" transform="scale(2)" fill="#FFC530"/>
<path d="M95.9787 138.023C93.2633 136.879 90.589 135.553 87.9709 134.041C53.9343 114.39 42.2983 70.8232 61.9811 36.7316C70.6135 21.7798 83.8365 11.1338 98.8342 5.55049C66.2473 -8.1851 27.7434 4.21029 9.57461 35.6796C-10.1082 69.7712 1.52787 113.338 35.5644 132.989C54.6733 144.022 76.7802 145.17 95.9787 138.023Z" transform="translate(336.009 249.16) scale(2)" fill="#FFC530"/>
<path d="M51.1152 64H44.4121V62.6543L46.5957 62.1592V47.3057L44.4121 46.7852V45.4395H51.1152V46.7852L48.9316 47.3057V62.1592L51.1152 62.6543V64ZM63.8867 64V55.0879C63.8867 53.9538 63.6328 53.1117 63.125 52.5615C62.6257 52.0029 61.8385 51.7236 60.7637 51.7236C59.3333 51.7236 58.2923 52.1214 57.6406 52.917C56.9974 53.7041 56.6758 54.9906 56.6758 56.7764V64H54.3906V50.0605H56.2314L56.5742 51.9648H56.7012C57.1328 51.2793 57.738 50.7503 58.5166 50.3779C59.2952 49.9971 60.1543 49.8066 61.0938 49.8066C62.8034 49.8066 64.0729 50.2214 64.9023 51.0508C65.7318 51.8802 66.1465 53.1709 66.1465 54.9229V64H63.8867ZM79.54 60.1533C79.54 61.4567 79.0534 62.4681 78.0801 63.1875C77.1068 63.8984 75.7399 64.2539 73.9795 64.2539C72.1429 64.2539 70.6829 63.9619 69.5996 63.3779V61.2959C71.1315 62.0407 72.6084 62.4131 74.0303 62.4131C75.1813 62.4131 76.0192 62.2269 76.5439 61.8545C77.0687 61.4821 77.3311 60.9827 77.3311 60.3564C77.3311 59.8063 77.0771 59.3408 76.5693 58.96C76.07 58.5791 75.1771 58.1432 73.8906 57.6523C72.5788 57.1445 71.6562 56.7129 71.123 56.3574C70.5898 55.9935 70.1963 55.5872 69.9424 55.1387C69.6969 54.6901 69.5742 54.1442 69.5742 53.501C69.5742 52.3584 70.0397 51.457 70.9707 50.7969C71.9017 50.1367 73.1797 49.8066 74.8047 49.8066C76.3874 49.8066 77.8685 50.1198 79.248 50.7461L78.4736 52.5615C77.0602 51.9691 75.7865 51.6729 74.6523 51.6729C73.7044 51.6729 72.985 51.8252 72.4941 52.1299C72.0033 52.4261 71.7578 52.8366 71.7578 53.3613C71.7578 53.8691 71.9694 54.2923 72.3926 54.6309C72.8158 54.9609 73.8018 55.4222 75.3506 56.0146C76.5101 56.4463 77.3649 56.8483 77.915 57.2207C78.4736 57.5931 78.8841 58.012 79.1465 58.4775C79.4089 58.943 79.54 59.5016 79.54 60.1533ZM85.2148 64H82.9297V50.0605H85.2148V64ZM82.752 46.29C82.752 45.7822 82.8789 45.4141 83.1328 45.1855C83.3952 44.957 83.7168 44.8428 84.0977 44.8428C84.4531 44.8428 84.762 44.957 85.0244 45.1855C85.2952 45.4141 85.4307 45.7822 85.4307 46.29C85.4307 46.7894 85.2952 47.1576 85.0244 47.3945C84.762 47.6315 84.4531 47.75 84.0977 47.75C83.7168 47.75 83.3952 47.6315 83.1328 47.3945C82.8789 47.1576 82.752 46.7894 82.752 46.29ZM94.5713 64.2539C92.7601 64.2539 91.3551 63.6276 90.3564 62.375C89.3577 61.1224 88.8584 59.3493 88.8584 57.0557C88.8584 54.779 89.3577 53.0016 90.3564 51.7236C91.3636 50.4456 92.777 49.8066 94.5967 49.8066C96.4671 49.8066 97.9059 50.4922 98.9131 51.8633H99.0781C99.0527 51.694 99.0189 51.3555 98.9766 50.8477C98.9342 50.3314 98.9131 49.9844 98.9131 49.8066V44.2461H101.198V64H99.3574L99.0146 62.1338H98.9131C97.9398 63.5472 96.4925 64.2539 94.5713 64.2539ZM94.9395 62.3623C96.3275 62.3623 97.3389 61.9857 97.9736 61.2324C98.6169 60.4707 98.9385 59.2266 98.9385 57.5V57.0811C98.9385 55.1429 98.6126 53.7633 97.9609 52.9424C97.3177 52.113 96.3021 51.6982 94.9141 51.6982C93.7376 51.6982 92.8278 52.168 92.1846 53.1074C91.5413 54.0384 91.2197 55.3714 91.2197 57.1064C91.2197 58.833 91.5371 60.1406 92.1719 61.0293C92.8151 61.918 93.7376 62.3623 94.9395 62.3623ZM111.558 64.2539C109.467 64.2539 107.825 63.6234 106.632 62.3623C105.447 61.0928 104.854 59.3493 104.854 57.1318C104.854 54.8975 105.409 53.1201 106.518 51.7998C107.626 50.471 109.124 49.8066 111.012 49.8066C112.764 49.8066 114.16 50.3737 115.201 51.5078C116.242 52.6335 116.763 54.1611 116.763 56.0908V57.4746H107.216C107.258 59.0573 107.66 60.2591 108.422 61.0801C109.184 61.901 110.263 62.3115 111.659 62.3115C112.404 62.3115 113.111 62.248 113.779 62.1211C114.448 61.9857 115.231 61.7275 116.128 61.3467V63.3525C115.358 63.6826 114.634 63.9154 113.957 64.0508C113.28 64.1862 112.48 64.2539 111.558 64.2539ZM110.986 51.6729C109.895 51.6729 109.031 52.0241 108.396 52.7266C107.762 53.429 107.385 54.4066 107.267 55.6592H114.363C114.346 54.3558 114.046 53.3656 113.462 52.6885C112.878 52.0114 112.053 51.6729 110.986 51.6729ZM143.575 54.6943C143.575 57.665 142.822 60.001 141.315 61.7021C139.817 63.4033 137.718 64.2539 135.019 64.2539C132.285 64.2539 130.169 63.4202 128.671 61.7529C127.181 60.0771 126.437 57.7158 126.437 54.6689C126.437 51.6475 127.177 49.3073 128.658 47.6484C130.148 45.9811 132.276 45.1475 135.044 45.1475C137.735 45.1475 139.83 45.9938 141.328 47.6865C142.826 49.3708 143.575 51.7067 143.575 54.6943ZM128.899 54.6943C128.899 57.1488 129.42 59.0192 130.461 60.3057C131.502 61.5921 133.021 62.2354 135.019 62.2354C137.007 62.2354 138.518 61.6006 139.551 60.3311C140.583 59.0615 141.1 57.1826 141.1 54.6943C141.1 52.2145 140.588 50.3483 139.563 49.0957C138.539 47.8346 137.033 47.2041 135.044 47.2041C133.03 47.2041 131.502 47.8431 130.461 49.1211C129.42 50.3906 128.899 52.2484 128.899 54.6943ZM149.529 50.0605V59.0361C149.529 60.1618 149.779 60.9997 150.278 61.5498C150.786 62.0915 151.569 62.3623 152.627 62.3623C154.057 62.3623 155.098 61.9645 155.75 61.1689C156.402 60.3734 156.728 59.0911 156.728 57.3223V50.0605H159.025V64H157.146L156.816 62.1592H156.702C156.287 62.8278 155.699 63.3441 154.938 63.708C154.176 64.0719 153.291 64.2539 152.284 64.2539C150.608 64.2539 149.343 63.8519 148.488 63.0479C147.642 62.2438 147.219 60.9574 147.219 59.1885V50.0605H149.529ZM168.103 62.3877C168.399 62.3877 168.746 62.3581 169.144 62.2988C169.541 62.2396 169.842 62.1719 170.045 62.0957V63.8477C169.833 63.9408 169.503 64.0296 169.055 64.1143C168.615 64.2074 168.166 64.2539 167.709 64.2539C164.984 64.2539 163.621 62.8193 163.621 59.9502V51.8379H161.653V50.7461L163.646 49.832L164.561 46.8613H165.919V50.0605H169.943V51.8379H165.919V59.8867C165.919 60.6908 166.109 61.3086 166.49 61.7402C166.88 62.1719 167.417 62.3877 168.103 62.3877ZM14.0132 131H5.52441V90.3096H28.8477V97.3789H14.0132V107.872H27.8179V114.913H14.0132V131ZM35.7778 91.8403C35.7778 89.0757 37.3179 87.6934 40.3979 87.6934C43.478 87.6934 45.0181 89.0757 45.0181 91.8403C45.0181 93.1577 44.6284 94.1875 43.8491 94.9297C43.0884 95.6533 41.938 96.0151 40.3979 96.0151C37.3179 96.0151 35.7778 94.6235 35.7778 91.8403ZM44.6284 131H36.1396V99.8838H44.6284V131ZM82.2852 131H73.7964V112.826C73.7964 110.581 73.3975 108.901 72.5996 107.788C71.8018 106.656 70.5308 106.09 68.7866 106.09C66.4116 106.09 64.6953 106.888 63.6377 108.484C62.5801 110.061 62.0513 112.687 62.0513 116.36V131H53.5625V99.8838H60.0474L61.1885 103.864H61.6616C62.6079 102.361 63.9067 101.229 65.5581 100.468C67.228 99.689 69.1206 99.2993 71.2358 99.2993C74.854 99.2993 77.6001 100.283 79.4741 102.25C81.3481 104.198 82.2852 107.018 82.2852 110.71V131ZM100.877 131.557C97.2217 131.557 94.3457 130.137 92.249 127.298C90.1709 124.459 89.1318 120.526 89.1318 115.498C89.1318 110.395 90.1895 106.424 92.3047 103.585C94.4385 100.728 97.3701 99.2993 101.1 99.2993C105.015 99.2993 108.002 100.821 110.062 103.864H110.34C109.913 101.544 109.7 99.4756 109.7 97.6572V87.6934H118.216V131H111.704L110.062 126.964H109.7C107.77 130.026 104.829 131.557 100.877 131.557ZM103.855 124.793C106.026 124.793 107.612 124.163 108.614 122.901C109.635 121.639 110.191 119.496 110.284 116.472V115.553C110.284 112.213 109.765 109.82 108.726 108.373C107.705 106.925 106.035 106.202 103.716 106.202C101.823 106.202 100.348 107.009 99.2905 108.623C98.2515 110.219 97.7319 112.547 97.7319 115.609C97.7319 118.67 98.2607 120.971 99.3184 122.511C100.376 124.033 101.888 124.793 103.855 124.793ZM126.733 91.8403C126.733 89.0757 128.273 87.6934 131.353 87.6934C134.433 87.6934 135.973 89.0757 135.973 91.8403C135.973 93.1577 135.583 94.1875 134.804 94.9297C134.043 95.6533 132.893 96.0151 131.353 96.0151C128.273 96.0151 126.733 94.6235 126.733 91.8403ZM135.583 131H127.095V99.8838H135.583V131ZM173.24 131H164.751V112.826C164.751 110.581 164.353 108.901 163.555 107.788C162.757 106.656 161.486 106.09 159.742 106.09C157.367 106.09 155.65 106.888 154.593 108.484C153.535 110.061 153.006 112.687 153.006 116.36V131H144.518V99.8838H151.002L152.144 103.864H152.617C153.563 102.361 154.862 101.229 156.513 100.468C158.183 99.689 160.076 99.2993 162.191 99.2993C165.809 99.2993 168.555 100.283 170.429 102.25C172.303 104.198 173.24 107.018 173.24 110.71V131ZM194.866 124.905C197.148 124.905 198.781 124.255 199.764 122.957C200.748 121.639 201.239 119.515 201.239 116.583V115.553C201.239 112.232 200.72 109.848 199.681 108.4C198.66 106.935 197.009 106.202 194.727 106.202C190.737 106.202 188.743 109.337 188.743 115.609C188.743 118.726 189.234 121.055 190.218 122.595C191.22 124.135 192.769 124.905 194.866 124.905ZM209.171 131.056C209.171 135.527 207.863 138.914 205.247 141.214C202.649 143.534 198.771 144.693 193.613 144.693C189.067 144.693 185.189 144.081 181.979 142.856V136.065C185.746 137.661 189.791 138.459 194.114 138.459C198.475 138.459 200.655 136.103 200.655 131.39V130.777L200.905 126.964H200.655C198.669 130.026 195.729 131.557 191.832 131.557C188.103 131.557 185.208 130.119 183.148 127.243C181.107 124.367 180.087 120.452 180.087 115.498C180.087 110.395 181.145 106.424 183.26 103.585C185.394 100.728 188.325 99.2993 192.055 99.2993C195.877 99.2993 198.883 100.821 201.072 103.864H201.295L201.991 99.8838H209.171V131.056ZM64.7231 184H54.8984L49.3877 162.625C49.1836 161.864 48.8311 160.296 48.3301 157.921C47.8477 155.528 47.5693 153.923 47.4951 153.106C47.3838 154.108 47.1055 155.723 46.6602 157.949C46.2148 160.157 45.8716 161.734 45.6304 162.681L40.1475 184H30.3506L19.9692 143.31H28.458L33.6626 165.52C34.5718 169.62 35.2305 173.173 35.6387 176.179C35.75 175.122 36.0005 173.489 36.3901 171.281C36.7983 169.054 37.1787 167.329 37.5312 166.104L43.4595 143.31H51.6143L57.5425 166.104C57.8022 167.125 58.127 168.683 58.5166 170.78C58.9062 172.876 59.2031 174.676 59.4072 176.179C59.5928 174.732 59.8896 172.932 60.2979 170.78C60.7061 168.609 61.0771 166.855 61.4111 165.52L66.5879 143.31H75.0767L64.7231 184ZM85.7363 168.386C85.7363 171.466 86.2373 173.795 87.2393 175.372C88.2598 176.949 89.9111 177.738 92.1934 177.738C94.457 177.738 96.0806 176.958 97.064 175.4C98.0659 173.823 98.5669 171.485 98.5669 168.386C98.5669 165.306 98.0659 162.996 97.064 161.456C96.062 159.916 94.4199 159.146 92.1377 159.146C89.874 159.146 88.2412 159.916 87.2393 161.456C86.2373 162.978 85.7363 165.288 85.7363 168.386ZM107.25 168.386C107.25 173.452 105.915 177.413 103.243 180.271C100.571 183.128 96.8506 184.557 92.082 184.557C89.0947 184.557 86.46 183.907 84.1777 182.608C81.8955 181.291 80.1421 179.408 78.9175 176.958C77.6929 174.509 77.0806 171.652 77.0806 168.386C77.0806 163.302 78.4072 159.35 81.0605 156.53C83.7139 153.709 87.4434 152.299 92.249 152.299C95.2363 152.299 97.8711 152.949 100.153 154.248C102.436 155.546 104.189 157.411 105.414 159.842C106.638 162.272 107.25 165.121 107.25 168.386ZM131.631 152.299C132.782 152.299 133.737 152.383 134.498 152.55L133.858 160.51C133.171 160.324 132.336 160.231 131.353 160.231C128.644 160.231 126.529 160.927 125.007 162.319C123.504 163.71 122.753 165.659 122.753 168.164V184H114.264V152.884H120.693L121.946 158.116H122.363C123.328 156.372 124.627 154.971 126.26 153.914C127.911 152.837 129.702 152.299 131.631 152.299ZM157.515 152.299C158.666 152.299 159.621 152.383 160.382 152.55L159.742 160.51C159.055 160.324 158.22 160.231 157.237 160.231C154.528 160.231 152.413 160.927 150.891 162.319C149.388 163.71 148.637 165.659 148.637 168.164V184H140.148V152.884H146.577L147.83 158.116H148.247C149.212 156.372 150.511 154.971 152.144 153.914C153.795 152.837 155.585 152.299 157.515 152.299ZM161.579 152.884H170.875L176.747 170.39C177.248 171.912 177.591 173.711 177.777 175.79H177.944C178.148 173.878 178.547 172.079 179.141 170.39L184.902 152.884H194.003L180.838 187.98C179.632 191.227 177.907 193.658 175.662 195.272C173.435 196.886 170.828 197.693 167.841 197.693C166.375 197.693 164.937 197.536 163.527 197.22V190.485C164.547 190.726 165.661 190.847 166.867 190.847C168.37 190.847 169.678 190.383 170.791 189.455C171.923 188.546 172.804 187.164 173.435 185.308L173.936 183.777L161.579 152.884Z" transform="translate(58 32) scale(2)" fill="black"/>
</svg>
