<svg width="196" height="166" viewBox="0 0 196 166" fill="none" xmlns="http://www.w3.org/2000/svg">
<path d="M0.939346 152.939C0.353546 153.525 0.353546 154.475 0.939346 155.061L10.4853 164.607C11.0711 165.192 12.0208 165.192 12.6066 164.607C13.1924 164.021 13.1924 163.071 12.6066 162.485L4.12132 154L12.6066 145.515C13.1924 144.929 13.1924 143.979 12.6066 143.393C12.0208 142.808 11.0711 142.808 10.4853 143.393L0.939346 152.939ZM194 152.5L2 152.5L2 155.5L194 155.5L194 152.5Z" fill="black"/>
<path d="M192.5 6.55671e-08L192.5 154L195.5 154L195.5 -6.55671e-08L192.5 6.55671e-08Z" fill="black"/>
</svg>
