<svg width="294" height="285" viewBox="0 0 294 285" fill="none" xmlns="http://www.w3.org/2000/svg">
<path d="M54.5037 18.1818H217.034V178.608H54.5037V18.1818Z" fill="#FFE500"/>
<path d="M239.788 0L217.034 18.1817V178.608L239.788 160.426V0Z" fill="black"/>
<path d="M54.5037 18.1818H217.034L238.705 1.0696H76.1744L54.5037 18.1818Z" fill="black"/>
<mask id="mask0" mask-type="alpha" maskUnits="userSpaceOnUse" x="54" y="18" width="164" height="161">
<path d="M54.5037 18.1818H217.034V178.608H54.5037V18.1818Z" fill="#FFE500"/>
</mask>
<g mask="url(#mask0)">
<path d="M127.569 158.985C127.569 151.746 133.437 145.878 140.676 145.878C147.914 145.878 153.782 151.746 153.782 158.985V183.133H127.569V158.985Z" fill="#4C4C4C"/>
<ellipse cx="140.676" cy="132.735" rx="14.4173" ry="14.4569" fill="#4C4C4C"/>
<path d="M150.399 156.768C153.493 157.634 159.991 157.554 161.233 150.3" stroke="#4C4C4C" stroke-width="3"/>
<path d="M158.463 147.402L158.466 147.379C158.553 146.44 158.598 145.953 158.866 145.77C159.269 145.494 159.497 146.245 159.416 147.206C159.589 145.99 159.983 144.187 160.546 144.284C160.942 144.353 160.946 145.281 160.829 146.246C161.123 144.969 161.605 143.678 162.259 143.791C163.029 143.923 162.841 145.789 162.544 147.228C162.793 146.399 163.212 145.533 163.777 145.63C164.14 145.692 164.146 146.277 163.978 147.08C163.528 149.224 163.007 151.444 160.858 151.866C159.105 152.211 158.298 149.182 158.463 147.402Z" fill="#4C4C4C"/>
<path d="M130.838 156.697C128.105 157.558 122.362 157.478 121.264 150.263" stroke="#4C4C4C" stroke-width="3"/>
<path d="M123.727 147.561C123.638 146.493 123.61 145.951 123.356 145.757C123 145.482 122.799 146.229 122.87 147.186C122.718 145.975 122.369 144.182 121.872 144.279C121.522 144.347 121.518 145.271 121.621 146.23C121.362 144.96 120.936 143.676 120.357 143.788C119.678 143.92 119.843 145.776 120.106 147.207C119.886 146.382 119.516 145.52 119.017 145.617C118.668 145.685 118.692 146.366 118.881 147.272C119.295 149.254 119.642 151.385 121.594 151.82C123.196 152.178 123.866 149.226 123.727 147.561Z" fill="#4C4C4C"/>
<path d="M71.1531 166.129C71.1531 158.89 77.0211 153.022 84.2597 153.022C91.4984 153.022 97.3664 158.89 97.3664 166.129V190.277H71.1531V166.129Z" fill="#4C4C4C"/>
<ellipse cx="84.2596" cy="139.879" rx="14.4173" ry="14.4569" fill="#4C4C4C"/>
<path d="M93.9827 163.912C97.0764 164.779 103.574 164.698 104.817 157.445" stroke="#4C4C4C" stroke-width="3"/>
<path d="M102.047 154.546L102.049 154.524C102.137 153.584 102.182 153.097 102.45 152.914C102.853 152.639 103.081 153.389 103 154.351C103.172 153.134 103.567 151.332 104.13 151.429C104.526 151.497 104.53 152.426 104.413 153.39C104.707 152.113 105.189 150.822 105.843 150.935C106.612 151.067 106.425 152.934 106.128 154.372C106.377 153.543 106.796 152.677 107.361 152.774C107.724 152.837 107.73 153.422 107.562 154.224C107.112 156.368 106.591 158.588 104.442 159.011C102.689 159.355 101.882 156.326 102.047 154.546Z" fill="#4C4C4C"/>
<path d="M74.4223 163.841C71.6885 164.703 65.9463 164.623 64.8479 157.407" stroke="#4C4C4C" stroke-width="3"/>
<path d="M67.3111 154.706C67.2216 153.637 67.1936 153.096 66.9402 152.901C66.5837 152.627 66.3826 153.374 66.4543 154.33C66.3016 153.12 65.9529 151.327 65.4557 151.423C65.1055 151.491 65.1019 152.415 65.2053 153.374C64.9457 152.104 64.5197 150.82 63.9415 150.932C63.2618 151.064 63.4273 152.92 63.6897 154.352C63.4697 153.527 63.0998 152.665 62.6005 152.762C62.2516 152.829 62.2757 153.51 62.4649 154.416C62.879 156.398 63.2262 158.529 65.1777 158.965C66.7796 159.322 67.4504 156.371 67.3111 154.706Z" fill="#4C4C4C"/>
<path d="M188.753 169.304C188.753 162.066 194.621 156.198 201.86 156.198C209.098 156.198 214.966 162.066 214.966 169.304V193.452H188.753V169.304Z" fill="#4C4C4C"/>
<ellipse cx="201.86" cy="143.055" rx="14.4173" ry="14.4569" fill="#4C4C4C"/>
<path d="M211.583 167.087C214.676 167.954 221.174 167.873 222.417 160.62" stroke="#4C4C4C" stroke-width="3"/>
<path d="M192.022 167.016C189.288 167.878 183.546 167.798 182.448 160.582" stroke="#4C4C4C" stroke-width="3"/>
<path d="M184.911 157.881C184.821 156.813 184.793 156.271 184.54 156.076C184.184 155.802 183.982 156.549 184.054 157.505C183.901 156.295 183.553 154.502 183.056 154.598C182.705 154.666 182.702 155.59 182.805 156.549C182.546 155.279 182.12 153.995 181.541 154.107C180.862 154.239 181.027 156.095 181.29 157.527C181.07 156.702 180.7 155.84 180.2 155.937C179.851 156.005 179.876 156.685 180.065 157.591C180.479 159.573 180.826 161.704 182.778 162.14C184.379 162.497 185.05 159.546 184.911 157.881Z" fill="#4C4C4C"/>
</g>
<path d="M9.17456 153.428C9.17456 146.189 15.0426 140.321 22.2812 140.321C29.5198 140.321 35.3879 146.189 35.3879 153.428V177.576H9.17456V153.428Z" fill="black"/>
<ellipse cx="22.2813" cy="127.179" rx="14.4173" ry="14.4569" fill="#FFE500"/>
<ellipse cx="14.745" cy="123.236" rx="0.983" ry="1.31426" fill="black"/>
<ellipse cx="30.473" cy="123.236" rx="0.983" ry="1.31426" fill="black"/>
<path d="M14.7451 132.436C17.6941 135.064 25.1649 138.744 31.4561 132.436" stroke="black" stroke-width="3"/>
<path d="M32.0045 151.211C35.0981 152.078 41.5961 151.997 42.8389 144.743" stroke="black" stroke-width="3"/>
<path d="M40.0689 141.845L40.071 141.823C40.1584 140.883 40.2037 140.396 40.4715 140.213C40.875 139.938 41.1026 140.688 41.0214 141.65C41.1942 140.433 41.5887 138.631 42.1514 138.728C42.5477 138.796 42.5517 139.725 42.4348 140.689C42.7285 139.412 43.2106 138.121 43.8649 138.234C44.634 138.367 44.4468 140.233 44.1499 141.671C44.3988 140.842 44.8174 139.976 45.3824 140.073C45.7458 140.136 45.7516 140.721 45.5833 141.523C45.1336 143.668 44.6125 145.887 42.4634 146.31C40.7104 146.654 39.9034 143.625 40.0689 141.845Z" fill="black"/>
<path d="M12.4438 151.14C9.70999 152.002 3.96774 151.921 2.86943 144.706" stroke="black" stroke-width="3"/>
<path d="M5.33254 142.005C5.2431 140.936 5.21505 140.395 4.96171 140.2C4.60519 139.926 4.40406 140.672 4.47574 141.629C4.32311 140.418 3.97442 138.626 3.47723 138.722C3.12698 138.79 3.12343 139.714 3.22676 140.673C2.96722 139.403 2.54116 138.119 1.96297 138.231C1.28331 138.363 1.44877 140.219 1.71115 141.65C1.49115 140.826 1.12124 139.964 0.621991 140.061C0.273055 140.128 0.297149 140.809 0.486372 141.715C0.900482 143.697 1.24771 145.828 3.19917 146.264C4.80107 146.621 5.47189 143.669 5.33254 142.005Z" fill="black"/>
<path d="M22.2812 177.778H35.3879L32.1113 203.406H25.5579L22.2812 177.778Z" fill="black"/>
<path d="M9.17456 177.778H22.2812L19.0046 203.406H12.4512L9.17456 177.778Z" fill="black"/>
<path d="M6.55322 211.291C6.55322 207.662 9.4953 204.72 13.1245 204.72H18.3492V211.948H7.21035C6.84743 211.948 6.55322 211.654 6.55322 211.291Z" fill="black"/>
<path d="M38.0093 211.291C38.0093 207.662 35.0672 204.72 31.438 204.72H26.2133V211.948H37.3521C37.7151 211.948 38.0093 211.654 38.0093 211.291Z" fill="black"/>
<rect x="13.1067" y="203.406" width="5.24267" height="1.31426" fill="#FFE500"/>
<rect x="26.2131" y="203.406" width="5.24267" height="1.31426" fill="#FFE500"/>
<path d="M257.088 163.748C257.088 156.509 262.956 150.641 270.195 150.641C277.433 150.641 283.301 156.509 283.301 163.748V187.896H257.088V163.748Z" fill="black"/>
<ellipse cx="270.195" cy="137.498" rx="14.4173" ry="14.4569" fill="#FFE500"/>
<ellipse cx="262.658" cy="133.555" rx="0.983" ry="1.31426" fill="black"/>
<ellipse cx="278.386" cy="133.555" rx="0.983" ry="1.31426" fill="black"/>
<path d="M262.658 142.755C265.607 145.384 273.078 149.064 279.369 142.755" stroke="black" stroke-width="3"/>
<path d="M279.918 161.531C283.011 162.397 289.509 162.317 290.752 155.063" stroke="black" stroke-width="3"/>
<path d="M287.982 152.165L287.984 152.142C288.072 151.203 288.117 150.716 288.385 150.533C288.788 150.257 289.016 151.008 288.935 151.969C289.107 150.753 289.502 148.95 290.065 149.047C290.461 149.116 290.465 150.044 290.348 151.009C290.642 149.732 291.124 148.441 291.778 148.554C292.547 148.686 292.36 150.552 292.063 151.991C292.312 151.162 292.731 150.295 293.296 150.393C293.659 150.455 293.665 151.04 293.497 151.843C293.047 153.987 292.526 156.207 290.377 156.629C288.624 156.974 287.817 153.944 287.982 152.165Z" fill="black"/>
<path d="M260.357 161.459C257.624 162.321 251.881 162.241 250.783 155.026" stroke="black" stroke-width="3"/>
<path d="M253.246 152.324C253.157 151.256 253.129 150.714 252.875 150.519C252.519 150.245 252.318 150.992 252.389 151.948C252.237 150.738 251.888 148.945 251.391 149.042C251.041 149.11 251.037 150.034 251.14 150.993C250.881 149.723 250.455 148.439 249.877 148.551C249.197 148.683 249.362 150.539 249.625 151.97C249.405 151.145 249.035 150.283 248.536 150.38C248.187 150.448 248.211 151.129 248.4 152.034C248.814 154.017 249.161 156.148 251.113 156.583C252.715 156.941 253.385 153.989 253.246 152.324Z" fill="black"/>
<path d="M270.195 188.097H283.301L280.025 213.725H273.471L270.195 188.097Z" fill="black"/>
<path d="M257.088 188.097H270.195L266.918 213.725H260.365L257.088 188.097Z" fill="black"/>
<path d="M254.467 221.611C254.467 217.982 257.409 215.04 261.038 215.04H266.263V222.268H255.124C254.761 222.268 254.467 221.974 254.467 221.611Z" fill="black"/>
<path d="M285.923 221.611C285.923 217.982 282.981 215.04 279.352 215.04H274.127V222.268H285.266C285.629 222.268 285.923 221.974 285.923 221.611Z" fill="black"/>
<rect x="261.02" y="213.725" width="5.24267" height="1.31426" fill="#FFE500"/>
<rect x="274.127" y="213.725" width="5.24267" height="1.31426" fill="#FFE500"/>
<path d="M135.515 162.16C135.515 154.921 141.383 149.053 148.622 149.053C155.86 149.053 161.728 154.921 161.728 162.16V186.308H135.515V162.16Z" fill="black"/>
<ellipse cx="148.622" cy="135.91" rx="14.4173" ry="14.4569" fill="#FFE500"/>
<ellipse cx="141.085" cy="131.968" rx="0.983" ry="1.31426" fill="black"/>
<ellipse cx="156.813" cy="131.968" rx="0.983" ry="1.31426" fill="black"/>
<path d="M141.085 141.167C144.034 143.796 151.505 147.476 157.796 141.167" stroke="black" stroke-width="3"/>
<path d="M158.345 159.943C161.439 160.81 167.937 160.729 169.18 153.475" stroke="black" stroke-width="3"/>
<path d="M166.409 150.577L166.412 150.555C166.499 149.615 166.544 149.128 166.812 148.945C167.216 148.67 167.443 149.42 167.362 150.382C167.535 149.165 167.929 147.363 168.492 147.46C168.888 147.528 168.892 148.457 168.775 149.421C169.069 148.144 169.551 146.853 170.205 146.966C170.975 147.098 170.787 148.965 170.49 150.403C170.739 149.574 171.158 148.708 171.723 148.805C172.086 148.868 172.092 149.453 171.924 150.255C171.474 152.399 170.953 154.619 168.804 155.042C167.051 155.386 166.244 152.357 166.409 150.577Z" fill="black"/>
<path d="M138.784 159.872C136.051 160.734 130.308 160.653 129.21 153.438" stroke="black" stroke-width="3"/>
<path d="M131.673 150.737C131.584 149.668 131.556 149.127 131.302 148.932C130.946 148.658 130.745 149.404 130.816 150.361C130.664 149.15 130.315 147.358 129.818 147.454C129.468 147.522 129.464 148.446 129.567 149.405C129.308 148.135 128.882 146.851 128.304 146.963C127.624 147.095 127.789 148.951 128.052 150.382C127.832 149.558 127.462 148.696 126.963 148.793C126.614 148.86 126.638 149.541 126.827 150.447C127.241 152.429 127.588 154.56 129.54 154.996C131.142 155.353 131.812 152.401 131.673 150.737Z" fill="black"/>
<path d="M148.622 186.51H161.728L158.452 212.138H151.898L148.622 186.51Z" fill="black"/>
<path d="M135.515 186.51H148.622L145.345 212.138H138.792L135.515 186.51Z" fill="black"/>
<path d="M132.894 220.023C132.894 216.394 135.836 213.452 139.465 213.452H144.69V220.68H133.551C133.188 220.68 132.894 220.386 132.894 220.023Z" fill="black"/>
<path d="M164.35 220.023C164.35 216.394 161.408 213.452 157.778 213.452H152.554V220.68H163.692C164.055 220.68 164.35 220.386 164.35 220.023Z" fill="black"/>
<rect x="139.447" y="212.138" width="5.24267" height="1.31426" fill="#FFE500"/>
<rect x="152.553" y="212.138" width="5.24267" height="1.31426" fill="#FFE500"/>
<path d="M79.0989 169.304C79.0989 162.066 84.9669 156.198 92.2055 156.198C99.4442 156.198 105.312 162.066 105.312 169.304V193.452H79.0989V169.304Z" fill="black"/>
<ellipse cx="92.2057" cy="143.055" rx="14.4173" ry="14.4569" fill="#FFE500"/>
<ellipse cx="84.6693" cy="139.112" rx="0.983" ry="1.31426" fill="black"/>
<ellipse cx="100.397" cy="139.112" rx="0.983" ry="1.31426" fill="black"/>
<path d="M84.6694 148.312C87.6184 150.94 95.0892 154.62 101.38 148.312" stroke="black" stroke-width="3"/>
<path d="M101.929 167.087C105.022 167.954 111.52 167.873 112.763 160.62" stroke="black" stroke-width="3"/>
<path d="M109.993 157.722L109.995 157.699C110.083 156.76 110.128 156.272 110.396 156.089C110.799 155.814 111.027 156.564 110.946 157.526C111.118 156.309 111.513 154.507 112.076 154.604C112.472 154.672 112.476 155.601 112.359 156.565C112.653 155.288 113.135 153.998 113.789 154.11C114.558 154.243 114.371 156.109 114.074 157.548C114.323 156.719 114.742 155.852 115.307 155.949C115.67 156.012 115.676 156.597 115.508 157.4C115.058 159.544 114.537 161.763 112.388 162.186C110.635 162.531 109.828 159.501 109.993 157.722Z" fill="black"/>
<path d="M82.3681 167.016C79.6343 167.878 73.8921 167.798 72.7937 160.582" stroke="black" stroke-width="3"/>
<path d="M75.2569 157.881C75.1674 156.813 75.1394 156.271 74.886 156.076C74.5295 155.802 74.3284 156.549 74.4001 157.505C74.2474 156.295 73.8987 154.502 73.4015 154.598C73.0513 154.666 73.0477 155.59 73.1511 156.549C72.8915 155.279 72.4655 153.995 71.8873 154.107C71.2076 154.239 71.3731 156.095 71.6355 157.527C71.4155 156.702 71.0456 155.84 70.5463 155.937C70.1974 156.005 70.2215 156.685 70.4107 157.591C70.8248 159.573 71.172 161.704 73.1235 162.14C74.7254 162.497 75.3962 159.546 75.2569 157.881Z" fill="black"/>
<path d="M92.2053 193.654H105.312L102.035 219.282H95.482L92.2053 193.654Z" fill="black"/>
<path d="M79.0989 193.654H92.2055L88.9289 219.282H82.3755L79.0989 193.654Z" fill="black"/>
<path d="M76.4775 227.168C76.4775 223.538 79.4196 220.596 83.0488 220.596H88.2735V227.825H77.1347C76.7717 227.825 76.4775 227.53 76.4775 227.168Z" fill="black"/>
<path d="M107.934 227.168C107.934 223.538 104.992 220.596 101.362 220.596H96.1376V227.825H107.276C107.639 227.825 107.934 227.53 107.934 227.168Z" fill="black"/>
<rect x="83.031" y="219.282" width="5.24267" height="1.31426" fill="#FFE500"/>
<rect x="96.1375" y="219.282" width="5.24267" height="1.31426" fill="#FFE500"/>
<path d="M196.699 172.479C196.699 165.241 202.567 159.373 209.805 159.373C217.044 159.373 222.912 165.241 222.912 172.479V196.627H196.699V172.479Z" fill="black"/>
<ellipse cx="209.806" cy="146.23" rx="14.4173" ry="14.4569" fill="#FFE500"/>
<ellipse cx="202.269" cy="142.287" rx="0.983" ry="1.31426" fill="black"/>
<ellipse cx="217.997" cy="142.287" rx="0.983" ry="1.31426" fill="black"/>
<path d="M202.269 151.487C205.218 154.116 212.689 157.796 218.98 151.487" stroke="black" stroke-width="3"/>
<path d="M219.529 170.263C222.622 171.129 229.12 171.049 230.363 163.795" stroke="black" stroke-width="3"/>
<path d="M227.593 160.897L227.595 160.874C227.683 159.935 227.728 159.448 227.996 159.265C228.399 158.989 228.627 159.74 228.546 160.702C228.718 159.485 229.113 157.683 229.676 157.779C230.072 157.848 230.076 158.777 229.959 159.741C230.253 158.464 230.735 157.173 231.389 157.286C232.158 157.418 231.971 159.284 231.674 160.723C231.923 159.894 232.342 159.028 232.907 159.125C233.27 159.188 233.276 159.772 233.107 160.575C232.658 162.719 232.137 164.939 229.988 165.361C228.235 165.706 227.428 162.677 227.593 160.897Z" fill="black"/>
<path d="M199.968 170.192C197.234 171.053 191.492 170.973 190.394 163.758" stroke="black" stroke-width="3"/>
<path d="M192.857 161.057C192.767 159.988 192.739 159.446 192.486 159.252C192.129 158.978 191.928 159.724 192 160.681C191.847 159.47 191.499 157.678 191.001 157.774C190.651 157.842 190.648 158.766 190.751 159.725C190.491 158.455 190.065 157.171 189.487 157.283C188.807 157.415 188.973 159.271 189.235 160.702C189.015 159.878 188.645 159.016 188.146 159.112C187.797 159.18 187.821 159.861 188.011 160.767C188.425 162.749 188.772 164.88 190.723 165.315C192.325 165.673 192.996 162.721 192.857 161.057Z" fill="black"/>
<path d="M209.805 196.829H222.912L219.635 222.457H213.082L209.805 196.829Z" fill="black"/>
<path d="M196.699 196.829H209.805L206.529 222.457H199.975L196.699 196.829Z" fill="black"/>
<path d="M194.077 230.343C194.077 226.714 197.019 223.771 200.649 223.771H205.873V231H194.735C194.372 231 194.077 230.706 194.077 230.343Z" fill="black"/>
<path d="M225.533 230.343C225.533 226.714 222.591 223.771 218.962 223.771H213.737V231H224.876C225.239 231 225.533 230.706 225.533 230.343Z" fill="black"/>
<rect x="200.631" y="222.457" width="5.24267" height="1.31426" fill="#FFE500"/>
<rect x="213.737" y="222.457" width="5.24267" height="1.31426" fill="#FFE500"/>
<path d="M61.2715 268.233C60.2461 268.233 59.4521 268.62 58.8896 269.394C58.3271 270.161 58.0459 271.233 58.0459 272.61C58.0459 275.476 59.1211 276.908 61.2715 276.908C62.1738 276.908 63.2666 276.683 64.5498 276.231V278.517C63.4951 278.956 62.3174 279.176 61.0166 279.176C59.1475 279.176 57.7178 278.61 56.7275 277.479C55.7373 276.343 55.2422 274.714 55.2422 272.593C55.2422 271.257 55.4854 270.088 55.9717 269.086C56.458 268.078 57.1553 267.308 58.0635 266.774C58.9775 266.235 60.0469 265.966 61.2715 265.966C62.5195 265.966 63.7734 266.268 65.0332 266.871L64.1543 269.086C63.6738 268.857 63.1904 268.658 62.7041 268.488C62.2178 268.318 61.7402 268.233 61.2715 268.233ZM69.2168 274.069C69.2168 275.042 69.375 275.777 69.6914 276.275C70.0137 276.773 70.5352 277.022 71.2559 277.022C71.9707 277.022 72.4834 276.776 72.7939 276.284C73.1104 275.786 73.2686 275.048 73.2686 274.069C73.2686 273.097 73.1104 272.367 72.7939 271.881C72.4775 271.395 71.959 271.151 71.2383 271.151C70.5234 271.151 70.0078 271.395 69.6914 271.881C69.375 272.361 69.2168 273.091 69.2168 274.069ZM76.0107 274.069C76.0107 275.669 75.5889 276.92 74.7451 277.822C73.9014 278.725 72.7266 279.176 71.2207 279.176C70.2773 279.176 69.4453 278.971 68.7246 278.561C68.0039 278.145 67.4502 277.55 67.0635 276.776C66.6768 276.003 66.4834 275.101 66.4834 274.069C66.4834 272.464 66.9023 271.216 67.7402 270.325C68.5781 269.435 69.7559 268.989 71.2734 268.989C72.2168 268.989 73.0488 269.194 73.7695 269.604C74.4902 270.015 75.0439 270.604 75.4307 271.371C75.8174 272.139 76.0107 273.038 76.0107 274.069ZM77.751 274.746V272.549H82.4707V274.746H77.751ZM85.0283 266.15H89.0273C90.8496 266.15 92.1709 266.411 92.9912 266.933C93.8174 267.448 94.2305 268.271 94.2305 269.402C94.2305 270.17 94.0488 270.8 93.6855 271.292C93.3281 271.784 92.8506 272.08 92.2529 272.18V272.268C93.0674 272.449 93.6533 272.789 94.0107 273.287C94.374 273.785 94.5557 274.447 94.5557 275.273C94.5557 276.445 94.1309 277.359 93.2812 278.016C92.4375 278.672 91.2891 279 89.8359 279H85.0283V266.15ZM87.7529 271.239H89.335C90.0732 271.239 90.6064 271.125 90.9346 270.896C91.2686 270.668 91.4355 270.29 91.4355 269.763C91.4355 269.271 91.2539 268.919 90.8906 268.708C90.5332 268.491 89.9648 268.383 89.1855 268.383H87.7529V271.239ZM87.7529 273.401V276.75H89.5283C90.2783 276.75 90.832 276.606 91.1895 276.319C91.5469 276.032 91.7256 275.593 91.7256 275.001C91.7256 273.935 90.9639 273.401 89.4404 273.401H87.7529ZM103.872 279L103.512 277.743H103.371C103.084 278.2 102.677 278.555 102.149 278.807C101.622 279.053 101.021 279.176 100.348 279.176C99.1934 279.176 98.3232 278.868 97.7373 278.253C97.1514 277.632 96.8584 276.741 96.8584 275.581V269.174H99.5391V274.913C99.5391 275.622 99.665 276.155 99.917 276.513C100.169 276.864 100.57 277.04 101.121 277.04C101.871 277.04 102.413 276.791 102.747 276.293C103.081 275.789 103.248 274.957 103.248 273.797V269.174H105.929V279H103.872ZM108.627 266.634C108.627 265.761 109.113 265.324 110.086 265.324C111.059 265.324 111.545 265.761 111.545 266.634C111.545 267.05 111.422 267.375 111.176 267.609C110.936 267.838 110.572 267.952 110.086 267.952C109.113 267.952 108.627 267.513 108.627 266.634ZM111.422 279H108.741V269.174H111.422V279ZM116.924 279H114.243V265.324H116.924V279ZM122.856 279.176C121.702 279.176 120.794 278.728 120.132 277.831C119.476 276.935 119.147 275.692 119.147 274.104C119.147 272.493 119.481 271.239 120.149 270.343C120.823 269.44 121.749 268.989 122.927 268.989C124.163 268.989 125.106 269.47 125.757 270.431H125.845C125.71 269.698 125.643 269.045 125.643 268.471V265.324H128.332V279H126.275L125.757 277.726H125.643C125.033 278.692 124.104 279.176 122.856 279.176ZM123.797 277.04C124.482 277.04 124.983 276.841 125.3 276.442C125.622 276.044 125.798 275.367 125.827 274.412V274.122C125.827 273.067 125.663 272.312 125.335 271.854C125.013 271.397 124.485 271.169 123.753 271.169C123.155 271.169 122.689 271.424 122.355 271.934C122.027 272.438 121.863 273.173 121.863 274.14C121.863 275.106 122.03 275.833 122.364 276.319C122.698 276.8 123.176 277.04 123.797 277.04ZM131.021 266.634C131.021 265.761 131.508 265.324 132.48 265.324C133.453 265.324 133.939 265.761 133.939 266.634C133.939 267.05 133.816 267.375 133.57 267.609C133.33 267.838 132.967 267.952 132.48 267.952C131.508 267.952 131.021 267.513 131.021 266.634ZM133.816 279H131.136V269.174H133.816V279ZM145.708 279H143.027V273.261C143.027 272.552 142.901 272.021 142.649 271.67C142.397 271.312 141.996 271.134 141.445 271.134C140.695 271.134 140.153 271.386 139.819 271.89C139.485 272.388 139.318 273.217 139.318 274.377V279H136.638V269.174H138.686L139.046 270.431H139.195C139.494 269.956 139.904 269.599 140.426 269.358C140.953 269.112 141.551 268.989 142.219 268.989C143.361 268.989 144.229 269.3 144.82 269.921C145.412 270.536 145.708 271.427 145.708 272.593V279ZM152.537 277.075C153.258 277.075 153.773 276.87 154.084 276.46C154.395 276.044 154.55 275.373 154.55 274.447V274.122C154.55 273.073 154.386 272.32 154.058 271.863C153.735 271.4 153.214 271.169 152.493 271.169C151.233 271.169 150.604 272.159 150.604 274.14C150.604 275.124 150.759 275.859 151.069 276.346C151.386 276.832 151.875 277.075 152.537 277.075ZM157.055 279.018C157.055 280.43 156.642 281.499 155.815 282.226C154.995 282.958 153.771 283.324 152.142 283.324C150.706 283.324 149.481 283.131 148.468 282.744V280.6C149.657 281.104 150.935 281.355 152.3 281.355C153.677 281.355 154.365 280.611 154.365 279.123V278.93L154.444 277.726H154.365C153.738 278.692 152.81 279.176 151.579 279.176C150.401 279.176 149.487 278.722 148.837 277.813C148.192 276.905 147.87 275.669 147.87 274.104C147.87 272.493 148.204 271.239 148.872 270.343C149.546 269.44 150.472 268.989 151.649 268.989C152.856 268.989 153.806 269.47 154.497 270.431H154.567L154.787 269.174H157.055V279.018ZM169.702 279H166.978V268.418H163.488V266.15H173.191V268.418H169.702V279ZM184.028 279H181.348V273.261C181.348 271.843 180.82 271.134 179.766 271.134C179.016 271.134 178.474 271.389 178.14 271.898C177.806 272.408 177.639 273.234 177.639 274.377V279H174.958V265.324H177.639V268.11C177.639 268.327 177.618 268.837 177.577 269.64L177.516 270.431H177.656C178.254 269.47 179.203 268.989 180.504 268.989C181.658 268.989 182.534 269.3 183.132 269.921C183.729 270.542 184.028 271.433 184.028 272.593V279ZM190.857 270.896C190.289 270.896 189.844 271.078 189.521 271.441C189.199 271.799 189.015 272.309 188.968 272.971H192.729C192.718 272.309 192.545 271.799 192.211 271.441C191.877 271.078 191.426 270.896 190.857 270.896ZM191.235 279.176C189.653 279.176 188.417 278.739 187.526 277.866C186.636 276.993 186.19 275.757 186.19 274.157C186.19 272.511 186.601 271.239 187.421 270.343C188.247 269.44 189.387 268.989 190.84 268.989C192.229 268.989 193.31 269.385 194.083 270.176C194.856 270.967 195.243 272.06 195.243 273.454V274.755H188.906C188.936 275.517 189.161 276.111 189.583 276.539C190.005 276.967 190.597 277.181 191.358 277.181C191.95 277.181 192.51 277.119 193.037 276.996C193.564 276.873 194.115 276.677 194.689 276.407V278.481C194.221 278.716 193.72 278.889 193.187 279C192.653 279.117 192.003 279.176 191.235 279.176ZM214.825 279H211.723L209.982 272.25C209.918 272.01 209.807 271.515 209.648 270.765C209.496 270.009 209.408 269.502 209.385 269.244C209.35 269.561 209.262 270.07 209.121 270.773C208.98 271.471 208.872 271.969 208.796 272.268L207.064 279H203.971L200.692 266.15H203.373L205.017 273.164C205.304 274.459 205.512 275.581 205.641 276.53C205.676 276.196 205.755 275.681 205.878 274.983C206.007 274.28 206.127 273.735 206.238 273.349L208.11 266.15H210.686L212.558 273.349C212.64 273.671 212.742 274.163 212.865 274.825C212.988 275.487 213.082 276.056 213.146 276.53C213.205 276.073 213.299 275.505 213.428 274.825C213.557 274.14 213.674 273.586 213.779 273.164L215.414 266.15H218.095L214.825 279ZM225.565 279L225.047 277.664H224.977C224.525 278.232 224.06 278.628 223.579 278.851C223.104 279.067 222.483 279.176 221.716 279.176C220.772 279.176 220.028 278.906 219.483 278.367C218.944 277.828 218.675 277.061 218.675 276.064C218.675 275.021 219.038 274.254 219.765 273.762C220.497 273.264 221.599 272.988 223.069 272.936L224.774 272.883V272.452C224.774 271.456 224.265 270.958 223.245 270.958C222.46 270.958 221.537 271.195 220.477 271.67L219.589 269.859C220.72 269.268 221.974 268.972 223.351 268.972C224.669 268.972 225.68 269.259 226.383 269.833C227.086 270.407 227.438 271.28 227.438 272.452V279H225.565ZM224.774 274.447L223.737 274.482C222.958 274.506 222.378 274.646 221.997 274.904C221.616 275.162 221.426 275.555 221.426 276.082C221.426 276.838 221.859 277.216 222.727 277.216C223.348 277.216 223.843 277.037 224.212 276.68C224.587 276.322 224.774 275.848 224.774 275.256V274.447ZM232.887 279H230.206V265.324H232.887V279ZM238.389 279H235.708V265.324H238.389V279Z" fill="black"/>
<path d="M80.1367 44L78.7617 39.5195H78.7266C78.776 40.431 78.8008 41.0391 78.8008 41.3438V44H77.7188V38.2891H79.3672L80.7188 42.6562H80.7422L82.1758 38.2891H83.8242V44H82.6953V41.2969C82.6953 41.1693 82.6966 41.0221 82.6992 40.8555C82.7044 40.6888 82.7227 40.2461 82.7539 39.5273H82.7188L81.2461 44H80.1367ZM86.9805 40.3984C86.7279 40.3984 86.5299 40.4792 86.3867 40.6406C86.2435 40.7995 86.1615 41.026 86.1406 41.3203H87.8125C87.8073 41.026 87.7305 40.7995 87.582 40.6406C87.4336 40.4792 87.2331 40.3984 86.9805 40.3984ZM87.1484 44.0781C86.4453 44.0781 85.8958 43.8841 85.5 43.4961C85.1042 43.1081 84.9062 42.5586 84.9062 41.8477C84.9062 41.1159 85.0885 40.5508 85.4531 40.1523C85.8203 39.7513 86.3268 39.5508 86.9727 39.5508C87.5898 39.5508 88.0703 39.7266 88.4141 40.0781C88.7578 40.4297 88.9297 40.9154 88.9297 41.5352V42.1133H86.1133C86.1263 42.4518 86.2266 42.7161 86.4141 42.9062C86.6016 43.0964 86.8646 43.1914 87.2031 43.1914C87.4661 43.1914 87.7148 43.1641 87.9492 43.1094C88.1836 43.0547 88.4284 42.9674 88.6836 42.8477V43.7695C88.4753 43.8737 88.2526 43.9505 88.0156 44C87.7786 44.0521 87.4896 44.0781 87.1484 44.0781ZM92.6719 44L92.4414 43.4062H92.4102C92.2096 43.6589 92.0026 43.8346 91.7891 43.9336C91.5781 44.0299 91.3021 44.0781 90.9609 44.0781C90.5417 44.0781 90.2109 43.9583 89.9688 43.7188C89.7292 43.4792 89.6094 43.138 89.6094 42.6953C89.6094 42.2318 89.7708 41.8906 90.0938 41.6719C90.4193 41.4505 90.9089 41.3281 91.5625 41.3047L92.3203 41.2812V41.0898C92.3203 40.6471 92.0938 40.4258 91.6406 40.4258C91.2917 40.4258 90.8815 40.5312 90.4102 40.7422L90.0156 39.9375C90.5182 39.6745 91.0755 39.543 91.6875 39.543C92.2734 39.543 92.7227 39.6706 93.0352 39.9258C93.3477 40.181 93.5039 40.569 93.5039 41.0898V44H92.6719ZM92.3203 41.9766L91.8594 41.9922C91.513 42.0026 91.2552 42.0651 91.0859 42.1797C90.9167 42.2943 90.832 42.4688 90.832 42.7031C90.832 43.0391 91.0247 43.207 91.4102 43.207C91.6862 43.207 91.9062 43.1276 92.0703 42.9688C92.237 42.8099 92.3203 42.599 92.3203 42.3359V41.9766ZM98.7656 44H97.5742V41.4492C97.5742 41.1341 97.5182 40.8984 97.4062 40.7422C97.2943 40.5833 97.1159 40.5039 96.8711 40.5039C96.5378 40.5039 96.2969 40.6159 96.1484 40.8398C96 41.0612 95.9258 41.4297 95.9258 41.9453V44H94.7344V39.6328H95.6445L95.8047 40.1914H95.8711C96.0039 39.9805 96.1862 39.8216 96.418 39.7148C96.6523 39.6055 96.918 39.5508 97.2148 39.5508C97.7227 39.5508 98.1081 39.6888 98.3711 39.9648C98.6341 40.2383 98.7656 40.6341 98.7656 41.1523V44ZM99.9414 38.5039C99.9414 38.1159 100.158 37.9219 100.59 37.9219C101.022 37.9219 101.238 38.1159 101.238 38.5039C101.238 38.6888 101.184 38.8333 101.074 38.9375C100.967 39.0391 100.806 39.0898 100.59 39.0898C100.158 39.0898 99.9414 38.8945 99.9414 38.5039ZM101.184 44H99.9922V39.6328H101.184V44ZM106.469 44H105.277V41.4492C105.277 41.1341 105.221 40.8984 105.109 40.7422C104.997 40.5833 104.819 40.5039 104.574 40.5039C104.241 40.5039 104 40.6159 103.852 40.8398C103.703 41.0612 103.629 41.4297 103.629 41.9453V44H102.438V39.6328H103.348L103.508 40.1914H103.574C103.707 39.9805 103.889 39.8216 104.121 39.7148C104.355 39.6055 104.621 39.5508 104.918 39.5508C105.426 39.5508 105.811 39.6888 106.074 39.9648C106.337 40.2383 106.469 40.6341 106.469 41.1523V44ZM109.504 43.1445C109.824 43.1445 110.053 43.0534 110.191 42.8711C110.329 42.6862 110.398 42.388 110.398 41.9766V41.832C110.398 41.3659 110.326 41.0312 110.18 40.8281C110.036 40.6224 109.805 40.5195 109.484 40.5195C108.924 40.5195 108.645 40.9596 108.645 41.8398C108.645 42.2773 108.714 42.6042 108.852 42.8203C108.992 43.0365 109.21 43.1445 109.504 43.1445ZM111.512 44.0078C111.512 44.6354 111.328 45.1107 110.961 45.4336C110.596 45.7591 110.052 45.9219 109.328 45.9219C108.69 45.9219 108.146 45.8359 107.695 45.6641V44.7109C108.224 44.9349 108.792 45.0469 109.398 45.0469C110.01 45.0469 110.316 44.7161 110.316 44.0547V43.9688L110.352 43.4336H110.316C110.038 43.8633 109.625 44.0781 109.078 44.0781C108.555 44.0781 108.148 43.8763 107.859 43.4727C107.573 43.069 107.43 42.5195 107.43 41.8242C107.43 41.1081 107.578 40.5508 107.875 40.1523C108.174 39.7513 108.586 39.5508 109.109 39.5508C109.646 39.5508 110.068 39.7643 110.375 40.1914H110.406L110.504 39.6328H111.512V44.0078ZM115.172 40.5273H114.141V44H112.949V40.5273H112.293V39.9531L112.949 39.6328V39.3125C112.949 38.8151 113.072 38.4518 113.316 38.2227C113.561 37.9935 113.953 37.8789 114.492 37.8789C114.904 37.8789 115.27 37.9401 115.59 38.0625L115.285 38.9375C115.046 38.862 114.824 38.8242 114.621 38.8242C114.452 38.8242 114.329 38.875 114.254 38.9766C114.178 39.0755 114.141 39.2031 114.141 39.3594V39.6328H115.172V40.5273ZM118.953 44L118.793 43.4414H118.73C118.603 43.6445 118.422 43.8021 118.188 43.9141C117.953 44.0234 117.686 44.0781 117.387 44.0781C116.874 44.0781 116.487 43.9414 116.227 43.668C115.966 43.3919 115.836 42.9961 115.836 42.4805V39.6328H117.027V42.1836C117.027 42.4987 117.083 42.7357 117.195 42.8945C117.307 43.0508 117.486 43.1289 117.73 43.1289C118.064 43.1289 118.305 43.0182 118.453 42.7969C118.602 42.5729 118.676 42.2031 118.676 41.6875V39.6328H119.867V44H118.953ZM122.309 44H121.117V37.9219H122.309V44ZM81.2148 54L80.8789 52.4727L80.4336 50.543H80.3984L79.6016 54H78.3203L77.0781 49.6328H78.2656L78.7695 51.5664C78.8268 51.7956 78.9062 52.2734 79.0078 53H79.0391C79.0495 52.8021 79.0951 52.4883 79.1758 52.0586L79.2383 51.7266L79.7773 49.6328H81.0898L81.6016 51.7266C81.6328 51.8698 81.6706 52.0807 81.7148 52.3594C81.7617 52.6354 81.7878 52.849 81.793 53H81.8242C81.8529 52.7682 81.8932 52.5052 81.9453 52.2109C81.9974 51.9141 82.0417 51.6992 82.0781 51.5664L82.6016 49.6328H83.7695L82.5117 54H81.2148ZM85.4258 51.8086C85.4258 52.2409 85.4961 52.5677 85.6367 52.7891C85.7799 53.0104 86.0117 53.1211 86.332 53.1211C86.6497 53.1211 86.8776 53.0117 87.0156 52.793C87.1562 52.5716 87.2266 52.2435 87.2266 51.8086C87.2266 51.3763 87.1562 51.0521 87.0156 50.8359C86.875 50.6198 86.6445 50.5117 86.3242 50.5117C86.0065 50.5117 85.7773 50.6198 85.6367 50.8359C85.4961 51.0495 85.4258 51.3737 85.4258 51.8086ZM88.4453 51.8086C88.4453 52.5195 88.2578 53.0755 87.8828 53.4766C87.5078 53.8776 86.9857 54.0781 86.3164 54.0781C85.8971 54.0781 85.5273 53.987 85.207 53.8047C84.8867 53.6198 84.6406 53.3555 84.4688 53.0117C84.2969 52.668 84.2109 52.2669 84.2109 51.8086C84.2109 51.0951 84.3971 50.5404 84.7695 50.1445C85.1419 49.7487 85.6654 49.5508 86.3398 49.5508C86.7591 49.5508 87.1289 49.6419 87.4492 49.8242C87.7695 50.0065 88.0156 50.2682 88.1875 50.6094C88.3594 50.9505 88.4453 51.3503 88.4453 51.8086ZM91.8672 49.5508C92.0286 49.5508 92.1628 49.5625 92.2695 49.5859L92.1797 50.7031C92.0833 50.6771 91.9661 50.6641 91.8281 50.6641C91.4479 50.6641 91.151 50.7617 90.9375 50.957C90.7266 51.1523 90.6211 51.4258 90.6211 51.7773V54H89.4297V49.6328H90.332L90.5078 50.3672H90.5664C90.7018 50.1224 90.8841 49.9258 91.1133 49.7773C91.3451 49.6263 91.5964 49.5508 91.8672 49.5508ZM94.207 51.625L94.7266 50.9609L95.9492 49.6328H97.293L95.5586 51.5273L97.3984 54H96.0234L94.7656 52.2305L94.2539 52.6406V54H93.0625V47.9219H94.2539V50.6328L94.1914 51.625H94.207ZM102.531 49.5508C103.047 49.5508 103.451 49.7526 103.742 50.1562C104.034 50.5573 104.18 51.1081 104.18 51.8086C104.18 52.5299 104.029 53.0885 103.727 53.4844C103.427 53.8802 103.018 54.0781 102.5 54.0781C101.987 54.0781 101.585 53.8919 101.293 53.5195H101.211L101.012 54H100.102V47.9219H101.293V49.3359C101.293 49.5156 101.277 49.8034 101.246 50.1992H101.293C101.572 49.7669 101.984 49.5508 102.531 49.5508ZM102.148 50.5039C101.854 50.5039 101.639 50.5951 101.504 50.7773C101.368 50.957 101.298 51.2552 101.293 51.6719V51.8008C101.293 52.2695 101.362 52.6055 101.5 52.8086C101.641 53.0117 101.862 53.1133 102.164 53.1133C102.409 53.1133 102.603 53.0013 102.746 52.7773C102.892 52.5508 102.965 52.2227 102.965 51.793C102.965 51.3633 102.892 51.0417 102.746 50.8281C102.6 50.612 102.401 50.5039 102.148 50.5039ZM107.938 54L107.707 53.4062H107.676C107.475 53.6589 107.268 53.8346 107.055 53.9336C106.844 54.0299 106.568 54.0781 106.227 54.0781C105.807 54.0781 105.477 53.9583 105.234 53.7188C104.995 53.4792 104.875 53.138 104.875 52.6953C104.875 52.2318 105.036 51.8906 105.359 51.6719C105.685 51.4505 106.174 51.3281 106.828 51.3047L107.586 51.2812V51.0898C107.586 50.6471 107.359 50.4258 106.906 50.4258C106.557 50.4258 106.147 50.5312 105.676 50.7422L105.281 49.9375C105.784 49.6745 106.341 49.543 106.953 49.543C107.539 49.543 107.988 49.6706 108.301 49.9258C108.613 50.181 108.77 50.569 108.77 51.0898V54H107.938ZM107.586 51.9766L107.125 51.9922C106.779 52.0026 106.521 52.0651 106.352 52.1797C106.182 52.2943 106.098 52.4688 106.098 52.7031C106.098 53.0391 106.29 53.207 106.676 53.207C106.952 53.207 107.172 53.1276 107.336 52.9688C107.503 52.8099 107.586 52.599 107.586 52.3359V51.9766ZM113.047 52.7031C113.047 53.151 112.891 53.4922 112.578 53.7266C112.268 53.9609 111.803 54.0781 111.184 54.0781C110.866 54.0781 110.595 54.056 110.371 54.0117C110.147 53.9701 109.938 53.9076 109.742 53.8242V52.8398C109.964 52.944 110.212 53.0312 110.488 53.1016C110.767 53.1719 111.012 53.207 111.223 53.207C111.655 53.207 111.871 53.082 111.871 52.832C111.871 52.7383 111.842 52.6628 111.785 52.6055C111.728 52.5456 111.629 52.4792 111.488 52.4062C111.348 52.3307 111.16 52.2435 110.926 52.1445C110.59 52.0039 110.342 51.8737 110.184 51.7539C110.027 51.6341 109.913 51.4974 109.84 51.3438C109.77 51.1875 109.734 50.9961 109.734 50.7695C109.734 50.3815 109.884 50.082 110.184 49.8711C110.486 49.6576 110.913 49.5508 111.465 49.5508C111.991 49.5508 112.503 49.6654 113 49.8945L112.641 50.7539C112.422 50.6602 112.217 50.5833 112.027 50.5234C111.837 50.4635 111.643 50.4336 111.445 50.4336C111.094 50.4336 110.918 50.5286 110.918 50.7188C110.918 50.8255 110.974 50.918 111.086 50.9961C111.201 51.0742 111.449 51.1901 111.832 51.3438C112.173 51.4818 112.423 51.6107 112.582 51.7305C112.741 51.8503 112.858 51.9883 112.934 52.1445C113.009 52.3008 113.047 52.487 113.047 52.7031ZM115.785 50.3984C115.533 50.3984 115.335 50.4792 115.191 50.6406C115.048 50.7995 114.966 51.026 114.945 51.3203H116.617C116.612 51.026 116.535 50.7995 116.387 50.6406C116.238 50.4792 116.038 50.3984 115.785 50.3984ZM115.953 54.0781C115.25 54.0781 114.701 53.8841 114.305 53.4961C113.909 53.1081 113.711 52.5586 113.711 51.8477C113.711 51.1159 113.893 50.5508 114.258 50.1523C114.625 49.7513 115.132 49.5508 115.777 49.5508C116.395 49.5508 116.875 49.7266 117.219 50.0781C117.562 50.4297 117.734 50.9154 117.734 51.5352V52.1133H114.918C114.931 52.4518 115.031 52.7161 115.219 52.9062C115.406 53.0964 115.669 53.1914 116.008 53.1914C116.271 53.1914 116.52 53.1641 116.754 53.1094C116.988 53.0547 117.233 52.9674 117.488 52.8477V53.7695C117.28 53.8737 117.057 53.9505 116.82 54C116.583 54.0521 116.294 54.0781 115.953 54.0781ZM120.086 54.0781C119.573 54.0781 119.169 53.8789 118.875 53.4805C118.583 53.082 118.438 52.5299 118.438 51.8242C118.438 51.1081 118.586 50.5508 118.883 50.1523C119.182 49.7513 119.594 49.5508 120.117 49.5508C120.667 49.5508 121.086 49.7643 121.375 50.1914H121.414C121.354 49.8659 121.324 49.5755 121.324 49.3203V47.9219H122.52V54H121.605L121.375 53.4336H121.324C121.053 53.8633 120.641 54.0781 120.086 54.0781ZM120.504 53.1289C120.809 53.1289 121.031 53.0404 121.172 52.8633C121.315 52.6862 121.393 52.3854 121.406 51.9609V51.832C121.406 51.3633 121.333 51.0273 121.188 50.8242C121.044 50.6211 120.81 50.5195 120.484 50.5195C120.219 50.5195 120.012 50.6328 119.863 50.8594C119.717 51.0833 119.645 51.4102 119.645 51.8398C119.645 52.2695 119.719 52.5924 119.867 52.8086C120.016 53.0221 120.228 53.1289 120.504 53.1289ZM78.5742 62.8086C78.5742 63.2409 78.6445 63.5677 78.7852 63.7891C78.9284 64.0104 79.1602 64.1211 79.4805 64.1211C79.7982 64.1211 80.026 64.0117 80.1641 63.793C80.3047 63.5716 80.375 63.2435 80.375 62.8086C80.375 62.3763 80.3047 62.0521 80.1641 61.8359C80.0234 61.6198 79.793 61.5117 79.4727 61.5117C79.1549 61.5117 78.9258 61.6198 78.7852 61.8359C78.6445 62.0495 78.5742 62.3737 78.5742 62.8086ZM81.5938 62.8086C81.5938 63.5195 81.4062 64.0755 81.0312 64.4766C80.6562 64.8776 80.1341 65.0781 79.4648 65.0781C79.0456 65.0781 78.6758 64.987 78.3555 64.8047C78.0352 64.6198 77.7891 64.3555 77.6172 64.0117C77.4453 63.668 77.3594 63.2669 77.3594 62.8086C77.3594 62.0951 77.5456 61.5404 77.918 61.1445C78.2904 60.7487 78.8138 60.5508 79.4883 60.5508C79.9076 60.5508 80.2773 60.6419 80.5977 60.8242C80.918 61.0065 81.1641 61.2682 81.3359 61.6094C81.5078 61.9505 81.5938 62.3503 81.5938 62.8086ZM86.6094 65H85.418V62.4492C85.418 62.1341 85.362 61.8984 85.25 61.7422C85.138 61.5833 84.9596 61.5039 84.7148 61.5039C84.3815 61.5039 84.1406 61.6159 83.9922 61.8398C83.8438 62.0612 83.7695 62.4297 83.7695 62.9453V65H82.5781V60.6328H83.4883L83.6484 61.1914H83.7148C83.8477 60.9805 84.0299 60.8216 84.2617 60.7148C84.4961 60.6055 84.7617 60.5508 85.0586 60.5508C85.5664 60.5508 85.9518 60.6888 86.2148 60.9648C86.4779 61.2383 86.6094 61.6341 86.6094 62.1523V65ZM91.7539 64.1289C91.9622 64.1289 92.2122 64.0833 92.5039 63.9922V64.8789C92.207 65.0117 91.8424 65.0781 91.4102 65.0781C90.9336 65.0781 90.5859 64.9583 90.3672 64.7188C90.151 64.4766 90.043 64.1146 90.043 63.6328V61.5273H89.4727V61.0234L90.1289 60.625L90.4727 59.7031H91.2344V60.6328H92.457V61.5273H91.2344V63.6328C91.2344 63.8021 91.2812 63.9271 91.375 64.0078C91.4714 64.0885 91.5977 64.1289 91.7539 64.1289ZM97.4219 65H96.2305V62.4492C96.2305 61.819 95.9961 61.5039 95.5273 61.5039C95.194 61.5039 94.9531 61.6172 94.8047 61.8438C94.6562 62.0703 94.582 62.4375 94.582 62.9453V65H93.3906V58.9219H94.582V60.1602C94.582 60.2565 94.5729 60.4831 94.5547 60.8398L94.5273 61.1914H94.5898C94.8555 60.7643 95.2773 60.5508 95.8555 60.5508C96.3685 60.5508 96.7578 60.6888 97.0234 60.9648C97.2891 61.2409 97.4219 61.6367 97.4219 62.1523V65ZM100.457 61.3984C100.204 61.3984 100.007 61.4792 99.8633 61.6406C99.7201 61.7995 99.638 62.026 99.6172 62.3203H101.289C101.284 62.026 101.207 61.7995 101.059 61.6406C100.91 61.4792 100.71 61.3984 100.457 61.3984ZM100.625 65.0781C99.9219 65.0781 99.3724 64.8841 98.9766 64.4961C98.5807 64.1081 98.3828 63.5586 98.3828 62.8477C98.3828 62.1159 98.5651 61.5508 98.9297 61.1523C99.2969 60.7513 99.8034 60.5508 100.449 60.5508C101.066 60.5508 101.547 60.7266 101.891 61.0781C102.234 61.4297 102.406 61.9154 102.406 62.5352V63.1133H99.5898C99.6029 63.4518 99.7031 63.7161 99.8906 63.9062C100.078 64.0964 100.341 64.1914 100.68 64.1914C100.943 64.1914 101.191 64.1641 101.426 64.1094C101.66 64.0547 101.905 63.9674 102.16 63.8477V64.7695C101.952 64.8737 101.729 64.9505 101.492 65C101.255 65.0521 100.966 65.0781 100.625 65.0781ZM107.227 65.0781C105.867 65.0781 105.188 64.332 105.188 62.8398C105.188 62.0977 105.372 61.5312 105.742 61.1406C106.112 60.7474 106.642 60.5508 107.332 60.5508C107.837 60.5508 108.29 60.6497 108.691 60.8477L108.34 61.7695C108.152 61.694 107.978 61.6328 107.816 61.5859C107.655 61.5365 107.493 61.5117 107.332 61.5117C106.712 61.5117 106.402 61.9518 106.402 62.832C106.402 63.6862 106.712 64.1133 107.332 64.1133C107.561 64.1133 107.773 64.0833 107.969 64.0234C108.164 63.9609 108.359 63.8646 108.555 63.7344V64.7539C108.362 64.8763 108.167 64.9609 107.969 65.0078C107.773 65.0547 107.526 65.0781 107.227 65.0781ZM112.664 65L112.504 64.4414H112.441C112.314 64.6445 112.133 64.8021 111.898 64.9141C111.664 65.0234 111.397 65.0781 111.098 65.0781C110.585 65.0781 110.198 64.9414 109.938 64.668C109.677 64.3919 109.547 63.9961 109.547 63.4805V60.6328H110.738V63.1836C110.738 63.4987 110.794 63.7357 110.906 63.8945C111.018 64.0508 111.197 64.1289 111.441 64.1289C111.775 64.1289 112.016 64.0182 112.164 63.7969C112.312 63.5729 112.387 63.2031 112.387 62.6875V60.6328H113.578V65H112.664ZM117.266 60.5508C117.427 60.5508 117.561 60.5625 117.668 60.5859L117.578 61.7031C117.482 61.6771 117.365 61.6641 117.227 61.6641C116.846 61.6641 116.549 61.7617 116.336 61.957C116.125 62.1523 116.02 62.4258 116.02 62.7773V65H114.828V60.6328H115.73L115.906 61.3672H115.965C116.1 61.1224 116.283 60.9258 116.512 60.7773C116.743 60.6263 116.995 60.5508 117.266 60.5508ZM120.898 60.5508C121.06 60.5508 121.194 60.5625 121.301 60.5859L121.211 61.7031C121.115 61.6771 120.997 61.6641 120.859 61.6641C120.479 61.6641 120.182 61.7617 119.969 61.957C119.758 62.1523 119.652 62.4258 119.652 62.7773V65H118.461V60.6328H119.363L119.539 61.3672H119.598C119.733 61.1224 119.915 60.9258 120.145 60.7773C120.376 60.6263 120.628 60.5508 120.898 60.5508ZM123.824 61.3984C123.572 61.3984 123.374 61.4792 123.23 61.6406C123.087 61.7995 123.005 62.026 122.984 62.3203H124.656C124.651 62.026 124.574 61.7995 124.426 61.6406C124.277 61.4792 124.077 61.3984 123.824 61.3984ZM123.992 65.0781C123.289 65.0781 122.74 64.8841 122.344 64.4961C121.948 64.1081 121.75 63.5586 121.75 62.8477C121.75 62.1159 121.932 61.5508 122.297 61.1523C122.664 60.7513 123.171 60.5508 123.816 60.5508C124.434 60.5508 124.914 60.7266 125.258 61.0781C125.602 61.4297 125.773 61.9154 125.773 62.5352V63.1133H122.957C122.97 63.4518 123.07 63.7161 123.258 63.9062C123.445 64.0964 123.708 64.1914 124.047 64.1914C124.31 64.1914 124.559 64.1641 124.793 64.1094C125.027 64.0547 125.272 63.9674 125.527 63.8477V64.7695C125.319 64.8737 125.096 64.9505 124.859 65C124.622 65.0521 124.333 65.0781 123.992 65.0781ZM130.773 65H129.582V62.4492C129.582 62.1341 129.526 61.8984 129.414 61.7422C129.302 61.5833 129.124 61.5039 128.879 61.5039C128.546 61.5039 128.305 61.6159 128.156 61.8398C128.008 62.0612 127.934 62.4297 127.934 62.9453V65H126.742V60.6328H127.652L127.812 61.1914H127.879C128.012 60.9805 128.194 60.8216 128.426 60.7148C128.66 60.6055 128.926 60.5508 129.223 60.5508C129.73 60.5508 130.116 60.6888 130.379 60.9648C130.642 61.2383 130.773 61.6341 130.773 62.1523V65ZM133.84 64.1289C134.048 64.1289 134.298 64.0833 134.59 63.9922V64.8789C134.293 65.0117 133.928 65.0781 133.496 65.0781C133.02 65.0781 132.672 64.9583 132.453 64.7188C132.237 64.4766 132.129 64.1146 132.129 63.6328V61.5273H131.559V61.0234L132.215 60.625L132.559 59.7031H133.32V60.6328H134.543V61.5273H133.32V63.6328C133.32 63.8021 133.367 63.9271 133.461 64.0078C133.557 64.0885 133.684 64.1289 133.84 64.1289ZM81.2148 76L80.8789 74.4727L80.4336 72.543H80.3984L79.6016 76H78.3203L77.0781 71.6328H78.2656L78.7695 73.5664C78.8268 73.7956 78.9062 74.2734 79.0078 75H79.0391C79.0495 74.8021 79.0951 74.4883 79.1758 74.0586L79.2383 73.7266L79.7773 71.6328H81.0898L81.6016 73.7266C81.6328 73.8698 81.6706 74.0807 81.7148 74.3594C81.7617 74.6354 81.7878 74.849 81.793 75H81.8242C81.8529 74.7682 81.8932 74.5052 81.9453 74.2109C81.9974 73.9141 82.0417 73.6992 82.0781 73.5664L82.6016 71.6328H83.7695L82.5117 76H81.2148ZM85.4258 73.8086C85.4258 74.2409 85.4961 74.5677 85.6367 74.7891C85.7799 75.0104 86.0117 75.1211 86.332 75.1211C86.6497 75.1211 86.8776 75.0117 87.0156 74.793C87.1562 74.5716 87.2266 74.2435 87.2266 73.8086C87.2266 73.3763 87.1562 73.0521 87.0156 72.8359C86.875 72.6198 86.6445 72.5117 86.3242 72.5117C86.0065 72.5117 85.7773 72.6198 85.6367 72.8359C85.4961 73.0495 85.4258 73.3737 85.4258 73.8086ZM88.4453 73.8086C88.4453 74.5195 88.2578 75.0755 87.8828 75.4766C87.5078 75.8776 86.9857 76.0781 86.3164 76.0781C85.8971 76.0781 85.5273 75.987 85.207 75.8047C84.8867 75.6198 84.6406 75.3555 84.4688 75.0117C84.2969 74.668 84.2109 74.2669 84.2109 73.8086C84.2109 73.0951 84.3971 72.5404 84.7695 72.1445C85.1419 71.7487 85.6654 71.5508 86.3398 71.5508C86.7591 71.5508 87.1289 71.6419 87.4492 71.8242C87.7695 72.0065 88.0156 72.2682 88.1875 72.6094C88.3594 72.9505 88.4453 73.3503 88.4453 73.8086ZM91.8672 71.5508C92.0286 71.5508 92.1628 71.5625 92.2695 71.5859L92.1797 72.7031C92.0833 72.6771 91.9661 72.6641 91.8281 72.6641C91.4479 72.6641 91.151 72.7617 90.9375 72.957C90.7266 73.1523 90.6211 73.4258 90.6211 73.7773V76H89.4297V71.6328H90.332L90.5078 72.3672H90.5664C90.7018 72.1224 90.8841 71.9258 91.1133 71.7773C91.3451 71.6263 91.5964 71.5508 91.8672 71.5508ZM94.207 73.625L94.7266 72.9609L95.9492 71.6328H97.293L95.5586 73.5273L97.3984 76H96.0234L94.7656 74.2305L94.2539 74.6406V76H93.0625V69.9219H94.2539V72.6328L94.1914 73.625H94.207ZM97.9727 70.5039C97.9727 70.1159 98.1888 69.9219 98.6211 69.9219C99.0534 69.9219 99.2695 70.1159 99.2695 70.5039C99.2695 70.6888 99.2148 70.8333 99.1055 70.9375C98.9987 71.0391 98.8372 71.0898 98.6211 71.0898C98.1888 71.0898 97.9727 70.8945 97.9727 70.5039ZM99.2148 76H98.0234V71.6328H99.2148V76ZM104.5 76H103.309V73.4492C103.309 73.1341 103.253 72.8984 103.141 72.7422C103.029 72.5833 102.85 72.5039 102.605 72.5039C102.272 72.5039 102.031 72.6159 101.883 72.8398C101.734 73.0612 101.66 73.4297 101.66 73.9453V76H100.469V71.6328H101.379L101.539 72.1914H101.605C101.738 71.9805 101.921 71.8216 102.152 71.7148C102.387 71.6055 102.652 71.5508 102.949 71.5508C103.457 71.5508 103.842 71.6888 104.105 71.9648C104.368 72.2383 104.5 72.6341 104.5 73.1523V76ZM107.535 75.1445C107.855 75.1445 108.085 75.0534 108.223 74.8711C108.361 74.6862 108.43 74.388 108.43 73.9766V73.832C108.43 73.3659 108.357 73.0312 108.211 72.8281C108.068 72.6224 107.836 72.5195 107.516 72.5195C106.956 72.5195 106.676 72.9596 106.676 73.8398C106.676 74.2773 106.745 74.6042 106.883 74.8203C107.023 75.0365 107.241 75.1445 107.535 75.1445ZM109.543 76.0078C109.543 76.6354 109.359 77.1107 108.992 77.4336C108.628 77.7591 108.083 77.9219 107.359 77.9219C106.721 77.9219 106.177 77.8359 105.727 77.6641V76.7109C106.255 76.9349 106.823 77.0469 107.43 77.0469C108.042 77.0469 108.348 76.7161 108.348 76.0547V75.9688L108.383 75.4336H108.348C108.069 75.8633 107.656 76.0781 107.109 76.0781C106.586 76.0781 106.18 75.8763 105.891 75.4727C105.604 75.069 105.461 74.5195 105.461 73.8242C105.461 73.1081 105.609 72.5508 105.906 72.1523C106.206 71.7513 106.617 71.5508 107.141 71.5508C107.677 71.5508 108.099 71.7643 108.406 72.1914H108.438L108.535 71.6328H109.543V76.0078ZM79.3984 87.0781C78.0391 87.0781 77.3594 86.332 77.3594 84.8398C77.3594 84.0977 77.5443 83.5312 77.9141 83.1406C78.2839 82.7474 78.8138 82.5508 79.5039 82.5508C80.0091 82.5508 80.4622 82.6497 80.8633 82.8477L80.5117 83.7695C80.3242 83.694 80.1497 83.6328 79.9883 83.5859C79.8268 83.5365 79.6654 83.5117 79.5039 83.5117C78.8841 83.5117 78.5742 83.9518 78.5742 84.832C78.5742 85.6862 78.8841 86.1133 79.5039 86.1133C79.7331 86.1133 79.9453 86.0833 80.1406 86.0234C80.3359 85.9609 80.5312 85.8646 80.7266 85.7344V86.7539C80.5339 86.8763 80.3385 86.9609 80.1406 87.0078C79.9453 87.0547 79.6979 87.0781 79.3984 87.0781ZM84.8359 87L84.6758 86.4414H84.6133C84.4857 86.6445 84.3047 86.8021 84.0703 86.9141C83.8359 87.0234 83.569 87.0781 83.2695 87.0781C82.7565 87.0781 82.3698 86.9414 82.1094 86.668C81.849 86.3919 81.7188 85.9961 81.7188 85.4805V82.6328H82.9102V85.1836C82.9102 85.4987 82.9661 85.7357 83.0781 85.8945C83.1901 86.0508 83.3685 86.1289 83.6133 86.1289C83.9466 86.1289 84.1875 86.0182 84.3359 85.7969C84.4844 85.5729 84.5586 85.2031 84.5586 84.6875V82.6328H85.75V87H84.8359ZM88.1914 87H87V80.9219H88.1914V87ZM91.2852 86.1289C91.4935 86.1289 91.7435 86.0833 92.0352 85.9922V86.8789C91.7383 87.0117 91.3737 87.0781 90.9414 87.0781C90.4648 87.0781 90.1172 86.9583 89.8984 86.7188C89.6823 86.4766 89.5742 86.1146 89.5742 85.6328V83.5273H89.0039V83.0234L89.6602 82.625L90.0039 81.7031H90.7656V82.6328H91.9883V83.5273H90.7656V85.6328C90.7656 85.8021 90.8125 85.9271 90.9062 86.0078C91.0026 86.0885 91.1289 86.1289 91.2852 86.1289ZM96.0156 87L95.8555 86.4414H95.793C95.6654 86.6445 95.4844 86.8021 95.25 86.9141C95.0156 87.0234 94.7487 87.0781 94.4492 87.0781C93.9362 87.0781 93.5495 86.9414 93.2891 86.668C93.0286 86.3919 92.8984 85.9961 92.8984 85.4805V82.6328H94.0898V85.1836C94.0898 85.4987 94.1458 85.7357 94.2578 85.8945C94.3698 86.0508 94.5482 86.1289 94.793 86.1289C95.1263 86.1289 95.3672 86.0182 95.5156 85.7969C95.6641 85.5729 95.7383 85.2031 95.7383 84.6875V82.6328H96.9297V87H96.0156ZM100.617 82.5508C100.779 82.5508 100.913 82.5625 101.02 82.5859L100.93 83.7031C100.833 83.6771 100.716 83.6641 100.578 83.6641C100.198 83.6641 99.901 83.7617 99.6875 83.957C99.4766 84.1523 99.3711 84.4258 99.3711 84.7773V87H98.1797V82.6328H99.082L99.2578 83.3672H99.3164C99.4518 83.1224 99.6341 82.9258 99.8633 82.7773C100.095 82.6263 100.346 82.5508 100.617 82.5508ZM103.543 83.3984C103.29 83.3984 103.092 83.4792 102.949 83.6406C102.806 83.7995 102.724 84.026 102.703 84.3203H104.375C104.37 84.026 104.293 83.7995 104.145 83.6406C103.996 83.4792 103.796 83.3984 103.543 83.3984ZM103.711 87.0781C103.008 87.0781 102.458 86.8841 102.062 86.4961C101.667 86.1081 101.469 85.5586 101.469 84.8477C101.469 84.1159 101.651 83.5508 102.016 83.1523C102.383 82.7513 102.889 82.5508 103.535 82.5508C104.152 82.5508 104.633 82.7266 104.977 83.0781C105.32 83.4297 105.492 83.9154 105.492 84.5352V85.1133H102.676C102.689 85.4518 102.789 85.7161 102.977 85.9062C103.164 86.0964 103.427 86.1914 103.766 86.1914C104.029 86.1914 104.277 86.1641 104.512 86.1094C104.746 86.0547 104.991 85.9674 105.246 85.8477V86.7695C105.038 86.8737 104.815 86.9505 104.578 87C104.341 87.0521 104.052 87.0781 103.711 87.0781Z" fill="black"/>
</svg>
