<svg width="159" height="159" viewBox="0 0 159 159" fill="none" xmlns="http://www.w3.org/2000/svg">
<rect width="159" height="159" fill="#FFE500"/>
<ellipse cx="48.6111" cy="58.7886" rx="3.61111" ry="4.78859" fill="black"/>
<ellipse cx="106.389" cy="58.7886" rx="3.61111" ry="4.78859" fill="black"/>
<path d="M48.6111 92.3086C59.4444 101.886 86.8889 115.294 110 92.3086" stroke="black" stroke-width="3"/>
<path d="M144 51.5C146.167 47.8334 151.4 42.7 155 51.5C158.6 60.3 152.833 68.1667 149.5 71C151.333 73.8333 153.9 80.8 149.5 86" stroke="black" stroke-width="3"/>
<path d="M16.1418 51.8589C13.9752 48.1923 8.74185 43.0589 5.14185 51.8589C1.54185 60.6589 7.30851 68.5256 10.6418 71.3589C8.80851 74.1922 6.24185 81.1589 10.6418 86.3589" stroke="black" stroke-width="3"/>
</svg>
