<svg width="137" height="134" viewBox="0 0 137 134" fill="none" xmlns="http://www.w3.org/2000/svg">
<rect x="3" y="21.2131" width="30" height="159" transform="rotate(-45 3 21.2131)" fill="#FFE500"/>
<rect x="24.2131" y="133.643" width="30" height="159" transform="rotate(-135 24.2131 133.643)" fill="#FFE500"/>
<path d="M123.5 41.5C123.5 59.1522 108.97 73.5 91 73.5C73.0297 73.5 58.5 59.1522 58.5 41.5C58.5 23.8478 73.0297 9.5 91 9.5C108.97 9.5 123.5 23.8478 123.5 41.5Z" stroke="black" stroke-width="3"/>
<mask id="path-4-inside-1" fill="white">
<path fill-rule="evenodd" clip-rule="evenodd" d="M91 28H76.9317L73.1126 59.9278H0L9.1 104.076H20.3991C15.7718 104.103 12.0288 107.882 12.0288 112.538C12.0288 117.212 15.7987 121 20.449 121C25.0993 121 28.8691 117.212 28.8691 112.538C28.8691 107.882 25.1261 104.103 20.4988 104.076H62.8657C58.2383 104.103 54.4954 107.882 54.4954 112.538C54.4954 117.212 58.2652 121 62.9155 121C67.5658 121 71.3356 117.212 71.3356 112.538C71.3356 107.882 67.5927 104.103 62.9653 104.076H72.8L81.9 104.076L91 28Z"/>
</mask>
<path d="M76.9317 28V25H74.2691L73.9529 27.6437L76.9317 28ZM91 28L93.9788 28.3563L94.3803 25H91V28ZM73.1126 59.9278V62.9278H75.7751L76.0913 60.2841L73.1126 59.9278ZM0 59.9278V56.9278H-3.68143L-2.93823 60.5335L0 59.9278ZM9.1 104.076L6.16177 104.682L6.6553 107.076H9.1V104.076ZM20.3991 104.076L20.4166 107.076L20.3991 101.076V104.076ZM20.4988 104.076V101.076L20.4813 107.076L20.4988 104.076ZM62.8657 104.076L62.8831 107.076L62.8657 101.076V104.076ZM62.9653 104.076V101.076L62.9478 107.076L62.9653 104.076ZM72.8 104.076V107.076H72.8L72.8 104.076ZM81.9 104.076L81.9001 107.076L84.5626 107.076L84.8788 104.433L81.9 104.076ZM76.9317 31H91V25H76.9317V31ZM76.0913 60.2841L79.9104 28.3563L73.9529 27.6437L70.1338 59.5715L76.0913 60.2841ZM0 62.9278H73.1126V56.9278H0V62.9278ZM12.0382 103.471L2.93823 59.3222L-2.93823 60.5335L6.16177 104.682L12.0382 103.471ZM20.3991 101.076H9.1V107.076H20.3991V101.076ZM15.0288 112.538C15.0288 109.519 17.4521 107.094 20.4166 107.076L20.3817 101.077C14.0914 101.113 9.02884 106.244 9.02884 112.538H15.0288ZM20.449 118C17.4695 118 15.0288 115.569 15.0288 112.538H9.02884C9.02884 118.854 14.1278 124 20.449 124V118ZM25.8691 112.538C25.8691 115.569 23.4284 118 20.449 118V124C26.7701 124 31.8691 118.854 31.8691 112.538H25.8691ZM20.4813 107.076C23.4458 107.094 25.8691 109.519 25.8691 112.538H31.8691C31.8691 106.244 26.8065 101.113 20.5162 101.077L20.4813 107.076ZM62.8657 101.076H20.4988V107.076H62.8657V101.076ZM57.4954 112.538C57.4954 109.519 59.9186 107.094 62.8831 107.076L62.8482 101.077C56.5579 101.113 51.4954 106.244 51.4954 112.538H57.4954ZM62.9155 118C59.936 118 57.4954 115.569 57.4954 112.538H51.4954C51.4954 118.854 56.5944 124 62.9155 124V118ZM68.3356 112.538C68.3356 115.569 65.895 118 62.9155 118V124C69.2366 124 74.3356 118.854 74.3356 112.538H68.3356ZM62.9478 107.076C65.9123 107.094 68.3356 109.519 68.3356 112.538H74.3356C74.3356 106.244 69.273 101.113 62.9827 101.077L62.9478 107.076ZM72.8 101.076H62.9653V107.076H72.8V101.076ZM81.9 101.076L72.8 101.076L72.8 107.076L81.9001 107.076L81.9 101.076ZM88.0213 27.6437L78.9213 103.72L84.8788 104.433L93.9788 28.3563L88.0213 27.6437Z" fill="black" mask="url(#path-4-inside-1)"/>
<path d="M114.195 45.9668C114.195 47.8301 113.521 49.3301 112.174 50.4668C110.826 51.5918 108.939 52.2656 106.514 52.4883V56.0918H104.105V52.5586C101.246 52.5 98.7383 51.9961 96.582 51.0469V46.4062C97.6016 46.9102 98.8262 47.3555 100.256 47.7422C101.697 48.1289 102.98 48.3574 104.105 48.4277V42.9785L102.928 42.5215C100.607 41.6074 98.9609 40.6172 97.9883 39.5508C97.0273 38.4727 96.5469 37.1426 96.5469 35.5605C96.5469 33.8613 97.209 32.4668 98.5332 31.377C99.8691 30.2754 101.727 29.6074 104.105 29.373V26.6836H106.514V29.3027C109.197 29.4199 111.623 29.959 113.791 30.9199L112.139 35.0332C110.311 34.2832 108.436 33.8262 106.514 33.6621V38.8477C108.799 39.7266 110.422 40.4883 111.383 41.1328C112.355 41.7773 113.064 42.4863 113.51 43.2598C113.967 44.0332 114.195 44.9355 114.195 45.9668ZM108.904 46.2305C108.904 45.7383 108.705 45.3223 108.307 44.9824C107.908 44.6426 107.311 44.291 106.514 43.9277V48.3047C108.107 48.0352 108.904 47.3438 108.904 46.2305ZM101.838 35.5605C101.838 36.0762 102.014 36.5039 102.365 36.8438C102.729 37.1719 103.309 37.5117 104.105 37.8633V33.7324C102.594 33.9551 101.838 34.5645 101.838 35.5605Z" fill="black"/>
</svg>
