<svg width="136" height="134" viewBox="0 0 136 134" fill="none" xmlns="http://www.w3.org/2000/svg">
<rect x="2" y="21.2131" width="30" height="159" transform="rotate(-45 2 21.2131)" fill="#FFE500"/>
<rect x="23.2131" y="133.643" width="30" height="159" transform="rotate(-135 23.2131 133.643)" fill="#FFE500"/>
<path d="M94.9866 69C113.233 92.4783 91.6726 114.783 78.6116 123C109.49 105.626 112.141 79.7609 109.607 69H133V12H2V69H94.9866Z" stroke="black" stroke-width="3"/>
<path d="M45.1758 51H42.4951V38.1504H49.8604V40.3828H45.1758V43.6963H49.5352V45.9199H45.1758V51ZM57.4453 37.5967L57.085 40.8311L60.3633 39.917L60.6533 42.1318L57.665 42.3428L59.625 44.9531L57.6299 46.0166L56.2588 43.2656L55.0547 45.999L52.9805 44.9531L54.9229 42.3428L51.9521 42.1143L52.2949 39.917L55.5029 40.8311L55.1426 37.5967H57.4453ZM68.7656 40.2334C67.7402 40.2334 66.9463 40.6201 66.3838 41.3936C65.8213 42.1611 65.54 43.2334 65.54 44.6104C65.54 47.4756 66.6152 48.9082 68.7656 48.9082C69.668 48.9082 70.7607 48.6826 72.0439 48.2314V50.5166C70.9893 50.9561 69.8115 51.1758 68.5107 51.1758C66.6416 51.1758 65.2119 50.6104 64.2217 49.4795C63.2314 48.3428 62.7363 46.7139 62.7363 44.5928C62.7363 43.2568 62.9795 42.0879 63.4658 41.0859C63.9521 40.0781 64.6494 39.3076 65.5576 38.7744C66.4717 38.2354 67.541 37.9658 68.7656 37.9658C70.0137 37.9658 71.2676 38.2676 72.5273 38.8711L71.6484 41.0859C71.168 40.8574 70.6846 40.6582 70.1982 40.4883C69.7119 40.3184 69.2344 40.2334 68.7656 40.2334ZM85.1221 51H82.0283L78.6621 45.5859L77.5107 46.4121V51H74.7861V38.1504H77.5107V44.0303L78.583 42.5186L82.0635 38.1504H85.0869L80.6045 43.8369L85.1221 51Z" fill="black"/>
</svg>
