<svg width="500" height="500" viewBox="0 0 500 500" fill="none" xmlns="http://www.w3.org/2000/svg">
<g clip-path="url(#clip0)">
<path d="M167.835 385C166.96 385 166.216 384.736 165.604 384.207C165.079 383.589 164.816 382.84 164.816 381.958V295.602C164.816 294.633 165.079 293.883 165.604 293.354C166.216 292.737 166.96 292.429 167.835 292.429H174.398C175.798 292.429 176.936 293.134 177.811 294.544L205.508 347.971L233.467 294.544C233.642 294.015 233.992 293.531 234.517 293.09C235.13 292.649 235.874 292.429 236.749 292.429H243.181C244.143 292.429 244.887 292.737 245.412 293.354C246.025 293.883 246.331 294.633 246.331 295.602V381.958C246.331 382.84 246.025 383.589 245.412 384.207C244.799 384.736 244.056 385 243.181 385H236.749C235.874 385 235.13 384.736 234.517 384.207C233.992 383.589 233.73 382.84 233.73 381.958V316.894L211.808 360.006C210.933 361.857 209.533 362.783 207.608 362.783H203.539C201.614 362.783 200.213 361.857 199.338 360.006L177.286 316.894V381.958C177.286 382.84 176.98 383.589 176.367 384.207C175.842 384.736 175.142 385 174.267 385H167.835Z" fill="black"/>
<path d="M272.051 385C271.176 385 270.432 384.736 269.82 384.207C269.295 383.589 269.032 382.84 269.032 381.958V295.602C269.032 294.633 269.295 293.883 269.82 293.354C270.432 292.737 271.176 292.429 272.051 292.429H326.263C327.139 292.429 327.839 292.737 328.364 293.354C328.976 293.883 329.282 294.633 329.282 295.602V300.628C329.282 301.509 329.02 302.259 328.495 302.876C327.97 303.405 327.226 303.669 326.263 303.669H281.634V332.631H323.376C324.251 332.631 324.951 332.94 325.476 333.557C326.088 334.086 326.395 334.835 326.395 335.805V340.698C326.395 341.58 326.088 342.329 325.476 342.946C324.951 343.475 324.251 343.74 323.376 343.74H281.634V373.759H327.314C328.276 373.759 329.02 374.024 329.545 374.553C330.07 375.082 330.333 375.831 330.333 376.801V381.958C330.333 382.84 330.026 383.589 329.414 384.207C328.889 384.736 328.189 385 327.314 385H272.051Z" fill="black"/>
<path d="M167.835 115C166.96 115 166.216 115.264 165.604 115.793C165.079 116.411 164.816 117.16 164.816 118.042V204.398C164.816 205.367 165.079 206.117 165.604 206.646C166.216 207.263 166.96 207.571 167.835 207.571H174.398C175.798 207.571 176.936 206.866 177.811 205.456L205.508 152.029L233.467 205.456C233.642 205.984 233.992 206.469 234.517 206.91C235.13 207.351 235.874 207.571 236.749 207.571H243.181C244.143 207.571 244.887 207.263 245.412 206.646C246.025 206.117 246.331 205.367 246.331 204.398V118.042C246.331 117.16 246.025 116.411 245.412 115.793C244.799 115.264 244.056 115 243.181 115H236.749C235.874 115 235.13 115.264 234.517 115.793C233.992 116.411 233.73 117.16 233.73 118.042V183.106L211.808 139.994C210.933 138.143 209.533 137.217 207.608 137.217H203.539C201.614 137.217 200.213 138.143 199.338 139.994L177.286 183.106V118.042C177.286 117.16 176.98 116.411 176.367 115.793C175.842 115.264 175.142 115 174.267 115H167.835Z" fill="black"/>
<path d="M272.051 115C271.176 115 270.432 115.264 269.82 115.793C269.295 116.411 269.032 117.16 269.032 118.042V204.398C269.032 205.367 269.295 206.117 269.82 206.646C270.432 207.263 271.176 207.571 272.051 207.571H326.263C327.139 207.571 327.839 207.263 328.364 206.646C328.976 206.117 329.282 205.367 329.282 204.398V199.372C329.282 198.491 329.02 197.741 328.495 197.124C327.97 196.595 327.226 196.331 326.263 196.331H281.634V167.369H323.376C324.251 167.369 324.951 167.06 325.476 166.443C326.088 165.914 326.395 165.165 326.395 164.195V159.302C326.395 158.42 326.088 157.671 325.476 157.054C324.951 156.525 324.251 156.26 323.376 156.26H281.634V126.241H327.314C328.276 126.241 329.02 125.976 329.545 125.447C330.07 124.918 330.333 124.169 330.333 123.199V118.042C330.333 117.16 330.026 116.411 329.414 115.793C328.889 115.264 328.189 115 327.314 115H272.051Z" fill="black"/>
<path d="M135.019 295.459C134.144 295.459 133.4 295.195 132.788 294.666C132.263 294.049 132 293.299 132 292.418V206.062C132 205.092 132.263 204.342 132.788 203.813C133.4 203.196 134.144 202.888 135.019 202.888H188.575C189.537 202.888 190.281 203.196 190.806 203.813C191.419 204.342 191.725 205.092 191.725 206.062V211.351C191.725 212.233 191.419 212.982 190.806 213.6C190.281 214.129 189.537 214.393 188.575 214.393H144.733V245.206H185.949C186.912 245.206 187.656 245.515 188.181 246.132C188.794 246.661 189.1 247.41 189.1 248.38V253.67C189.1 254.551 188.794 255.301 188.181 255.918C187.568 256.447 186.825 256.711 185.949 256.711H144.733V292.418C144.733 293.299 144.426 294.049 143.814 294.666C143.201 295.195 142.457 295.459 141.582 295.459H135.019Z" fill="black"/>
<path d="M211.675 295.459C210.8 295.459 210.056 295.195 209.444 294.666C208.919 294.049 208.656 293.299 208.656 292.418V206.062C208.656 205.092 208.919 204.342 209.444 203.813C210.056 203.196 210.8 202.888 211.675 202.888H243.704C253.767 202.888 261.643 205.268 267.331 210.029C273.019 214.79 275.863 221.667 275.863 230.659C275.863 237.36 274.201 242.87 270.875 247.19C267.637 251.51 263.043 254.507 257.092 256.182L277.307 291.36C277.57 291.889 277.701 292.373 277.701 292.814C277.701 293.52 277.395 294.137 276.782 294.666C276.257 295.195 275.644 295.459 274.944 295.459H268.644C267.331 295.459 266.281 295.151 265.493 294.533C264.793 293.916 264.137 293.035 263.524 291.889L244.491 258.298H221.52V292.418C221.52 293.299 221.214 294.049 220.601 294.666C219.989 295.195 219.245 295.459 218.37 295.459H211.675ZM243.178 247.058C256.217 247.058 262.737 241.547 262.737 230.527C262.737 219.507 256.217 213.996 243.178 213.996H221.52V247.058H243.178Z" fill="black"/>
<path d="M288.5 295.459C287.8 295.459 287.188 295.195 286.663 294.666C286.138 294.137 285.875 293.52 285.875 292.814C285.875 292.109 285.919 291.624 286.006 291.36L318.56 205.797C319.26 203.858 320.66 202.888 322.76 202.888H331.686C333.786 202.888 335.187 203.858 335.887 205.797L368.309 291.36L368.571 292.814C368.571 293.52 368.309 294.137 367.784 294.666C367.259 295.195 366.646 295.459 365.946 295.459H359.252C358.289 295.459 357.545 295.239 357.02 294.798C356.495 294.269 356.145 293.74 355.97 293.211L348.751 274.432H305.696L298.476 293.211C298.301 293.74 297.908 294.269 297.295 294.798C296.77 295.239 296.07 295.459 295.195 295.459H288.5ZM344.944 263.059L327.223 216.112L309.503 263.059H344.944Z" fill="black"/>
<path d="M-22 298C7.98398 301.148 65.7323 322.297 56.854 381.71C45.756 455.976 108.839 459.839 136 454.258" stroke="#FFE500" stroke-width="13"/>
<path d="M132 51C129.969 75.0559 116.326 121.387 78 114.264" stroke="#FFE500" stroke-width="20"/>
<path d="M287 -26C316.984 -22.8519 374.732 -1.70268 365.854 57.7098C354.756 131.976 417.839 135.839 445 130.258" stroke="#FFE500" stroke-width="13"/>
<path d="M243 562.608C266.484 497.585 338.735 379.599 439.866 427.842C566.28 488.146 610.745 350.018 616.915 287.066" stroke="#FFE500" stroke-width="13"/>
<path d="M409 277.803C438.912 263.755 503.209 248.281 521.098 298.765" stroke="#FFE500" stroke-width="20"/>
</g>
<defs>
<clipPath id="clip0">
<rect width="500" height="500" fill="white"/>
</clipPath>
</defs>
</svg>
