<?xml version="1.0" encoding="utf-8"?>
<!-- Generator: Adobe Illustrator 22.0.1, SVG Export Plug-In . SVG Version: 6.00 Build 0)  -->
<svg version="1.1" id="圖層_1" xmlns="http://www.w3.org/2000/svg" xmlns:xlink="http://www.w3.org/1999/xlink" x="0px" y="0px"
	 viewBox="0 0 38.1 10.5" style="enable-background:new 0 0 38.1 10.5;" xml:space="preserve">
<style type="text/css">
	.st0{clip-path:url(#SVGID_2_);fill:#231815;}
	.st1{clip-path:url(#SVGID_2_);}
	.st2{fill:#FFFFFF;}
</style>
<g>
	<g>
		<defs>
			<rect id="SVGID_1_" x="-1.7" y="-0.9" width="41.4" height="9.5"/>
		</defs>
		<clipPath id="SVGID_2_">
			<use xlink:href="#SVGID_1_"  style="overflow:visible;"/>
		</clipPath>
		<polygon class="st0" points="6.7,0.8 10.5,0.8 10.5,1.8 7.9,1.8 7.9,3.2 10.1,3.2 10.1,4.2 7.9,4.2 7.9,5.9 10.6,5.9 10.6,6.9 
			6.7,6.9 		"/>
		<polygon class="st0" points="11.6,0.8 15.5,0.8 15.5,1.8 12.9,1.8 12.9,3.4 15.1,3.4 15.1,4.4 12.9,4.4 12.9,6.9 11.6,6.9 		"/>
		<path class="st0" d="M19.9,6.9l-1.3-2.3h-0.9v2.3h-1.2V0.8h2.2C20,0.8,21,1.2,21,2.6c0,0.9-0.5,1.5-1.2,1.8l1.4,2.5H19.9z
			 M17.8,3.6h0.8c0.8,0,1.2-0.3,1.2-1c0-0.7-0.4-0.9-1.2-0.9h-0.8V3.6z"/>
		<path class="st0" d="M25.1,5.3h-2l-0.4,1.6h-1.3l2-6.2h1.5l2,6.2h-1.3L25.1,5.3z M24.8,4.4l-0.2-0.7c-0.2-0.6-0.4-1.4-0.5-2h0
			c-0.2,0.7-0.3,1.4-0.5,2l-0.2,0.7H24.8z"/>
		<path class="st0" d="M27.5,0.8h1.4l1.1,2.9c0.1,0.4,0.3,0.8,0.4,1.2h0c0.1-0.4,0.2-0.8,0.4-1.2l1-2.9h1.4v6.2H32V4.4
			c0-0.6,0.1-1.4,0.2-2h0l-0.5,1.5l-1,2.6h-0.7l-1-2.6l-0.5-1.5h0c0.1,0.6,0.2,1.4,0.2,2v2.6h-1.1V0.8z"/>
		<polygon class="st0" points="34.2,0.8 38,0.8 38,1.8 35.4,1.8 35.4,3.2 37.6,3.2 37.6,4.2 35.4,4.2 35.4,5.9 38.1,5.9 38.1,6.9 
			34.2,6.9 		"/>
		<path class="st0" d="M5.6,6.9H4.2L3.2,4C3.1,3.6,2.9,3.2,2.8,2.8h0C2.6,3.2,2.5,3.6,2.4,4l-1,2.9H0V0.7h1.1v2.6
			c0,0.6-0.1,1.4-0.2,2h0l0.5-1.5l1-2.6h0.7l1,2.6l0.5,1.5h0c-0.1-0.6-0.2-1.4-0.2-2V0.7h1.1V6.9z"/>
		<g class="st1">
			<defs>
				<rect id="SVGID_3_" x="-1.7" y="-0.9" width="41.4" height="9.5"/>
			</defs>
			<clipPath id="SVGID_4_">
				<use xlink:href="#SVGID_3_"  style="overflow:visible;"/>
			</clipPath>
		</g>
	</g>
</g>
<rect x="0" y="9" class="st2" width="38.1" height="1.5"/>
</svg>
