<?xml version="1.0" encoding="utf-8"?>
<!-- Generator: Adobe Illustrator 22.0.1, SVG Export Plug-In . SVG Version: 6.00 Build 0)  -->
<svg version="1.1" id="圖層_1" xmlns="http://www.w3.org/2000/svg" xmlns:xlink="http://www.w3.org/1999/xlink" x="0px" y="0px"
	 viewBox="0 0 143 291" style="enable-background:new 0 0 143 291;" xml:space="preserve">
<style type="text/css">
	.st0{fill:#F3DC24;}
	.st1{fill:#F3DC24;stroke:#000000;stroke-width:1.5;stroke-miterlimit:10;}
	.st2{fill:#040000;}
	.st3{fill:#F3DC24;filter:url(#Adobe_OpacityMaskFilter);}
	.st4{mask:url(#mask0_1_);}
	.st5{fill:#4C4B4C;}
</style>
<g>
	<g>
		<path class="st2" d="M35.8,127.8c0-19.1,15.4-34.5,34.5-34.5s34.5,15.4,34.5,34.5v63.7h-69V127.8z"/>
	</g>
	<g>
		<ellipse class="st1" cx="70.3" cy="58.6" rx="38" ry="38.1"/>
	</g>
	<g>
		<ellipse class="st2" cx="50.5" cy="48.3" rx="2.6" ry="3.5"/>
	</g>
	<g>
		<ellipse class="st2" cx="91.9" cy="48.3" rx="2.6" ry="3.5"/>
	</g>
	<g>
		<path class="st2" d="M73.8,84.8c-10.6,0-20.2-5.4-25.3-10l4.2-4.7c7.3,6.5,25,14.9,39.7,0.1l4.4,4.4
			C89.3,82.2,81.2,84.8,73.8,84.8z"/>
	</g>
	<g>
		<path class="st2" d="M103.4,126.1c-3,0-5.9-0.4-8.3-1.1l1.7-6c4.5,1.3,11.7,1.5,17-1.9c4-2.5,6.5-6.8,7.5-12.7l6.2,1.1
			c-1.3,7.7-4.8,13.4-10.4,16.9C112.9,125.1,108,126.1,103.4,126.1z"/>
	</g>
	<g>
		<path class="st2" d="M117.2,97.3L117.2,97.3c0.2-2.5,0.4-3.8,1.1-4.3c1.1-0.7,1.7,1.3,1.4,3.8c0.5-3.2,1.5-8,3-7.7
			c1,0.2,1.1,2.6,0.7,5.2c0.8-3.4,2-6.8,3.8-6.5c2,0.3,1.5,5.3,0.8,9.1c0.7-2.2,1.8-4.5,3.2-4.2c1,0.2,1,1.7,0.5,3.8
			c-1.2,5.6-2.6,11.5-8.2,12.6C118.9,110,116.7,102,117.2,97.3z"/>
	</g>
	<g>
		<path class="st2" d="M37.9,125.9c-3.8,0-7.9-0.8-11.6-3.1c-5.5-3.4-8.9-9.3-10.2-17.5l6.2-0.9c1,6.3,3.4,10.7,7.3,13.1
			c4.5,2.8,10.3,2.5,13.9,1.3l1.9,6C43.2,125.4,40.6,125.9,37.9,125.9z"/>
	</g>
	<g>
		<path class="st2" d="M25.7,97.7c-0.2-2.8-0.3-4.2-1-4.8c-0.9-0.7-1.5,1.2-1.3,3.8c-0.4-3.2-1.3-7.9-2.6-7.7
			c-0.9,0.2-0.9,2.6-0.7,5.1c-0.7-3.3-1.8-6.7-3.3-6.4c-1.8,0.3-1.4,5.2-0.7,9c-0.6-2.2-1.6-4.4-2.9-4.2c-0.9,0.2-0.9,2-0.4,4.4
			c1.1,5.2,2,10.8,7.1,12C24.3,109.9,26.1,102.1,25.7,97.7z"/>
	</g>
	<g>
		<path class="st2" d="M70.3,192h34.5l-8.6,67.5H79L70.3,192z"/>
	</g>
	<g>
		<path class="st2" d="M35.8,192h34.5l-8.6,67.5H44.5L35.8,192z"/>
	</g>
	<g>
		<path class="st2" d="M28.9,280.3c0-9.6,7.8-17.3,17.3-17.3H60v19H30.7C29.7,282,28.9,281.2,28.9,280.3z"/>
	</g>
	<g>
		<path class="st2" d="M111.7,280.3c0-9.6-7.8-17.3-17.3-17.3H80.7v19H110C111,282,111.7,281.2,111.7,280.3z"/>
	</g>
	<g>
		<rect x="46.2" y="259.5" class="st0" width="13.8" height="3.5"/>
	</g>
	<g>
		<rect x="80.7" y="259.5" class="st0" width="13.8" height="3.5"/>
	</g>
</g>
</svg>
