<?xml version="1.0" encoding="utf-8"?>
<!-- Generator: Adobe Illustrator 22.0.1, SVG Export Plug-In . SVG Version: 6.00 Build 0)  -->
<svg version="1.1" id="圖層_1" xmlns="http://www.w3.org/2000/svg" xmlns:xlink="http://www.w3.org/1999/xlink" x="0px" y="0px"
	 viewBox="0 0 525.8 407" style="enable-background:new 0 0 525.8 407;" xml:space="preserve">
<style type="text/css">
	.st0{fill:#F3DC24;}
	.st1{fill:#F3DC24;stroke:#000000;stroke-width:1.5;stroke-miterlimit:10;}
	.st2{fill:#040000;}
	.st3{fill:#F3DC24;filter:url(#Adobe_OpacityMaskFilter);}
	.st4{mask:url(#mask0_1_);}
	.st5{fill:#4C4B4C;}
</style>
<g>
	<path class="st0" d="M125.2,61.8h241.8v239.9H125.2V61.8z"/>
</g>
<g>
	<path class="st1" d="M125.2,61.8h241.8v239.9H125.2V61.8z"/>
</g>
<g>
	<path class="st2" d="M400.9,34.6l-33.9,27.2v239.9l33.9-27.2V34.6z"/>
</g>
<g>
	<path class="st2" d="M125.2,61.8h241.8l32.2-25.6H157.5L125.2,61.8z"/>
</g>
<defs>
	<filter id="Adobe_OpacityMaskFilter" filterUnits="userSpaceOnUse" x="136.9" y="211.5" width="240.5" height="112.4">
		<feColorMatrix  type="matrix" values="1 0 0 0 0  0 1 0 0 0  0 0 1 0 0  0 0 0 1 0"/>
	</filter>
</defs>
<mask maskUnits="userSpaceOnUse" x="136.9" y="211.5" width="240.5" height="112.4" id="mask0_1_">
	<path class="st3" d="M125.2,61.8h241.8v239.9H125.2V61.8z"/>
</mask>
<g class="st4">
	<g>
		<path class="st5" d="M233.9,272.2c0-10.8,8.7-19.5,19.5-19.5c10.8,0,19.5,8.7,19.5,19.5v36.2h-39V272.2z"/>
	</g>
	<g>
		<ellipse class="st5" cx="253.5" cy="233.1" rx="21.5" ry="21.6"/>
	</g>
	<g>
		<path class="st5" d="M272.1,271.9c-1.8,0-3.4-0.3-4.8-0.6l1.2-4.4c2.4,0.7,6.3,0.8,9.2-1c2.1-1.4,3.5-3.7,4-6.9l4.5,0.8
			c-0.8,4.5-2.8,7.9-6.1,10C277.7,271.3,274.8,271.9,272.1,271.9z"/>
	</g>
	<g>
		<path class="st5" d="M279.9,255L279.9,255c0.1-1.4,0.2-2.2,0.6-2.5c0.6-0.4,0.9,0.7,0.8,2.1c0.3-1.8,0.8-4.5,1.7-4.4
			c0.6,0.1,0.6,1.5,0.4,2.9c0.4-1.9,1.2-3.8,2.1-3.7c1.1,0.2,0.9,3,0.4,5.1c0.4-1.2,1-2.5,1.8-2.4c0.5,0.1,0.5,1,0.3,2.2
			c-0.7,3.2-1.4,6.5-4.6,7.1C280.9,262.2,279.7,257.7,279.9,255z"/>
	</g>
	<g>
		<path class="st5" d="M235.1,271.8c-2.2,0-4.6-0.5-6.8-1.8c-3.3-2-5.3-5.5-6-10.3l4.6-0.7c0.5,3.4,1.8,5.8,3.9,7.1
			c2.4,1.5,5.5,1.3,7.4,0.7l1.4,4.4C238.3,271.5,236.7,271.8,235.1,271.8z"/>
	</g>
	<g>
		<path class="st5" d="M228.2,255.3c-0.1-1.6-0.2-2.4-0.6-2.7c-0.5-0.4-0.8,0.7-0.7,2.1c-0.2-1.8-0.7-4.5-1.5-4.3
			c-0.5,0.1-0.5,1.5-0.4,2.9c-0.4-1.9-1-3.8-1.9-3.7c-1,0.2-0.8,3-0.4,5.1c-0.3-1.2-0.9-2.5-1.6-2.4c-0.5,0.1-0.5,1.1-0.2,2.5
			c0.6,3,1.1,6.1,4,6.8C227.4,262.2,228.4,257.7,228.2,255.3z"/>
	</g>
	<g>
		<path class="st5" d="M150,282.9c0-10.8,8.7-19.5,19.5-19.5c10.8,0,19.5,8.7,19.5,19.5v36.2h-39V282.9z"/>
	</g>
	<g>
		<ellipse class="st5" cx="169.5" cy="243.8" rx="21.5" ry="21.6"/>
	</g>
	<g>
		<path class="st5" d="M188.2,282.6c-1.8,0-3.4-0.3-4.8-0.6l1.2-4.4c2.4,0.7,6.3,0.8,9.2-1c2.1-1.3,3.5-3.7,4-6.9l4.5,0.8
			c-0.8,4.5-2.8,7.9-6.1,10C193.7,282,190.8,282.6,188.2,282.6z"/>
	</g>
	<g>
		<path class="st5" d="M196,265.7L196,265.7c0.1-1.5,0.2-2.2,0.6-2.5c0.6-0.4,0.9,0.7,0.8,2.1c0.3-1.8,0.8-4.5,1.7-4.4
			c0.6,0.1,0.6,1.5,0.4,2.9c0.4-1.9,1.2-3.8,2.1-3.7c1.1,0.2,0.9,3,0.4,5.1c0.4-1.2,1-2.5,1.8-2.4c0.5,0.1,0.5,1,0.3,2.2
			c-0.7,3.2-1.4,6.5-4.6,7.1C196.9,272.9,195.7,268.4,196,265.7z"/>
	</g>
	<g>
		<path class="st5" d="M151.2,282.4c-2.2,0-4.7-0.5-6.8-1.8c-3.3-2-5.3-5.5-6-10.3l4.6-0.7c0.5,3.4,1.8,5.8,3.9,7.1
			c2.4,1.5,5.5,1.3,7.4,0.7l1.4,4.4C154.3,282.2,152.8,282.4,151.2,282.4z"/>
	</g>
	<g>
		<path class="st5" d="M144.3,265.9c-0.1-1.6-0.2-2.4-0.6-2.7c-0.5-0.4-0.8,0.7-0.7,2.1c-0.2-1.8-0.7-4.5-1.5-4.3
			c-0.5,0.1-0.5,1.5-0.4,2.9c-0.4-1.9-1-3.8-1.9-3.7c-1,0.2-0.8,3-0.4,5.1c-0.3-1.2-0.9-2.5-1.6-2.4c-0.5,0.1-0.5,1.1-0.2,2.5
			c0.6,3,1.1,6.1,4,6.8C143.5,272.8,144.5,268.4,144.3,265.9z"/>
	</g>
	<g>
		<path class="st5" d="M325,287.7c0-10.8,8.7-19.5,19.5-19.5c10.8,0,19.5,8.7,19.5,19.5v36.2h-39V287.7z"/>
	</g>
	<g>
		<ellipse class="st5" cx="344.5" cy="248.5" rx="21.5" ry="21.6"/>
	</g>
	<g>
		<path class="st5" d="M363.2,287.3c-1.8,0-3.4-0.3-4.8-0.6l1.2-4.4c2.4,0.7,6.3,0.8,9.2-1c2.1-1.4,3.5-3.7,4-6.9l4.5,0.8
			c-0.8,4.5-2.8,7.9-6.1,10C368.7,286.7,365.8,287.3,363.2,287.3z"/>
	</g>
	<g>
		<path class="st5" d="M326.1,287.2c-2.2,0-4.7-0.5-6.8-1.8c-3.3-2-5.3-5.5-6-10.3l4.6-0.7c0.5,3.4,1.8,5.8,3.9,7.1
			c2.4,1.5,5.5,1.3,7.4,0.7l1.4,4.4C329.3,286.9,327.8,287.2,326.1,287.2z"/>
	</g>
	<g>
		<path class="st5" d="M319.3,270.7c-0.1-1.6-0.2-2.4-0.6-2.7c-0.5-0.4-0.8,0.7-0.7,2.1c-0.2-1.8-0.7-4.5-1.5-4.3
			c-0.5,0.1-0.5,1.5-0.4,2.9c-0.4-1.9-1-3.8-1.9-3.7c-1,0.2-0.8,3-0.4,5.1c-0.3-1.2-0.9-2.5-1.6-2.4c-0.5,0.1-0.5,1.1-0.2,2.5
			c0.6,3,1.1,6.1,4,6.8C318.5,277.6,319.5,273.2,319.3,270.7z"/>
	</g>
</g>
<g>
	<path class="st2" d="M57.8,263.9c0-10.8,8.7-19.5,19.5-19.5s19.5,8.7,19.5,19.5v36.2h-39V263.9z"/>
</g>
<g>
	<ellipse class="st1" cx="77.3" cy="224.8" rx="21.5" ry="21.6"/>
</g>
<g>
	<ellipse class="st2" cx="66.1" cy="218.9" rx="1.5" ry="2"/>
</g>
<g>
	<ellipse class="st2" cx="89.5" cy="218.9" rx="1.5" ry="2"/>
</g>
<g>
	<path class="st2" d="M79.2,240.2c-6.2,0-11.7-3.1-14.7-5.8l3.1-3.4c4,3.6,13.7,8.2,21.7,0.1l3.3,3.2
		C88.2,238.6,83.6,240.2,79.2,240.2z"/>
</g>
<g>
	<path class="st2" d="M95.9,263.6c-1.8,0-3.4-0.3-4.8-0.6l1.2-4.4c2.4,0.7,6.3,0.8,9.2-1c2.1-1.4,3.5-3.7,4-6.9l4.5,0.8
		c-0.8,4.5-2.8,7.9-6.1,10C101.5,263,98.6,263.6,95.9,263.6z"/>
</g>
<g>
	<path class="st2" d="M103.7,246.7L103.7,246.7c0.1-1.5,0.2-2.2,0.6-2.5c0.6-0.4,0.9,0.7,0.8,2.1c0.3-1.8,0.8-4.5,1.7-4.4
		c0.6,0.1,0.6,1.5,0.4,2.9c0.4-1.9,1.2-3.8,2.1-3.7c1.1,0.2,0.9,3,0.4,5.1c0.4-1.2,1-2.5,1.8-2.4c0.5,0.1,0.5,1,0.3,2.2
		c-0.7,3.2-1.4,6.5-4.6,7.1C104.7,253.9,103.5,249.4,103.7,246.7z"/>
</g>
<g>
	<path class="st2" d="M58.9,263.5c-2.2,0-4.7-0.5-6.8-1.8c-3.3-2-5.3-5.5-6-10.3l4.6-0.7c0.5,3.4,1.8,5.8,3.9,7.1
		c2.4,1.5,5.5,1.3,7.4,0.7l1.4,4.4C62.1,263.2,60.6,263.5,58.9,263.5z"/>
</g>
<g>
	<path class="st2" d="M52.1,247c-0.1-1.6-0.2-2.4-0.6-2.7c-0.5-0.4-0.8,0.7-0.7,2.1c-0.2-1.8-0.7-4.5-1.5-4.3
		c-0.5,0.1-0.5,1.5-0.4,2.9c-0.4-1.9-1-3.8-1.9-3.7c-1,0.2-0.8,3-0.4,5.1c-0.3-1.2-0.9-2.5-1.6-2.4c-0.5,0.1-0.5,1.1-0.2,2.5
		c0.6,3,1.1,6.1,4,6.8C51.3,253.8,52.3,249.4,52.1,247z"/>
</g>
<g>
	<path class="st2" d="M77.3,300.4h19.5l-4.9,38.3h-9.8L77.3,300.4z"/>
</g>
<g>
	<path class="st2" d="M57.8,300.4h19.5l-4.9,38.3h-9.8L57.8,300.4z"/>
</g>
<g>
	<path class="st2" d="M53.9,350.5c0-5.4,4.4-9.8,9.8-9.8h7.7v10.8H54.9C54.3,351.5,53.9,351.1,53.9,350.5z"/>
</g>
<g>
	<path class="st2" d="M100.7,350.5c0-5.4-4.4-9.8-9.8-9.8h-7.7v10.8h16.6C100.2,351.5,100.7,351.1,100.7,350.5z"/>
</g>
<g>
	<rect x="63.6" y="338.7" class="st0" width="7.8" height="2"/>
</g>
<g>
	<rect x="83.1" y="338.7" class="st0" width="7.8" height="2"/>
</g>
<g>
	<path class="st2" d="M426.7,279.4c0-10.8,8.7-19.5,19.5-19.5c10.8,0,19.5,8.7,19.5,19.5v36.2h-39V279.4z"/>
</g>
<g>
	<ellipse class="st1" cx="446.2" cy="240.2" rx="21.5" ry="21.6"/>
</g>
<g>
	<ellipse class="st2" cx="435" cy="234.3" rx="1.5" ry="2"/>
</g>
<g>
	<ellipse class="st2" cx="458.4" cy="234.3" rx="1.5" ry="2"/>
</g>
<g>
	<path class="st2" d="M448.1,255.6c-6.2,0-11.7-3.1-14.7-5.8l3.1-3.4c4,3.6,13.7,8.2,21.7,0.1l3.3,3.2
		C457.1,254,452.5,255.6,448.1,255.6z"/>
</g>
<g>
	<path class="st2" d="M464.8,279c-1.8,0-3.4-0.3-4.8-0.6l1.2-4.4c2.4,0.7,6.3,0.8,9.2-1c2.1-1.4,3.5-3.7,4-6.9l4.5,0.8
		c-0.8,4.5-2.8,7.9-6.1,10C470.4,278.4,467.5,279,464.8,279z"/>
</g>
<g>
	<path class="st2" d="M472.6,262.1L472.6,262.1c0.1-1.4,0.2-2.2,0.6-2.5c0.6-0.4,0.9,0.7,0.8,2.1c0.3-1.8,0.8-4.5,1.7-4.4
		c0.6,0.1,0.6,1.5,0.4,2.9c0.4-1.9,1.2-3.8,2.1-3.7c1.1,0.2,0.9,3,0.4,5.1c0.4-1.2,1-2.5,1.8-2.4c0.5,0.1,0.5,1,0.3,2.2
		c-0.7,3.2-1.4,6.5-4.6,7.1C473.6,269.3,472.4,264.8,472.6,262.1z"/>
</g>
<g>
	<path class="st2" d="M427.8,278.9c-2.2,0-4.7-0.5-6.8-1.8c-3.3-2-5.3-5.5-6-10.3l4.6-0.7c0.5,3.4,1.8,5.8,3.9,7.1
		c2.4,1.5,5.5,1.3,7.4,0.7l1.4,4.4C431,278.6,429.5,278.9,427.8,278.9z"/>
</g>
<g>
	<path class="st2" d="M421,262.4c-0.1-1.6-0.2-2.4-0.6-2.7c-0.5-0.4-0.8,0.7-0.7,2.1c-0.2-1.8-0.7-4.5-1.5-4.3
		c-0.5,0.1-0.5,1.5-0.4,2.9c-0.4-1.9-1-3.8-1.9-3.7c-1,0.2-0.8,3-0.4,5.1c-0.3-1.2-0.9-2.5-1.6-2.4c-0.5,0.1-0.5,1.1-0.2,2.5
		c0.6,3,1.1,6.1,4,6.8C420.2,269.3,421.2,264.9,421,262.4z"/>
</g>
<g>
	<path class="st2" d="M446.2,315.9h19.5l-4.9,38.3h-9.8L446.2,315.9z"/>
</g>
<g>
	<path class="st2" d="M426.7,315.9h19.5l-4.9,38.3h-9.8L426.7,315.9z"/>
</g>
<g>
	<path class="st2" d="M422.8,366c0-5.4,4.4-9.8,9.8-9.8h7.7v10.8h-16.6C423.2,366.9,422.8,366.5,422.8,366z"/>
</g>
<g>
	<path class="st2" d="M469.6,366c0-5.4-4.4-9.8-9.8-9.8H452v10.8h16.6C469.1,366.9,469.6,366.5,469.6,366z"/>
</g>
<g>
	<rect x="432.5" y="354.2" class="st0" width="7.8" height="2"/>
</g>
<g>
	<rect x="452" y="354.2" class="st0" width="7.8" height="2"/>
</g>
<g>
	<path class="st2" d="M245.8,277c0-10.8,8.7-19.5,19.5-19.5c10.8,0,19.5,8.7,19.5,19.5v36.2h-39V277z"/>
</g>
<g>
	<ellipse class="st1" cx="265.3" cy="237.8" rx="21.5" ry="21.6"/>
</g>
<g>
	<ellipse class="st2" cx="254.1" cy="231.9" rx="1.5" ry="2"/>
</g>
<g>
	<ellipse class="st2" cx="277.5" cy="231.9" rx="1.5" ry="2"/>
</g>
<g>
	<path class="st2" d="M267.2,253.2c-6.2,0-11.7-3.1-14.7-5.8l3.1-3.4c4,3.6,13.7,8.2,21.7,0.1l3.3,3.2
		C276.2,251.7,271.6,253.2,267.2,253.2z"/>
</g>
<g>
	<path class="st2" d="M283.9,276.6c-1.8,0-3.4-0.3-4.8-0.6l1.2-4.4c2.4,0.7,6.3,0.8,9.2-1c2.1-1.4,3.5-3.7,4-6.9l4.5,0.8
		c-0.8,4.5-2.8,7.9-6.1,10C289.5,276,286.6,276.6,283.9,276.6z"/>
</g>
<g>
	<path class="st2" d="M291.7,259.8L291.7,259.8c0.1-1.5,0.2-2.2,0.6-2.5c0.6-0.4,0.9,0.7,0.8,2.1c0.3-1.8,0.8-4.5,1.7-4.4
		c0.6,0.1,0.6,1.5,0.4,2.9c0.4-1.9,1.2-3.8,2.1-3.7c1.1,0.2,0.9,3,0.4,5.1c0.4-1.2,1-2.5,1.8-2.4c0.5,0.1,0.5,1,0.3,2.2
		c-0.7,3.2-1.4,6.5-4.6,7.1C292.7,266.9,291.5,262.4,291.7,259.8z"/>
</g>
<g>
	<path class="st2" d="M246.9,276.5c-2.2,0-4.7-0.5-6.8-1.8c-3.3-2-5.3-5.5-6-10.3l4.6-0.7c0.5,3.4,1.8,5.8,3.9,7.1
		c2.4,1.5,5.5,1.3,7.4,0.7l1.4,4.4C250.1,276.2,248.5,276.5,246.9,276.5z"/>
</g>
<g>
	<path class="st2" d="M240.1,260c-0.1-1.6-0.2-2.4-0.6-2.7c-0.5-0.4-0.8,0.7-0.7,2.1c-0.2-1.8-0.7-4.5-1.5-4.3
		c-0.5,0.1-0.5,1.5-0.4,2.9c-0.4-1.9-1-3.8-1.9-3.7c-1,0.2-0.8,3-0.4,5.1c-0.3-1.2-0.9-2.5-1.6-2.4c-0.5,0.1-0.5,1.1-0.2,2.5
		c0.6,3,1.1,6.1,4,6.8C239.3,266.9,240.3,262.5,240.1,260z"/>
</g>
<g>
	<path class="st2" d="M265.3,313.5h19.5l-4.9,38.3h-9.8L265.3,313.5z"/>
</g>
<g>
	<path class="st2" d="M245.8,313.5h19.5l-4.9,38.3h-9.8L245.8,313.5z"/>
</g>
<g>
	<path class="st2" d="M241.9,363.6c0-5.4,4.4-9.8,9.8-9.8h7.7v10.8h-16.6C242.3,364.6,241.9,364.1,241.9,363.6z"/>
</g>
<g>
	<path class="st2" d="M288.7,363.6c0-5.4-4.4-9.8-9.8-9.8h-7.7v10.8h16.6C288.2,364.6,288.7,364.1,288.7,363.6z"/>
</g>
<g>
	<rect x="251.6" y="351.8" class="st0" width="7.8" height="2"/>
</g>
<g>
	<rect x="271.1" y="351.8" class="st0" width="7.8" height="2"/>
</g>
<g>
	<path class="st2" d="M161.8,287.7c0-10.8,8.7-19.5,19.5-19.5s19.5,8.7,19.5,19.5v36.2h-39V287.7z"/>
</g>
<g>
	<ellipse class="st1" cx="181.3" cy="248.5" rx="21.5" ry="21.6"/>
</g>
<g>
	<ellipse class="st2" cx="170.1" cy="242.6" rx="1.5" ry="2"/>
</g>
<g>
	<ellipse class="st2" cx="193.5" cy="242.6" rx="1.5" ry="2"/>
</g>
<g>
	<path class="st2" d="M183.3,263.9c-6.2,0-11.7-3.1-14.7-5.8l3.1-3.4c4,3.6,13.7,8.2,21.7,0.1l3.3,3.2
		C192.3,262.4,187.6,263.9,183.3,263.9z"/>
</g>
<g>
	<path class="st2" d="M200,287.3c-1.8,0-3.4-0.3-4.8-0.6l1.2-4.4c2.4,0.7,6.3,0.8,9.2-1c2.1-1.4,3.5-3.7,4-6.9l4.5,0.8
		c-0.8,4.5-2.8,7.9-6.1,10C205.6,286.7,202.7,287.3,200,287.3z"/>
</g>
<g>
	<path class="st2" d="M207.8,270.5L207.8,270.5c0.1-1.5,0.2-2.2,0.6-2.5c0.6-0.4,0.9,0.7,0.8,2.1c0.3-1.8,0.8-4.5,1.7-4.4
		c0.6,0.1,0.6,1.5,0.4,2.9c0.4-1.9,1.2-3.8,2.1-3.7c1.1,0.2,0.9,3,0.4,5.1c0.4-1.2,1-2.5,1.8-2.4c0.5,0.1,0.5,1,0.3,2.2
		c-0.7,3.2-1.4,6.5-4.6,7.1C208.7,277.6,207.5,273.1,207.8,270.5z"/>
</g>
<g>
	<path class="st2" d="M163,287.2c-2.2,0-4.7-0.5-6.8-1.8c-3.3-2-5.3-5.5-6-10.3l4.6-0.7c0.5,3.4,1.8,5.8,3.9,7.1
		c2.4,1.5,5.5,1.3,7.4,0.7l1.4,4.4C166.1,286.9,164.6,287.2,163,287.2z"/>
</g>
<g>
	<path class="st2" d="M156.1,270.7c-0.1-1.6-0.2-2.4-0.6-2.7c-0.5-0.4-0.8,0.7-0.7,2.1c-0.2-1.8-0.7-4.5-1.5-4.3
		c-0.5,0.1-0.5,1.5-0.4,2.9c-0.4-1.9-1-3.8-1.9-3.7c-1,0.2-0.8,3-0.4,5.1c-0.3-1.2-0.9-2.5-1.6-2.4c-0.5,0.1-0.5,1.1-0.2,2.5
		c0.6,3,1.1,6.1,4,6.8C155.3,277.6,156.3,273.2,156.1,270.7z"/>
</g>
<g>
	<path class="st2" d="M181.3,324.2h19.5l-4.9,38.3h-9.8L181.3,324.2z"/>
</g>
<g>
	<path class="st2" d="M161.8,324.2h19.5l-4.9,38.3h-9.8L161.8,324.2z"/>
</g>
<g>
	<path class="st2" d="M157.9,374.3c0-5.4,4.4-9.8,9.8-9.8h7.7v10.8h-16.6C158.4,375.3,157.9,374.8,157.9,374.3z"/>
</g>
<g>
	<path class="st2" d="M204.7,374.3c0-5.4-4.4-9.8-9.8-9.8h-7.7v10.8h16.6C204.3,375.3,204.7,374.8,204.7,374.3z"/>
</g>
<g>
	<rect x="167.7" y="362.5" class="st0" width="7.8" height="2"/>
</g>
<g>
	<rect x="187.2" y="362.5" class="st0" width="7.8" height="2"/>
</g>
<g>
	<path class="st2" d="M336.8,292.4c0-10.8,8.7-19.5,19.5-19.5s19.5,8.7,19.5,19.5v36.2h-39V292.4z"/>
</g>
<g>
	<ellipse class="st1" cx="356.3" cy="253.3" rx="21.5" ry="21.6"/>
</g>
<g>
	<ellipse class="st2" cx="345.1" cy="247.4" rx="1.5" ry="2"/>
</g>
<g>
	<ellipse class="st2" cx="368.5" cy="247.4" rx="1.5" ry="2"/>
</g>
<g>
	<path class="st2" d="M358.3,268.7c-6.2,0-11.7-3.1-14.7-5.8l3.1-3.4c4,3.6,13.7,8.2,21.7,0.1l3.3,3.2
		C367.3,267.1,362.6,268.7,358.3,268.7z"/>
</g>
<g>
	<path class="st2" d="M375,292.1c-1.8,0-3.4-0.3-4.8-0.6l1.2-4.4c2.4,0.7,6.3,0.8,9.2-1c2.1-1.3,3.5-3.7,4-6.9l4.5,0.8
		c-0.8,4.5-2.8,7.9-6.1,10C380.6,291.5,377.7,292.1,375,292.1z"/>
</g>
<g>
	<path class="st2" d="M382.8,275.2L382.8,275.2c0.1-1.5,0.2-2.2,0.6-2.5c0.6-0.4,0.9,0.7,0.8,2.1c0.3-1.8,0.8-4.5,1.7-4.4
		c0.6,0.1,0.6,1.5,0.4,2.9c0.4-1.9,1.2-3.8,2.1-3.7c1.1,0.2,0.9,3,0.4,5.1c0.4-1.2,1-2.5,1.8-2.4c0.5,0.1,0.5,1,0.3,2.2
		c-0.7,3.2-1.4,6.5-4.6,7.1C383.7,282.4,382.5,277.9,382.8,275.2z"/>
</g>
<g>
	<path class="st2" d="M338,291.9c-2.2,0-4.7-0.5-6.8-1.8c-3.3-2-5.3-5.5-6-10.3l4.6-0.7c0.5,3.4,1.8,5.8,3.9,7.1
		c2.4,1.5,5.5,1.3,7.4,0.7l1.4,4.4C341.1,291.7,339.6,291.9,338,291.9z"/>
</g>
<g>
	<path class="st2" d="M331.1,275.4c-0.1-1.6-0.2-2.4-0.6-2.7c-0.5-0.4-0.8,0.7-0.7,2.1c-0.2-1.8-0.7-4.5-1.5-4.3
		c-0.5,0.1-0.5,1.5-0.4,2.9c-0.4-1.9-1-3.8-1.9-3.7c-1,0.2-0.8,3-0.4,5.1c-0.3-1.2-0.9-2.5-1.6-2.4c-0.5,0.1-0.5,1.1-0.2,2.5
		c0.6,3,1.1,6.1,4,6.8C330.3,282.3,331.3,277.9,331.1,275.4z"/>
</g>
<g>
	<path class="st2" d="M356.3,328.9h19.5l-4.9,38.3h-9.8L356.3,328.9z"/>
</g>
<g>
	<path class="st2" d="M336.8,328.9h19.5l-4.9,38.3h-9.8L336.8,328.9z"/>
</g>
<g>
	<path class="st2" d="M332.9,379c0-5.4,4.4-9.8,9.8-9.8h7.7V380h-16.6C333.4,380,332.9,379.6,332.9,379z"/>
</g>
<g>
	<path class="st2" d="M379.7,379c0-5.4-4.4-9.8-9.8-9.8h-7.7V380h16.6C379.3,380,379.7,379.6,379.7,379z"/>
</g>
<g>
	<rect x="342.7" y="367.2" class="st0" width="7.8" height="2"/>
</g>
<g>
	<rect x="362.2" y="367.2" class="st0" width="7.8" height="2"/>
</g>
<g>
	<path class="st2" d="M162.7,121.8h-4v-1.1l1.1-0.5v-5.7l-1.1-0.5v-1.1h4v1.1l-1.1,0.5v5.7l1.1,0.5V121.8z M176,121.8h-2.1l-1.2-4.6
		c0-0.2-0.1-0.5-0.2-1c-0.1-0.5-0.2-0.9-0.2-1c0,0.2-0.1,0.6-0.2,1c-0.1,0.5-0.2,0.8-0.2,1l-1.2,4.6h-2.1l-2.2-8.8h1.8l1.1,4.8
		c0.2,0.9,0.3,1.6,0.4,2.3c0-0.2,0.1-0.6,0.2-1.1c0.1-0.5,0.2-0.9,0.2-1.1l1.3-4.9h1.8l1.3,4.9c0.1,0.2,0.1,0.6,0.2,1
		c0.1,0.5,0.1,0.8,0.2,1.2c0-0.3,0.1-0.7,0.2-1.2c0.1-0.5,0.2-0.8,0.2-1.1l1.1-4.8h1.8L176,121.8z M183.3,121.8l-0.4-0.9h0
		c-0.3,0.4-0.6,0.7-1,0.8c-0.3,0.1-0.7,0.2-1.3,0.2c-0.6,0-1.2-0.2-1.5-0.6c-0.4-0.4-0.6-0.9-0.6-1.6c0-0.7,0.2-1.2,0.7-1.6
		c0.5-0.3,1.3-0.5,2.3-0.6l1.2,0v-0.3c0-0.7-0.3-1-1-1c-0.5,0-1.2,0.2-1.9,0.5l-0.6-1.2c0.8-0.4,1.6-0.6,2.6-0.6
		c0.9,0,1.6,0.2,2.1,0.6c0.5,0.4,0.7,1,0.7,1.8v4.5H183.3z M182.7,118.7l-0.7,0c-0.5,0-0.9,0.1-1.2,0.3c-0.3,0.2-0.4,0.4-0.4,0.8
		c0,0.5,0.3,0.8,0.9,0.8c0.4,0,0.8-0.1,1-0.4c0.3-0.2,0.4-0.6,0.4-1V118.7z M192.6,121.8h-1.8v-3.9c0-0.5-0.1-0.8-0.3-1.1
		c-0.2-0.2-0.4-0.4-0.8-0.4c-0.5,0-0.9,0.2-1.1,0.5c-0.2,0.3-0.3,0.9-0.3,1.7v3.2h-1.8v-6.7h1.4l0.2,0.9h0.1
		c0.2-0.3,0.5-0.6,0.8-0.7c0.4-0.2,0.8-0.3,1.2-0.3c0.8,0,1.4,0.2,1.8,0.6c0.4,0.4,0.6,1,0.6,1.8V121.8z M197.3,120.5
		c0.3,0,0.7-0.1,1.2-0.2v1.4c-0.5,0.2-1,0.3-1.7,0.3c-0.7,0-1.3-0.2-1.6-0.6c-0.3-0.4-0.5-0.9-0.5-1.7v-3.2h-0.9v-0.8l1-0.6l0.5-1.4
		h1.2v1.4h1.9v1.4h-1.9v3.2c0,0.3,0.1,0.5,0.2,0.6C196.9,120.4,197.1,120.5,197.3,120.5z M163.2,137.2l-2.1-6.9H161
		c0.1,1.4,0.1,2.3,0.1,2.8v4.1h-1.7v-8.8h2.5l2.1,6.7h0l2.2-6.7h2.5v8.8h-1.7V133c0-0.2,0-0.4,0-0.7c0-0.3,0-0.9,0.1-2h-0.1
		l-2.3,6.9H163.2z M169.9,130.5h2l1.3,3.8c0.1,0.3,0.2,0.7,0.2,1.2h0c0-0.4,0.1-0.8,0.3-1.2l1.2-3.8h2l-2.8,7.6
		c-0.3,0.7-0.6,1.2-1.1,1.6c-0.5,0.3-1,0.5-1.7,0.5c-0.3,0-0.6,0-0.9-0.1v-1.5c0.2,0.1,0.5,0.1,0.7,0.1c0.3,0,0.6-0.1,0.8-0.3
		c0.2-0.2,0.4-0.5,0.6-0.9l0.1-0.3L169.9,130.5z M183,137.2h-1.8v-8.8h5v1.5H183v2.3h3v1.5h-3V137.2z M192.6,137.2l-0.2-0.9h-0.1
		c-0.2,0.3-0.5,0.6-0.8,0.7c-0.4,0.2-0.8,0.3-1.2,0.3c-0.8,0-1.4-0.2-1.8-0.6c-0.4-0.4-0.6-1-0.6-1.8v-4.4h1.8v3.9
		c0,0.5,0.1,0.8,0.3,1.1c0.2,0.2,0.4,0.4,0.8,0.4c0.5,0,0.9-0.2,1.1-0.5c0.2-0.3,0.3-0.9,0.3-1.7v-3.2h1.8v6.7H192.6z M198.7,135.8
		c0.3,0,0.7-0.1,1.2-0.2v1.4c-0.5,0.2-1,0.3-1.7,0.3c-0.7,0-1.3-0.2-1.6-0.6c-0.3-0.4-0.5-0.9-0.5-1.7v-3.2h-0.9v-0.8l1-0.6l0.5-1.4
		h1.2v1.4h1.9v1.4h-1.9v3.2c0,0.3,0.1,0.5,0.2,0.6C198.3,135.8,198.5,135.8,198.7,135.8z M206,137.2l-0.2-0.9h-0.1
		c-0.2,0.3-0.5,0.6-0.8,0.7c-0.4,0.2-0.8,0.3-1.2,0.3c-0.8,0-1.4-0.2-1.8-0.6c-0.4-0.4-0.6-1-0.6-1.8v-4.4h1.8v3.9
		c0,0.5,0.1,0.8,0.3,1.1c0.2,0.2,0.4,0.4,0.8,0.4c0.5,0,0.9-0.2,1.1-0.5c0.2-0.3,0.3-0.9,0.3-1.7v-3.2h1.8v6.7H206z M213,130.4
		c0.2,0,0.5,0,0.6,0.1l-0.1,1.7c-0.1,0-0.3-0.1-0.5-0.1c-0.6,0-1,0.1-1.4,0.4c-0.3,0.3-0.5,0.7-0.5,1.3v3.4h-1.8v-6.7h1.4l0.3,1.1
		h0.1c0.2-0.4,0.5-0.7,0.8-0.9C212.2,130.5,212.6,130.4,213,130.4z M217.5,131.7c-0.4,0-0.7,0.1-0.9,0.4c-0.2,0.2-0.3,0.6-0.4,1h2.6
		c0-0.5-0.1-0.8-0.4-1C218.2,131.8,217.9,131.7,217.5,131.7z M217.8,137.3c-1.1,0-1.9-0.3-2.5-0.9s-0.9-1.4-0.9-2.5
		c0-1.1,0.3-2,0.8-2.6c0.6-0.6,1.3-0.9,2.3-0.9c0.9,0,1.7,0.3,2.2,0.8c0.5,0.5,0.8,1.3,0.8,2.2v0.9h-4.3c0,0.5,0.2,0.9,0.5,1.2
		c0.3,0.3,0.7,0.4,1.2,0.4c0.4,0,0.8,0,1.1-0.1c0.4-0.1,0.7-0.2,1.1-0.4v1.4c-0.3,0.2-0.7,0.3-1,0.4
		C218.7,137.3,218.3,137.3,217.8,137.3z M225.3,137.2v-8.8h1.9v7.2h3.6v1.5H225.3z M232.1,128.7c0-0.6,0.3-0.9,1-0.9
		c0.7,0,1,0.3,1,0.9c0,0.3-0.1,0.5-0.3,0.7c-0.2,0.2-0.4,0.2-0.7,0.2C232.4,129.6,232.1,129.3,232.1,128.7z M234,137.2h-1.8v-6.7
		h1.8V137.2z M239.6,131.9H238v5.3h-1.8v-5.3h-1V131l1-0.5V130c0-0.8,0.2-1.3,0.6-1.7c0.4-0.4,1-0.5,1.8-0.5c0.6,0,1.2,0.1,1.7,0.3
		l-0.5,1.3c-0.4-0.1-0.7-0.2-1-0.2c-0.3,0-0.4,0.1-0.6,0.2c-0.1,0.2-0.2,0.3-0.2,0.6v0.4h1.6V131.9z M243.4,131.7
		c-0.4,0-0.7,0.1-0.9,0.4c-0.2,0.2-0.3,0.6-0.4,1h2.6c0-0.5-0.1-0.8-0.4-1C244.1,131.8,243.8,131.7,243.4,131.7z M243.7,137.3
		c-1.1,0-1.9-0.3-2.5-0.9c-0.6-0.6-0.9-1.4-0.9-2.5c0-1.1,0.3-2,0.8-2.6c0.6-0.6,1.3-0.9,2.3-0.9c0.9,0,1.7,0.3,2.2,0.8
		c0.5,0.5,0.8,1.3,0.8,2.2v0.9h-4.3c0,0.5,0.2,0.9,0.5,1.2c0.3,0.3,0.7,0.4,1.2,0.4c0.4,0,0.8,0,1.1-0.1c0.4-0.1,0.7-0.2,1.1-0.4
		v1.4c-0.3,0.2-0.7,0.3-1,0.4C244.6,137.3,244.2,137.3,243.7,137.3z M162.8,154.1H161v-7.2h-2.4v-1.5h6.6v1.5h-2.4V154.1z
		 M167.4,150.7c0,0.7,0.1,1.2,0.3,1.5c0.2,0.3,0.6,0.5,1.1,0.5c0.5,0,0.8-0.2,1-0.5c0.2-0.3,0.3-0.8,0.3-1.5c0-0.7-0.1-1.2-0.3-1.5
		c-0.2-0.3-0.6-0.5-1.1-0.5c-0.5,0-0.8,0.2-1.1,0.5C167.6,149.5,167.4,150,167.4,150.7z M172.1,150.7c0,1.1-0.3,1.9-0.9,2.6
		c-0.6,0.6-1.4,0.9-2.4,0.9c-0.6,0-1.2-0.1-1.7-0.4c-0.5-0.3-0.9-0.7-1.1-1.2c-0.3-0.5-0.4-1.1-0.4-1.8c0-1.1,0.3-1.9,0.9-2.6
		c0.6-0.6,1.4-0.9,2.4-0.9c0.6,0,1.2,0.1,1.7,0.4c0.5,0.3,0.9,0.7,1.1,1.2C172,149.4,172.1,150,172.1,150.7z M176.9,145.3h2.7
		c1.2,0,2.1,0.2,2.7,0.5c0.6,0.4,0.8,0.9,0.8,1.7c0,0.5-0.1,1-0.4,1.3c-0.2,0.3-0.6,0.5-1,0.6v0.1c0.6,0.1,1,0.4,1.2,0.7
		c0.2,0.3,0.4,0.8,0.4,1.4c0,0.8-0.3,1.4-0.9,1.9c-0.6,0.4-1.4,0.7-2.4,0.7h-3.3V145.3z M178.8,148.8h1.1c0.5,0,0.9-0.1,1.1-0.2
		c0.2-0.2,0.3-0.4,0.3-0.8c0-0.3-0.1-0.6-0.4-0.7c-0.2-0.1-0.6-0.2-1.2-0.2h-1V148.8z M178.8,150.2v2.3h1.2c0.5,0,0.9-0.1,1.1-0.3
		c0.2-0.2,0.4-0.5,0.4-0.9c0-0.7-0.5-1.1-1.6-1.1H178.8z M187.8,148.5c-0.4,0-0.7,0.1-0.9,0.4c-0.2,0.2-0.3,0.6-0.4,1h2.6
		c0-0.5-0.1-0.8-0.4-1C188.5,148.7,188.2,148.5,187.8,148.5z M188.1,154.2c-1.1,0-1.9-0.3-2.5-0.9c-0.6-0.6-0.9-1.4-0.9-2.5
		c0-1.1,0.3-2,0.8-2.6c0.6-0.6,1.3-0.9,2.3-0.9c0.9,0,1.7,0.3,2.2,0.8c0.5,0.5,0.8,1.3,0.8,2.2v0.9h-4.3c0,0.5,0.2,0.9,0.5,1.2
		c0.3,0.3,0.7,0.4,1.2,0.4c0.4,0,0.8,0,1.1-0.1c0.4-0.1,0.7-0.2,1.1-0.4v1.4c-0.3,0.2-0.7,0.3-1,0.4
		C189,154.1,188.6,154.2,188.1,154.2z"/>
</g>
</svg>
