<?xml version="1.0" encoding="utf-8"?>
<!-- Generator: Adobe Illustrator 22.0.1, SVG Export Plug-In . SVG Version: 6.00 Build 0)  -->
<svg version="1.1" id="圖層_1" xmlns="http://www.w3.org/2000/svg" xmlns:xlink="http://www.w3.org/1999/xlink" x="0px" y="0px"
	 viewBox="0 0 445.1 281.2" style="enable-background:new 0 0 445.1 281.2;" xml:space="preserve">
<style type="text/css">
	.st0{fill:#F3DC24;}
	.st1{fill:#F3DC24;stroke:#000000;stroke-width:1.5;stroke-miterlimit:10;}
	.st2{fill:#040000;}
	.st3{fill:#F3DC24;filter:url(#Adobe_OpacityMaskFilter);}
	.st4{mask:url(#mask0_1_);}
	.st5{fill:#4C4B4C;}
</style>
<g>
	<g>
		<path class="st1" d="M101.1,46.9h224.4v221.1H101.1V46.9z"/>
	</g>
	<g>
		<path class="st2" d="M357,21.8l-31.4,25.1v221.1L357,243V21.8z"/>
	</g>
	<g>
		<path class="st2" d="M101.1,46.9h224.4l29.9-23.6H131L101.1,46.9z"/>
	</g>
	<g>
		<path class="st2" d="M357.7,160.1c-8.3,0-16.2-1.2-22.8-3l3.9-13.9c13,3.6,33.6,4.4,49-5.4c11.5-7.3,18.8-19.5,21.7-36.4l14.3,2.5
			c-3.6,21.1-13.1,36.6-28.3,46.2C383.9,157.4,370.3,160.1,357.7,160.1z"/>
	</g>
	<g>
		<path class="st2" d="M396.3,81.3l0-0.1c0.6-6.9,1-10.5,3-11.8c3-2,4.6,3.5,4.1,10.6c1.3-8.9,4.2-22.2,8.3-21.5
			c2.9,0.5,2.9,7.3,2.1,14.4c2.2-9.4,5.7-18.9,10.5-18c5.7,1,4.3,14.7,2.1,25.3c1.8-6.1,4.9-12.5,9.1-11.7c2.7,0.5,2.7,4.7,1.5,10.6
			c-3.3,15.8-7.2,32.1-23,35.2C401,116.6,395.1,94.4,396.3,81.3z"/>
	</g>
	<g>
		<path class="st2" d="M82.7,159.6c-10.4,0-21.7-2.3-31.6-8.5c-15-9.3-24.3-25.4-27.7-47.6l14.3-2.2c2.7,17.9,9.8,30.5,21,37.5
			c13,8.1,29.8,7.2,40.2,3.9l4.3,13.8C97.4,158.3,90.2,159.6,82.7,159.6z"/>
	</g>
	<g>
		<path class="st2" d="M48.7,82.5C48,74.6,47.8,70.7,46,69.2c-2.6-2-4.1,3.5-3.6,10.5c-1.1-8.9-3.7-22.1-7.4-21.4
			c-2.6,0.5-2.6,7.3-1.8,14.3c-1.9-9.3-5.1-18.8-9.3-17.9c-5,1-3.8,14.6-1.9,25.1c-1.6-6.1-4.3-12.4-8-11.7c-2.6,0.5-2.4,5.5-1,12.1
			c3,14.6,5.6,30.3,20,33.5C44.8,116.4,49.7,94.7,48.7,82.5z"/>
	</g>
	<g>
		<ellipse class="st2" cx="147" cy="128" rx="7.2" ry="9.7"/>
	</g>
	<g>
		<ellipse class="st2" cx="262.9" cy="128" rx="7.2" ry="9.7"/>
	</g>
	<g>
		<path class="st2" d="M212,228.5c-29.3,0-55.6-14.8-69.9-27.5l9.6-10.8c20.8,18.5,71.2,42.3,113.2,0.3l10.2,10.2
			C254.7,221.2,232.6,228.5,212,228.5z"/>
	</g>
</g>
</svg>
