<svg width="972" height="570" viewBox="0 0 972 570" fill="none" xmlns="http://www.w3.org/2000/svg">
<rect width="972" height="570" fill="white"/>
<rect x="51" y="217" width="73" height="73" fill="#FFB856"/>
<path d="M154.656 262L157.281 246H158.844L156.219 262H154.656ZM147.375 257.562L147.625 256H159.563L159.313 257.562H147.375ZM149.031 262L151.656 246H153.219L150.594 262H149.031ZM148.313 252L148.562 250.437H160.5L160.25 252H148.313ZM162.816 262V246H172.41V247.719H164.754V253.125H171.691V254.844H164.754V262H162.816ZM175.729 262V246H185.322V247.719H177.666V253.125H184.604V254.844H177.666V262H175.729ZM188.641 262V246H194.234C195.349 246 196.268 246.193 196.992 246.578C197.716 246.958 198.255 247.471 198.609 248.117C198.964 248.758 199.141 249.469 199.141 250.25C199.141 250.937 199.018 251.505 198.773 251.953C198.534 252.401 198.216 252.755 197.82 253.016C197.43 253.276 197.005 253.469 196.547 253.594V253.75C197.036 253.781 197.529 253.953 198.023 254.266C198.518 254.578 198.932 255.026 199.266 255.609C199.599 256.193 199.766 256.906 199.766 257.75C199.766 258.552 199.583 259.273 199.219 259.914C198.854 260.555 198.279 261.062 197.492 261.437C196.706 261.812 195.682 262 194.422 262H188.641ZM190.578 260.281H194.422C195.688 260.281 196.586 260.036 197.117 259.547C197.654 259.052 197.922 258.453 197.922 257.75C197.922 257.208 197.784 256.708 197.508 256.25C197.232 255.786 196.839 255.417 196.328 255.141C195.818 254.859 195.214 254.719 194.516 254.719H190.578V260.281ZM190.578 253.031H194.172C194.755 253.031 195.281 252.917 195.75 252.687C196.224 252.458 196.599 252.135 196.875 251.719C197.156 251.302 197.297 250.812 197.297 250.25C197.297 249.547 197.052 248.951 196.563 248.461C196.073 247.966 195.297 247.719 194.234 247.719H190.578V253.031ZM207.793 262.219C206.72 262.219 205.772 262.029 204.949 261.648C204.132 261.263 203.493 260.734 203.035 260.062C202.577 259.385 202.35 258.615 202.355 257.75C202.35 257.073 202.483 256.448 202.754 255.875C203.025 255.297 203.395 254.815 203.863 254.43C204.337 254.039 204.866 253.792 205.449 253.688V253.594C204.684 253.396 204.074 252.966 203.621 252.305C203.168 251.638 202.944 250.88 202.949 250.031C202.944 249.219 203.15 248.492 203.566 247.852C203.983 247.211 204.556 246.706 205.285 246.336C206.02 245.966 206.855 245.781 207.793 245.781C208.72 245.781 209.548 245.966 210.277 246.336C211.007 246.706 211.579 247.211 211.996 247.852C212.418 248.492 212.632 249.219 212.637 250.031C212.632 250.88 212.4 251.638 211.941 252.305C211.488 252.966 210.887 253.396 210.137 253.594V253.688C210.715 253.792 211.236 254.039 211.699 254.43C212.163 254.815 212.533 255.297 212.809 255.875C213.085 256.448 213.225 257.073 213.23 257.75C213.225 258.615 212.991 259.385 212.527 260.062C212.069 260.734 211.431 261.263 210.613 261.648C209.801 262.029 208.861 262.219 207.793 262.219ZM207.793 260.5C208.517 260.5 209.142 260.383 209.668 260.148C210.194 259.914 210.6 259.583 210.887 259.156C211.173 258.729 211.319 258.229 211.324 257.656C211.319 257.052 211.163 256.518 210.855 256.055C210.548 255.591 210.129 255.227 209.598 254.961C209.072 254.695 208.47 254.562 207.793 254.562C207.111 254.562 206.501 254.695 205.965 254.961C205.434 255.227 205.014 255.591 204.707 256.055C204.405 256.518 204.257 257.052 204.262 257.656C204.257 258.229 204.395 258.729 204.676 259.156C204.962 259.583 205.371 259.914 205.902 260.148C206.434 260.383 207.064 260.5 207.793 260.5ZM207.793 252.906C208.366 252.906 208.874 252.792 209.316 252.562C209.764 252.333 210.116 252.013 210.371 251.602C210.626 251.19 210.757 250.708 210.762 250.156C210.757 249.615 210.629 249.143 210.379 248.742C210.129 248.336 209.783 248.023 209.34 247.805C208.897 247.581 208.382 247.469 207.793 247.469C207.194 247.469 206.671 247.581 206.223 247.805C205.775 248.023 205.428 248.336 205.184 248.742C204.939 249.143 204.819 249.615 204.824 250.156C204.819 250.708 204.941 251.19 205.191 251.602C205.447 252.013 205.798 252.333 206.246 252.562C206.694 252.792 207.21 252.906 207.793 252.906ZM221.225 262.219C220.308 262.219 219.482 262.036 218.748 261.672C218.014 261.307 217.425 260.807 216.982 260.172C216.54 259.536 216.298 258.812 216.256 258H218.131C218.204 258.724 218.532 259.323 219.115 259.797C219.704 260.266 220.407 260.5 221.225 260.5C221.881 260.5 222.464 260.346 222.975 260.039C223.49 259.732 223.894 259.31 224.186 258.773C224.482 258.232 224.631 257.62 224.631 256.937C224.631 256.24 224.477 255.617 224.17 255.07C223.868 254.518 223.451 254.083 222.92 253.766C222.389 253.448 221.782 253.286 221.1 253.281C220.61 253.276 220.107 253.352 219.592 253.508C219.076 253.659 218.652 253.854 218.318 254.094L216.506 253.875L217.475 246H225.787V247.719H219.1L218.537 252.437H218.631C218.959 252.177 219.37 251.961 219.865 251.789C220.36 251.617 220.876 251.531 221.412 251.531C222.391 251.531 223.264 251.766 224.029 252.234C224.8 252.698 225.404 253.333 225.842 254.141C226.285 254.948 226.506 255.87 226.506 256.906C226.506 257.927 226.277 258.839 225.818 259.641C225.365 260.437 224.74 261.068 223.943 261.531C223.146 261.99 222.24 262.219 221.225 262.219ZM234.922 262.219C234.266 262.208 233.609 262.083 232.953 261.844C232.297 261.604 231.698 261.201 231.156 260.633C230.615 260.06 230.18 259.286 229.852 258.312C229.523 257.333 229.359 256.104 229.359 254.625C229.359 253.208 229.492 251.953 229.758 250.859C230.023 249.76 230.409 248.836 230.914 248.086C231.419 247.331 232.029 246.758 232.742 246.367C233.461 245.977 234.271 245.781 235.172 245.781C236.068 245.781 236.865 245.961 237.563 246.32C238.266 246.674 238.839 247.169 239.281 247.805C239.724 248.44 240.01 249.172 240.141 250H238.234C238.057 249.281 237.714 248.685 237.203 248.211C236.693 247.737 236.016 247.5 235.172 247.5C233.932 247.5 232.956 248.039 232.242 249.117C231.534 250.195 231.177 251.708 231.172 253.656H231.297C231.589 253.214 231.935 252.836 232.336 252.523C232.742 252.206 233.19 251.961 233.68 251.789C234.169 251.617 234.688 251.531 235.234 251.531C236.151 251.531 236.99 251.76 237.75 252.219C238.51 252.672 239.12 253.299 239.578 254.102C240.036 254.898 240.266 255.812 240.266 256.844C240.266 257.833 240.044 258.74 239.602 259.562C239.159 260.38 238.536 261.031 237.734 261.516C236.938 261.995 236 262.229 234.922 262.219ZM234.922 260.5C235.578 260.5 236.167 260.336 236.688 260.008C237.214 259.68 237.628 259.24 237.93 258.687C238.237 258.135 238.391 257.521 238.391 256.844C238.391 256.182 238.242 255.581 237.945 255.039C237.654 254.492 237.25 254.057 236.734 253.734C236.224 253.411 235.641 253.25 234.984 253.25C234.49 253.25 234.029 253.349 233.602 253.547C233.174 253.74 232.799 254.005 232.477 254.344C232.159 254.682 231.909 255.07 231.727 255.508C231.544 255.94 231.453 256.396 231.453 256.875C231.453 257.51 231.602 258.104 231.898 258.656C232.201 259.208 232.612 259.654 233.133 259.992C233.659 260.331 234.255 260.5 234.922 260.5Z" fill="black"/>
<path d="M517 217H590V290H517V217Z" fill="#F47940"/>
<path d="M620.656 262L623.281 246H624.844L622.219 262H620.656ZM613.375 257.562L613.625 256H625.563L625.313 257.562H613.375ZM615.031 262L617.656 246H619.219L616.594 262H615.031ZM614.313 252L614.562 250.437H626.5L626.25 252H614.313ZM628.816 262V246H638.41V247.719H630.754V253.125H637.691V254.844H630.754V262H628.816ZM641.072 258.719V257.125L648.104 246H649.26V248.469H648.479L643.166 256.875V257H652.635V258.719H641.072ZM648.604 262V258.234V257.492V246H650.447V262H648.604ZM656.063 262L663.219 247.844V247.719H654.969V246H665.219V247.812L658.094 262H656.063ZM673.01 245.781C673.666 245.786 674.322 245.911 674.979 246.156C675.635 246.401 676.234 246.807 676.775 247.375C677.317 247.937 677.752 248.706 678.08 249.68C678.408 250.654 678.572 251.875 678.572 253.344C678.572 254.766 678.437 256.029 678.166 257.133C677.9 258.232 677.515 259.159 677.01 259.914C676.51 260.669 675.9 261.242 675.182 261.633C674.468 262.023 673.661 262.219 672.76 262.219C671.864 262.219 671.064 262.042 670.361 261.687C669.663 261.328 669.09 260.831 668.643 260.195C668.2 259.555 667.916 258.812 667.791 257.969H669.697C669.869 258.703 670.21 259.31 670.721 259.789C671.236 260.263 671.916 260.5 672.76 260.5C673.994 260.5 674.968 259.961 675.682 258.883C676.4 257.805 676.76 256.281 676.76 254.312H676.635C676.343 254.75 675.997 255.128 675.596 255.445C675.195 255.763 674.749 256.008 674.26 256.18C673.77 256.352 673.249 256.438 672.697 256.438C671.781 256.438 670.939 256.211 670.174 255.758C669.413 255.299 668.804 254.672 668.346 253.875C667.893 253.073 667.666 252.156 667.666 251.125C667.666 250.146 667.885 249.25 668.322 248.437C668.765 247.62 669.385 246.969 670.182 246.484C670.984 246 671.926 245.766 673.01 245.781ZM673.01 247.5C672.354 247.5 671.762 247.664 671.236 247.992C670.715 248.315 670.301 248.753 669.994 249.305C669.692 249.852 669.541 250.458 669.541 251.125C669.541 251.792 669.687 252.398 669.979 252.945C670.275 253.487 670.679 253.919 671.189 254.242C671.705 254.56 672.291 254.719 672.947 254.719C673.442 254.719 673.903 254.622 674.33 254.43C674.757 254.232 675.13 253.964 675.447 253.625C675.77 253.281 676.023 252.893 676.205 252.461C676.387 252.023 676.479 251.568 676.479 251.094C676.479 250.469 676.327 249.883 676.025 249.336C675.729 248.789 675.317 248.346 674.791 248.008C674.27 247.669 673.676 247.5 673.01 247.5ZM681.27 258.719V257.125L688.301 246H689.457V248.469H688.676L683.363 256.875V257H692.832V258.719H681.27ZM688.801 262V258.234V257.492V246H690.645V262H688.801ZM700.979 262.219C699.801 262.219 698.799 261.898 697.971 261.258C697.143 260.612 696.51 259.677 696.072 258.453C695.635 257.224 695.416 255.74 695.416 254C695.416 252.271 695.635 250.794 696.072 249.57C696.515 248.341 697.15 247.404 697.979 246.758C698.812 246.107 699.812 245.781 700.979 245.781C702.145 245.781 703.143 246.107 703.971 246.758C704.804 247.404 705.439 248.341 705.877 249.57C706.32 250.794 706.541 252.271 706.541 254C706.541 255.74 706.322 257.224 705.885 258.453C705.447 259.677 704.814 260.612 703.986 261.258C703.158 261.898 702.156 262.219 700.979 262.219ZM700.979 260.5C702.145 260.5 703.051 259.937 703.697 258.812C704.343 257.687 704.666 256.083 704.666 254C704.666 252.615 704.518 251.435 704.221 250.461C703.929 249.487 703.507 248.745 702.955 248.234C702.408 247.724 701.749 247.469 700.979 247.469C699.822 247.469 698.919 248.039 698.268 249.18C697.617 250.315 697.291 251.922 697.291 254C697.291 255.385 697.437 256.562 697.729 257.531C698.02 258.5 698.439 259.237 698.986 259.742C699.538 260.247 700.202 260.5 700.979 260.5Z" fill="black"/>
<path d="M517 367H590V440H517V367Z" fill="#447C93"/>
<path d="M620.656 412L623.281 396H624.844L622.219 412H620.656ZM613.375 407.562L613.625 406H625.563L625.313 407.562H613.375ZM615.031 412L617.656 396H619.219L616.594 412H615.031ZM614.313 402L614.562 400.437H626.5L626.25 402H614.313ZM628.16 408.719V407.125L635.191 396H636.348V398.469H635.566L630.254 406.875V407H639.723V408.719H628.16ZM635.691 412V408.234V407.492V396H637.535V412H635.691ZM642.275 408.719V407.125L649.307 396H650.463V398.469H649.682L644.369 406.875V407H653.838V408.719H642.275ZM649.807 412V408.234V407.492V396H651.65V412H649.807ZM657.266 412L664.422 397.844V397.719H656.172V396H666.422V397.812L659.297 412H657.266ZM673.123 412.25C671.998 412.25 671.029 411.984 670.217 411.453C669.404 410.922 668.779 410.19 668.342 409.258C667.904 408.326 667.686 407.26 667.686 406.062C667.686 404.844 667.91 403.768 668.357 402.836C668.811 401.898 669.441 401.167 670.248 400.641C671.061 400.109 672.008 399.844 673.092 399.844C673.936 399.844 674.696 400 675.373 400.312C676.05 400.625 676.605 401.062 677.037 401.625C677.469 402.187 677.738 402.844 677.842 403.594H675.998C675.857 403.047 675.545 402.562 675.061 402.141C674.581 401.714 673.936 401.5 673.123 401.5C672.404 401.5 671.774 401.687 671.232 402.062C670.696 402.432 670.277 402.956 669.975 403.633C669.678 404.305 669.529 405.094 669.529 406C669.529 406.927 669.675 407.734 669.967 408.422C670.264 409.109 670.68 409.643 671.217 410.023C671.758 410.404 672.394 410.594 673.123 410.594C673.602 410.594 674.037 410.51 674.428 410.344C674.818 410.177 675.149 409.938 675.42 409.625C675.691 409.312 675.883 408.937 675.998 408.5H677.842C677.738 409.208 677.48 409.846 677.068 410.414C676.662 410.977 676.123 411.424 675.451 411.758C674.785 412.086 674.008 412.25 673.123 412.25ZM685.6 395.781C686.256 395.786 686.912 395.911 687.568 396.156C688.225 396.401 688.824 396.807 689.365 397.375C689.907 397.937 690.342 398.706 690.67 399.68C690.998 400.654 691.162 401.875 691.162 403.344C691.162 404.766 691.027 406.029 690.756 407.133C690.49 408.232 690.105 409.159 689.6 409.914C689.1 410.669 688.49 411.242 687.771 411.633C687.058 412.023 686.251 412.219 685.35 412.219C684.454 412.219 683.654 412.042 682.951 411.687C682.253 411.328 681.68 410.831 681.232 410.195C680.79 409.555 680.506 408.812 680.381 407.969H682.287C682.459 408.703 682.8 409.31 683.311 409.789C683.826 410.263 684.506 410.5 685.35 410.5C686.584 410.5 687.558 409.961 688.271 408.883C688.99 407.805 689.35 406.281 689.35 404.312H689.225C688.933 404.75 688.587 405.128 688.186 405.445C687.785 405.763 687.339 406.008 686.85 406.18C686.36 406.352 685.839 406.438 685.287 406.438C684.37 406.438 683.529 406.211 682.764 405.758C682.003 405.299 681.394 404.672 680.936 403.875C680.482 403.073 680.256 402.156 680.256 401.125C680.256 400.146 680.475 399.25 680.912 398.437C681.355 397.62 681.975 396.969 682.771 396.484C683.574 396 684.516 395.766 685.6 395.781ZM685.6 397.5C684.943 397.5 684.352 397.664 683.826 397.992C683.305 398.315 682.891 398.753 682.584 399.305C682.282 399.852 682.131 400.458 682.131 401.125C682.131 401.792 682.277 402.398 682.568 402.945C682.865 403.487 683.269 403.919 683.779 404.242C684.295 404.56 684.881 404.719 685.537 404.719C686.032 404.719 686.493 404.622 686.92 404.43C687.347 404.232 687.719 403.964 688.037 403.625C688.36 403.281 688.613 402.893 688.795 402.461C688.977 402.023 689.068 401.568 689.068 401.094C689.068 400.469 688.917 399.883 688.615 399.336C688.318 398.789 687.907 398.346 687.381 398.008C686.86 397.669 686.266 397.5 685.6 397.5ZM699.641 412.219C698.609 412.219 697.69 412.042 696.883 411.687C696.081 411.333 695.443 410.841 694.969 410.211C694.5 409.576 694.245 408.839 694.203 408H696.172C696.214 408.516 696.391 408.961 696.703 409.336C697.016 409.706 697.424 409.992 697.93 410.195C698.435 410.398 698.995 410.5 699.609 410.5C700.297 410.5 700.906 410.38 701.438 410.141C701.969 409.901 702.385 409.568 702.688 409.141C702.99 408.714 703.141 408.219 703.141 407.656C703.141 407.068 702.995 406.549 702.703 406.102C702.411 405.648 701.984 405.294 701.422 405.039C700.859 404.784 700.172 404.656 699.359 404.656H698.078V402.937H699.359C699.995 402.937 700.552 402.823 701.031 402.594C701.516 402.365 701.893 402.042 702.164 401.625C702.44 401.208 702.578 400.719 702.578 400.156C702.578 399.615 702.458 399.143 702.219 398.742C701.979 398.341 701.641 398.029 701.203 397.805C700.771 397.581 700.26 397.469 699.672 397.469C699.12 397.469 698.599 397.57 698.109 397.773C697.625 397.971 697.229 398.26 696.922 398.641C696.615 399.016 696.448 399.469 696.422 400H694.547C694.578 399.161 694.831 398.427 695.305 397.797C695.779 397.161 696.398 396.667 697.164 396.312C697.935 395.958 698.781 395.781 699.703 395.781C700.693 395.781 701.542 395.982 702.25 396.383C702.958 396.779 703.503 397.302 703.883 397.953C704.263 398.604 704.453 399.307 704.453 400.063C704.453 400.964 704.216 401.732 703.742 402.367C703.273 403.003 702.635 403.443 701.828 403.688V403.812C702.839 403.979 703.628 404.409 704.195 405.102C704.763 405.789 705.047 406.641 705.047 407.656C705.047 408.526 704.81 409.307 704.336 410C703.867 410.687 703.227 411.229 702.414 411.625C701.602 412.021 700.677 412.219 699.641 412.219Z" fill="black"/>
<path d="M731 367H804V440H731V367Z" fill="#739344"/>
<path d="M834.656 412L837.281 396H838.844L836.219 412H834.656ZM827.375 407.562L827.625 406H839.563L839.313 407.562H827.375ZM829.031 412L831.656 396H833.219L830.594 412H829.031ZM828.313 402L828.562 400.437H840.5L840.25 402H828.313ZM843.035 412L850.191 397.844V397.719H841.941V396H852.191V397.812L845.066 412H843.035ZM860.145 412.219C859.113 412.219 858.194 412.042 857.387 411.687C856.585 411.333 855.947 410.841 855.473 410.211C855.004 409.576 854.749 408.839 854.707 408H856.676C856.717 408.516 856.895 408.961 857.207 409.336C857.52 409.706 857.928 409.992 858.434 410.195C858.939 410.398 859.499 410.5 860.113 410.5C860.801 410.5 861.41 410.38 861.941 410.141C862.473 409.901 862.889 409.568 863.191 409.141C863.493 408.714 863.645 408.219 863.645 407.656C863.645 407.068 863.499 406.549 863.207 406.102C862.915 405.648 862.488 405.294 861.926 405.039C861.363 404.784 860.676 404.656 859.863 404.656H858.582V402.937H859.863C860.499 402.937 861.056 402.823 861.535 402.594C862.02 402.365 862.397 402.042 862.668 401.625C862.944 401.208 863.082 400.719 863.082 400.156C863.082 399.615 862.962 399.143 862.723 398.742C862.483 398.341 862.145 398.029 861.707 397.805C861.275 397.581 860.764 397.469 860.176 397.469C859.624 397.469 859.103 397.57 858.613 397.773C858.129 397.971 857.733 398.26 857.426 398.641C857.118 399.016 856.952 399.469 856.926 400H855.051C855.082 399.161 855.335 398.427 855.809 397.797C856.283 397.161 856.902 396.667 857.668 396.312C858.439 395.958 859.285 395.781 860.207 395.781C861.197 395.781 862.046 395.982 862.754 396.383C863.462 396.779 864.007 397.302 864.387 397.953C864.767 398.604 864.957 399.307 864.957 400.063C864.957 400.964 864.72 401.732 864.246 402.367C863.777 403.003 863.139 403.443 862.332 403.688V403.812C863.342 403.979 864.132 404.409 864.699 405.102C865.267 405.789 865.551 406.641 865.551 407.656C865.551 408.526 865.314 409.307 864.84 410C864.371 410.687 863.73 411.229 862.918 411.625C862.105 412.021 861.181 412.219 860.145 412.219ZM873.84 395.781C874.496 395.786 875.152 395.911 875.809 396.156C876.465 396.401 877.064 396.807 877.605 397.375C878.147 397.937 878.582 398.706 878.91 399.68C879.238 400.654 879.402 401.875 879.402 403.344C879.402 404.766 879.267 406.029 878.996 407.133C878.73 408.232 878.345 409.159 877.84 409.914C877.34 410.669 876.73 411.242 876.012 411.633C875.298 412.023 874.491 412.219 873.59 412.219C872.694 412.219 871.895 412.042 871.191 411.687C870.493 411.328 869.921 410.831 869.473 410.195C869.03 409.555 868.746 408.812 868.621 407.969H870.527C870.699 408.703 871.04 409.31 871.551 409.789C872.066 410.263 872.746 410.5 873.59 410.5C874.824 410.5 875.798 409.961 876.512 408.883C877.23 407.805 877.59 406.281 877.59 404.312H877.465C877.173 404.75 876.827 405.128 876.426 405.445C876.025 405.763 875.579 406.008 875.09 406.18C874.6 406.352 874.079 406.438 873.527 406.438C872.611 406.438 871.77 406.211 871.004 405.758C870.243 405.299 869.634 404.672 869.176 403.875C868.723 403.073 868.496 402.156 868.496 401.125C868.496 400.146 868.715 399.25 869.152 398.437C869.595 397.62 870.215 396.969 871.012 396.484C871.814 396 872.757 395.766 873.84 395.781ZM873.84 397.5C873.184 397.5 872.592 397.664 872.066 397.992C871.546 398.315 871.132 398.753 870.824 399.305C870.522 399.852 870.371 400.458 870.371 401.125C870.371 401.792 870.517 402.398 870.809 402.945C871.105 403.487 871.509 403.919 872.02 404.242C872.535 404.56 873.121 404.719 873.777 404.719C874.272 404.719 874.733 404.622 875.16 404.43C875.587 404.232 875.96 403.964 876.277 403.625C876.6 403.281 876.853 402.893 877.035 402.461C877.217 402.023 877.309 401.568 877.309 401.094C877.309 400.469 877.158 399.883 876.855 399.336C876.559 398.789 876.147 398.346 875.621 398.008C875.1 397.669 874.507 397.5 873.84 397.5ZM887.881 412.219C886.85 412.219 885.93 412.042 885.123 411.687C884.321 411.333 883.683 410.841 883.209 410.211C882.74 409.576 882.485 408.839 882.443 408H884.412C884.454 408.516 884.631 408.961 884.943 409.336C885.256 409.706 885.665 409.992 886.17 410.195C886.675 410.398 887.235 410.5 887.85 410.5C888.537 410.5 889.146 410.38 889.678 410.141C890.209 409.901 890.626 409.568 890.928 409.141C891.23 408.714 891.381 408.219 891.381 407.656C891.381 407.068 891.235 406.549 890.943 406.102C890.652 405.648 890.225 405.294 889.662 405.039C889.1 404.784 888.412 404.656 887.6 404.656H886.318V402.937H887.6C888.235 402.937 888.792 402.823 889.271 402.594C889.756 402.365 890.133 402.042 890.404 401.625C890.68 401.208 890.818 400.719 890.818 400.156C890.818 399.615 890.699 399.143 890.459 398.742C890.219 398.341 889.881 398.029 889.443 397.805C889.011 397.581 888.501 397.469 887.912 397.469C887.36 397.469 886.839 397.57 886.35 397.773C885.865 397.971 885.469 398.26 885.162 398.641C884.855 399.016 884.688 399.469 884.662 400H882.787C882.818 399.161 883.071 398.427 883.545 397.797C884.019 397.161 884.639 396.667 885.404 396.312C886.175 395.958 887.021 395.781 887.943 395.781C888.933 395.781 889.782 395.982 890.49 396.383C891.199 396.779 891.743 397.302 892.123 397.953C892.503 398.604 892.693 399.307 892.693 400.063C892.693 400.964 892.456 401.732 891.982 402.367C891.514 403.003 890.876 403.443 890.068 403.688V403.812C891.079 403.979 891.868 404.409 892.436 405.102C893.003 405.789 893.287 406.641 893.287 407.656C893.287 408.526 893.05 409.307 892.576 410C892.107 410.687 891.467 411.229 890.654 411.625C889.842 412.021 888.917 412.219 887.881 412.219ZM896.107 408.719V407.125L903.139 396H904.295V398.469H903.514L898.201 406.875V407H907.67V408.719H896.107ZM903.639 412V408.234V407.492V396H905.482V412H903.639ZM910.223 408.719V407.125L917.254 396H918.41V398.469H917.629L912.316 406.875V407H921.785V408.719H910.223ZM917.754 412V408.234V407.492V396H919.598V412H917.754Z" fill="black"/>
<rect x="51" y="314" width="73" height="73" fill="#FFCF89"/>
<path d="M154.656 359L157.281 343H158.844L156.219 359H154.656ZM147.375 354.562L147.625 353H159.563L159.313 354.562H147.375ZM149.031 359L151.656 343H153.219L150.594 359H149.031ZM148.313 349L148.562 347.437H160.5L160.25 349H148.313ZM162.816 359V343H172.41V344.719H164.754V350.125H171.691V351.844H164.754V359H162.816ZM175.729 359V343H185.322V344.719H177.666V350.125H184.604V351.844H177.666V359H175.729ZM201.516 348H199.578C199.464 347.443 199.263 346.953 198.977 346.531C198.695 346.109 198.352 345.755 197.945 345.469C197.544 345.177 197.099 344.958 196.609 344.812C196.12 344.667 195.609 344.594 195.078 344.594C194.109 344.594 193.232 344.839 192.445 345.328C191.664 345.818 191.042 346.539 190.578 347.492C190.12 348.445 189.891 349.615 189.891 351C189.891 352.385 190.12 353.555 190.578 354.508C191.042 355.461 191.664 356.182 192.445 356.672C193.232 357.161 194.109 357.406 195.078 357.406C195.609 357.406 196.12 357.333 196.609 357.187C197.099 357.042 197.544 356.826 197.945 356.539C198.352 356.247 198.695 355.891 198.977 355.469C199.263 355.042 199.464 354.552 199.578 354H201.516C201.37 354.818 201.104 355.549 200.719 356.195C200.333 356.841 199.854 357.391 199.281 357.844C198.708 358.292 198.065 358.633 197.352 358.867C196.643 359.102 195.885 359.219 195.078 359.219C193.714 359.219 192.5 358.885 191.438 358.219C190.375 357.552 189.539 356.604 188.93 355.375C188.32 354.146 188.016 352.687 188.016 351C188.016 349.312 188.32 347.854 188.93 346.625C189.539 345.396 190.375 344.448 191.438 343.781C192.5 343.115 193.714 342.781 195.078 342.781C195.885 342.781 196.643 342.898 197.352 343.133C198.065 343.367 198.708 343.711 199.281 344.164C199.854 344.612 200.333 345.159 200.719 345.805C201.104 346.445 201.37 347.177 201.516 348ZM204.646 359V343H214.24V344.719H206.584V350.125H213.521V351.844H206.584V359H204.646ZM222.402 359.219C221.329 359.219 220.382 359.029 219.559 358.648C218.741 358.263 218.103 357.734 217.645 357.062C217.186 356.385 216.96 355.615 216.965 354.75C216.96 354.073 217.092 353.448 217.363 352.875C217.634 352.297 218.004 351.815 218.473 351.43C218.947 351.039 219.475 350.792 220.059 350.688V350.594C219.293 350.396 218.684 349.966 218.23 349.305C217.777 348.638 217.553 347.88 217.559 347.031C217.553 346.219 217.759 345.492 218.176 344.852C218.592 344.211 219.165 343.706 219.895 343.336C220.629 342.966 221.465 342.781 222.402 342.781C223.329 342.781 224.158 342.966 224.887 343.336C225.616 343.706 226.189 344.211 226.605 344.852C227.027 345.492 227.241 346.219 227.246 347.031C227.241 347.88 227.009 348.638 226.551 349.305C226.098 349.966 225.496 350.396 224.746 350.594V350.688C225.324 350.792 225.845 351.039 226.309 351.43C226.772 351.815 227.142 352.297 227.418 352.875C227.694 353.448 227.835 354.073 227.84 354.75C227.835 355.615 227.6 356.385 227.137 357.062C226.678 357.734 226.04 358.263 225.223 358.648C224.41 359.029 223.47 359.219 222.402 359.219ZM222.402 357.5C223.126 357.5 223.751 357.383 224.277 357.148C224.803 356.914 225.21 356.583 225.496 356.156C225.783 355.729 225.928 355.229 225.934 354.656C225.928 354.052 225.772 353.518 225.465 353.055C225.158 352.591 224.738 352.227 224.207 351.961C223.681 351.695 223.079 351.562 222.402 351.562C221.72 351.562 221.111 351.695 220.574 351.961C220.043 352.227 219.624 352.591 219.316 353.055C219.014 353.518 218.866 354.052 218.871 354.656C218.866 355.229 219.004 355.729 219.285 356.156C219.572 356.583 219.98 356.914 220.512 357.148C221.043 357.383 221.673 357.5 222.402 357.5ZM222.402 349.906C222.975 349.906 223.483 349.792 223.926 349.562C224.374 349.333 224.725 349.013 224.98 348.602C225.236 348.19 225.366 347.708 225.371 347.156C225.366 346.615 225.238 346.143 224.988 345.742C224.738 345.336 224.392 345.023 223.949 344.805C223.507 344.581 222.991 344.469 222.402 344.469C221.803 344.469 221.28 344.581 220.832 344.805C220.384 345.023 220.038 345.336 219.793 345.742C219.548 346.143 219.428 346.615 219.434 347.156C219.428 347.708 219.551 348.19 219.801 348.602C220.056 349.013 220.408 349.333 220.855 349.562C221.303 349.792 221.819 349.906 222.402 349.906ZM235.928 342.781C236.584 342.786 237.24 342.911 237.896 343.156C238.553 343.401 239.152 343.807 239.693 344.375C240.235 344.937 240.67 345.706 240.998 346.68C241.326 347.654 241.49 348.875 241.49 350.344C241.49 351.766 241.355 353.029 241.084 354.133C240.818 355.232 240.433 356.159 239.928 356.914C239.428 357.669 238.818 358.242 238.1 358.633C237.386 359.023 236.579 359.219 235.678 359.219C234.782 359.219 233.982 359.042 233.279 358.687C232.581 358.328 232.008 357.831 231.561 357.195C231.118 356.555 230.834 355.812 230.709 354.969H232.615C232.787 355.703 233.128 356.31 233.639 356.789C234.154 357.263 234.834 357.5 235.678 357.5C236.912 357.5 237.886 356.961 238.6 355.883C239.318 354.805 239.678 353.281 239.678 351.312H239.553C239.261 351.75 238.915 352.128 238.514 352.445C238.113 352.763 237.667 353.008 237.178 353.18C236.688 353.352 236.167 353.438 235.615 353.438C234.699 353.438 233.857 353.211 233.092 352.758C232.331 352.299 231.722 351.672 231.264 350.875C230.811 350.073 230.584 349.156 230.584 348.125C230.584 347.146 230.803 346.25 231.24 345.437C231.683 344.62 232.303 343.969 233.1 343.484C233.902 343 234.844 342.766 235.928 342.781ZM235.928 344.5C235.271 344.5 234.68 344.664 234.154 344.992C233.633 345.315 233.219 345.753 232.912 346.305C232.61 346.852 232.459 347.458 232.459 348.125C232.459 348.792 232.605 349.398 232.896 349.945C233.193 350.487 233.597 350.919 234.107 351.242C234.623 351.56 235.209 351.719 235.865 351.719C236.36 351.719 236.821 351.622 237.248 351.43C237.675 351.232 238.048 350.964 238.365 350.625C238.688 350.281 238.941 349.893 239.123 349.461C239.305 349.023 239.396 348.568 239.396 348.094C239.396 347.469 239.245 346.883 238.943 346.336C238.646 345.789 238.235 345.346 237.709 345.008C237.188 344.669 236.594 344.5 235.928 344.5Z" fill="black"/>
<rect x="51" y="411" width="73" height="73" fill="#F1E3D7"/>
<path d="M154.656 456L157.281 440H158.844L156.219 456H154.656ZM147.375 451.562L147.625 450H159.563L159.313 451.562H147.375ZM149.031 456L151.656 440H153.219L150.594 456H149.031ZM148.313 446L148.562 444.437H160.5L160.25 446H148.313ZM162.816 456V440H172.41V441.719H164.754V447.125H171.691V448.844H164.754V456H162.816ZM181.072 440V456H179.135V442.031H179.041L175.135 444.625V442.656L179.135 440H181.072ZM185.955 456V440H195.611V441.719H187.893V447.125H195.111V448.844H187.893V454.281H195.736V456H185.955ZM204.229 456.219C203.197 456.219 202.278 456.042 201.471 455.687C200.669 455.333 200.031 454.841 199.557 454.211C199.088 453.576 198.833 452.839 198.791 452H200.76C200.801 452.516 200.979 452.961 201.291 453.336C201.604 453.706 202.012 453.992 202.518 454.195C203.023 454.398 203.583 454.5 204.197 454.5C204.885 454.5 205.494 454.38 206.025 454.141C206.557 453.901 206.973 453.568 207.275 453.141C207.577 452.714 207.729 452.219 207.729 451.656C207.729 451.068 207.583 450.549 207.291 450.102C206.999 449.648 206.572 449.294 206.01 449.039C205.447 448.784 204.76 448.656 203.947 448.656H202.666V446.937H203.947C204.583 446.937 205.14 446.823 205.619 446.594C206.104 446.365 206.481 446.042 206.752 445.625C207.028 445.208 207.166 444.719 207.166 444.156C207.166 443.615 207.046 443.143 206.807 442.742C206.567 442.341 206.229 442.029 205.791 441.805C205.359 441.581 204.848 441.469 204.26 441.469C203.708 441.469 203.187 441.57 202.697 441.773C202.213 441.971 201.817 442.26 201.51 442.641C201.202 443.016 201.036 443.469 201.01 444H199.135C199.166 443.161 199.419 442.427 199.893 441.797C200.367 441.161 200.986 440.667 201.752 440.312C202.523 439.958 203.369 439.781 204.291 439.781C205.281 439.781 206.13 439.982 206.838 440.383C207.546 440.779 208.09 441.302 208.471 441.953C208.851 442.604 209.041 443.307 209.041 444.063C209.041 444.964 208.804 445.732 208.33 446.367C207.861 447.003 207.223 447.443 206.416 447.688V447.812C207.426 447.979 208.215 448.409 208.783 449.102C209.351 449.789 209.635 450.641 209.635 451.656C209.635 452.526 209.398 453.307 208.924 454C208.455 454.687 207.814 455.229 207.002 455.625C206.189 456.021 205.265 456.219 204.229 456.219ZM218.049 456H213.111V440H218.268C219.82 440 221.148 440.32 222.252 440.961C223.356 441.596 224.202 442.51 224.791 443.703C225.38 444.891 225.674 446.312 225.674 447.969C225.674 449.635 225.377 451.07 224.783 452.273C224.189 453.471 223.325 454.393 222.189 455.039C221.054 455.68 219.674 456 218.049 456ZM215.049 454.281H217.924C219.247 454.281 220.343 454.026 221.213 453.516C222.083 453.005 222.731 452.279 223.158 451.336C223.585 450.393 223.799 449.271 223.799 447.969C223.799 446.677 223.588 445.565 223.166 444.633C222.744 443.695 222.114 442.977 221.275 442.477C220.437 441.971 219.393 441.719 218.143 441.719H215.049V454.281ZM229.143 456L236.299 441.844V441.719H228.049V440H238.299V441.812L231.174 456H229.143Z" fill="black"/>
<rect x="277" y="217" width="73" height="73" fill="#AAAAAA"/>
<path d="M380.656 262L383.281 246H384.844L382.219 262H380.656ZM373.375 257.562L373.625 256H385.563L385.313 257.562H373.375ZM375.031 262L377.656 246H379.219L376.594 262H375.031ZM374.313 252L374.562 250.437H386.5L386.25 252H374.313ZM389.473 262H387.441L393.316 246H395.316L401.191 262H399.16L394.379 248.531H394.254L389.473 262ZM390.223 255.75H398.41V257.469H390.223V255.75ZM404.34 262H402.309L408.184 246H410.184L416.059 262H414.027L409.246 248.531H409.121L404.34 262ZM405.09 255.75H413.277V257.469H405.09V255.75ZM419.207 262H417.176L423.051 246H425.051L430.926 262H428.895L424.113 248.531H423.988L419.207 262ZM419.957 255.75H428.145V257.469H419.957V255.75ZM434.074 262H432.043L437.918 246H439.918L445.793 262H443.762L438.98 248.531H438.855L434.074 262ZM434.824 255.75H443.012V257.469H434.824V255.75ZM448.941 262H446.91L452.785 246H454.785L460.66 262H458.629L453.848 248.531H453.723L448.941 262ZM449.691 255.75H457.879V257.469H449.691V255.75ZM463.809 262H461.777L467.652 246H469.652L475.527 262H473.496L468.715 248.531H468.59L463.809 262ZM464.559 255.75H472.746V257.469H464.559V255.75Z" fill="black"/>
<rect x="277" y="314" width="73" height="73" fill="#DDDDDD"/>
<path d="M380.656 359L383.281 343H384.844L382.219 359H380.656ZM373.375 354.562L373.625 353H385.563L385.313 354.562H373.375ZM375.031 359L377.656 343H379.219L376.594 359H375.031ZM374.313 349L374.562 347.437H386.5L386.25 349H374.313ZM393.754 359H388.816V343H393.973C395.525 343 396.853 343.32 397.957 343.961C399.061 344.596 399.908 345.51 400.496 346.703C401.085 347.891 401.379 349.312 401.379 350.969C401.379 352.635 401.082 354.07 400.488 355.273C399.895 356.471 399.03 357.393 397.895 358.039C396.759 358.68 395.379 359 393.754 359ZM390.754 357.281H393.629C394.952 357.281 396.048 357.026 396.918 356.516C397.788 356.005 398.436 355.279 398.863 354.336C399.29 353.393 399.504 352.271 399.504 350.969C399.504 349.677 399.293 348.565 398.871 347.633C398.449 346.695 397.819 345.977 396.98 345.477C396.142 344.971 395.098 344.719 393.848 344.719H390.754V357.281ZM409.566 359H404.629V343H409.785C411.337 343 412.665 343.32 413.77 343.961C414.874 344.596 415.72 345.51 416.309 346.703C416.897 347.891 417.191 349.312 417.191 350.969C417.191 352.635 416.895 354.07 416.301 355.273C415.707 356.471 414.842 357.393 413.707 358.039C412.572 358.68 411.191 359 409.566 359ZM406.566 357.281H409.441C410.764 357.281 411.861 357.026 412.73 356.516C413.6 356.005 414.249 355.279 414.676 354.336C415.103 353.393 415.316 352.271 415.316 350.969C415.316 349.677 415.105 348.565 414.684 347.633C414.262 346.695 413.632 345.977 412.793 345.477C411.954 344.971 410.91 344.719 409.66 344.719H406.566V357.281ZM425.379 359H420.441V343H425.598C427.15 343 428.478 343.32 429.582 343.961C430.686 344.596 431.533 345.51 432.121 346.703C432.71 347.891 433.004 349.312 433.004 350.969C433.004 352.635 432.707 354.07 432.113 355.273C431.52 356.471 430.655 357.393 429.52 358.039C428.384 358.68 427.004 359 425.379 359ZM422.379 357.281H425.254C426.577 357.281 427.673 357.026 428.543 356.516C429.413 356.005 430.061 355.279 430.488 354.336C430.915 353.393 431.129 352.271 431.129 350.969C431.129 349.677 430.918 348.565 430.496 347.633C430.074 346.695 429.444 345.977 428.605 345.477C427.767 344.971 426.723 344.719 425.473 344.719H422.379V357.281ZM441.191 359H436.254V343H441.41C442.962 343 444.29 343.32 445.395 343.961C446.499 344.596 447.345 345.51 447.934 346.703C448.522 347.891 448.816 349.312 448.816 350.969C448.816 352.635 448.52 354.07 447.926 355.273C447.332 356.471 446.467 357.393 445.332 358.039C444.197 358.68 442.816 359 441.191 359ZM438.191 357.281H441.066C442.389 357.281 443.486 357.026 444.355 356.516C445.225 356.005 445.874 355.279 446.301 354.336C446.728 353.393 446.941 352.271 446.941 350.969C446.941 349.677 446.73 348.565 446.309 347.633C445.887 346.695 445.257 345.977 444.418 345.477C443.579 344.971 442.535 344.719 441.285 344.719H438.191V357.281ZM457.004 359H452.066V343H457.223C458.775 343 460.103 343.32 461.207 343.961C462.311 344.596 463.158 345.51 463.746 346.703C464.335 347.891 464.629 349.312 464.629 350.969C464.629 352.635 464.332 354.07 463.738 355.273C463.145 356.471 462.28 357.393 461.145 358.039C460.009 358.68 458.629 359 457.004 359ZM454.004 357.281H456.879C458.202 357.281 459.298 357.026 460.168 356.516C461.038 356.005 461.686 355.279 462.113 354.336C462.54 353.393 462.754 352.271 462.754 350.969C462.754 349.677 462.543 348.565 462.121 347.633C461.699 346.695 461.069 345.977 460.23 345.477C459.392 344.971 458.348 344.719 457.098 344.719H454.004V357.281ZM472.816 359H467.879V343H473.035C474.587 343 475.915 343.32 477.02 343.961C478.124 344.596 478.97 345.51 479.559 346.703C480.147 347.891 480.441 349.312 480.441 350.969C480.441 352.635 480.145 354.07 479.551 355.273C478.957 356.471 478.092 357.393 476.957 358.039C475.822 358.68 474.441 359 472.816 359ZM469.816 357.281H472.691C474.014 357.281 475.111 357.026 475.98 356.516C476.85 356.005 477.499 355.279 477.926 354.336C478.353 353.393 478.566 352.271 478.566 350.969C478.566 349.677 478.355 348.565 477.934 347.633C477.512 346.695 476.882 345.977 476.043 345.477C475.204 344.971 474.16 344.719 472.91 344.719H469.816V357.281Z" fill="black"/>
<path d="M52.3906 138V122H58.7969C59.974 122 60.9557 122.174 61.7422 122.523C62.5286 122.872 63.1198 123.357 63.5156 123.977C63.9115 124.591 64.1094 125.299 64.1094 126.102C64.1094 126.727 63.9844 127.276 63.7344 127.75C63.4844 128.219 63.1406 128.604 62.7031 128.906C62.2708 129.203 61.776 129.414 61.2188 129.539V129.695C61.8281 129.721 62.3984 129.893 62.9297 130.211C63.4661 130.529 63.901 130.974 64.2344 131.547C64.5677 132.115 64.7344 132.792 64.7344 133.578C64.7344 134.427 64.5234 135.185 64.1016 135.852C63.6849 136.513 63.0677 137.036 62.25 137.422C61.4323 137.807 60.4245 138 59.2266 138H52.3906ZM55.7734 135.234H58.5313C59.474 135.234 60.1615 135.055 60.5938 134.695C61.026 134.331 61.2422 133.846 61.2422 133.242C61.2422 132.799 61.1354 132.409 60.9219 132.07C60.7083 131.732 60.4036 131.466 60.0078 131.273C59.6172 131.081 59.151 130.984 58.6094 130.984H55.7734V135.234ZM55.7734 128.695H58.2812C58.7448 128.695 59.1563 128.615 59.5156 128.453C59.8802 128.286 60.1667 128.052 60.375 127.75C60.5885 127.448 60.6953 127.086 60.6953 126.664C60.6953 126.086 60.4896 125.62 60.0781 125.266C59.6719 124.911 59.0938 124.734 58.3438 124.734H55.7734V128.695ZM66.873 138V126H70.0996V128.094H70.2246C70.4434 127.349 70.8105 126.786 71.3262 126.406C71.8418 126.021 72.4355 125.828 73.1074 125.828C73.2741 125.828 73.4538 125.839 73.6465 125.859C73.8392 125.88 74.0085 125.909 74.1543 125.945V128.898C73.998 128.852 73.7819 128.81 73.5059 128.773C73.2298 128.737 72.9772 128.719 72.748 128.719C72.2585 128.719 71.821 128.826 71.4355 129.039C71.0553 129.247 70.7533 129.539 70.5293 129.914C70.3105 130.289 70.2012 130.721 70.2012 131.211V138H66.873ZM78.9531 138.227C78.1875 138.227 77.5052 138.094 76.9063 137.828C76.3073 137.557 75.8333 137.159 75.4844 136.633C75.1406 136.102 74.9688 135.44 74.9688 134.648C74.9688 133.982 75.0911 133.422 75.3359 132.969C75.5807 132.516 75.9141 132.151 76.3359 131.875C76.7578 131.599 77.237 131.391 77.7734 131.25C78.3151 131.109 78.8828 131.01 79.4766 130.953C80.1745 130.88 80.737 130.812 81.1641 130.75C81.5911 130.682 81.901 130.583 82.0938 130.453C82.2865 130.323 82.3828 130.13 82.3828 129.875V129.828C82.3828 129.333 82.2266 128.951 81.9141 128.68C81.6068 128.409 81.1693 128.273 80.6016 128.273C80.0026 128.273 79.526 128.406 79.1719 128.672C78.8177 128.932 78.5833 129.26 78.4688 129.656L75.3906 129.406C75.5469 128.677 75.8542 128.047 76.3125 127.516C76.7708 126.979 77.362 126.568 78.0859 126.281C78.8151 125.99 79.6589 125.844 80.6172 125.844C81.2839 125.844 81.9219 125.922 82.5313 126.078C83.1458 126.234 83.6901 126.477 84.1641 126.805C84.6432 127.133 85.0208 127.555 85.2969 128.07C85.5729 128.581 85.7109 129.193 85.7109 129.906V138H82.5547V136.336H82.4609C82.2682 136.711 82.0104 137.042 81.6875 137.328C81.3646 137.609 80.9766 137.831 80.5234 137.992C80.0703 138.148 79.5469 138.227 78.9531 138.227ZM79.9063 135.93C80.3958 135.93 80.8281 135.833 81.2031 135.641C81.5781 135.443 81.8724 135.177 82.0859 134.844C82.2995 134.51 82.4063 134.133 82.4063 133.711V132.438C82.3021 132.505 82.1589 132.568 81.9766 132.625C81.7995 132.677 81.599 132.727 81.375 132.773C81.151 132.815 80.9271 132.854 80.7031 132.891C80.4792 132.922 80.276 132.951 80.0938 132.977C79.7031 133.034 79.362 133.125 79.0703 133.25C78.7786 133.375 78.5521 133.544 78.3906 133.758C78.2292 133.966 78.1484 134.227 78.1484 134.539C78.1484 134.992 78.3125 135.339 78.6406 135.578C78.974 135.812 79.3958 135.93 79.9063 135.93ZM91.6211 131.063V138H88.293V126H91.4648V128.117H91.6055C91.8711 127.419 92.3164 126.867 92.9414 126.461C93.5664 126.049 94.3242 125.844 95.2148 125.844C96.0482 125.844 96.7747 126.026 97.3945 126.391C98.0143 126.755 98.4961 127.276 98.8398 127.953C99.1836 128.625 99.3555 129.427 99.3555 130.359V138H96.0273V130.953C96.0326 130.219 95.8451 129.646 95.4648 129.234C95.0846 128.818 94.5612 128.609 93.8945 128.609C93.4466 128.609 93.0508 128.706 92.707 128.898C92.3685 129.091 92.1029 129.372 91.9102 129.742C91.7227 130.107 91.6263 130.547 91.6211 131.063ZM106.4 138.195C105.489 138.195 104.663 137.961 103.924 137.492C103.189 137.018 102.606 136.323 102.174 135.406C101.747 134.484 101.533 133.354 101.533 132.016C101.533 130.641 101.755 129.497 102.197 128.586C102.64 127.669 103.229 126.984 103.963 126.531C104.702 126.073 105.512 125.844 106.393 125.844C107.064 125.844 107.624 125.958 108.072 126.188C108.525 126.411 108.89 126.693 109.166 127.031C109.447 127.365 109.661 127.693 109.807 128.016H109.908V122H113.229V138H109.947V136.078H109.807C109.65 136.411 109.429 136.742 109.143 137.07C108.861 137.393 108.494 137.661 108.041 137.875C107.593 138.089 107.046 138.195 106.4 138.195ZM107.455 135.547C107.992 135.547 108.445 135.401 108.814 135.109C109.189 134.812 109.476 134.398 109.674 133.867C109.877 133.336 109.979 132.714 109.979 132C109.979 131.286 109.88 130.667 109.682 130.141C109.484 129.615 109.197 129.208 108.822 128.922C108.447 128.635 107.992 128.492 107.455 128.492C106.908 128.492 106.447 128.641 106.072 128.937C105.697 129.234 105.413 129.646 105.221 130.172C105.028 130.698 104.932 131.307 104.932 132C104.932 132.698 105.028 133.315 105.221 133.852C105.419 134.383 105.702 134.799 106.072 135.102C106.447 135.398 106.908 135.547 107.455 135.547ZM115.965 138V126H119.293V138H115.965ZM117.637 124.453C117.142 124.453 116.717 124.289 116.363 123.961C116.014 123.628 115.84 123.229 115.84 122.766C115.84 122.307 116.014 121.914 116.363 121.586C116.717 121.253 117.142 121.086 117.637 121.086C118.132 121.086 118.553 121.253 118.902 121.586C119.257 121.914 119.434 122.307 119.434 122.766C119.434 123.229 119.257 123.628 118.902 123.961C118.553 124.289 118.132 124.453 117.637 124.453ZM125.287 131.063V138H121.959V126H125.131V128.117H125.271C125.537 127.419 125.982 126.867 126.607 126.461C127.232 126.049 127.99 125.844 128.881 125.844C129.714 125.844 130.441 126.026 131.061 126.391C131.68 126.755 132.162 127.276 132.506 127.953C132.85 128.625 133.021 129.427 133.021 130.359V138H129.693V130.953C129.699 130.219 129.511 129.646 129.131 129.234C128.751 128.818 128.227 128.609 127.561 128.609C127.113 128.609 126.717 128.706 126.373 128.898C126.035 129.091 125.769 129.372 125.576 129.742C125.389 130.107 125.292 130.547 125.287 131.063ZM141.051 142.75C139.973 142.75 139.048 142.602 138.277 142.305C137.512 142.013 136.902 141.615 136.449 141.109C135.996 140.604 135.702 140.036 135.566 139.406L138.645 138.992C138.738 139.232 138.887 139.456 139.09 139.664C139.293 139.872 139.561 140.039 139.895 140.164C140.233 140.294 140.645 140.359 141.129 140.359C141.853 140.359 142.449 140.182 142.918 139.828C143.392 139.479 143.629 138.893 143.629 138.07V135.875H143.488C143.342 136.208 143.124 136.523 142.832 136.82C142.54 137.117 142.165 137.359 141.707 137.547C141.249 137.734 140.702 137.828 140.066 137.828C139.165 137.828 138.345 137.62 137.605 137.203C136.871 136.781 136.285 136.138 135.848 135.273C135.415 134.404 135.199 133.305 135.199 131.977C135.199 130.617 135.421 129.482 135.863 128.57C136.306 127.659 136.895 126.977 137.629 126.523C138.368 126.07 139.178 125.844 140.059 125.844C140.73 125.844 141.293 125.958 141.746 126.188C142.199 126.411 142.564 126.693 142.84 127.031C143.121 127.365 143.337 127.693 143.488 128.016H143.613V126H146.918V138.117C146.918 139.138 146.668 139.992 146.168 140.68C145.668 141.367 144.975 141.883 144.09 142.227C143.21 142.576 142.197 142.75 141.051 142.75ZM141.121 135.328C141.658 135.328 142.111 135.195 142.48 134.93C142.855 134.659 143.142 134.273 143.34 133.773C143.543 133.268 143.645 132.664 143.645 131.961C143.645 131.258 143.546 130.648 143.348 130.133C143.15 129.612 142.863 129.208 142.488 128.922C142.113 128.635 141.658 128.492 141.121 128.492C140.574 128.492 140.113 128.641 139.738 128.937C139.363 129.229 139.079 129.635 138.887 130.156C138.694 130.677 138.598 131.279 138.598 131.961C138.598 132.654 138.694 133.253 138.887 133.758C139.085 134.258 139.368 134.646 139.738 134.922C140.113 135.193 140.574 135.328 141.121 135.328ZM52.9375 198V182H58.3438C59.599 182 60.625 182.227 61.4219 182.68C62.224 183.128 62.8177 183.734 63.2031 184.5C63.5885 185.266 63.7813 186.12 63.7813 187.062C63.7813 188.005 63.5885 188.862 63.2031 189.633C62.8229 190.404 62.2344 191.018 61.4375 191.477C60.6406 191.93 59.6198 192.156 58.375 192.156H54.5V190.438H58.3125C59.1719 190.438 59.862 190.289 60.3828 189.992C60.9036 189.695 61.2813 189.294 61.5156 188.789C61.7552 188.279 61.875 187.703 61.875 187.062C61.875 186.422 61.7552 185.849 61.5156 185.344C61.2813 184.839 60.901 184.443 60.375 184.156C59.849 183.865 59.151 183.719 58.2812 183.719H54.875V198H52.9375ZM66.6523 198V186H68.4336V187.812H68.5586C68.7773 187.219 69.1732 186.737 69.7461 186.367C70.319 185.997 70.9648 185.812 71.6836 185.812C71.819 185.812 71.9883 185.815 72.1914 185.82C72.3945 185.826 72.5482 185.833 72.6523 185.844V187.719C72.5898 187.703 72.4466 187.68 72.2227 187.648C72.0039 187.612 71.7721 187.594 71.5273 187.594C70.944 187.594 70.4232 187.716 69.9648 187.961C69.5117 188.201 69.1523 188.534 68.8867 188.961C68.6263 189.383 68.4961 189.865 68.4961 190.406V198H66.6523ZM74.8379 198V186H76.6816V198H74.8379ZM75.7754 184C75.416 184 75.1061 183.878 74.8457 183.633C74.5905 183.388 74.4629 183.094 74.4629 182.75C74.4629 182.406 74.5905 182.112 74.8457 181.867C75.1061 181.622 75.416 181.5 75.7754 181.5C76.1348 181.5 76.4421 181.622 76.6973 181.867C76.9577 182.112 77.0879 182.406 77.0879 182.75C77.0879 183.094 76.9577 183.388 76.6973 183.633C76.4421 183.878 76.1348 184 75.7754 184ZM80.0586 198V186H81.8398V187.875H81.9961C82.2461 187.234 82.6497 186.737 83.207 186.383C83.7643 186.023 84.4336 185.844 85.2148 185.844C86.0065 185.844 86.6654 186.023 87.1914 186.383C87.7227 186.737 88.1367 187.234 88.4336 187.875H88.5586C88.8659 187.255 89.3268 186.763 89.9414 186.398C90.556 186.029 91.293 185.844 92.1523 185.844C93.2253 185.844 94.1029 186.18 94.7852 186.852C95.4674 187.518 95.8086 188.557 95.8086 189.969V198H93.9648V189.969C93.9648 189.083 93.7227 188.451 93.2383 188.07C92.7539 187.69 92.1836 187.5 91.5273 187.5C90.6836 187.5 90.0299 187.755 89.5664 188.266C89.1029 188.771 88.8711 189.411 88.8711 190.187V198H86.9961V189.781C86.9961 189.099 86.7747 188.549 86.332 188.133C85.8893 187.711 85.319 187.5 84.6211 187.5C84.1419 187.5 83.694 187.628 83.2773 187.883C82.8659 188.138 82.5326 188.492 82.2773 188.945C82.0273 189.393 81.9023 189.911 81.9023 190.5V198H80.0586ZM102.711 198.281C101.951 198.281 101.26 198.138 100.641 197.852C100.021 197.56 99.5286 197.141 99.1641 196.594C98.7995 196.042 98.6172 195.375 98.6172 194.594C98.6172 193.906 98.7526 193.349 99.0234 192.922C99.2943 192.49 99.6563 192.151 100.109 191.906C100.562 191.661 101.063 191.479 101.609 191.359C102.161 191.234 102.716 191.135 103.273 191.063C104.003 190.969 104.594 190.898 105.047 190.852C105.505 190.799 105.839 190.714 106.047 190.594C106.26 190.474 106.367 190.266 106.367 189.969V189.906C106.367 189.135 106.156 188.536 105.734 188.109C105.318 187.682 104.685 187.469 103.836 187.469C102.956 187.469 102.266 187.661 101.766 188.047C101.266 188.432 100.914 188.844 100.711 189.281L98.9609 188.656C99.2734 187.927 99.6901 187.359 100.211 186.953C100.737 186.542 101.31 186.255 101.93 186.094C102.555 185.927 103.169 185.844 103.773 185.844C104.159 185.844 104.602 185.891 105.102 185.984C105.607 186.073 106.094 186.258 106.563 186.539C107.036 186.82 107.43 187.245 107.742 187.812C108.055 188.38 108.211 189.141 108.211 190.094V198H106.367V196.375H106.273C106.148 196.635 105.94 196.914 105.648 197.211C105.357 197.508 104.969 197.76 104.484 197.969C104 198.177 103.409 198.281 102.711 198.281ZM102.992 196.625C103.721 196.625 104.336 196.482 104.836 196.195C105.341 195.909 105.721 195.539 105.977 195.086C106.237 194.633 106.367 194.156 106.367 193.656V191.969C106.289 192.062 106.117 192.148 105.852 192.227C105.591 192.299 105.289 192.365 104.945 192.422C104.607 192.474 104.276 192.521 103.953 192.562C103.635 192.599 103.378 192.63 103.18 192.656C102.701 192.719 102.253 192.82 101.836 192.961C101.424 193.096 101.091 193.302 100.836 193.578C100.586 193.849 100.461 194.219 100.461 194.687C100.461 195.328 100.698 195.812 101.172 196.141C101.651 196.464 102.258 196.625 102.992 196.625ZM111.576 198V186H113.357V187.812H113.482C113.701 187.219 114.097 186.737 114.67 186.367C115.243 185.997 115.889 185.812 116.607 185.812C116.743 185.812 116.912 185.815 117.115 185.82C117.318 185.826 117.472 185.833 117.576 185.844V187.719C117.514 187.703 117.37 187.68 117.146 187.648C116.928 187.612 116.696 187.594 116.451 187.594C115.868 187.594 115.347 187.716 114.889 187.961C114.436 188.201 114.076 188.534 113.811 188.961C113.55 189.383 113.42 189.865 113.42 190.406V198H111.576ZM121.314 202.5C121.002 202.5 120.723 202.474 120.479 202.422C120.234 202.375 120.064 202.328 119.971 202.281L120.439 200.656C120.887 200.771 121.283 200.813 121.627 200.781C121.971 200.75 122.275 200.596 122.541 200.32C122.812 200.049 123.059 199.609 123.283 199L123.627 198.063L119.189 186H121.189L124.502 195.562H124.627L127.939 186H129.939L124.846 199.75C124.617 200.37 124.333 200.883 123.994 201.289C123.656 201.701 123.262 202.005 122.814 202.203C122.372 202.401 121.872 202.5 121.314 202.5ZM286.217 186C286.123 185.208 285.743 184.594 285.076 184.156C284.41 183.719 283.592 183.5 282.623 183.5C281.915 183.5 281.295 183.615 280.764 183.844C280.238 184.073 279.826 184.388 279.529 184.789C279.238 185.19 279.092 185.646 279.092 186.156C279.092 186.583 279.193 186.951 279.396 187.258C279.605 187.56 279.87 187.812 280.193 188.016C280.516 188.214 280.855 188.378 281.209 188.508C281.563 188.633 281.889 188.734 282.186 188.812L283.811 189.25C284.227 189.359 284.691 189.51 285.201 189.703C285.717 189.896 286.209 190.159 286.678 190.492C287.152 190.82 287.542 191.242 287.85 191.758C288.157 192.273 288.311 192.906 288.311 193.656C288.311 194.521 288.084 195.302 287.631 196C287.183 196.698 286.527 197.253 285.662 197.664C284.803 198.076 283.758 198.281 282.529 198.281C281.383 198.281 280.391 198.096 279.553 197.727C278.719 197.357 278.063 196.841 277.584 196.18C277.11 195.518 276.842 194.75 276.779 193.875H278.779C278.831 194.479 279.035 194.979 279.389 195.375C279.748 195.766 280.201 196.057 280.748 196.25C281.3 196.437 281.894 196.531 282.529 196.531C283.269 196.531 283.933 196.411 284.521 196.172C285.11 195.927 285.576 195.589 285.92 195.156C286.264 194.719 286.436 194.208 286.436 193.625C286.436 193.094 286.287 192.661 285.99 192.328C285.693 191.995 285.303 191.724 284.818 191.516C284.334 191.307 283.811 191.125 283.248 190.969L281.279 190.406C280.029 190.047 279.04 189.534 278.311 188.867C277.581 188.201 277.217 187.328 277.217 186.25C277.217 185.354 277.459 184.573 277.943 183.906C278.433 183.234 279.089 182.714 279.912 182.344C280.74 181.969 281.665 181.781 282.686 181.781C283.717 181.781 284.633 181.966 285.436 182.336C286.238 182.701 286.873 183.201 287.342 183.836C287.816 184.471 288.066 185.193 288.092 186H286.217ZM296.277 198.25C295.121 198.25 294.124 197.995 293.285 197.484C292.452 196.969 291.809 196.25 291.355 195.328C290.908 194.401 290.684 193.323 290.684 192.094C290.684 190.865 290.908 189.781 291.355 188.844C291.809 187.901 292.439 187.167 293.246 186.641C294.059 186.109 295.007 185.844 296.09 185.844C296.715 185.844 297.332 185.948 297.941 186.156C298.551 186.365 299.105 186.703 299.605 187.172C300.105 187.635 300.504 188.25 300.801 189.016C301.098 189.781 301.246 190.724 301.246 191.844V192.625H291.996V191.031H299.371C299.371 190.354 299.236 189.75 298.965 189.219C298.699 188.687 298.319 188.268 297.824 187.961C297.335 187.654 296.757 187.5 296.09 187.5C295.355 187.5 294.72 187.682 294.184 188.047C293.652 188.406 293.243 188.875 292.957 189.453C292.671 190.031 292.527 190.651 292.527 191.312V192.375C292.527 193.281 292.684 194.049 292.996 194.68C293.314 195.305 293.754 195.781 294.316 196.109C294.879 196.432 295.533 196.594 296.277 196.594C296.762 196.594 297.199 196.526 297.59 196.391C297.986 196.25 298.327 196.042 298.613 195.766C298.9 195.484 299.121 195.135 299.277 194.719L301.059 195.219C300.871 195.823 300.556 196.354 300.113 196.812C299.671 197.266 299.124 197.62 298.473 197.875C297.822 198.125 297.09 198.25 296.277 198.25ZM308.926 198.25C307.801 198.25 306.832 197.984 306.02 197.453C305.207 196.922 304.582 196.19 304.145 195.258C303.707 194.326 303.488 193.26 303.488 192.062C303.488 190.844 303.712 189.768 304.16 188.836C304.613 187.898 305.243 187.167 306.051 186.641C306.863 186.109 307.811 185.844 308.895 185.844C309.738 185.844 310.499 186 311.176 186.312C311.853 186.625 312.408 187.062 312.84 187.625C313.272 188.187 313.54 188.844 313.645 189.594H311.801C311.66 189.047 311.348 188.562 310.863 188.141C310.384 187.714 309.738 187.5 308.926 187.5C308.207 187.5 307.577 187.687 307.035 188.062C306.499 188.432 306.079 188.956 305.777 189.633C305.48 190.305 305.332 191.094 305.332 192C305.332 192.927 305.478 193.734 305.77 194.422C306.066 195.109 306.483 195.643 307.02 196.023C307.561 196.404 308.197 196.594 308.926 196.594C309.405 196.594 309.84 196.51 310.23 196.344C310.621 196.177 310.952 195.938 311.223 195.625C311.493 195.312 311.686 194.937 311.801 194.5H313.645C313.54 195.208 313.283 195.846 312.871 196.414C312.465 196.977 311.926 197.424 311.254 197.758C310.587 198.086 309.811 198.25 308.926 198.25ZM321.215 198.25C320.132 198.25 319.181 197.992 318.363 197.477C317.551 196.961 316.915 196.24 316.457 195.312C316.004 194.385 315.777 193.302 315.777 192.062C315.777 190.812 316.004 189.721 316.457 188.789C316.915 187.857 317.551 187.133 318.363 186.617C319.181 186.102 320.132 185.844 321.215 185.844C322.298 185.844 323.246 186.102 324.059 186.617C324.876 187.133 325.512 187.857 325.965 188.789C326.423 189.721 326.652 190.812 326.652 192.062C326.652 193.302 326.423 194.385 325.965 195.312C325.512 196.24 324.876 196.961 324.059 197.477C323.246 197.992 322.298 198.25 321.215 198.25ZM321.215 196.594C322.038 196.594 322.715 196.383 323.246 195.961C323.777 195.539 324.171 194.984 324.426 194.297C324.681 193.609 324.809 192.865 324.809 192.062C324.809 191.26 324.681 190.513 324.426 189.82C324.171 189.128 323.777 188.568 323.246 188.141C322.715 187.714 322.038 187.5 321.215 187.5C320.392 187.5 319.715 187.714 319.184 188.141C318.652 188.568 318.259 189.128 318.004 189.82C317.749 190.513 317.621 191.26 317.621 192.062C317.621 192.865 317.749 193.609 318.004 194.297C318.259 194.984 318.652 195.539 319.184 195.961C319.715 196.383 320.392 196.594 321.215 196.594ZM331.311 190.781V198H329.467V186H331.248V187.875H331.404C331.686 187.266 332.113 186.776 332.686 186.406C333.258 186.031 333.998 185.844 334.904 185.844C335.717 185.844 336.428 186.01 337.037 186.344C337.646 186.672 338.12 187.172 338.459 187.844C338.798 188.51 338.967 189.354 338.967 190.375V198H337.123V190.5C337.123 189.557 336.878 188.823 336.389 188.297C335.899 187.766 335.227 187.5 334.373 187.5C333.785 187.5 333.258 187.628 332.795 187.883C332.337 188.138 331.975 188.51 331.709 189C331.443 189.49 331.311 190.083 331.311 190.781ZM346.867 198.25C345.867 198.25 344.984 197.997 344.219 197.492C343.453 196.982 342.854 196.263 342.422 195.336C341.99 194.404 341.773 193.302 341.773 192.031C341.773 190.771 341.99 189.677 342.422 188.75C342.854 187.823 343.456 187.107 344.227 186.602C344.997 186.096 345.888 185.844 346.898 185.844C347.68 185.844 348.297 185.974 348.75 186.234C349.208 186.49 349.557 186.781 349.797 187.109C350.042 187.432 350.232 187.698 350.367 187.906H350.523V182H352.367V198H350.586V196.156H350.367C350.232 196.375 350.039 196.651 349.789 196.984C349.539 197.312 349.182 197.607 348.719 197.867C348.255 198.122 347.638 198.25 346.867 198.25ZM347.117 196.594C347.857 196.594 348.482 196.401 348.992 196.016C349.503 195.625 349.891 195.086 350.156 194.398C350.422 193.706 350.555 192.906 350.555 192C350.555 191.104 350.424 190.32 350.164 189.648C349.904 188.971 349.518 188.445 349.008 188.07C348.497 187.69 347.867 187.5 347.117 187.5C346.336 187.5 345.685 187.701 345.164 188.102C344.648 188.497 344.26 189.036 344 189.719C343.745 190.396 343.617 191.156 343.617 192C343.617 192.854 343.747 193.63 344.008 194.328C344.273 195.021 344.664 195.573 345.18 195.984C345.701 196.391 346.346 196.594 347.117 196.594ZM359.531 198.281C358.771 198.281 358.081 198.138 357.461 197.852C356.841 197.56 356.349 197.141 355.984 196.594C355.62 196.042 355.438 195.375 355.438 194.594C355.438 193.906 355.573 193.349 355.844 192.922C356.115 192.49 356.477 192.151 356.93 191.906C357.383 191.661 357.883 191.479 358.43 191.359C358.982 191.234 359.536 191.135 360.094 191.063C360.823 190.969 361.414 190.898 361.867 190.852C362.326 190.799 362.659 190.714 362.867 190.594C363.081 190.474 363.188 190.266 363.188 189.969V189.906C363.188 189.135 362.977 188.536 362.555 188.109C362.138 187.682 361.505 187.469 360.656 187.469C359.776 187.469 359.086 187.661 358.586 188.047C358.086 188.432 357.734 188.844 357.531 189.281L355.781 188.656C356.094 187.927 356.51 187.359 357.031 186.953C357.557 186.542 358.13 186.255 358.75 186.094C359.375 185.927 359.99 185.844 360.594 185.844C360.979 185.844 361.422 185.891 361.922 185.984C362.427 186.073 362.914 186.258 363.383 186.539C363.857 186.82 364.25 187.245 364.563 187.812C364.875 188.38 365.031 189.141 365.031 190.094V198H363.188V196.375H363.094C362.969 196.635 362.76 196.914 362.469 197.211C362.177 197.508 361.789 197.76 361.305 197.969C360.82 198.177 360.229 198.281 359.531 198.281ZM359.812 196.625C360.542 196.625 361.156 196.482 361.656 196.195C362.161 195.909 362.542 195.539 362.797 195.086C363.057 194.633 363.188 194.156 363.188 193.656V191.969C363.109 192.062 362.938 192.148 362.672 192.227C362.411 192.299 362.109 192.365 361.766 192.422C361.427 192.474 361.096 192.521 360.773 192.562C360.456 192.599 360.198 192.63 360 192.656C359.521 192.719 359.073 192.82 358.656 192.961C358.245 193.096 357.911 193.302 357.656 193.578C357.406 193.849 357.281 194.219 357.281 194.687C357.281 195.328 357.518 195.812 357.992 196.141C358.471 196.464 359.078 196.625 359.812 196.625ZM368.396 198V186H370.178V187.812H370.303C370.521 187.219 370.917 186.737 371.49 186.367C372.063 185.997 372.709 185.812 373.428 185.812C373.563 185.812 373.732 185.815 373.936 185.82C374.139 185.826 374.292 185.833 374.396 185.844V187.719C374.334 187.703 374.191 187.68 373.967 187.648C373.748 187.612 373.516 187.594 373.271 187.594C372.688 187.594 372.167 187.716 371.709 187.961C371.256 188.201 370.896 188.534 370.631 188.961C370.37 189.383 370.24 189.865 370.24 190.406V198H368.396ZM378.135 202.5C377.822 202.5 377.544 202.474 377.299 202.422C377.054 202.375 376.885 202.328 376.791 202.281L377.26 200.656C377.708 200.771 378.104 200.813 378.447 200.781C378.791 200.75 379.096 200.596 379.361 200.32C379.632 200.049 379.88 199.609 380.104 199L380.447 198.063L376.01 186H378.01L381.322 195.562H381.447L384.76 186H386.76L381.666 199.75C381.437 200.37 381.153 200.883 380.814 201.289C380.476 201.701 380.083 202.005 379.635 202.203C379.192 202.401 378.692 202.5 378.135 202.5Z" fill="black"/>
<path d="M73.5568 57.875H68.5795C68.4886 57.2311 68.303 56.6591 68.0227 56.1591C67.7424 55.6515 67.3826 55.2197 66.9432 54.8636C66.5038 54.5076 65.9962 54.2348 65.4205 54.0455C64.8523 53.8561 64.2348 53.7614 63.5682 53.7614C62.3636 53.7614 61.3144 54.0606 60.4205 54.6591C59.5265 55.25 58.8333 56.1136 58.3409 57.25C57.8485 58.3788 57.6023 59.75 57.6023 61.3636C57.6023 63.0227 57.8485 64.4167 58.3409 65.5455C58.8409 66.6742 59.5379 67.5265 60.4318 68.1023C61.3258 68.678 62.3598 68.9659 63.5341 68.9659C64.1932 68.9659 64.803 68.8788 65.3636 68.7045C65.9318 68.5303 66.4356 68.2765 66.875 67.9432C67.3144 67.6023 67.678 67.1894 67.9659 66.7045C68.2614 66.2197 68.4659 65.6667 68.5795 65.0455L73.5568 65.0682C73.428 66.1364 73.1061 67.1667 72.5909 68.1591C72.0833 69.1439 71.3977 70.0265 70.5341 70.8068C69.678 71.5795 68.6553 72.1932 67.4659 72.6477C66.2841 73.0947 64.947 73.3182 63.4545 73.3182C61.3788 73.3182 59.5227 72.8485 57.8864 71.9091C56.2576 70.9697 54.9697 69.6098 54.0227 67.8295C53.0833 66.0492 52.6136 63.8939 52.6136 61.3636C52.6136 58.8258 53.0909 56.6667 54.0455 54.8864C55 53.1061 56.2955 51.75 57.9318 50.8182C59.5682 49.8788 61.4091 49.4091 63.4545 49.4091C64.803 49.4091 66.053 49.5985 67.2045 49.9773C68.3636 50.3561 69.3902 50.9091 70.2841 51.6364C71.178 52.3561 71.9053 53.2386 72.4659 54.2841C73.0341 55.3295 73.3977 56.5265 73.5568 57.875ZM84.8807 73.3409C83.1155 73.3409 81.589 72.9659 80.3011 72.2159C79.0208 71.4583 78.0322 70.4053 77.3352 69.0568C76.6383 67.7008 76.2898 66.1288 76.2898 64.3409C76.2898 62.5379 76.6383 60.9621 77.3352 59.6136C78.0322 58.2576 79.0208 57.2045 80.3011 56.4545C81.589 55.697 83.1155 55.3182 84.8807 55.3182C86.6458 55.3182 88.1686 55.697 89.4489 56.4545C90.7367 57.2045 91.7292 58.2576 92.4261 59.6136C93.1231 60.9621 93.4716 62.5379 93.4716 64.3409C93.4716 66.1288 93.1231 67.7008 92.4261 69.0568C91.7292 70.4053 90.7367 71.4583 89.4489 72.2159C88.1686 72.9659 86.6458 73.3409 84.8807 73.3409ZM84.9034 69.5909C85.7064 69.5909 86.3769 69.3636 86.9148 68.9091C87.4527 68.447 87.858 67.8182 88.1307 67.0227C88.411 66.2273 88.5511 65.322 88.5511 64.3068C88.5511 63.2917 88.411 62.3864 88.1307 61.5909C87.858 60.7955 87.4527 60.1667 86.9148 59.7045C86.3769 59.2424 85.7064 59.0114 84.9034 59.0114C84.0928 59.0114 83.411 59.2424 82.858 59.7045C82.3125 60.1667 81.8996 60.7955 81.6193 61.5909C81.3466 62.3864 81.2102 63.2917 81.2102 64.3068C81.2102 65.322 81.3466 66.2273 81.6193 67.0227C81.8996 67.8182 82.3125 68.447 82.858 68.9091C83.411 69.3636 84.0928 69.5909 84.9034 69.5909ZM101.46 49.7273V73H96.6193V49.7273H101.46ZM113.224 73.3409C111.459 73.3409 109.933 72.9659 108.645 72.2159C107.365 71.4583 106.376 70.4053 105.679 69.0568C104.982 67.7008 104.634 66.1288 104.634 64.3409C104.634 62.5379 104.982 60.9621 105.679 59.6136C106.376 58.2576 107.365 57.2045 108.645 56.4545C109.933 55.697 111.459 55.3182 113.224 55.3182C114.99 55.3182 116.512 55.697 117.793 56.4545C119.08 57.2045 120.073 58.2576 120.77 59.6136C121.467 60.9621 121.815 62.5379 121.815 64.3409C121.815 66.1288 121.467 67.7008 120.77 69.0568C120.073 70.4053 119.08 71.4583 117.793 72.2159C116.512 72.9659 114.99 73.3409 113.224 73.3409ZM113.247 69.5909C114.05 69.5909 114.721 69.3636 115.259 68.9091C115.796 68.447 116.202 67.8182 116.474 67.0227C116.755 66.2273 116.895 65.322 116.895 64.3068C116.895 63.2917 116.755 62.3864 116.474 61.5909C116.202 60.7955 115.796 60.1667 115.259 59.7045C114.721 59.2424 114.05 59.0114 113.247 59.0114C112.437 59.0114 111.755 59.2424 111.202 59.7045C110.656 60.1667 110.243 60.7955 109.963 61.5909C109.69 62.3864 109.554 63.2917 109.554 64.3068C109.554 65.322 109.69 66.2273 109.963 67.0227C110.243 67.8182 110.656 68.447 111.202 68.9091C111.755 69.3636 112.437 69.5909 113.247 69.5909ZM136.156 65.5682V55.5455H140.997V73H136.349V69.8295H136.168C135.774 70.8523 135.118 71.6742 134.202 72.2955C133.293 72.9167 132.183 73.2273 130.872 73.2273C129.705 73.2273 128.679 72.9621 127.793 72.4318C126.906 71.9015 126.213 71.1477 125.713 70.1705C125.221 69.1932 124.971 68.0227 124.963 66.6591V55.5455H129.804V65.7955C129.812 66.8258 130.088 67.6402 130.634 68.2386C131.179 68.8371 131.91 69.1364 132.827 69.1364C133.41 69.1364 133.955 69.0038 134.463 68.7386C134.971 68.4659 135.38 68.0644 135.69 67.5341C136.009 67.0038 136.164 66.3485 136.156 65.5682ZM144.869 73V55.5455H149.562V58.5909H149.744C150.063 57.5076 150.597 56.6894 151.347 56.1364C152.097 55.5758 152.96 55.2955 153.938 55.2955C154.18 55.2955 154.441 55.3106 154.722 55.3409C155.002 55.3712 155.248 55.4129 155.46 55.4659V59.7614C155.233 59.6932 154.919 59.6326 154.517 59.5795C154.116 59.5265 153.748 59.5 153.415 59.5C152.703 59.5 152.066 59.6553 151.506 59.9659C150.953 60.2689 150.513 60.6932 150.188 61.2386C149.869 61.7841 149.71 62.4129 149.71 63.125V73H144.869Z" fill="black"/>
<path d="M521.773 122V138H518.391V122H521.773ZM527.822 131.063V138H524.494V126H527.666V128.117H527.807C528.072 127.419 528.518 126.867 529.143 126.461C529.768 126.049 530.525 125.844 531.416 125.844C532.249 125.844 532.976 126.026 533.596 126.391C534.215 126.755 534.697 127.276 535.041 127.953C535.385 128.625 535.557 129.427 535.557 130.359V138H532.229V130.953C532.234 130.219 532.046 129.646 531.666 129.234C531.286 128.818 530.762 128.609 530.096 128.609C529.648 128.609 529.252 128.706 528.908 128.898C528.57 129.091 528.304 129.372 528.111 129.742C527.924 130.107 527.827 130.547 527.822 131.063ZM544.633 126V128.5H537.227V126H544.633ZM538.922 138V125.133C538.922 124.263 539.091 123.542 539.43 122.969C539.773 122.396 540.242 121.966 540.836 121.68C541.43 121.393 542.104 121.25 542.859 121.25C543.37 121.25 543.836 121.289 544.258 121.367C544.685 121.445 545.003 121.516 545.211 121.578L544.617 124.078C544.487 124.036 544.326 123.997 544.133 123.961C543.945 123.924 543.753 123.906 543.555 123.906C543.065 123.906 542.724 124.021 542.531 124.25C542.339 124.474 542.242 124.789 542.242 125.195V138H538.922ZM551.658 138.234C550.445 138.234 549.395 137.977 548.51 137.461C547.63 136.94 546.95 136.216 546.471 135.289C545.992 134.357 545.752 133.276 545.752 132.047C545.752 130.807 545.992 129.724 546.471 128.797C546.95 127.865 547.63 127.141 548.51 126.625C549.395 126.104 550.445 125.844 551.658 125.844C552.872 125.844 553.919 126.104 554.799 126.625C555.684 127.141 556.367 127.865 556.846 128.797C557.325 129.724 557.564 130.807 557.564 132.047C557.564 133.276 557.325 134.357 556.846 135.289C556.367 136.216 555.684 136.94 554.799 137.461C553.919 137.977 552.872 138.234 551.658 138.234ZM551.674 135.656C552.226 135.656 552.687 135.5 553.057 135.188C553.426 134.87 553.705 134.437 553.893 133.891C554.085 133.344 554.182 132.721 554.182 132.023C554.182 131.326 554.085 130.703 553.893 130.156C553.705 129.609 553.426 129.177 553.057 128.859C552.687 128.542 552.226 128.383 551.674 128.383C551.117 128.383 550.648 128.542 550.268 128.859C549.893 129.177 549.609 129.609 549.416 130.156C549.229 130.703 549.135 131.326 549.135 132.023C549.135 132.721 549.229 133.344 549.416 133.891C549.609 134.437 549.893 134.87 550.268 135.188C550.648 135.5 551.117 135.656 551.674 135.656ZM559.729 138V126H562.955V128.094H563.08C563.299 127.349 563.666 126.786 564.182 126.406C564.697 126.021 565.291 125.828 565.963 125.828C566.13 125.828 566.309 125.839 566.502 125.859C566.695 125.88 566.864 125.909 567.01 125.945V128.898C566.854 128.852 566.637 128.81 566.361 128.773C566.085 128.737 565.833 128.719 565.604 128.719C565.114 128.719 564.676 128.826 564.291 129.039C563.911 129.247 563.609 129.539 563.385 129.914C563.166 130.289 563.057 130.721 563.057 131.211V138H559.729ZM568.73 138V126H571.902V128.117H572.043C572.293 127.414 572.71 126.859 573.293 126.453C573.876 126.047 574.574 125.844 575.387 125.844C576.21 125.844 576.91 126.049 577.488 126.461C578.066 126.867 578.452 127.419 578.645 128.117H578.77C579.014 127.43 579.457 126.88 580.098 126.469C580.743 126.052 581.507 125.844 582.387 125.844C583.507 125.844 584.415 126.201 585.113 126.914C585.816 127.622 586.168 128.628 586.168 129.93V138H582.848V130.586C582.848 129.919 582.671 129.419 582.316 129.086C581.962 128.753 581.52 128.586 580.988 128.586C580.384 128.586 579.913 128.779 579.574 129.164C579.236 129.544 579.066 130.047 579.066 130.672V138H575.84V130.516C575.84 129.927 575.671 129.458 575.332 129.109C574.999 128.76 574.559 128.586 574.012 128.586C573.642 128.586 573.309 128.68 573.012 128.867C572.72 129.049 572.488 129.307 572.316 129.641C572.145 129.969 572.059 130.354 572.059 130.797V138H568.73ZM592.219 138.227C591.453 138.227 590.771 138.094 590.172 137.828C589.573 137.557 589.099 137.159 588.75 136.633C588.406 136.102 588.234 135.44 588.234 134.648C588.234 133.982 588.357 133.422 588.602 132.969C588.846 132.516 589.18 132.151 589.602 131.875C590.023 131.599 590.503 131.391 591.039 131.25C591.581 131.109 592.148 131.01 592.742 130.953C593.44 130.88 594.003 130.812 594.43 130.75C594.857 130.682 595.167 130.583 595.359 130.453C595.552 130.323 595.648 130.13 595.648 129.875V129.828C595.648 129.333 595.492 128.951 595.18 128.68C594.872 128.409 594.435 128.273 593.867 128.273C593.268 128.273 592.792 128.406 592.438 128.672C592.083 128.932 591.849 129.26 591.734 129.656L588.656 129.406C588.813 128.677 589.12 128.047 589.578 127.516C590.036 126.979 590.628 126.568 591.352 126.281C592.081 125.99 592.924 125.844 593.883 125.844C594.549 125.844 595.188 125.922 595.797 126.078C596.411 126.234 596.956 126.477 597.43 126.805C597.909 127.133 598.286 127.555 598.563 128.07C598.839 128.581 598.977 129.193 598.977 129.906V138H595.82V136.336H595.727C595.534 136.711 595.276 137.042 594.953 137.328C594.63 137.609 594.242 137.831 593.789 137.992C593.336 138.148 592.813 138.227 592.219 138.227ZM593.172 135.93C593.661 135.93 594.094 135.833 594.469 135.641C594.844 135.443 595.138 135.177 595.352 134.844C595.565 134.51 595.672 134.133 595.672 133.711V132.438C595.568 132.505 595.424 132.568 595.242 132.625C595.065 132.677 594.865 132.727 594.641 132.773C594.417 132.815 594.193 132.854 593.969 132.891C593.745 132.922 593.542 132.951 593.359 132.977C592.969 133.034 592.628 133.125 592.336 133.25C592.044 133.375 591.818 133.544 591.656 133.758C591.495 133.966 591.414 134.227 591.414 134.539C591.414 134.992 591.578 135.339 591.906 135.578C592.24 135.812 592.661 135.93 593.172 135.93ZM607.941 126V128.5H600.715V126H607.941ZM602.355 123.125H605.684V134.312C605.684 134.62 605.73 134.859 605.824 135.031C605.918 135.198 606.048 135.315 606.215 135.383C606.387 135.451 606.585 135.484 606.809 135.484C606.965 135.484 607.121 135.471 607.277 135.445C607.434 135.414 607.553 135.391 607.637 135.375L608.16 137.852C607.993 137.904 607.759 137.964 607.457 138.031C607.155 138.104 606.788 138.148 606.355 138.164C605.553 138.195 604.85 138.089 604.246 137.844C603.647 137.599 603.181 137.219 602.848 136.703C602.514 136.187 602.35 135.536 602.355 134.75V123.125ZM610.109 138V126H613.438V138H610.109ZM611.781 124.453C611.286 124.453 610.862 124.289 610.508 123.961C610.159 123.628 609.984 123.229 609.984 122.766C609.984 122.307 610.159 121.914 610.508 121.586C610.862 121.253 611.286 121.086 611.781 121.086C612.276 121.086 612.698 121.253 613.047 121.586C613.401 121.914 613.578 122.307 613.578 122.766C613.578 123.229 613.401 123.628 613.047 123.961C612.698 124.289 612.276 124.453 611.781 124.453ZM621.525 138.234C620.312 138.234 619.262 137.977 618.377 137.461C617.497 136.94 616.817 136.216 616.338 135.289C615.859 134.357 615.619 133.276 615.619 132.047C615.619 130.807 615.859 129.724 616.338 128.797C616.817 127.865 617.497 127.141 618.377 126.625C619.262 126.104 620.312 125.844 621.525 125.844C622.739 125.844 623.786 126.104 624.666 126.625C625.551 127.141 626.234 127.865 626.713 128.797C627.192 129.724 627.432 130.807 627.432 132.047C627.432 133.276 627.192 134.357 626.713 135.289C626.234 136.216 625.551 136.94 624.666 137.461C623.786 137.977 622.739 138.234 621.525 138.234ZM621.541 135.656C622.093 135.656 622.554 135.5 622.924 135.188C623.294 134.87 623.572 134.437 623.76 133.891C623.952 133.344 624.049 132.721 624.049 132.023C624.049 131.326 623.952 130.703 623.76 130.156C623.572 129.609 623.294 129.177 622.924 128.859C622.554 128.542 622.093 128.383 621.541 128.383C620.984 128.383 620.515 128.542 620.135 128.859C619.76 129.177 619.476 129.609 619.283 130.156C619.096 130.703 619.002 131.326 619.002 132.023C619.002 132.721 619.096 133.344 619.283 133.891C619.476 134.437 619.76 134.87 620.135 135.188C620.515 135.5 620.984 135.656 621.541 135.656ZM632.924 131.063V138H629.596V126H632.768V128.117H632.908C633.174 127.419 633.619 126.867 634.244 126.461C634.869 126.049 635.627 125.844 636.518 125.844C637.351 125.844 638.077 126.026 638.697 126.391C639.317 126.755 639.799 127.276 640.143 127.953C640.486 128.625 640.658 129.427 640.658 130.359V138H637.33V130.953C637.335 130.219 637.148 129.646 636.768 129.234C636.387 128.818 635.864 128.609 635.197 128.609C634.749 128.609 634.354 128.706 634.01 128.898C633.671 129.091 633.406 129.372 633.213 129.742C633.025 130.107 632.929 130.547 632.924 131.063ZM518.938 198V182H528.594V183.719H520.875V189.125H528.094V190.844H520.875V196.281H528.719V198H518.938ZM531.836 198V186H533.617V187.812H533.742C533.961 187.219 534.357 186.737 534.93 186.367C535.503 185.997 536.148 185.812 536.867 185.812C537.003 185.812 537.172 185.815 537.375 185.82C537.578 185.826 537.732 185.833 537.836 185.844V187.719C537.773 187.703 537.63 187.68 537.406 187.648C537.188 187.612 536.956 187.594 536.711 187.594C536.128 187.594 535.607 187.716 535.148 187.961C534.695 188.201 534.336 188.534 534.07 188.961C533.81 189.383 533.68 189.865 533.68 190.406V198H531.836ZM540.021 198V186H541.803V187.812H541.928C542.146 187.219 542.542 186.737 543.115 186.367C543.688 185.997 544.334 185.812 545.053 185.812C545.188 185.812 545.357 185.815 545.561 185.82C545.764 185.826 545.917 185.833 546.021 185.844V187.719C545.959 187.703 545.816 187.68 545.592 187.648C545.373 187.612 545.141 187.594 544.896 187.594C544.313 187.594 543.792 187.716 543.334 187.961C542.881 188.201 542.521 188.534 542.256 188.961C541.995 189.383 541.865 189.865 541.865 190.406V198H540.021ZM552.717 198.25C551.633 198.25 550.683 197.992 549.865 197.477C549.053 196.961 548.417 196.24 547.959 195.312C547.506 194.385 547.279 193.302 547.279 192.062C547.279 190.812 547.506 189.721 547.959 188.789C548.417 187.857 549.053 187.133 549.865 186.617C550.683 186.102 551.633 185.844 552.717 185.844C553.8 185.844 554.748 186.102 555.561 186.617C556.378 187.133 557.014 187.857 557.467 188.789C557.925 189.721 558.154 190.812 558.154 192.062C558.154 193.302 557.925 194.385 557.467 195.312C557.014 196.24 556.378 196.961 555.561 197.477C554.748 197.992 553.8 198.25 552.717 198.25ZM552.717 196.594C553.54 196.594 554.217 196.383 554.748 195.961C555.279 195.539 555.673 194.984 555.928 194.297C556.183 193.609 556.311 192.865 556.311 192.062C556.311 191.26 556.183 190.513 555.928 189.82C555.673 189.128 555.279 188.568 554.748 188.141C554.217 187.714 553.54 187.5 552.717 187.5C551.894 187.5 551.217 187.714 550.686 188.141C550.154 188.568 549.761 189.128 549.506 189.82C549.251 190.513 549.123 191.26 549.123 192.062C549.123 192.865 549.251 193.609 549.506 194.297C549.761 194.984 550.154 195.539 550.686 195.961C551.217 196.383 551.894 196.594 552.717 196.594ZM560.969 198V186H562.75V187.812H562.875C563.094 187.219 563.49 186.737 564.063 186.367C564.635 185.997 565.281 185.812 566 185.812C566.135 185.812 566.305 185.815 566.508 185.82C566.711 185.826 566.865 185.833 566.969 185.844V187.719C566.906 187.703 566.763 187.68 566.539 187.648C566.32 187.612 566.089 187.594 565.844 187.594C565.26 187.594 564.74 187.716 564.281 187.961C563.828 188.201 563.469 188.534 563.203 188.961C562.943 189.383 562.813 189.865 562.813 190.406V198H560.969ZM518.063 333.719V332H530.062V333.719H525.031V348H523.094V333.719H518.063ZM534.701 348.281C533.941 348.281 533.251 348.138 532.631 347.852C532.011 347.56 531.519 347.141 531.154 346.594C530.79 346.042 530.607 345.375 530.607 344.594C530.607 343.906 530.743 343.349 531.014 342.922C531.285 342.49 531.646 342.151 532.1 341.906C532.553 341.661 533.053 341.479 533.6 341.359C534.152 341.234 534.706 341.135 535.264 341.063C535.993 340.969 536.584 340.898 537.037 340.852C537.495 340.799 537.829 340.714 538.037 340.594C538.251 340.474 538.357 340.266 538.357 339.969V339.906C538.357 339.135 538.146 338.536 537.725 338.109C537.308 337.682 536.675 337.469 535.826 337.469C534.946 337.469 534.256 337.661 533.756 338.047C533.256 338.432 532.904 338.844 532.701 339.281L530.951 338.656C531.264 337.927 531.68 337.359 532.201 336.953C532.727 336.542 533.3 336.255 533.92 336.094C534.545 335.927 535.16 335.844 535.764 335.844C536.149 335.844 536.592 335.891 537.092 335.984C537.597 336.073 538.084 336.258 538.553 336.539C539.027 336.82 539.42 337.245 539.732 337.812C540.045 338.38 540.201 339.141 540.201 340.094V348H538.357V346.375H538.264C538.139 346.635 537.93 346.914 537.639 347.211C537.347 347.508 536.959 347.76 536.475 347.969C535.99 348.177 535.399 348.281 534.701 348.281ZM534.982 346.625C535.712 346.625 536.326 346.482 536.826 346.195C537.331 345.909 537.712 345.539 537.967 345.086C538.227 344.633 538.357 344.156 538.357 343.656V341.969C538.279 342.062 538.107 342.148 537.842 342.227C537.581 342.299 537.279 342.365 536.936 342.422C536.597 342.474 536.266 342.521 535.943 342.562C535.626 342.599 535.368 342.63 535.17 342.656C534.691 342.719 534.243 342.82 533.826 342.961C533.415 343.096 533.081 343.302 532.826 343.578C532.576 343.849 532.451 344.219 532.451 344.687C532.451 345.328 532.688 345.812 533.162 346.141C533.641 346.464 534.248 346.625 534.982 346.625ZM548.41 352.75C547.52 352.75 546.754 352.635 546.113 352.406C545.473 352.182 544.939 351.885 544.512 351.516C544.09 351.151 543.754 350.76 543.504 350.344L544.973 349.313C545.139 349.531 545.35 349.781 545.605 350.062C545.861 350.349 546.21 350.596 546.652 350.805C547.1 351.018 547.686 351.125 548.41 351.125C549.379 351.125 550.178 350.891 550.809 350.422C551.439 349.953 551.754 349.219 551.754 348.219V345.781H551.598C551.462 346 551.27 346.271 551.02 346.594C550.775 346.911 550.421 347.195 549.957 347.445C549.499 347.69 548.879 347.812 548.098 347.812C547.129 347.812 546.259 347.583 545.488 347.125C544.723 346.667 544.116 346 543.668 345.125C543.225 344.25 543.004 343.187 543.004 341.937C543.004 340.708 543.22 339.638 543.652 338.727C544.085 337.81 544.686 337.102 545.457 336.602C546.228 336.096 547.118 335.844 548.129 335.844C548.91 335.844 549.53 335.974 549.988 336.234C550.452 336.49 550.806 336.781 551.051 337.109C551.301 337.432 551.493 337.698 551.629 337.906H551.816V336H553.598V348.344C553.598 349.375 553.363 350.214 552.895 350.859C552.431 351.51 551.806 351.987 551.02 352.289C550.238 352.596 549.368 352.75 548.41 352.75ZM548.348 346.156C549.087 346.156 549.712 345.987 550.223 345.648C550.733 345.31 551.121 344.823 551.387 344.188C551.652 343.552 551.785 342.792 551.785 341.906C551.785 341.042 551.655 340.279 551.395 339.617C551.134 338.956 550.749 338.437 550.238 338.062C549.728 337.687 549.098 337.5 548.348 337.5C547.566 337.5 546.915 337.698 546.395 338.094C545.879 338.49 545.491 339.021 545.23 339.688C544.975 340.354 544.848 341.094 544.848 341.906C544.848 342.74 544.978 343.477 545.238 344.117C545.504 344.753 545.895 345.253 546.41 345.617C546.931 345.977 547.577 346.156 548.348 346.156Z" fill="black"/>
</svg>
