<svg viewBox="0 0 1410 742" fill="none" xmlns="http://www.w3.org/2000/svg">
<path style="mix-blend-mode:screen" d="M925.096 600.411C1120.98 600.411 1279.77 457.498 1279.77 281.205C1279.77 104.913 1120.98 -38 925.096 -38C729.216 -38 570.424 104.913 570.424 281.205C570.424 457.498 729.216 600.411 925.096 600.411Z" fill="url(#paint0_radial_1_5)"/>
<path d="M126.5 243.1H124.3L115 339.7H240L240.9 329.7H154.5L161.9 253.1H248.2L249.1 243.1H126.5ZM261.6 339.8H300.2L309.7 243H271.1L261.6 339.8ZM414 283H327.2L321.6 339.8H446.9L452.5 283H414ZM409.5 329.8H361.3L364.9 293.1H413.1L409.5 329.8ZM555.9 329.8H507.7L512.3 283.1H473.7L468.1 339.9H593.4L599 283.1H560.4L555.9 329.8ZM706.9 283H620.2L614.6 339.8H739.9L749.2 243.2H710.6L706.9 283ZM702.4 329.8H654.2L657.8 293.1H705.9L702.4 329.8ZM870.5 243.1L836.2 276.3L808.9 243.1H770.3L761 339.7H799.6L805.8 275.4L819.7 292.3H849.4L867.5 274.8L861.3 339.7H899.9L909.2 243.1H870.5ZM927 339.8H965.6L971 283H932.4L927 339.8ZM934.7 259H973.3L974.8 243H936.1L934.7 259ZM985.8 339.8H1024.4L1033.9 243H995.3L985.8 339.8ZM1175.8 283H1051.4L1045.8 339.8H1169L1169.9 329.8H1085.4L1086.9 314.9H1173.7L1176.7 283H1175.8ZM1136 304.9H1087.9L1089.1 293H1137.2L1136 304.9Z" fill="white"/>
<path d="M299.4 380.2H236.2L233.7 406H278.4L276.5 425H231.6L231 430.2H296L298.9 400.8H254.2L255.7 385.4H280.5L279.8 392.7H299.8L301 380.3L299.4 380.2ZM354.8 400.8H309.8L306.9 430.2H371.9L374.8 400.8H354.8ZM352.5 425H327.5L329.4 406H354.4L352.5 425ZM407.9 380H387.9L383 430.2H403L407.9 380ZM459 430.2H479L481.9 400.8H461.9L459.5 425H434.5L436.9 400.8H416.9L414 430.2H459ZM494.6 430.2H525.7L526.2 425H515.1L516.9 406H528.1L528.6 400.8H517.5L518.7 387.7H498.7L497.5 400.8H493L492.4 406H497L494.6 430.2ZM560.2 400.8H540.2L537.4 430.2H557.4L560.2 400.8ZM562.1 380H542.1L541.3 388.3H561.3L562.1 380ZM612.7 430.2H632.7L635.6 400.8H570.6L567.7 430.2H612.7ZM590.1 405.9H615.1L613.2 424.9H588.2L590.1 405.9ZM666 405.9H691L688.6 430.1H708.6L711.5 400.7H646.5L643.6 430.1H663.6L666 405.9ZM783.3 430.2H784.5L786.2 412.1H741.5L742.1 406H786.4L786.9 400.8H722.6L721.1 417.3H765.8L765.1 425H720.2L719.6 430.2H783.3ZM906.2 380.1H848.5L844.1 425L843.6 430.2H904.6L910.9 412.9L912.4 397.4L909.5 380.1H906.2ZM891 412.9L886.6 425H864.2L868.1 385.3H890.6L892.6 397.4L891 412.9ZM967.4 400.8H923.1L922.6 406H966.9L966.3 412.1H921.2L919.5 430.2H984.4L987.3 400.8H967.4ZM965 425H939.9L940.6 417.3H965.7L965 425ZM1043.2 400.8L1040.8 425H1015.8L1018.2 400.8H998.2L995.3 430.2H1040.3L1039.6 437H1005.5L1004.9 442.2H1059.1L1063.1 400.8H1043.2Z" fill="white"/>
<g filter="url(#filter0_d_1_5)">
<path d="M490.7 560H505L505.4 557.7H542.7L542.3 560H556.6L558.5 550.2H552.6C553.1 549.3 553.7 548.3 554.1 547.4L555.4 544.8H541.2C540.5 546.7 539.5 548.5 538.4 550.2H533L534.3 543.8H519.8L518.5 550.2H514C513.8 549.1 513.5 548.1 513.3 547.2C513.1 546.2 512.8 545.4 512.7 544.8H498.1C498.3 545.7 498.6 546.6 498.8 547.5C499 548.4 499.3 549.3 499.5 550.2H492.7L490.7 560ZM491.3 574.8H550.7L553.4 560.9H494L491.3 574.8ZM506.1 566.6H539.3L538.8 569H505.6L506.1 566.6ZM482.9 594.1L481.6 601H507.2C506.6 602.1 505.8 603.1 505 604.1C504.1 605.1 503.1 606 501.9 606.9H518.4C519.2 606.1 520 605.2 520.7 604.2C521.4 603.2 522 602.1 522.6 601H549.3L550.6 594.1H524.5L524.9 592.2H549.6L550.9 585.5H526.2L526.6 583.3L549 583L550.3 576.1L489.8 577L488.5 583.9L511.6 583.6L511.2 585.6H486.4L485.1 592.3H509.9L509.5 594.2H482.9V594.1ZM596.6 602C597.3 600.1 598 598.1 598.7 596C599.4 593.9 600 591.8 600.6 589.6C601.2 587.4 601.6 585.4 602 583.5L606 563.2H640.8L644.4 544.7H598.7L591.1 583.5C590.7 585.4 590.2 587.5 589.6 589.7C589 591.9 588.3 594 587.6 596.1C586.9 598.2 586 600.1 585.1 602C584.2 603.9 583.3 605.4 582.3 606.7H594.6C595.2 605.5 595.9 603.9 596.6 602ZM608.1 552.8H631.2L630.7 555.3H607.6L608.1 552.8ZM634.2 595.1L635.9 586.7H624.9L625.4 584.2H637.9C637.8 583.6 637.7 582.8 637.5 581.9C637.3 581 637.1 580 636.9 579C636.6 578 636.4 576.9 636 575.9C635.7 574.9 635.4 573.9 635.1 573H638.2L639.7 565.2H607.2L605.7 573H612C611.2 574.1 610.3 575.2 609.4 576.4C608.5 577.6 607.6 578.6 606.7 579.7C605.9 580.7 605.1 581.7 604.4 582.5C603.7 583.3 603.1 583.9 602.7 584.4H615.2L614.7 586.9H603.1L601.4 595.3H613L612.4 598.6H599.4L597.8 607H632.9L634.5 598.6H622.5L623.1 595.3H634.2V595.1ZM618.6 576.4C618.9 576 619.3 575.6 619.8 575C620.3 574.4 620.8 573.8 621.4 573H625.7L626.6 576.4H618.6ZM581.9 599.5C582.9 596.5 583.8 593.2 584.5 589.5L585.6 583.8L589.3 583.1L591.3 572.9L587.6 573.6L589.9 561.9H593.7L595.6 552H591.8L593.4 543.7H581.5L579.9 552H574.1L572.2 561.9H578L575.3 575.9L569.3 577L567.3 587.2L573.3 586.1L572.6 589.6C571.8 593.3 570.8 596.5 569.6 599.2C568.4 601.9 566.8 604.4 564.9 606.8H578.4C579.7 604.9 580.8 602.5 581.9 599.5ZM700.7 603.3L695.1 548.8H671.9L644.9 603.3H661.4L666.3 592.7H683.3L684 603.3H700.7ZM671.4 581.7L681.1 560.6H681.3L682.7 581.7H671.4ZM738.8 548.7H723.6L712.9 603.3H728.1L738.8 548.7ZM798.9 581.5H767.1L763.3 601H795.1L798.9 581.5ZM785.2 593.3H776.2L777 589.4H786L785.2 593.3ZM802.1 580.4C801.9 579.7 801.7 578.9 801.4 578.1C801.1 577.3 800.9 576.4 800.6 575.6C800.3 574.8 800 573.9 799.7 573.1C799.4 572.3 799 571.6 798.7 571H786.2C786.9 572.6 787.5 574.2 788 575.8C788.5 577.5 788.8 579 789.1 580.4H802.1ZM779.5 578.4C780.3 577.6 781 576.7 781.6 575.8C782.3 574.9 782.9 574 783.4 573.2C784 572.3 784.4 571.5 784.7 570.9H772.1C771.6 571.6 771 572.4 770.3 573.2C769.6 574 768.9 574.9 768.2 575.8C767.4 576.7 766.7 577.5 765.9 578.4C765.1 579.2 764.4 580 763.8 580.6H777.3L779.5 578.4ZM780.8 546.7H755.1L753.2 556.2H767L767.2 560.7H754.1L745.1 606.8H758.4L765.6 570H804.8L800.2 593.3C800 594.1 799.8 595.1 799.6 596.3C799.4 597.5 799 598.7 798.6 599.9C798.2 601.1 797.6 602.4 797 603.6C796.3 604.8 795.5 605.9 794.6 606.8H809.4C810.4 604.9 811.3 602.7 812 600.3C812.7 597.9 813.3 595.6 813.9 593.3L820.3 560.7H807.2C807.7 560 808.2 559.3 808.6 558.5C809.1 557.7 809.5 557 809.9 556.2H822.2L824.1 546.7H798C797.7 545.6 797.3 544.6 796.8 543.7H780.3L780.8 546.7ZM795 556.3C794.5 557.1 794 557.9 793.4 558.6C792.9 559.4 792.4 560.1 791.9 560.7H782.5L782.2 556.2H795V556.3ZM905.5 548.8H899.8L901.9 544.5H895.3C894.3 546.7 893.3 548.7 892.2 550.7C891.1 552.7 889.9 554.8 888.4 557C888.4 554.4 888.5 552.1 888.6 549.8C888.7 547.6 888.8 545.5 888.9 543.7H879.4L879.1 549.1H873.9C874.4 548.3 874.8 547.6 875.2 546.8C875.6 546.1 876 545.4 876.4 544.7H869.3C868.2 546.9 867 549 865.8 550.9C864.6 552.9 863.1 555.2 861.2 557.8L862.5 550.9H855.1L856.5 543.7H848L846.6 550.9H838.1L836.3 560.1H844.8L835.7 606.7H844.2L853.3 560.1H860.7L861 558.7H866.9C865.5 560.8 864 562.9 862.4 565C860.8 567.1 859.3 569 857.9 570.8L859.2 562.2H853.5C852.7 567.6 851.8 573.1 850.8 578.8C849.8 584.5 848.7 590.5 847.5 596.9H853.4C854.2 592.5 854.9 588.1 855.7 583.8C856.5 579.5 857.2 575.3 857.8 571.1H877.8C878 568.9 878.2 566.8 878.4 564.9C878.6 562.9 878.7 561 878.9 559.1V566.7C878.9 569.3 879.1 572 879.2 574.7H872.6L873.1 572.4H863.1L862.6 574.7H858L856.4 582.9H860.4C859.1 587.4 857.5 591.8 855.7 595.9C853.9 600 851.8 603.7 849.6 606.8H860.5C861.9 604.7 863.2 602.3 864.5 599.6C865.7 596.9 866.9 593.9 868 590.8C868.3 592.6 868.6 594.3 868.9 596C869.2 597.7 869.4 599.5 869.6 601.4H875C872.4 603.6 870.1 605.5 868.1 606.9H880.5C881.2 606.4 881.9 605.9 882.6 605.3C883.3 604.7 884.1 604.1 884.9 603.4C885.3 604.5 885.8 605.7 886.5 607H897.4C896.5 605.1 895.7 603.2 895 601.2C894.3 599.3 893.7 597.3 893 595.3C894.6 593.5 896.1 591.7 897.5 589.9C898.9 588 900.1 586.3 901 584.5H891.4L890.6 585.6L890.2 583.2H901.1L902.7 575H900.3C900.2 574.4 900.2 573.7 900.1 573.1C900.1 572.5 900 572 900 571.6H890.9L891.1 575H889L888.6 570.4H903.5C903.6 569.2 903.8 568.1 903.9 567.1C904 566.1 904.1 565 904.2 564C904.3 563 904.4 561.9 904.5 560.9C904.6 559.8 904.6 558.7 904.7 557.5H900.7C901.5 556 902.3 554.6 903.1 553.2C904.1 551.4 904.8 550.1 905.5 548.8ZM873.1 563.6H871L873.4 559.9L873.1 563.6ZM879.1 554.5C879.1 556 879 557.5 879 559.1H873.9C874.8 557.7 875.7 556.2 876.5 554.7C877.4 553.2 878.2 551.7 879.1 550.2V554.5ZM880.5 596.6C879.9 597.2 879.3 597.8 878.6 598.3C878.5 597.1 878.3 596 878.2 594.9C878.1 593.8 877.9 592.8 877.7 591.8C877.5 590.8 877.3 589.7 877 588.7C876.7 587.7 876.4 586.5 876.1 585.3H870.1L870.8 582.8H880.2C880.7 586.9 881.4 590.9 882.3 594.8C881.7 595.5 881.1 596.1 880.5 596.6ZM891.4 562C890.6 563.3 889.7 564.6 888.7 565.9L888.5 558.1H893.8C893 559.4 892.2 560.7 891.4 562ZM899.2 561.3C899.2 561.8 899.1 562.3 899.1 562.8H897.5C897.8 562.3 898.1 561.8 898.4 561.3C898.7 560.8 899 560.3 899.3 559.8C899.3 560.4 899.3 560.9 899.2 561.3ZM836.7 594.3C837.6 590.8 838.4 587.2 839.2 583.6C840 580 840.7 576.4 841.5 572.8C842.2 569.2 842.9 565.7 843.6 562.2H837.1C836.5 565.4 835.7 568.9 834.8 572.6C833.9 576.3 833 580 832.1 583.7C831.2 587.4 830.3 591 829.3 594.6C828.3 598.1 827.5 601.4 826.6 604.4H834.1C835 601.2 835.8 597.9 836.7 594.3ZM489.6 621.2C490.3 619.4 490.9 617.8 491.3 616.5H483.3C482.9 617.6 482.4 619 481.8 620.7C481.2 622.4 480.5 624.2 479.7 626C478.9 627.9 478.1 629.7 477.2 631.5C476.3 633.3 475.4 634.9 474.6 636.2H477.8L473.9 656.3H481.5L487.3 626.7C488.2 624.9 489 623 489.6 621.2ZM501.4 625.5H521.6L523 618.5H504.8C505 618.1 505.2 617.7 505.3 617.3C505.5 616.9 505.6 616.5 505.8 616.2H498.8L497.7 618.5H491.7L490.3 625.5H494.1C493.1 627.3 492 629.2 490.9 631C489.8 632.8 488.5 634.8 487.2 636.8H491L487.8 653.2H494.4L497.5 637.3H501.2L497.5 656.4H504.1L507.8 637.3H511.6L510.6 642.4C510.5 643.1 510.3 643.9 510.1 644.7C509.9 645.5 509.6 646.4 509.2 647.3C508.8 648.2 508.4 649.1 507.8 650C507.2 650.9 506.6 651.9 505.8 652.8H513.5C513.9 652.2 514.3 651.5 514.6 650.6C515 649.7 515.3 648.8 515.6 647.9C515.9 647 516.2 646 516.4 645.1C516.6 644.1 516.9 643.2 517 642.4L519.4 630.4H509.1L509.8 626.8H503.2L502.5 630.4H498.7C499.2 629.6 499.6 628.8 500.1 628C500.6 627.2 501 626.3 501.4 625.5ZM573.5 630.4L576.1 617.1H535.2L530.2 642.7C529.8 644.7 529.4 646.4 528.9 647.9C528.4 649.3 528 650.6 527.5 651.6C527 652.7 526.5 653.6 526 654.3C525.5 655 525 655.7 524.6 656.4H534.5C535 655.8 535.4 655.1 535.8 654.5C536.2 653.8 536.6 653 537 652C537.4 651 537.8 649.8 538.2 648.3C538.6 646.8 539 645 539.4 642.7L540.3 638H563.5L561.4 648.6C561.1 650.2 560.6 651.6 559.9 652.8C559.2 654 558.1 655.2 556.6 656.4H566.7C567.4 655.8 568.1 654.9 568.7 653.7C569.4 652.5 569.9 650.8 570.4 648.6L573.7 631.9H541.5L541.8 630.4H573.5ZM543.2 622.9H565.9L565.5 624.7H542.8L543.2 622.9ZM561.1 639.6H541.6L538.9 653.3H558.4L561.1 639.6ZM551.6 648H547.9L548.5 644.8H552.2L551.6 648ZM612 654.6C612.6 653.9 613.2 653.1 613.8 652.3C614 653.1 614.3 653.8 614.5 654.6C614.7 655.3 615 656 615.2 656.5H623.2C622.6 654.7 622 652.8 621.3 650.7C620.6 648.6 620 646.4 619.4 644C621 641.3 622.6 638.3 624.1 635.1C625.6 631.9 627 628.5 628.1 625H629.5L630.7 619H618.9C619.1 618.5 619.2 618 619.4 617.6C619.5 617.1 619.7 616.7 619.8 616.2H612.8C612.1 618.5 611.2 621.1 610.3 623.8C609.3 626.5 608.3 629.1 607.1 631.6H610.7C610.7 633.8 610.9 635.9 611.1 637.9C611.3 639.9 611.6 641.8 611.9 643.7C610.3 646.1 608.7 648.3 607.1 650.3C605.5 652.3 604.1 654 602.9 655.4C602.1 654.8 601.2 654.2 600.4 653.6C599.6 653 598.7 652.4 597.9 651.8C599.7 650.5 601.4 649 602.9 647.4C604.4 645.8 605.7 644 606.6 642.1H594.6L595.1 641.1H606.2L608 632H599.1L599.3 631H607.1L608.1 626H609.3L610 622.4H608.9L609.9 617.5H602.1L602.4 616.1H596.6L596.3 617.5H588.3L587.3 622.4H585.3L584.6 626H586.6L585.6 631H593.6L593.4 632H584.5L582.7 641.1H588.3C588.1 641.5 587.9 641.8 587.7 642.1H581.4L580.4 647H584.5C584.2 647.4 583.9 647.8 583.6 648.1C583.3 648.5 583.1 648.8 582.8 649.1L587.8 652.2C586.2 653 584.6 653.8 582.9 654.5C581.2 655.2 579.6 655.9 578 656.4H589.5C589.9 656.2 590.3 656 590.7 655.9C591.1 655.7 591.6 655.5 592 655.3C592.5 655.7 593 656.1 593.5 656.5H610C610.8 655.9 611.4 655.3 612 654.6ZM617.4 625H621.3C620.8 626.5 620.2 628 619.6 629.5C619 631 618.3 632.4 617.6 633.8C617.3 630.9 617.2 628 617.4 625ZM601.2 621.5H603.2L603 622.5H601L601.2 621.5ZM600.3 626.1H602.3L602.1 627.2H600.1L600.3 626.1ZM598.4 636H601.1L600.9 637.2H598.2L598.4 636ZM593.3 621.5H595.4L595.2 622.5H593.1L593.3 621.5ZM592.2 627.2L592.4 626.1H594.5L594.3 627.2H592.2ZM589.7 637.2L589.9 636H592.6L592.4 637.2H589.7ZM595 648.1C594.6 648.4 594.1 648.8 593.6 649.1L591.3 647.7L591.7 647.1H596.3C595.8 647.4 595.4 647.7 595 648.1ZM683.4 619.6H673.8V616.4H663.9V617.9C663.9 618.4 663.9 619 663.8 619.6H653.9L652.6 626.3H682.1L683.4 619.6ZM644.2 656.5L650.2 626C651.1 624.2 651.8 622.4 652.5 620.8C653.2 619.1 653.8 617.8 654.2 616.7H645.1C644.7 617.7 644.2 619.1 643.5 620.7C642.8 622.4 642 624.1 641.2 626C640.3 627.9 639.4 629.7 638.5 631.6C637.5 633.5 636.6 635.1 635.6 636.4H639.4L635.5 656.5H644.2ZM675.5 639C676.2 637.1 676.9 635.3 677.5 633.6C678.1 631.9 678.7 630.3 679.1 628.9H670.8C670.3 630.4 669.8 632 669.2 633.7C668.6 635.4 667.9 637.2 667.2 639.1C666.5 640.9 665.7 642.8 665 644.6C664.2 646.4 663.5 648.2 662.8 649.8H646.9L645.6 656.5H676.8L678.1 649.8H671.1C671.8 648.2 672.5 646.5 673.3 644.6C674 642.8 674.8 640.9 675.5 639ZM662 638.5C662 636.9 662.1 635.2 662.1 633.6C662.1 632 662.2 630.4 662.2 628.9H654.2C654.1 630.5 654.1 632.2 654 633.9C653.9 635.6 653.9 637.3 653.8 639C653.7 640.7 653.6 642.3 653.6 643.8C653.5 645.3 653.4 646.7 653.2 648H661.5C661.6 646.6 661.7 645.1 661.8 643.5C661.9 641.7 661.9 640.1 662 638.5ZM733.1 625.9C733.9 624.6 734.7 623.3 735.4 622C736.1 620.7 736.7 619.7 737.1 618.9H728.6C728.3 619.6 727.8 620.5 727.2 621.5C726.6 622.6 725.8 623.7 725 625C724.2 626.2 723.3 627.5 722.3 628.9C721.3 630.2 720.3 631.5 719.3 632.7H727.9C728.7 631.9 729.5 630.9 730.4 629.7C731.4 628.5 732.3 627.2 733.1 625.9ZM720.2 621.6C720.1 621.2 720 620.7 719.9 620.2C719.8 619.7 719.7 619.2 719.5 618.7C719.3 618.2 719.2 617.7 719.1 617.3C719 616.9 718.8 616.5 718.7 616.2H708.9C709.1 616.9 709.4 617.7 709.6 618.7C709.8 619.7 709.9 620.6 710 621.6H720.2ZM700.4 648.4C701.8 645.6 702.9 642.9 703.9 640.4C704.9 637.9 705.7 635.6 706.2 633.7C706.8 631.8 707.2 630.3 707.3 629.5H691.3L690.2 635.3H697.4C696.9 636.7 696.2 638.4 695.3 640.3C694.4 642.2 693.5 644.1 692.4 646C691.4 647.9 690.3 649.8 689.2 651.7C688.1 653.5 687 655.1 686 656.5H695.6C697.5 653.9 699 651.2 700.4 648.4ZM712.8 654.7C713.1 654 713.5 653.3 713.8 652.4C714.1 651.5 714.4 650.5 714.7 649.4C715 648.2 715.3 646.9 715.6 645.3L720.1 622.5H696L694.9 628.3H709.5L706.2 645.3C706 646.2 705.8 647.2 705.6 648.1C705.4 649 705.1 650 704.7 650.9C704.3 651.8 703.8 652.8 703.3 653.7C702.7 654.6 701.9 655.6 701 656.5H711.8C712.1 656 712.5 655.3 712.8 654.7ZM719 650.9C719.3 652.8 719.7 654.7 720.3 656.5H730.4C729.6 654.4 729 652.3 728.6 650.2C728.2 648 727.9 646 727.7 644C727.5 642 727.5 640.2 727.5 638.4C727.5 636.7 727.7 635.2 727.9 634H719.4C719.1 635.7 718.8 637.4 718.7 639.3C718.6 641.2 718.5 643.1 718.6 645.1C718.6 647 718.8 649 719 650.9ZM780.7 652.1H771.7C772.3 652.7 772.9 653.4 773.5 654.3C774.1 655.1 774.6 655.9 775 656.6H784.3C783.7 655.8 783.1 654.9 782.4 654.1C781.8 653.2 781.2 652.6 780.7 652.1ZM739.7 654.2C739.4 655.1 739.1 655.9 738.8 656.5H744.4C744.6 655.9 744.9 655.2 745.2 654.3C745.5 653.4 745.8 652.5 746.1 651.5C746.4 650.5 746.7 649.5 747 648.5C747.3 647.5 747.5 646.5 747.8 645.7H742.4C742.2 646.6 741.9 647.5 741.6 648.5C741.3 649.5 741 650.5 740.7 651.4C740.3 652.3 740 653.3 739.7 654.2ZM741.2 645H759.1V640C759.1 639 759 638.1 759 637.3C759 636.5 758.9 635.8 758.8 635.5H754.7C755.7 633.8 756.6 632.2 757.4 630.7C758.2 629.2 759 627.6 759.8 626H755.9C756.9 624.4 757.7 622.9 758.5 621.3C759.3 619.8 760 618.2 760.7 616.7H752.9C751.8 619.1 750.5 621.6 749 624.3C747.5 627 745.8 629.7 743.9 632.4H748.9C746.6 636.5 744 640.8 741.2 645ZM754 636.5L754.1 639.4H752.2L754 636.5ZM765.8 656.5C766.2 656.2 766.6 655.9 767 655.5C767.5 655.1 767.9 654.7 768.4 654.3C768.9 653.9 769.3 653.5 769.7 653.1L770.8 652H761.6C761.1 652.5 760.4 653 759.7 653.6C759 654.2 758 654.9 756.8 655.8C757 653.9 757.2 652.1 757.4 650.3C757.6 648.5 757.7 646.9 757.8 645.6H753.3C753.3 646.5 753.2 647.4 753.1 648.3C753 649.2 752.9 650.2 752.8 651.1C752.7 652.1 752.6 653 752.5 653.9C752.4 654.8 752.3 655.6 752.1 656.4H765.8V656.5ZM751.6 653.5C751.8 652.4 751.9 651.4 752 650.5C752.1 649.5 752.2 648.6 752.3 647.8C752.4 647 752.5 646.3 752.5 645.7H748.2C748.1 646.4 748 647.2 747.9 648.1C747.8 649.1 747.6 650 747.5 651.1C747.3 652.1 747.2 653.1 747 654.1C746.8 655.1 746.7 655.9 746.5 656.6H751C751.2 655.6 751.4 654.5 751.6 653.5ZM760.8 636.4L757.8 651.5H784L787 636.4H760.8ZM775.9 647.9H767.4L767.6 646.8H776.1L775.9 647.9ZM776.6 644.4H768.1L768.3 643.3H776.8L776.6 644.4ZM777.3 640.9H768.8L769 639.8H777.5L777.3 640.9ZM789.1 626.1H762.7L760.9 635.4H787.3L789.1 626.1ZM769.9 631.6H767.9L768.2 630.2H770.2L769.9 631.6ZM775.9 631.6H773.9L774.2 630.2H776.2L775.9 631.6ZM781.9 631.6H779.9L780.2 630.2H782.2L781.9 631.6ZM791 620.9L791.7 617.1H782.2L782.4 616.2H773.2L773 617.1H763.2L762.4 620.9H772.2L772 621.8H763.8L763.1 625.3H788.9L789.6 621.8H781.4L781.6 620.9H791ZM807.8 646.6C809.3 643.4 810.5 640.3 811.5 637.5H802.7C802.2 638.9 801.6 640.4 800.9 641.9C800.2 643.5 799.5 645.1 798.7 646.7C797.9 648.3 797 650 796.1 651.6C795.2 653.3 794.2 654.9 793.2 656.4H802.7C804.6 653.2 806.3 649.9 807.8 646.6ZM835.8 646.5C835.4 643.4 835.2 640.4 835.2 637.6H826.9C826.8 638.9 826.8 640.3 826.9 641.8C826.9 643.3 827 644.9 827.1 646.5C827.2 648.1 827.4 649.8 827.5 651.5C827.7 653.2 827.8 654.9 828 656.5H837.2C836.7 652.9 836.2 649.6 835.8 646.5ZM841.1 626.3L842.4 619.4H827.2L827.8 616.2H818.4L817.8 619.4H802.6L801.3 626.3H816.5L816 628.8H798.8L797.4 635.8H814.6L810.5 656.6H819.9L824 635.8H841.1L842.5 628.8H825.4L825.9 626.3H841.1ZM884.2 625.3C883.9 626.4 883.4 627.6 882.8 628.9C882.2 630.3 881.5 631.6 880.8 633C880.1 634.4 879.4 635.7 878.6 637C877.8 638.3 877.2 639.4 876.6 640.2H884.3C884.7 639.6 885.1 639 885.5 638.3C885.9 637.6 886.3 636.9 886.7 636.1C886.8 636.8 886.9 637.5 886.9 638.2C887 638.9 887 639.6 887 640.2H894.1C894 639.5 893.9 638.7 893.7 637.8C893.6 636.9 893.4 636 893.3 635.2C893.2 634.4 893 633.5 892.9 632.6C892.8 631.7 892.6 631 892.5 630.4H889.6C890.5 628.5 891.2 626.8 891.7 625.3H884.2ZM879.5 656.4H891.3C889.4 653.9 887.6 651.4 886 648.7C884.4 646 883.1 643.5 882 641.1H876.2L879.4 624.5H896.7L897.9 618.1H880.6L881 616.1H872.2L871.8 618.1H854.3L853.1 624.5H870.6L867.4 641.1H862C861.1 642.2 860.1 643.5 858.9 644.8C857.7 646.1 856.4 647.5 855 648.8C853.6 650.2 852.2 651.5 850.7 652.8C849.2 654.1 847.8 655.3 846.3 656.3H857.4C858.9 655 860.3 653.6 861.8 652.1C863.3 650.6 864.7 649 866 647.3L864.2 656.4H873L874.9 646.9C875.6 648.6 876.3 650.2 877.1 651.8C878 653.5 878.7 655 879.5 656.4ZM857.7 625.4C857.4 626.2 857 627.3 856.4 628.7C855.8 630 855.1 631.4 854.3 632.8C853.5 634.2 852.7 635.6 851.9 637C851.1 638.4 850.4 639.5 849.7 640.4H857.5C857.9 639.8 858.3 639.2 858.8 638.4C859.3 637.6 859.8 636.8 860.3 635.9C860.3 636.7 860.4 637.5 860.4 638.2V640.3H867.2C867.1 638.5 866.9 636.7 866.7 635C866.5 633.2 866.3 631.7 866 630.5H863.1C864.1 628.6 864.8 626.9 865.4 625.4H857.7ZM509.8 689.8C456.8 689.8 413.7 651 413.7 603.3C413.7 555.6 456.8 516.8 509.8 516.8C531.6 516.8 551.8 523.4 567.9 534.5H585.4C565.9 517.2 539.2 506.4 509.7 506.4C450.3 506.4 402 549.9 402 603.3C402 656.7 450.3 700.2 509.7 700.2C541.5 700.2 570.1 687.7 589.9 667.9H573.6C556.7 681.5 534.3 689.8 509.8 689.8ZM542.2 678.7C542.5 678.6 542.8 678.5 543.1 678.4C543.6 678.2 543.8 677.7 543.6 677.3C543.4 676.9 542.8 676.6 542.4 676.8C542.1 676.9 541.8 677 541.5 677.1C541 677.3 540.8 677.8 540.9 678.2C541 678.5 541.4 678.8 541.8 678.8C542 678.8 542.1 678.8 542.2 678.7ZM559.2 668.8L558.4 669.3C558 669.6 557.8 670.1 558.1 670.5C558.3 670.7 558.6 670.9 558.9 670.9C559.1 670.9 559.3 670.9 559.4 670.8L560.2 670.3C560.6 670 560.8 669.5 560.4 669.1C560.2 668.6 559.7 668.5 559.2 668.8ZM551.1 673.2C550.8 673.3 550.5 673.5 550.3 673.6C549.8 673.8 549.6 674.3 549.9 674.8C550.1 675.1 550.4 675.3 550.8 675.3C550.9 675.3 551.1 675.3 551.2 675.2C551.5 675.1 551.8 674.9 552.1 674.8C552.6 674.6 552.7 674.1 552.5 673.6C552.3 673.1 551.5 673 551.1 673.2ZM440.2 553.5C439.8 553.2 439.2 553.3 438.9 553.7C438.7 553.9 438.5 554.2 438.3 554.4C438 554.8 438.1 555.3 438.5 555.6C438.7 555.7 438.9 555.8 439.1 555.8C439.4 555.8 439.7 555.7 439.9 555.5C440.1 555.3 440.3 555 440.5 554.8C440.7 554.4 440.6 553.8 440.2 553.5ZM523.3 683.3H523.4L524.4 683.2C524.9 683.1 525.3 682.7 525.2 682.2C525.1 681.7 524.6 681.4 524.1 681.5L523.2 681.6C522.7 681.7 522.3 682.1 522.4 682.6C522.4 682.9 522.8 683.3 523.3 683.3ZM495.4 683.1H495.6C496.1 683.1 496.5 682.8 496.6 682.4C496.7 681.9 496.3 681.5 495.8 681.4L494.9 681.3C494.4 681.2 493.9 681.5 493.8 682C493.7 682.5 494.1 682.9 494.6 683L495.4 683.1ZM485.5 679.4C485 679.3 484.5 679.5 484.3 680C484.2 680.5 484.4 680.9 485 681.1C485.3 681.2 485.6 681.3 485.9 681.3H486.2C486.6 681.3 487 681 487.1 680.7C487.2 680.2 486.9 679.8 486.4 679.6C486.1 679.5 485.8 679.4 485.5 679.4ZM504.2 682.3C503.7 682.3 503.2 682.6 503.2 683.1C503.2 683.6 503.6 684 504.1 684L505.1 684.1C505.6 684.1 506 683.7 506.1 683.3C506.1 682.8 505.7 682.4 505.2 682.4L504.2 682.3ZM437.9 650.4C437.5 650.7 437.4 651.2 437.7 651.6L438.3 652.3C438.5 652.5 438.8 652.6 439.1 652.6C439.3 652.6 439.5 652.5 439.7 652.4C440.1 652.1 440.2 651.6 439.9 651.2L439.3 650.5C439 650.2 438.4 650.1 437.9 650.4ZM533 681.5C533.3 681.4 533.6 681.3 533.9 681.3C534.4 681.2 534.7 680.7 534.6 680.2C534.5 679.7 533.9 679.5 533.4 679.6L532.5 679.8C532 679.9 531.7 680.4 531.8 680.9C531.9 681.3 532.3 681.5 532.7 681.5H533ZM513.7 682.4C513.2 682.4 512.8 682.8 512.8 683.3C512.8 683.8 513.3 684.1 513.8 684.1H514.8C515.3 684.1 515.7 683.7 515.7 683.2C515.7 682.7 515.2 682.4 514.7 682.4H513.7ZM429.6 635.8C429.4 635.4 428.8 635.2 428.3 635.4C427.8 635.6 427.6 636.1 427.8 636.5C427.9 636.8 428.1 637 428.2 637.3C428.4 637.6 428.7 637.8 429.1 637.8C429.2 637.8 429.4 637.8 429.5 637.7C430 637.5 430.2 637 430 636.5C429.9 636.3 429.8 636.1 429.6 635.8ZM421.4 612.9H421.5C422 612.8 422.4 612.4 422.4 611.9C422.4 611.6 422.3 611.3 422.3 611C422.3 610.5 421.8 610.2 421.3 610.2C420.8 610.2 420.4 610.7 420.4 611.1C420.4 611.4 420.5 611.7 420.5 612C420.6 612.5 421 612.9 421.4 612.9ZM422.1 620.8C422.2 621.2 422.6 621.5 423 621.5H423.2C423.7 621.4 424 620.9 423.9 620.5C423.8 620.2 423.8 619.9 423.7 619.7C423.6 619.2 423.1 618.9 422.6 619C422.1 619.1 421.7 619.6 421.9 620C421.9 620.2 422 620.5 422.1 620.8ZM423.4 584.5C422.9 584.4 422.4 584.7 422.2 585.2C422.1 585.5 422.1 585.8 422 586.1C421.9 586.6 422.2 587 422.7 587.1H422.9C423.3 587.1 423.7 586.8 423.8 586.4C423.9 586.1 423.9 585.8 424 585.6C424.2 585 423.9 584.6 423.4 584.5ZM434.6 560.6C434.1 560.4 433.6 560.5 433.3 560.9C433.1 561.2 433 561.4 432.8 561.7C432.5 562.1 432.7 562.6 433.1 562.9C433.3 563 433.4 563 433.6 563C433.9 563 434.2 562.9 434.4 562.6C434.6 562.4 434.7 562.1 434.9 561.9C435.2 561.4 435.1 560.9 434.6 560.6ZM420 602.5V603.4C420 603.9 420.4 604.2 421 604.2C421.5 604.2 422 603.8 422 603.3V602.5C422 602 421.6 601.6 421 601.6C420.4 601.6 420 602 420 602.5ZM421.3 595.6H421.4C421.9 595.6 422.3 595.3 422.4 594.8C422.4 594.5 422.5 594.2 422.5 594C422.6 593.5 422.2 593.1 421.7 593C421.2 592.9 420.7 593.3 420.6 593.8C420.6 594.1 420.5 594.4 420.5 594.7C420.4 595.1 420.8 595.5 421.3 595.6ZM434 643.4C433.7 643 433.1 642.9 432.7 643.1C432.2 643.3 432.1 643.9 432.4 644.3C432.6 644.6 432.7 644.8 432.9 645.1C433.1 645.4 433.4 645.5 433.7 645.5C433.9 645.5 434 645.5 434.2 645.4C434.7 645.1 434.8 644.6 434.5 644.2C434.4 643.9 434.2 643.7 434 643.4ZM429.9 568.2C429.4 568 428.8 568.2 428.6 568.6C428.5 568.9 428.3 569.1 428.2 569.4C428 569.8 428.2 570.4 428.7 570.5C428.8 570.6 429 570.6 429.1 570.6C429.5 570.6 429.8 570.4 430 570.1C430.1 569.8 430.3 569.6 430.4 569.3C430.6 568.9 430.4 568.4 429.9 568.2ZM476.6 678.5C476.7 678.5 476.8 678.6 477 678.6C477.4 678.6 477.7 678.4 477.9 678.1C478.1 677.7 477.9 677.2 477.4 677C477.1 676.9 476.8 676.8 476.5 676.7C476 676.5 475.4 676.7 475.3 677.2C475.1 677.6 475.3 678.2 475.8 678.3C476 678.2 476.3 678.4 476.6 678.5ZM426.2 576.2C425.7 576 425.2 576.3 425 576.7C424.9 577 424.8 577.3 424.7 577.5C424.5 578 424.8 578.4 425.3 578.6H425.6C426 578.6 426.4 578.4 426.5 578C426.6 577.7 426.7 577.5 426.8 577.2C426.9 576.8 426.7 576.3 426.2 576.2ZM426.2 627.8C426 627.4 425.5 627.1 425 627.2C424.5 627.3 424.2 627.8 424.4 628.3C424.5 628.6 424.6 628.9 424.7 629.1C424.8 629.5 425.2 629.7 425.6 629.7H425.9C426.4 629.5 426.7 629.1 426.5 628.6C426.4 628.4 426.3 628.1 426.2 627.8ZM495.5 525.2L496.4 525.1C496.9 525 497.3 524.6 497.2 524.1C497.1 523.6 496.6 523.3 496.1 523.4L495.1 523.5C494.6 523.6 494.2 524 494.3 524.5C494.4 524.9 494.8 525.2 495.3 525.2H495.5ZM551.8 533.7C551.9 533.8 552.1 533.8 552.3 533.8C552.6 533.8 553 533.6 553.1 533.4C553.3 533 553.2 532.5 552.7 532.2C552.4 532.1 552.1 531.9 551.8 531.8C551.3 531.6 550.8 531.7 550.5 532.2C550.3 532.6 550.4 533.1 550.9 533.4C551.2 533.4 551.5 533.5 551.8 533.7ZM542.3 529.7L543.2 530C543.3 530 543.4 530.1 543.6 530.1C544 530.1 544.3 529.9 544.5 529.6C544.7 529.2 544.5 528.6 544 528.5C543.7 528.4 543.4 528.3 543.1 528.2C542.6 528 542 528.2 541.9 528.7C541.5 529 541.8 529.5 542.3 529.7ZM533.2 527L534.1 527.2H534.4C534.8 527.2 535.2 527 535.3 526.6C535.4 526.1 535.1 525.7 534.6 525.5L533.7 525.3C533.2 525.2 532.7 525.4 532.5 525.9C532.4 526.4 532.7 526.8 533.2 527ZM505 524.2H506C506.5 524.2 506.9 523.8 506.9 523.3C506.9 522.8 506.4 522.4 505.9 522.5H504.9C504.4 522.5 504 522.9 504 523.4C504 523.9 504.4 524.2 505 524.2C504.933 524.2 504.933 524.2 505 524.2ZM523.9 525.1C524.2 525.1 524.5 525.2 524.8 525.2H525C525.5 525.2 525.9 524.9 525.9 524.5C526 524 525.6 523.6 525.1 523.5C524.8 523.4 524.5 523.4 524.1 523.4C523.6 523.3 523.1 523.7 523 524.1C523 524.6 523.4 525.1 523.9 525.1ZM467.8 672.9C467.3 672.7 466.8 672.8 466.5 673.2C466.3 673.6 466.4 674.1 466.9 674.4C467.2 674.5 467.5 674.7 467.8 674.8C467.9 674.9 468.1 674.9 468.3 674.9C468.6 674.9 469 674.7 469.1 674.4C469.3 674 469.2 673.5 468.7 673.2C468.4 673.1 468.1 673 467.8 672.9ZM515.4 524.3C516 524.3 516.4 523.9 516.4 523.5C516.4 523 516 522.6 515.5 522.6L514.6 522.5C514 522.5 513.6 522.8 513.6 523.3C513.6 523.8 514 524.2 514.5 524.2L515.4 524.3ZM485.9 527.1H486.2C486.5 527 486.8 526.9 487.1 526.9C487.6 526.8 487.9 526.3 487.8 525.8C487.7 525.3 487.1 525.1 486.6 525.2C486.3 525.3 486 525.4 485.7 525.4C485.2 525.5 484.9 526 485 526.5C485.1 526.8 485.5 527.1 485.9 527.1ZM445.4 657.1C445 656.7 444.4 656.7 444 657.1C443.6 657.4 443.6 658 444 658.3C444.2 658.5 444.4 658.7 444.7 658.9C444.9 659.1 445.1 659.2 445.4 659.2C445.6 659.2 445.9 659.1 446.1 659C446.5 658.7 446.5 658.1 446.1 657.8C445.8 657.6 445.6 657.3 445.4 657.1ZM450.9 663.2C450.6 663.6 450.6 664.1 451 664.4C451.2 664.6 451.5 664.8 451.7 665C451.9 665.1 452.1 665.2 452.3 665.2C452.6 665.2 452.8 665.1 453 664.9C453.3 664.5 453.3 664 452.9 663.7C452.7 663.5 452.4 663.3 452.2 663.1C451.8 662.8 451.2 662.8 450.9 663.2ZM476.5 528.2C476 528.4 475.8 528.9 476 529.3C476.2 529.6 476.5 529.8 476.9 529.8C477 529.8 477.1 529.8 477.3 529.7L478.2 529.4C478.7 529.2 478.9 528.7 478.7 528.3C478.5 527.8 478 527.6 477.5 527.8C477.1 528 476.8 528.1 476.5 528.2ZM446.6 547.1C446.2 546.8 445.6 546.8 445.2 547.1C445 547.3 444.7 547.5 444.5 547.7C444.1 548 444.2 548.6 444.5 548.9C444.7 549.1 444.9 549.1 445.2 549.1C445.5 549.1 445.7 549 445.9 548.8C446.1 548.6 446.3 548.4 446.6 548.2C446.9 547.9 446.9 547.4 446.6 547.1ZM453.7 541.2C453.4 540.8 452.8 540.8 452.3 541.1C452.1 541.3 451.8 541.5 451.6 541.7C451.2 542 451.1 542.6 451.5 542.9C451.7 543.1 452 543.2 452.2 543.2C452.4 543.2 452.6 543.1 452.8 543C453 542.8 453.3 542.6 453.5 542.4C454 542.2 454 541.6 453.7 541.2ZM458.4 668.6C458.1 669 458.2 669.5 458.6 669.8L459.4 670.3C459.6 670.4 459.8 670.4 459.9 670.4C460.2 670.4 460.5 670.3 460.7 670C461 669.6 460.9 669.1 460.4 668.8L459.6 668.3C459.3 668.1 458.7 668.2 458.4 668.6ZM469.8 531.8C469.6 531.4 469 531.2 468.5 531.4L467.6 531.8C467.1 532 467 532.5 467.2 533C467.4 533.3 467.7 533.5 468 533.5C468.2 533.5 468.3 533.5 468.5 533.4L469.3 533C469.9 532.8 470 532.2 469.8 531.8ZM461.5 536.1C461.2 535.7 460.6 535.6 460.2 535.9C459.9 536.1 459.7 536.2 459.4 536.4C459 536.7 458.8 537.2 459.2 537.6C459.4 537.8 459.7 538 460 538C460.2 538 460.4 537.9 460.5 537.9C460.8 537.7 461 537.6 461.3 537.4C461.6 537.1 461.7 536.5 461.5 536.1ZM441.4 683L439.9 681.9L437.5 684.6L439 685.7C443.1 688.6 447.5 691.2 452 693.5L453.7 694.4L455.6 691.4L453.9 690.5C449.6 688.4 445.4 685.8 441.4 683ZM437.2 680C427.5 672.5 419.3 663.7 412.9 653.7L411.9 652.2L408.6 653.9L409.6 655.4C416.2 665.7 424.7 674.8 434.8 682.6L436.3 683.7L438.8 681.1L437.2 680ZM404.3 637.1L403.7 635.5L400.1 636.7L400.7 638.3C401.3 639.8 402 641.4 402.7 642.9L403.4 644.5L407 643.2L406.3 641.6C405.6 640.1 404.9 638.6 404.3 637.1ZM413.7 551.5L410.4 549.8L409.4 551.3C402.8 561.6 398.2 572.8 395.9 584.5L395.6 586.2L399.4 586.8L399.7 585.1C402 573.8 406.4 563 412.8 553L413.7 551.5ZM565.9 690.6C561.5 692.9 557 694.9 552.4 696.6L550.6 697.3L552.1 700.5L553.9 699.8C558.7 698 563.4 695.9 567.9 693.6L569.6 692.7L567.7 689.7L565.9 690.6ZM489.6 702.4L487.7 702.1L487 705.5L488.9 705.8C490.7 706.1 492.5 706.4 494.3 706.6L496.2 706.8L496.7 703.4L494.8 703.2C493.1 703 491.3 702.7 489.6 702.4ZM547.4 698.3C535.4 702.1 522.8 704.1 510 704.1H508.1V707.6H510C523.3 707.6 536.3 705.6 548.7 701.6L550.5 701L549.2 697.7L547.4 698.3ZM511.6 502.5V499H509.7C496.4 499 483.4 501.1 471 505L469.2 505.6L470.5 508.9L472.3 508.3C484.3 504.4 496.9 502.5 509.7 502.5H511.6ZM451.8 513.1L450.1 514L452 517L453.7 516.1C458 513.8 462.6 511.8 467.2 510.1L469 509.4L467.5 506.2L465.7 506.9C461 508.6 456.3 510.7 451.8 513.1ZM395 589.4C394.3 594 394 598.6 394 603.3V605.2H397.8V603.3C397.8 598.8 398.1 594.3 398.8 589.9L399 588.2L395.2 587.7L395 589.4ZM578.2 523.4L579.7 524.5L582 521.8L580.5 520.7C576.4 517.8 572 515.2 567.5 512.9L565.8 512L563.9 515L565.6 515.9C570 518.1 574.2 520.7 578.2 523.4ZM523.3 499.7L522.8 503.1L524.7 503.3C526.4 503.5 528.2 503.8 530 504L531.9 504.3L532.6 500.9L530.7 500.6C528.9 500.3 527.1 500 525.3 499.8L523.3 499.7ZM418.1 539.6L416.9 541L419.9 543.1L421.1 541.7C422.2 540.4 423.3 539.2 424.5 538L425.7 536.7L422.8 534.5L421.6 535.8C420.4 537 419.2 538.3 418.1 539.6ZM602.6 668L598.1 672.7H844.8L849.2 668H602.6ZM853.7 668L849.3 672.7H858.6L863.1 668H853.7ZM862.2 672.7H870.4L874.8 668H866.6L862.2 672.7ZM875.3 672.7H882.3L886.8 668H879.8L875.3 672.7ZM888.2 672.7H894.1L898.6 668H892.7L888.2 672.7Z" fill="white"/>
</g>
<path d="M836.13 276.07L819.608 292.082H849.278L836.13 276.07ZM836.13 276.07L819.608 292.082H849.278L836.13 276.07Z" fill="#FFFF00"/>
<path d="M936.032 242.663L934.542 258.683H973.122L974.612 242.663H936.032Z" fill="#FF9C00"/>
<path d="M154.427 329.46L153.466 339.477H239.883L240.815 329.46H154.427Z" fill="#00FFFF"/>
<path d="M507.61 329.46L506.63 339.477H554.841L555.831 329.46H507.601H507.61Z" fill="#FF1A84"/>
<path d="M1175.54 292.739H1136.99L1135.87 304.599H1174.45L1175.54 292.739Z" fill="#00FF76"/>
<path style="mix-blend-mode:screen" d="M1395.38 451.153C1395.38 458.211 1083.02 463.929 697.696 463.929C312.373 463.929 0 458.203 0 451.153C0 444.103 312.363 438.368 697.687 438.368C1083.01 438.368 1395.37 444.085 1395.37 451.153H1395.38Z" fill="url(#paint1_radial_1_5)"/>
<path style="mix-blend-mode:screen" d="M1409.71 451.499C1409.71 451.499 1115.59 500.901 932.014 500.901C748.435 500.901 454.315 451.499 454.315 451.499C454.315 451.499 748.435 402.097 932.014 402.097C1115.59 402.097 1409.71 451.499 1409.71 451.499Z" fill="url(#paint2_radial_1_5)"/>
<defs>
<filter id="filter0_d_1_5" x="364" y="473" width="571.5" height="268.6" filterUnits="userSpaceOnUse" color-interpolation-filters="sRGB">
<feFlood flood-opacity="0" result="BackgroundImageFix"/>
<feColorMatrix in="SourceAlpha" type="matrix" values="0 0 0 0 0 0 0 0 0 0 0 0 0 0 0 0 0 0 127 0" result="hardAlpha"/>
<feOffset dy="4"/>
<feGaussianBlur stdDeviation="15"/>
<feComposite in2="hardAlpha" operator="out"/>
<feColorMatrix type="matrix" values="0 0 0 0 0.631373 0 0 0 0 0 0 0 0 0 1 0 0 0 1 0"/>
<feBlend mode="normal" in2="BackgroundImageFix" result="effect1_dropShadow_1_5"/>
<feBlend mode="normal" in="SourceGraphic" in2="effect1_dropShadow_1_5" result="shape"/>
</filter>
<radialGradient id="paint0_radial_1_5" cx="0" cy="0" r="1" gradientUnits="userSpaceOnUse" gradientTransform="translate(925.102 281.209) rotate(-138.013) scale(337.405 335.541)">
<stop stop-color="#925BF5"/>
<stop offset="0.05" stop-color="#774AC7"/>
<stop offset="0.09" stop-color="#5D3A9C"/>
<stop offset="0.14" stop-color="#462C77"/>
<stop offset="0.2" stop-color="#332056"/>
<stop offset="0.25" stop-color="#23163B"/>
<stop offset="0.32" stop-color="#160D25"/>
<stop offset="0.4" stop-color="#0C0714"/>
<stop offset="0.49" stop-color="#050308"/>
<stop offset="0.63" stop-color="#010001"/>
<stop offset="1"/>
</radialGradient>
<radialGradient id="paint1_radial_1_5" cx="0" cy="0" r="1" gradientUnits="userSpaceOnUse" gradientTransform="translate(698.001 503.681) scale(698.973 13.1057)">
<stop offset="0.05" stop-color="white"/>
<stop offset="0.1" stop-color="#BBEDFB"/>
<stop offset="0.19" stop-color="#4CCFF6"/>
<stop offset="0.23" stop-color="#20C4F4"/>
<stop offset="0.26" stop-color="#1EB9E6"/>
<stop offset="0.45" stop-color="#137895"/>
<stop offset="0.61" stop-color="#0B4455"/>
<stop offset="0.75" stop-color="#051F27"/>
<stop offset="0.86" stop-color="#01080A"/>
<stop offset="0.92"/>
</radialGradient>
<radialGradient id="paint2_radial_1_5" cx="0" cy="0" r="1" gradientUnits="userSpaceOnUse" gradientTransform="translate(928.425 447.102) scale(411.85 61.3425)">
<stop stop-color="white"/>
<stop offset="0.05" stop-color="#BBEDFB"/>
<stop offset="0.13" stop-color="#4CCFF6"/>
<stop offset="0.17" stop-color="#1FC2F2"/>
<stop offset="0.23" stop-color="#199AC0"/>
<stop offset="0.29" stop-color="#137693"/>
<stop offset="0.35" stop-color="#0E566B"/>
<stop offset="0.42" stop-color="#093B4A"/>
<stop offset="0.49" stop-color="#06252F"/>
<stop offset="0.57" stop-color="#03151A"/>
<stop offset="0.65" stop-color="#01090B"/>
<stop offset="0.76" stop-color="#000202"/>
<stop offset="0.92"/>
</radialGradient>
</defs>
</svg>
