<?xml version="1.0" encoding="UTF-8"?><svg xmlns="http://www.w3.org/2000/svg" xmlns:xlink="http://www.w3.org/1999/xlink" viewBox="0 0 1620 1080"><defs><style>.cls-1,.cls-2,.cls-3,.cls-4,.cls-5,.cls-6,.cls-7,.cls-8,.cls-9,.cls-10{fill:none;}.cls-2{opacity:.7;}.cls-3{clip-path:url(#clippath-3);}.cls-4{clip-path:url(#clippath-2);}.cls-5{clip-path:url(#clippath-1);}.cls-6{isolation:isolate;}.cls-7,.cls-11,.cls-12,.cls-13,.cls-14,.cls-15,.cls-16,.cls-17,.cls-18,.cls-19,.cls-20,.cls-21,.cls-22,.cls-23,.cls-24,.cls-25,.cls-26{mix-blend-mode:color-dodge;}.cls-7,.cls-9{stroke:#f5f8fc;stroke-miterlimit:10;stroke-width:2.16px;}.cls-27{fill:url(#radial-gradient-5);}.cls-27,.cls-28,.cls-29,.cls-30,.cls-31,.cls-32,.cls-33,.cls-34{mix-blend-mode:screen;}.cls-28{fill:url(#radial-gradient-3);}.cls-29{fill:url(#radial-gradient-6);}.cls-30{fill:url(#radial-gradient-4);}.cls-31{fill:url(#radial-gradient-8);}.cls-32{fill:url(#radial-gradient-7);}.cls-33{fill:url(#radial-gradient-2);}.cls-11{fill:url(#linear-gradient-3);}.cls-12{fill:url(#linear-gradient-2);}.cls-13{fill:url(#linear-gradient-4);}.cls-14{fill:url(#linear-gradient-8);}.cls-15{fill:url(#linear-gradient-9);}.cls-16{fill:url(#linear-gradient-7);}.cls-17{fill:url(#linear-gradient-5);}.cls-18{fill:url(#linear-gradient-6);}.cls-8,.cls-35,.cls-36,.cls-37,.cls-38,.cls-39{mix-blend-mode:overlay;}.cls-19{fill:url(#linear-gradient);}.cls-20{fill:url(#linear-gradient-10);}.cls-21{fill:url(#linear-gradient-17);}.cls-22{fill:url(#linear-gradient-19);}.cls-23{fill:url(#linear-gradient-21);}.cls-24{fill:url(#linear-gradient-14);}.cls-25{fill:url(#linear-gradient-20);}.cls-26{fill:url(#linear-gradient-18);}.cls-40{fill:url(#linear-gradient-23);}.cls-40,.cls-41,.cls-42,.cls-43,.cls-44{mix-blend-mode:multiply;}.cls-41{fill:url(#linear-gradient-22);}.cls-42{fill:url(#linear-gradient-25);}.cls-43{fill:url(#linear-gradient-26);}.cls-44{fill:url(#linear-gradient-24);}.cls-34{fill:url(#radial-gradient);}.cls-10{clip-path:url(#clippath);}.cls-35{fill:url(#linear-gradient-11);}.cls-36{fill:url(#linear-gradient-12);}.cls-37{fill:url(#linear-gradient-13);}.cls-38{fill:url(#linear-gradient-16);}.cls-39{fill:url(#linear-gradient-15);}</style><clipPath id="clippath"><rect class="cls-1" width="1620" height="1080" transform="translate(1620 1080) rotate(180)"/></clipPath><radialGradient id="radial-gradient" cx="-3144.6" cy="684.92" fx="-3144.6" fy="684.92" r="449.57" gradientTransform="translate(-2453.11 632.45) rotate(-180)" gradientUnits="userSpaceOnUse"><stop offset="0" stop-color="#9a00ff"/><stop offset="1" stop-color="#000"/></radialGradient><radialGradient id="radial-gradient-2" cx="-3433.97" cy="-249.86" fx="-3433.97" fy="-249.86" r="449.57" gradientTransform="translate(-2453.11 632.45) rotate(-180)" gradientUnits="userSpaceOnUse"><stop offset="0" stop-color="#007bff"/><stop offset="1" stop-color="#000"/></radialGradient><radialGradient id="radial-gradient-3" cx="-4079.52" cy="708.26" fx="-4079.52" fy="708.26" r="426.23" gradientTransform="translate(-2453.11 632.45) rotate(-180)" gradientUnits="userSpaceOnUse"><stop offset="0" stop-color="#ff792a"/><stop offset="1" stop-color="#000"/></radialGradient><radialGradient id="radial-gradient-4" cx="-3110.42" cy="-577.68" fx="-3110.42" fy="-577.68" r="426.23" xlink:href="#radial-gradient-3"/><radialGradient id="radial-gradient-5" cx="-2988.91" cy="646.71" fx="-2988.91" fy="646.71" r="449.57" xlink:href="#radial-gradient-2"/><radialGradient id="radial-gradient-6" cx="-3510.65" cy="614.92" fx="-3510.65" fy="614.92" r="373.85" gradientTransform="translate(-1859.68 -2030.06) rotate(-135)" gradientUnits="userSpaceOnUse"><stop offset="0" stop-color="#0048aa"/><stop offset="1" stop-color="#000"/></radialGradient><radialGradient id="radial-gradient-7" cx="-4084.88" cy="-11.69" fx="-4084.88" fy="-11.69" r="449.57" gradientTransform="translate(-1248.41 -2252.57) rotate(-135)" gradientUnits="userSpaceOnUse"><stop offset="0" stop-color="#0050ff"/><stop offset="1" stop-color="#000"/></radialGradient><radialGradient id="radial-gradient-8" cx="-3398.3" cy="365.28" fx="-3398.3" fy="365.28" r="449.57" gradientTransform="translate(-1716.07 -1877.5) rotate(-135)" gradientUnits="userSpaceOnUse"><stop offset="0" stop-color="#0002ff"/><stop offset="1" stop-color="#000"/></radialGradient><linearGradient id="linear-gradient" x1="-4011.78" y1="-377.21" x2="-3943.69" y2="-316.29" gradientTransform="translate(-2453.11 632.45) rotate(-180)" gradientUnits="userSpaceOnUse"><stop offset="0" stop-color="#fff"/><stop offset="1" stop-color="#000"/></linearGradient><linearGradient id="linear-gradient-2" x1="-3891.29" y1="5.51" x2="-3602.41" y2="294.38" xlink:href="#linear-gradient"/><linearGradient id="linear-gradient-3" x1="-3558.84" y1="337.95" x2="-3357.61" y2="539.18" xlink:href="#linear-gradient"/><linearGradient id="linear-gradient-4" x1="-3588.45" y1="-204.6" x2="-3489.36" y2="-195.98" xlink:href="#linear-gradient"/><linearGradient id="linear-gradient-5" x1="-3583.41" y1="-126.01" x2="-3719.16" y2="9.74" xlink:href="#linear-gradient"/><linearGradient id="linear-gradient-6" x1="-4032.3" y1="45.71" x2="-3931.78" y2="-47.16" gradientTransform="translate(-2453.11 632.45) rotate(-180)" xlink:href="#linear-gradient"/><linearGradient id="linear-gradient-7" x1="-4109.85" y1="-117" x2="-3970.55" y2="53.89" xlink:href="#linear-gradient"/><linearGradient id="linear-gradient-8" x1="-3566.41" y1="228.68" x2="-3397.88" y2="228.68" xlink:href="#linear-gradient"/><linearGradient id="linear-gradient-9" x1="-3727.87" y1="632.06" x2="-3628.78" y2="410.92" xlink:href="#linear-gradient"/><clipPath id="clippath-1"><polygon class="cls-1" points="1349.99 -1.22 1079.99 -1.22 1079.99 268.53 1349.99 -1.22"/></clipPath><linearGradient id="linear-gradient-10" x1="-3708.26" y1="618.5" x2="-3790.12" y2="515.11" xlink:href="#linear-gradient"/><linearGradient id="linear-gradient-11" x1="-3879.75" y1="305.32" x2="-4055.3" y2="480.88" gradientTransform="translate(-2453.11 632.45) rotate(-180)" gradientUnits="userSpaceOnUse"><stop offset="0" stop-color="#fff"/><stop offset="1" stop-color="#fff" stop-opacity="0"/></linearGradient><linearGradient id="linear-gradient-12" x1="-3398.11" y1="-490.07" x2="-3398.11" y2="-69.34" gradientTransform="translate(-2453.11 632.45) rotate(-180)" gradientUnits="userSpaceOnUse"><stop offset="0" stop-color="#fff"/><stop offset=".02" stop-color="#fff" stop-opacity=".95"/><stop offset=".14" stop-color="#fff" stop-opacity=".73"/><stop offset=".25" stop-color="#fff" stop-opacity=".54"/><stop offset=".37" stop-color="#fff" stop-opacity=".37"/><stop offset=".49" stop-color="#fff" stop-opacity=".24"/><stop offset=".61" stop-color="#fff" stop-opacity=".13"/><stop offset=".74" stop-color="#fff" stop-opacity=".06"/><stop offset=".86" stop-color="#fff" stop-opacity=".01"/><stop offset="1" stop-color="#fff" stop-opacity="0"/></linearGradient><linearGradient id="linear-gradient-13" x1="-3385.76" y1="106.01" x2="-3049.73" y2="442.05" gradientTransform="translate(-2453.11 632.45) rotate(-180)" gradientUnits="userSpaceOnUse"><stop offset="0" stop-color="#fff"/><stop offset=".03" stop-color="#fff" stop-opacity=".94"/><stop offset=".14" stop-color="#fff" stop-opacity=".72"/><stop offset=".26" stop-color="#fff" stop-opacity=".53"/><stop offset=".37" stop-color="#fff" stop-opacity=".37"/><stop offset=".49" stop-color="#fff" stop-opacity=".23"/><stop offset=".61" stop-color="#fff" stop-opacity=".13"/><stop offset=".73" stop-color="#fff" stop-opacity=".06"/><stop offset=".86" stop-color="#fff" stop-opacity=".01"/><stop offset="1" stop-color="#fff" stop-opacity="0"/></linearGradient><linearGradient id="linear-gradient-14" x1="-3209.7" y1="398.59" x2="-3131.23" y2="494.85" xlink:href="#linear-gradient"/><linearGradient id="linear-gradient-15" x1="-3057.69" y1="378.19" x2="-2864.72" y2="571.16" gradientTransform="translate(-2453.11 632.45) rotate(-180)" gradientUnits="userSpaceOnUse"><stop offset="0" stop-color="#fff"/><stop offset=".38" stop-color="#fff" stop-opacity=".58"/><stop offset=".68" stop-color="#fff" stop-opacity=".27"/><stop offset=".89" stop-color="#fff" stop-opacity=".07"/><stop offset="1" stop-color="#fff" stop-opacity="0"/></linearGradient><linearGradient id="linear-gradient-16" x1="-3918.88" y1="479.45" x2="-3476.76" y2="37.33" xlink:href="#linear-gradient-11"/><linearGradient id="linear-gradient-17" x1="-3803.11" y1="-59.84" x2="-3803.11" y2="-359.03" xlink:href="#linear-gradient"/><linearGradient id="linear-gradient-18" x1="-4787.71" y1="-4521.38" x2="-4709.24" y2="-4425.11" gradientTransform="translate(-3476.29 5109.89) rotate(90)" xlink:href="#linear-gradient"/><linearGradient id="linear-gradient-19" x1="-3422.74" y1="-201.92" x2="-3344.27" y2="-105.66" gradientTransform="translate(-2396.15 571.67) rotate(-180)" xlink:href="#linear-gradient"/><linearGradient id="linear-gradient-20" x1="-4000.56" y1="-34.46" x2="-3922.1" y2="61.81" gradientTransform="translate(-2433.97 199.4) rotate(-180)" xlink:href="#linear-gradient"/><clipPath id="clippath-2"><polygon class="cls-1" points="810 809.01 1080 809.01 1080 1078.76 810 809.01"/></clipPath><linearGradient id="linear-gradient-21" x1="-3094.26" y1="196.31" x2="-3201.76" y2="299.51" xlink:href="#linear-gradient"/><clipPath id="clippath-3"><polygon class="cls-1" points="540.01 268.76 810.01 268.76 810.01 538.51 540.01 268.76"/></clipPath><linearGradient id="linear-gradient-22" x1="-3603.11" y1="163.7" x2="-3717.56" y2="278.16" gradientTransform="translate(-2453.11 632.45) rotate(-180)" gradientUnits="userSpaceOnUse"><stop offset="0" stop-color="#fff"/><stop offset=".36" stop-color="#9f9ab1"/><stop offset=".67" stop-color="#544b74"/><stop offset=".89" stop-color="#251a4e"/><stop offset="1" stop-color="#140840"/></linearGradient><linearGradient id="linear-gradient-23" x1="-3910.71" y1="-389.49" x2="-3969.96" y2="-220.36" xlink:href="#linear-gradient-22"/><linearGradient id="linear-gradient-24" x1="-3963.38" y1="458.7" x2="-4032.18" y2="349.77" xlink:href="#linear-gradient-22"/><linearGradient id="linear-gradient-25" x1="-3319.5" y1="37.3" x2="-3451.53" y2="-94.73" xlink:href="#linear-gradient-22"/><linearGradient id="linear-gradient-26" x1="-3884.94" y1="275.14" x2="-3983.37" y2="189.14" xlink:href="#linear-gradient-22"/></defs><g class="cls-6"><g id="_圖層_2"><g id="_圖層_1-2"><g class="cls-2"><g class="cls-10"><circle class="cls-34" cx="691.49" cy="-52.47" r="449.57"/><circle class="cls-33" cx="980.86" cy="882.31" r="449.57"/><circle class="cls-28" cx="1626.41" cy="-75.81" r="426.23"/><circle class="cls-30" cx="657.31" cy="1210.13" r="426.23"/><circle class="cls-27" cx="535.8" cy="-14.26" r="449.57"/><circle class="cls-29" cx="1057.54" cy="17.53" r="373.85" transform="translate(297.35 752.93) rotate(-45)"/><circle class="cls-32" cx="1631.77" cy="644.14" r="449.57" transform="translate(22.46 1342.5) rotate(-45)"/><circle class="cls-31" cx="945.19" cy="267.17" r="449.57" transform="translate(87.92 746.6) rotate(-45)"/><path class="cls-19" d="m1350,1078.75v-270h270c0,149.12-120.88,270-270,270h0Z"/><rect class="cls-12" x="1080" y="268.77" width="270" height="269.99"/><rect class="cls-11" x="810" y="-1.23" width="270" height="269.99"/><path class="cls-13" d="m1080,1078.75v-539.99h0c-298.23,0-540,241.76-540,539.99h0s540,0,540,0Z"/><path class="cls-17" d="m1080,538.76c0,149.11,120.88,269.99,270,269.99h0v-269.99h-270Z"/><path class="cls-18" d="m1620,808.76c0-149.11-120.88-269.99-270-269.99h0v269.99h270Z"/><path class="cls-16" d="m1350,808.76c149.12,0,270-120.88,270-269.99v-269.99h-270v539.99h0Z"/><polygon class="cls-14" points="810 268.77 1080 538.76 1080 268.77 810 268.77"/><polygon class="cls-15" points="1079.99 268.76 1079.99 -1.22 1350 268.76 1079.99 268.76"/><g class="cls-5"><g class="cls-8"><line class="cls-9" x1="1079.99" y1="18.03" x2="1349.99" y2="18.03"/><line class="cls-9" x1="1079.99" y1="37.28" x2="1349.99" y2="37.28"/><line class="cls-9" x1="1079.99" y1="56.53" x2="1349.99" y2="56.53"/><line class="cls-9" x1="1079.99" y1="75.78" x2="1349.99" y2="75.78"/><line class="cls-9" x1="1079.99" y1="95.02" x2="1349.99" y2="95.02"/><line class="cls-9" x1="1079.99" y1="114.27" x2="1349.99" y2="114.27"/><line class="cls-9" x1="1079.99" y1="133.52" x2="1349.99" y2="133.52"/><line class="cls-9" x1="1079.99" y1="152.77" x2="1349.99" y2="152.77"/><line class="cls-9" x1="1079.99" y1="172.02" x2="1349.99" y2="172.02"/><line class="cls-9" x1="1079.99" y1="191.26" x2="1349.99" y2="191.26"/><line class="cls-9" x1="1079.99" y1="210.51" x2="1349.99" y2="210.51"/><line class="cls-9" x1="1079.99" y1="229.76" x2="1349.99" y2="229.76"/></g></g><polygon class="cls-20" points="1080 268.76 1349.99 -1.24 1620 -1.24 1620 268.76 1080 268.76"/><polygon class="cls-35" points="1349.99 268.77 1620 -1.24 1620 268.77 1349.99 268.77"/><polygon class="cls-36" points="809.99 808.75 809.99 268.77 1080 268.77 1080 1078.76 809.99 808.75"/><polygon class="cls-37" points="0 -1.21 809.99 -1.21 809.99 808.75 0 -1.21"/><path class="cls-24" d="m540.01,268.76V-1.22h269.99c0,149.1-120.88,269.98-269.99,269.98Z"/><path class="cls-39" d="m540.01,268.76V-1.22h-269.99c0,149.1,120.89,269.98,269.99,269.98Z"/><polygon class="cls-38" points="1080 808.75 1080 268.77 1620 268.77 1080 808.75"/><polygon class="cls-21" points="1350 808.76 1080 1078.75 1620 1078.75 1350 808.76"/><path class="cls-26" d="m1080,538.76h-269.99v-269.98c149.1,0,269.99,120.88,269.99,269.98Z"/><path class="cls-22" d="m810.01,808.5v-269.98h269.99c0,149.1-120.89,269.98-269.99,269.98Z"/><path class="cls-25" d="m1350.01,268.76V-1.23h269.99c0,149.1-120.89,269.98-269.99,269.98Z"/><g class="cls-4"><g class="cls-8"><line class="cls-9" x1="1080" y1="828.26" x2="810" y2="828.26"/><line class="cls-9" x1="1080" y1="847.5" x2="810" y2="847.5"/><line class="cls-9" x1="1080" y1="866.75" x2="810" y2="866.75"/><line class="cls-9" x1="1080" y1="886" x2="810" y2="886"/><line class="cls-9" x1="1080" y1="905.25" x2="810" y2="905.25"/><line class="cls-9" x1="1080" y1="924.5" x2="810" y2="924.5"/><line class="cls-9" x1="1080" y1="943.74" x2="810" y2="943.74"/><line class="cls-9" x1="1080" y1="962.99" x2="810" y2="962.99"/><line class="cls-9" x1="1080" y1="982.24" x2="810" y2="982.24"/><line class="cls-9" x1="1080" y1="1001.49" x2="810" y2="1001.49"/><line class="cls-9" x1="1080" y1="1020.74" x2="810" y2="1020.74"/><line class="cls-9" x1="1080" y1="1039.98" x2="810" y2="1039.98"/><line class="cls-9" x1="1080" y1="1059.23" x2="810" y2="1059.23"/></g></g><polygon class="cls-23" points="540.01 268.76 810.01 268.76 810.01 538.51 540.01 268.76"/><g class="cls-8"><path class="cls-7" d="m1349.73,785.76h0c135.91,0,246.09-110.17,246.09-246.08s-110.18-246.08-246.09-246.08h0c-135.91,0-246.09,110.17-246.09,246.08s110.18,246.08,246.09,246.08Z"/><path class="cls-7" d="m1349.73,766.21h0c125.11,0,226.54-101.42,226.54-226.53s-101.42-226.53-226.54-226.53h0c-125.11,0-226.54,101.42-226.54,226.53s101.42,226.53,226.54,226.53Z"/><path class="cls-7" d="m1349.73,746.66h0c114.32,0,206.99-92.67,206.99-206.98s-92.67-206.98-206.99-206.98h0c-114.32,0-206.99,92.67-206.99,206.98s92.67,206.98,206.99,206.98Z"/><path class="cls-7" d="m1349.73,727.11h0c103.52,0,187.44-83.92,187.44-187.43s-83.92-187.43-187.44-187.43h0c-103.52,0-187.44,83.92-187.44,187.43s83.92,187.43,187.44,187.43Z"/><path class="cls-7" d="m1349.73,707.56h0c92.72,0,167.89-75.16,167.89-167.88s-75.17-167.88-167.89-167.88h0c-92.72,0-167.89,75.16-167.89,167.88s75.17,167.88,167.89,167.88Z"/><path class="cls-7" d="m1349.73,688.01h0c81.93,0,148.34-66.41,148.34-148.34s-66.41-148.34-148.34-148.34h0c-81.93,0-148.34,66.41-148.34,148.34s66.41,148.34,148.34,148.34Z"/><path class="cls-7" d="m1349.73,668.46h0c71.13,0,128.79-57.66,128.79-128.79s-57.66-128.79-128.79-128.79h0c-71.13,0-128.79,57.66-128.79,128.79s57.66,128.79,128.79,128.79Z"/><path class="cls-7" d="m1349.73,648.92h0c60.33,0,109.24-48.91,109.24-109.24s-48.91-109.24-109.24-109.24h0c-60.33,0-109.24,48.91-109.24,109.24s48.91,109.24,109.24,109.24Z"/><path class="cls-7" d="m1349.73,629.37h0c49.53,0,89.69-40.15,89.69-89.69s-40.16-89.69-89.69-89.69h0c-49.53,0-89.69,40.15-89.69,89.69s40.16,89.69,89.69,89.69Z"/><path class="cls-7" d="m1349.73,609.82h0c38.74,0,70.14-31.4,70.14-70.14s-31.4-70.14-70.14-70.14h0c-38.74,0-70.14,31.4-70.14,70.14s31.4,70.14,70.14,70.14Z"/><path class="cls-7" d="m1349.73,590.27h0c27.94,0,50.59-22.65,50.59-50.59s-22.65-50.59-50.59-50.59h0c-27.94,0-50.59,22.65-50.59,50.59s22.65,50.59,50.59,50.59Z"/><path class="cls-7" d="m1349.73,570.72h0c17.14,0,31.04-13.9,31.04-31.04s-13.9-31.04-31.04-31.04h0c-17.14,0-31.04,13.9-31.04,31.04s13.9,31.04,31.04,31.04Z"/><path class="cls-7" d="m1349.73,551.17h0c6.35,0,11.49-5.14,11.49-11.49s-5.14-11.49-11.49-11.49h0c-6.35,0-11.49,5.14-11.49,11.49s5.14,11.49,11.49,11.49Z"/></g><g class="cls-3"><g class="cls-8"><line class="cls-9" x1="810.01" y1="288.01" x2="540.01" y2="288.01"/><line class="cls-9" x1="810.01" y1="307.26" x2="540.01" y2="307.26"/><line class="cls-9" x1="810.01" y1="326.51" x2="540.01" y2="326.51"/><line class="cls-9" x1="810.01" y1="345.76" x2="540.01" y2="345.76"/><line class="cls-9" x1="810.01" y1="365" x2="540.01" y2="365"/><line class="cls-9" x1="810.01" y1="384.25" x2="540.01" y2="384.25"/><line class="cls-9" x1="810.01" y1="403.5" x2="540.01" y2="403.5"/><line class="cls-9" x1="810.01" y1="422.75" x2="540.01" y2="422.75"/><line class="cls-9" x1="810.01" y1="442" x2="540.01" y2="442"/><line class="cls-9" x1="810.01" y1="461.24" x2="540.01" y2="461.24"/><line class="cls-9" x1="810.01" y1="480.49" x2="540.01" y2="480.49"/><line class="cls-9" x1="810.01" y1="499.74" x2="540.01" y2="499.74"/><line class="cls-9" x1="810.01" y1="518.99" x2="540.01" y2="518.99"/><line class="cls-9" x1="810.01" y1="538.24" x2="540.01" y2="538.24"/></g></g><polygon class="cls-41" points="540 -1.23 809.94 -1.23 810 -1.21 1619.98 808.77 1619.98 1078.75 540 -1.23"/><polygon class="cls-40" points="1350 1078.75 1350 808.75 1619.98 1078.75 1350 1078.75"/><polygon class="cls-44" points="1620 -1.24 1350.01 268.74 1620 268.74 1620 -1.24"/><polygon class="cls-42" points="810.01 268.76 810 809.01 1080 538.51 810.01 268.76"/><polygon class="cls-43" points="1350.01 268.74 1350 538.76 1620 268.77 1350.01 268.74"/></g></g></g></g></g></svg>